<?xml version="1.0" encoding="utf-8"?>
<!-- Generator: Adobe Illustrator 26.1.0, SVG Export Plug-In . SVG Version: 6.00 Build 0)  -->
<svg version="1.1" id="圖層_1" xmlns="http://www.w3.org/2000/svg" xmlns:xlink="http://www.w3.org/1999/xlink" x="0px" y="0px"
	 viewBox="0 0 800 137.9" style="enable-background:new 0 0 800 137.9;" xml:space="preserve">
<style type="text/css">
	.st0{fill:#FFFFFF;}
</style>
<g>
	<g>
		<path class="st0" d="M366,54.9c-6,8.4-12.5,16.2-19.5,23.4c12.7-0.3,26.6-0.5,41.7-0.5c-3.2-3.9-6.6-7.8-10.3-11.7l8.8-5.6
			c9.1,9.4,17.1,18.8,23.7,28.3l-9.9,5.9c-1.4-2.1-2.7-4.3-4.2-6.4c-24.6,0.2-47.2,1.1-67.5,2.6l-1.9-12.1c3.9-0.5,7.4-2.3,10.3-5.3
			c6.3-6.6,12.5-14.2,18.7-22.9L366,54.9z M334.7,96.3H399v41.1h-11.2v-4.7h-41.9v4.7h-11.2V96.3z M387.8,106.7h-41.9v15.5h41.9
			V106.7z"/>
		<path class="st0" d="M444.8,137h-10.5v-18.9c-3.9,5-8.5,9.9-13.6,14.6l-5.7-9.9c6.9-5.3,12.6-11,17.1-17.1h-15v-9.8h17.3v-7h-15.9
			v-9.8h7.4l-1.9-10.9h-5.1v-9.8h15.6c-0.4-2.1-0.9-4.5-1.5-6.9l10.4-0.6c0.6,2.6,1.1,5.1,1.6,7.6h15v9.8h-4.7L453,79.1h6.7v9.8h-15
			v7h16.4v9.8h-16.4v8.2l4.6-5.7c3.9,3.3,7.4,6.7,10.4,10.1l-6.3,7.6c-2.4-3.4-5.3-6.7-8.7-10V137z M435.2,79.1h8.3l1.9-10.9h-11.9
			L435.2,79.1z M484.2,137V90.6H475v6c-0.1,16.1-3.7,29.6-11.1,40.6l-9-7.1c6.4-8.8,9.6-20.1,9.7-33.5V58.3
			c10.9-1.1,21.6-3,32.5-5.7l5.5,9.7c-8.2,2.1-17.3,3.8-27.5,5.1v12.9h27.5v10.5h-7.3V137H484.2z"/>
		<path class="st0" d="M556,101.6c-12.6,1.6-26.3,2.4-41.1,2.5l-0.1-5.7c5.6-0.1,10.9-0.2,16.3-0.3v-3.6H519v-2.6
			c-0.6,0.2-1.3,0.4-1.9,0.6l-2.7-6.6c3.5-0.5,5.9-1.3,7.5-2.4c0.8-0.6,1.6-1.5,2.4-2.6H515v-4.7h16.6v-3.5h-14.1v-4.7h14.1v-3.4
			h2.6v-2.9h-20.3v-7.7h20.3v-3.4h10.9v3.4h23v-3.4H579v3.4h19.4v7.7H579v4.3h-4.7v4.5h16.6c-0.3,4.8-0.4,9.5-0.4,14.1
			c0,4.7,0.5,7.1,1.6,7.3c1.1,0,2.5-2.5,4.2-7.4l3.4,7.7c-0.6,3.4-1.7,6.1-3.3,8.2c-1.5,2-3.1,3-4.7,3c-3.1,0-5.4-1.4-6.8-4.2
			c-1.6-2.8-2.3-6.7-2.4-11.8c-0.1-3.1-0.1-6.5,0-10h-8.1c-0.2,3.4-0.6,6.7-1.4,9.8c3,1.8,5.8,3.7,8.6,5.8l-5.5,6.5
			c-1.9-1.6-3.9-3.1-6-4.6c-1.8,3.6-4.2,6.9-7.1,9.8l-6.7-7c2.6-2.4,4.7-5,6.2-7.8c-1.8-1-3.7-2.1-5.7-3.1l5-6.1
			c1.1,0.5,2.2,1.1,3.3,1.7c0.3-1.7,0.5-3.4,0.6-5.1h-7.2v-6.9h7.2v-5.8h2.5v-2.9h-23v3.9h-3.7v2.4h13.2v4.7h-13.2v3.5h15V81h-7.5
			v1.6c0,0.8,0.5,1.3,1.3,1.3h5.8v4.4h-7.1c-4.1,0-6.2-2.1-6.2-6.2V81h-11.2c-1,2.9-2.4,5.1-4,6.6c-1,0.7-2.3,1.6-3.6,2.4h7.3v-4.3
			h10.1V90h12.7v4.5h-12.7v3.3c4.8-0.3,9.7-0.6,14.3-1L556,101.6z M513.9,116.1h84.5v6.2h-16.3c4.5,2.6,9.2,5.5,14.2,8.8l-7.9,6.2
			c-2.3-1.6-4.5-3.2-6.6-4.7c-21.5,0.4-41,1.2-58.6,2.4l-2-8.4c2.5-0.4,5.3-1.7,8.7-4c0.1-0.1,0.3-0.2,0.4-0.3h-16.2V116.1z
			 M520.4,106.2h72v6.2h-72V106.2z M569,122.3h-26.3c-1.9,1.4-3.7,2.6-5.5,3.9c10.6-0.2,22.1-0.3,34.5-0.3c-1.6-0.9-3-1.8-4.4-2.6
			L569,122.3z"/>
		<path class="st0" d="M611.1,70c6.1-5.3,11.4-11.7,15.9-19.2l9.7,4.3c-5.1,9.1-11.9,17.2-20.4,24.3L611.1,70z M630.1,137.2h-10.6
			v-31.3c-2,2.3-4,4.5-6,6.7l-2.2-14.1c6.7-6.5,12.3-14.3,17.1-23.3l8.5,3.8v-8.6h10.7V51.6h10.1v18.7h11.2v10.6h-11.2v56.3h-10.1
			V80.9H637c-2.3,3.7-4.6,7.4-6.9,10.9V137.2z M644,88.7v10.7c0,11.3-1.6,20.5-4.7,27.6l-7.7-5.3c3.2-5.7,4.7-13.1,4.7-22.3V88.7
			H644z M664.2,68.7c-1.4-4.4-3.1-8.5-5.1-12.3l6.7-3c2.3,4,4.3,8.2,5.9,12.5L664.2,68.7z M661.2,88.7h7.7v24.5
			c0,0.8,0.5,1.3,1.3,1.3h4.8v9.8h-7.5c-4.2,0-6.3-2.1-6.3-6.2V88.7z M690.8,91.2v37.7c0,5.4-2.5,8.1-7.5,8.1H672l-2-10.9h7.5
			c2.1,0,3.1-1,3.1-3.1V91.2h-10.3V80.7h28.2v10.5H690.8z M672.8,56.1h23.5v10.5h-23.5V56.1z"/>
		<path class="st0" d="M743.3,66v39.4h-9.8V87.6h-5.1c-0.3,8.8-4.2,15.2-11.6,19.3l-6.8-7.5c5.7-2.6,8.8-6.7,9.3-11.9h-8.4v-8.4
			h22.6v-6h-18V53h9.5v12.1h8.5v-14h9.8v14.3c7-3.9,13-8.8,17.8-14.5l9.2,0.6c-1,1.5-2.1,2.9-3.2,4.4h26.7V63
			c-4.5,5.7-10,10.2-16.6,13.6h10.2v6.2h8.9v7.7h-8.9v5.1c0,5.4-2.5,8.1-7.5,8.1h-12.6l-1.9-8.4h8.4c2.1,0,3.1-1,3.1-3.1v-1.7h-19.4
			c2.8,2.4,5.2,4.7,7.2,7.2l-7.3,4.8c-1.8-2.4-4.6-5.1-8.1-8.3l5.7-3.7h-9.2v-7.7h3.8l-3-6.9c3.7-0.5,7.3-0.8,10.6-1.3
			c-1-1-2.1-2-3.2-3l5-5c2.8,2.6,5,4.7,6.5,6.1c1.4-0.5,2.6-0.8,3.9-1.3c-1.7-1.6-3.6-3.4-5.7-5.1l3.2-3.3h-5.9
			c-3.4,3.2-6.9,6.1-10.9,8.7L743.3,66z M712.7,137l-2.6-10.1c15.8-1.4,26.5-4.4,32.3-8.8h-31.2v-8.8h36.1c0-0.3,0-0.5,0.1-0.7v-4.3
			h10.5v4.3c-0.1,0.3-0.1,0.5,0,0.7h11.6c-0.5-1.2-0.9-2.6-1.5-4l8.9-1.2c0.8,1.7,1.6,3.5,2.2,5.2H796v8.8h-31.6
			c8.2,5,19.1,7.8,32.5,8.6l-4,10.4c-16.9-1.9-29.9-7.2-39.1-16.1C747.4,129.5,733.8,134.7,712.7,137z M756.6,82.8H777v-6.1
			c-0.1,0-0.1,0-0.2,0.1C771.4,79.4,764.7,81.4,756.6,82.8z M770.7,63c2.3,2,4,3.6,5.4,5c2.3-1.5,4.4-3.1,6.4-5H770.7z"/>
	</g>
	<g>
		<path class="st0" d="M344.2,26.1c0,2.2,0.1,3.8,0.3,5.5h-8.1c0.2-1.7,0.3-3.2,0.3-5.5V7.7h-4.3c-2.3,0-2.9,0-5.5,0.3V1
			c1.2,0.1,3.2,0.3,5.4,0.3h16c2.6,0,4-0.1,5.7-0.3v7c-1.6-0.2-3.1-0.3-5.7-0.3h-4.1V26.1z"/>
		<path class="st0" d="M374.6,31.7c-0.3-1.8-0.5-2.7-0.9-3.9l-1-3.1h-10.4l-1,3.1c-0.5,1.5-0.7,2.6-0.9,3.9h-8.6
			c0.5-1.1,0.9-2,1.8-4.5l7.9-22c0.7-1.8,1-2.9,1.2-3.9h9.5c0.3,1.1,0.5,2,1.2,3.9l7.9,22c0.7,1.9,1.3,3.4,1.8,4.5H374.6z
			 M367.5,7.5l-3.4,11h6.9L367.5,7.5z"/>
		<path class="st0" d="M393.7,1.3c-0.2,1.5-0.3,2.7-0.3,5.4v19.6c0,2.5,0.1,3.9,0.3,5.4h-8c0.2-1.4,0.3-3,0.3-5.4V6.7
			c0-2.7-0.1-3.8-0.3-5.4H393.7z"/>
		<path class="st0" d="M405,21.8c0.1,1.3,0.4,2,1,2.7c0.9,1.1,2.4,1.7,4.3,1.7c2.8,0,4.5-1.2,4.5-3.3c0-1.1-0.6-2.1-1.5-2.6
			c-0.8-0.4-1.7-0.6-5.5-1.5c-3.4-0.7-4.5-1.2-5.9-2.1c-2.3-1.6-3.5-4.1-3.5-7c0-5.6,4.5-9.2,11.7-9.2c4.6,0,8.2,1.4,10.2,4.2
			c0.9,1.2,1.4,2.3,1.8,4.4l-7.7,0.8c-0.4-2.4-1.8-3.4-4.5-3.4c-2.2,0-3.9,1.2-3.9,2.9c0,1,0.5,1.8,1.7,2.3c0.7,0.3,0.7,0.3,5,1.2
			c2.8,0.6,4.5,1.2,5.9,2.1c2.6,1.6,3.9,4.1,3.9,7.5c0,2.7-0.9,5.1-2.6,6.7c-2.1,2-5.3,3.1-9.6,3.1c-3.1,0-6.2-0.7-8.1-1.8
			c-1.8-1-3.2-2.6-3.9-4.7c-0.4-0.9-0.5-1.7-0.8-3.4L405,21.8z"/>
		<path class="st0" d="M453.6,1.3c-0.2,1.5-0.3,2.9-0.3,5.4v19.6c0,2.4,0.1,3.6,0.3,5.4h-7.9c0.2-1.5,0.3-2.9,0.3-5.4v-7.1h-12.3
			v7.1c0,2.4,0.1,3.8,0.3,5.4h-7.9c0.2-1.5,0.3-2.9,0.3-5.4V6.7c0-2.5-0.1-3.8-0.3-5.4h7.9c-0.2,1.7-0.3,3.1-0.3,5.4v6.1h12.3V6.7
			c0-2.5-0.1-4-0.3-5.4H453.6z"/>
		<path class="st0" d="M466.2,1.3c-0.2,1.5-0.3,2.7-0.3,5.4v19.6c0,2.5,0.1,3.9,0.3,5.4h-8c0.2-1.4,0.3-3,0.3-5.4V6.7
			c0-2.7-0.1-3.8-0.3-5.4H466.2z"/>
		<path class="st0" d="M488.2,16.2c1.1,1.6,1.8,2.7,2.6,4.3c-0.1-1.7-0.2-3.4-0.2-5.4V6.8c0-2.4-0.1-3.9-0.3-5.6h7.8
			c-0.2,1.6-0.3,3.2-0.3,5.6v19.4c0,2.2,0.1,3.9,0.3,5.4h-8c-0.7-1.4-1.5-2.7-2.7-4.6l-6.8-10.2c-1-1.5-1.6-2.6-2.6-4.5
			c0.2,1.6,0.3,3.7,0.3,5.4V26c0,2.5,0.1,4.1,0.3,5.7h-7.8c0.2-1.4,0.3-3,0.3-5.7V6.7c0-2.1-0.1-3.8-0.3-5.4h7.9
			c0.4,1,1.2,2.4,2.6,4.6L488.2,16.2z"/>
		<path class="st0" d="M532.8,31.7c-0.3-1.8-0.5-2.7-0.9-3.9l-1-3.1h-10.4l-1,3.1c-0.5,1.5-0.7,2.6-0.9,3.9h-8.6
			c0.5-1.1,0.9-2,1.8-4.5l7.9-22c0.7-1.8,1-2.9,1.2-3.9h9.5c0.3,1.1,0.5,2,1.2,3.9l7.9,22c0.7,1.9,1.3,3.4,1.8,4.5H532.8z
			 M525.7,7.5l-3.4,11h6.9L525.7,7.5z"/>
		<path class="st0" d="M562.4,31.7c-0.2-1.2-0.7-2.7-1.8-5.7c-1.2-3.2-1.6-4-2.5-4.8c-0.8-0.7-1.7-1-2.9-1h-3.7v6
			c0,2.5,0.1,3.8,0.3,5.5h-7.9c0.2-1.7,0.3-2.8,0.3-5.5V6.5c0-2.3-0.1-3.6-0.3-5.4c1.6,0.1,3,0.1,5.4,0.1h9.5c5.9,0,9.4,3.1,9.4,8.3
			c0,2.6-0.7,4.6-2.2,6c-0.9,0.8-1.7,1.2-3.5,1.8c1.9,0.6,2.7,1.4,3.9,4c0.5,1.2,1.1,2.4,2.7,6.4c0.4,1,0.8,1.9,1.8,3.9H562.4z
			 M557.2,13.9c2.2,0,3.5-1.3,3.5-3.4c0-2-1.2-3.1-3.4-3.1h-5.7v6.5H557.2z"/>
		<path class="st0" d="M589.6,26.1c0,2.2,0.1,3.8,0.3,5.5h-8.1c0.2-1.7,0.3-3.2,0.3-5.5V7.7h-4.3c-2.3,0-2.9,0-5.5,0.3V1
			c1.2,0.1,3.2,0.3,5.4,0.3h16c2.6,0,4-0.1,5.7-0.3v7c-1.6-0.2-3.1-0.3-5.7-0.3h-4.1V26.1z"/>
		<path class="st0" d="M608.9,21.8c0.1,1.3,0.4,2,0.9,2.7c0.9,1.1,2.4,1.7,4.3,1.7c2.8,0,4.5-1.2,4.5-3.3c0-1.1-0.6-2.1-1.5-2.6
			c-0.8-0.4-1.7-0.6-5.5-1.5c-3.4-0.7-4.5-1.2-5.9-2.1c-2.3-1.6-3.5-4.1-3.5-7c0-5.6,4.5-9.2,11.7-9.2c4.6,0,8.2,1.4,10.2,4.2
			c0.9,1.2,1.4,2.3,1.8,4.4l-7.7,0.8c-0.4-2.4-1.8-3.4-4.5-3.4c-2.2,0-3.9,1.2-3.9,2.9c0,1,0.5,1.8,1.7,2.3c0.7,0.3,0.7,0.3,5,1.2
			c2.8,0.6,4.5,1.2,5.9,2.1c2.6,1.6,3.9,4.1,3.9,7.5c0,2.7-0.9,5.1-2.6,6.7c-2.1,2-5.3,3.1-9.6,3.1c-3.1,0-6.2-0.7-8.1-1.8
			c-1.8-1-3.2-2.6-3.9-4.7c-0.4-0.9-0.5-1.7-0.8-3.4L608.9,21.8z"/>
		<path class="st0" d="M660.2,31.7c-0.3-1.8-0.5-2.7-0.9-3.9l-1-3.1H648l-1,3.1c-0.5,1.5-0.7,2.6-0.9,3.9h-8.6
			c0.5-1.1,0.9-2,1.8-4.5l7.9-22c0.7-1.8,1-2.9,1.2-3.9h9.5c0.3,1.1,0.5,2,1.2,3.9l7.9,22c0.7,1.9,1.3,3.4,1.8,4.5H660.2z
			 M653.1,7.5l-3.4,11h6.9L653.1,7.5z"/>
		<path class="st0" d="M691.7,31.7c-0.1-1.2-0.4-2.4-0.8-3.9L688.2,17c-0.4-1.4-0.7-3.1-1-5.5c-0.2,1.5-0.7,3.8-1.1,5.5l-2.7,10.8
			c-0.5,1.8-0.7,2.9-0.8,3.9h-7.3c-0.2-1.1-0.4-1.8-0.9-3.9l-5.8-21.9c-0.5-1.9-1-3.5-1.4-4.5h8.3c0,1.3,0.2,2.5,0.5,4l2.3,11.1
			c0.1,0.5,0.4,2.3,0.8,5.2c0.5-3.1,0.8-4.4,1-5.2L683,5.1c0.4-1.6,0.7-2.8,0.8-3.8h6.5c0.1,0.9,0.4,2,0.8,3.7l3,11.3
			c0.3,1.2,0.5,2.4,1,5.3c0.1-0.7,0.1-0.7,0.3-2.2c0.1-0.8,0.4-2.6,0.5-3.1l2.3-10.9c0.4-1.7,0.5-2.7,0.5-4h8.3
			c-0.4,1-0.9,2.7-1.4,4.5l-5.8,21.9c-0.5,1.7-0.8,3.1-0.9,4H691.7z"/>
		<path class="st0" d="M728.2,31.7c-0.3-1.8-0.5-2.7-0.9-3.9l-1-3.1h-10.4l-1,3.1c-0.5,1.5-0.7,2.6-0.9,3.9h-8.6
			c0.5-1.1,0.9-2,1.8-4.5l7.9-22c0.7-1.8,1-2.9,1.2-3.9h9.5c0.3,1.1,0.5,2,1.2,3.9l7.9,22c0.7,1.9,1.3,3.4,1.8,4.5H728.2z
			 M721.1,7.5l-3.4,11h6.9L721.1,7.5z"/>
		<path class="st0" d="M757.7,31.7c-0.2-1.2-0.7-2.7-1.8-5.7c-1.2-3.2-1.6-4-2.5-4.8c-0.8-0.7-1.7-1-2.9-1h-3.7v6
			c0,2.5,0.1,3.8,0.3,5.5h-7.9c0.2-1.7,0.3-2.8,0.3-5.5V6.5c0-2.3-0.1-3.6-0.3-5.4c1.6,0.1,3,0.1,5.4,0.1h9.5c5.9,0,9.4,3.1,9.4,8.3
			c0,2.6-0.7,4.6-2.2,6c-0.9,0.8-1.7,1.2-3.5,1.8c1.9,0.6,2.7,1.4,3.9,4c0.5,1.2,1.1,2.4,2.7,6.4c0.4,1,0.8,1.9,1.8,3.9H757.7z
			 M752.6,13.9c2.2,0,3.5-1.3,3.5-3.4c0-2-1.2-3.1-3.4-3.1h-5.7v6.5H752.6z"/>
		<path class="st0" d="M769.7,6.5c0-2.5-0.1-3.7-0.3-5.4c1.5,0.1,2.4,0.1,5.4,0.1h7.6c4.5,0,8.1,1.2,10.6,3.6c2.7,2.6,4,6.5,4,11.3
			c0,5-1.5,9-4.2,11.8c-2.4,2.4-5.9,3.7-10.3,3.7h-7.7c-2.8,0-3.8,0-5.4,0.1c0.2-1.6,0.3-2.8,0.3-5.3V6.5z M781.8,25.3
			c2.4,0,4.1-0.6,5.4-1.9c1.5-1.5,2.3-4,2.3-7c0-3.1-0.7-5.4-2.1-6.8c-1.3-1.3-3-1.9-5.7-1.9h-4.8v17.6H781.8z"/>
	</g>
	<g>
		<g>
			<path class="st0" d="M26.7,134.5c-14.2,0-17.8,0.2-23.6,0.6c0.6-7.7,1.4-12.5,3.3-18.6c4.1-13.1,11.7-25.1,22.7-35.3
				c6-5.5,12-10.1,28.1-21C70.7,51.1,74,47,74,39.8c0-7.6-6.8-12.6-16.9-12.6c-7.6,0-12.9,2.5-16.4,7.9c-2.2,3.5-3.2,6.6-3.9,13.2
				L3.7,44.8C6,31.1,8.9,24.2,15.2,16.8C24.2,6.2,38.5,0.5,57,0.5c21.3,0,37.5,7.1,45.4,19.9c3.5,5.5,5.2,11.7,5.2,18.4
				c0,11.5-4.7,21.3-14.5,29.3c-5.2,4.6-6.8,5.7-22.9,16.9C56.5,94.5,50.7,100,47,107h36.7c11.8,0,19.1-0.3,25.2-1.1v29.8
				c-9.1-0.8-15.8-1.1-27-1.1H26.7z"/>
			<path class="st0" d="M136.3,122.7c-5.2-5.2-9.1-11.2-11.5-17.5c-4.1-11.2-6.1-23.3-6.1-36.1c0-16.6,3.9-33.7,9.9-43.7
				c9.6-16.1,26-24.9,45.9-24.9c15.3,0,28.7,5.2,38.3,14.7c5.2,5.2,9.1,11.2,11.5,17.5c4.1,11.2,6.1,23.3,6.1,36.3
				c0,16.6-3.9,33.9-9.9,43.8c-9.5,15.8-26,24.6-46,24.6C159,137.4,145.9,132.3,136.3,122.7z M150.9,67.9c0,28.2,8,42.7,23.7,42.7
				c15.5,0,23.3-14.2,23.3-42.3c0-27-8.2-41.2-23.5-41.2C159.6,27.2,150.9,42.2,150.9,67.9z"/>
		</g>
		<g>
			<path class="st0" d="M244.7,11.5c0-2.7-0.1-4.9-0.4-7.5h11.2c-0.3,2.2-0.4,4.9-0.4,7.5v1.2h2c2.4,0,3.7-0.1,5.4-0.3v9.1
				c-1.6-0.2-3.1-0.3-5-0.3H255v14c0,1.5,0.3,2.3,1,2.8c0.6,0.4,1.5,0.6,2.5,0.6c1.4,0,2.5-0.3,3.8-1l0.8,8.3
				c-2.5,0.8-4.6,1.1-7.6,1.1c-3.7,0-6.3-0.6-8-1.9c-2.1-1.6-2.8-3.4-2.8-7.2V21.2h-2.1c-1.8,0-3.2,0.1-4.8,0.3v-9.1
				c1.6,0.2,3,0.3,4.9,0.3h2V11.5z"/>
			<path class="st0" d="M268.8,46.1c0.3-2.6,0.4-4.9,0.4-8.3v-29c0-3.8-0.1-6.1-0.4-8.3h11.3c-0.3,2.4-0.4,4.4-0.4,8.3v5.8
				c0,0.4-0.1,1.3-0.1,1.8c3.3-3.2,6.7-4.5,11.4-4.5c3.7,0,6.7,1,8.7,3.1c2.2,2.2,3.1,4.9,3.1,9.2v13.7c0,3.2,0.2,5.9,0.4,8.2h-11.4
				c0.3-2.6,0.4-4.9,0.4-8.3V26.6c0-2.2-0.2-3.2-0.9-4.1c-0.8-1-2-1.5-3.5-1.5c-3.1,0-6.1,2.1-8.3,5.7v11.1c0,3.1,0.1,5.4,0.4,8.3
				H268.8z"/>
		</g>
	</g>
</g>
</svg>
