<svg width="55" height="54" viewBox="0 0 55 54" fill="none" xmlns="http://www.w3.org/2000/svg">
<path fill-rule="evenodd" clip-rule="evenodd" d="M7.25 27C7.25 37.0125 14.5625 45.3375 24.125 47.025L24.2379 46.9347C24.2003 46.9274 24.1626 46.92 24.125 46.9125V32.625H19.0625V27H24.125V22.5C24.125 17.4375 27.3875 14.625 32 14.625C33.4625 14.625 35.0375 14.85 36.5 15.075V20.25H33.9125C31.4375 20.25 30.875 21.4875 30.875 23.0625V27H36.275L35.375 32.625H30.875V46.9125C30.8374 46.92 30.7997 46.9274 30.7621 46.9347L30.875 47.025C40.4375 45.3375 47.75 37.0125 47.75 27C47.75 15.8625 38.6375 6.75 27.5 6.75C16.3625 6.75 7.25 15.8625 7.25 27Z" fill="white"/>
</svg>
