<svg width="97" height="358" viewBox="0 0 97 358" fill="none" xmlns="http://www.w3.org/2000/svg">
<g clip-path="url(#clip0_312_35377)">
<path d="M10.3831 17.7231C7.96931 20.1401 4.99408 21.9262 1.72138 22.9229C1.27141 22.0745 0.725989 21.2799 0.0956264 20.5544C3.24463 19.8935 6.17342 18.4462 8.60703 16.3482H4.24886C4.1259 16.7838 4.05758 17.0016 3.87998 17.6005H0.956316C1.94913 15.2775 2.55369 12.8083 2.74603 10.2908C3.19688 10.2908 3.90731 10.3589 5.12322 10.3589H10.2465V8.73901H4.65872C3.88756 8.727 3.11641 8.76337 2.34984 8.84791V6.42495C2.0766 6.69719 1.95364 6.80608 1.59843 7.11916C1.16069 6.37416 0.617778 5.69569 -0.0136719 5.10457C1.80837 3.88936 3.18452 2.11691 3.90731 0.0544434L6.6397 0.558108C6.29815 1.19788 6.18887 1.40206 5.90196 1.91932H9.09886C9.917 1.95066 10.7362 1.9005 11.5443 1.76959V3.78418C12.4823 2.70727 13.1725 1.4389 13.5663 0.0680688L16.2167 0.544482C16.0304 1.00848 15.8207 1.4628 15.5883 1.9057H20.329C21.2425 1.93914 22.1571 1.88902 23.0614 1.75596V4.32866C22.1912 4.22427 21.3145 4.18333 20.4383 4.20616H18.4573C18.9355 4.90038 19.1541 5.2679 19.5503 5.92128L17.501 6.52022H18.7032C19.479 6.54044 20.2553 6.50404 21.0258 6.41132C20.9482 7.00698 20.9162 7.60765 20.9301 8.20814V10.7672C20.9173 11.3768 20.9493 11.9864 21.0258 12.5913C20.3973 12.5913 19.6596 12.5096 18.7032 12.5096H12.9379V14.1839H20.0558C20.7724 14.1977 21.4892 14.1613 22.2007 14.075C22.1535 14.3315 22.1216 14.5906 22.1051 14.8509C22.0231 15.8037 21.9274 16.5932 21.8728 17.2194C21.6269 19.6287 21.4493 20.2821 20.9438 20.8538C20.4383 21.4255 19.7279 21.6025 18.0201 21.6025C17.2824 21.6025 16.7769 21.6025 15.7112 21.4936C15.6007 20.6592 15.3897 19.8411 15.0828 19.057C16.0255 19.1795 17.2277 19.302 17.8152 19.302C19.1814 19.302 19.2634 19.1795 19.441 16.389H12.9925V20.5544C12.9869 21.4659 13.0555 22.3763 13.1975 23.2768H10.2465C10.3671 22.5665 10.4175 21.8462 10.3967 21.1261V20.4863L10.3831 17.7231ZM6.84462 6.47939C6.54247 5.6647 6.16278 4.88069 5.7107 4.13809H4.3445C3.77255 4.94757 3.11781 5.69571 2.39083 6.37049C3.14755 6.46353 3.9102 6.49993 4.67237 6.47939H6.84462ZM10.3148 12.4688H5.19154C5.0959 13.0949 5.06857 13.2446 4.86364 14.143H10.3284L10.3148 12.4688ZM11.681 6.47939C11.2251 5.90451 10.6865 5.39995 10.0825 4.98206C10.506 4.62815 10.629 4.50562 10.9842 4.17893C10.588 4.17893 10.1098 4.17893 9.618 4.17893H8.2518C8.55237 4.64174 8.70266 4.90038 9.24914 5.86684L7.17252 6.52022L11.681 6.47939ZM16.9818 6.47939C16.6142 5.67625 16.1848 4.9026 15.6976 4.16532H14.1811C13.6026 5.01461 12.9237 5.79153 12.1591 6.47939H16.9818ZM12.8832 10.3044H18.348V8.73901H12.8832V10.3044Z" fill="white"/>
<path d="M47.3659 20.459C46.1633 20.3332 44.9546 20.2741 43.7455 20.282H29.0998C27.8407 20.2746 26.582 20.3337 25.3291 20.459V17.2193C26.5575 17.3652 27.7947 17.4243 29.0315 17.3963H43.6635C44.9002 17.4181 46.137 17.359 47.3659 17.2193V20.459ZM27.6517 2.76318C28.7821 2.87382 29.9177 2.9238 31.0535 2.91292H41.4639C42.6227 2.94244 43.7821 2.89241 44.934 2.76318V6.01649C43.7908 5.89298 42.6409 5.84296 41.4912 5.86676H31.0945C29.9449 5.84993 28.7954 5.89993 27.6517 6.01649V2.76318Z" fill="white"/>
<path d="M59.2792 3.29407C59.2914 2.24313 59.2321 1.19259 59.1016 0.149658H62.4761C62.3448 1.19251 62.2855 2.24312 62.2985 3.29407V8.73893H69.1295C70.1971 8.75038 71.2645 8.70038 72.3264 8.5892V11.7064C71.2644 11.5969 70.1971 11.547 69.1295 11.5567H62.2985V19.724C62.2885 20.888 62.3478 22.0516 62.4761 23.2087H59.1016C59.2202 22.0509 59.2795 20.8878 59.2792 19.724V11.5567H52.8581C51.8177 11.5454 50.7776 11.5954 49.7432 11.7064V8.5892C50.7777 8.69948 51.8177 8.74948 52.8581 8.73893H59.2792V3.29407Z" fill="white"/>
<path d="M78.966 7.77245C79.0216 11.0838 78.7609 14.3928 78.1873 17.6549C77.8627 19.5683 77.2062 21.4108 76.2473 23.0998C75.608 22.2101 74.789 21.4636 73.8428 20.9082C74.7073 19.5 75.2875 17.9371 75.5505 16.3073C76.1223 12.2497 76.3644 8.15275 76.2746 4.05634C76.2888 2.99254 76.2386 1.92887 76.1243 0.871094C76.9987 0.939155 77.9004 0.993598 79.3895 0.993598H93.0515C94.0094 1.00904 94.9674 0.96814 95.9205 0.871094C95.8547 1.6133 95.8319 2.35867 95.8522 3.10349V5.71702C95.8306 6.43918 95.8534 7.16197 95.9205 7.88135C95.2238 7.88135 94.2948 7.81331 93.1881 7.81331L78.966 7.77245ZM93.2564 5.43118V3.4574H79.0207V5.43118H93.2564ZM95.9888 9.58287C95.9205 10.386 95.8659 11.5022 95.8659 12.4414V20.459C95.8424 21.369 95.8927 22.2795 96.0162 23.1814H93.2838V21.97H82.6684V23.2087H79.936C80.0413 22.305 80.0915 21.3959 80.0863 20.4862V12.3189C80.1131 11.3866 80.0674 10.4537 79.9497 9.52843H82.7777C82.6997 10.3336 82.6678 11.1426 82.6821 11.9514V19.6287H93.2154V12.142C93.2352 11.2871 93.1941 10.4319 93.0925 9.58287H95.9888ZM86.6031 10.2363C86.6049 9.60254 86.5547 8.96973 86.4528 8.34418H89.1852C89.086 8.96064 89.0449 9.58496 89.0622 10.209V10.9986H90.5104C91.1267 11.0152 91.7434 10.9833 92.3548 10.9033V13.3671C91.7431 13.2905 91.1267 13.2586 90.5104 13.2718H89.0622V15.9942H90.1278C90.7396 16.0061 91.3514 15.9743 91.9585 15.8989V18.2674C91.3502 18.2093 90.7389 18.1866 90.1278 18.1994H85.6194C85.0348 18.1791 84.4495 18.211 83.8707 18.2947V15.8309C84.4409 15.9098 85.0166 15.9416 85.5921 15.9261H86.5621V13.2037H85.1959C84.6114 13.1935 84.027 13.2254 83.4471 13.299V10.8352C84.017 10.9172 84.593 10.9491 85.1685 10.9305H86.5347L86.6031 10.2363Z" fill="white"/>
<path d="M28.2666 33.1048C24.2128 38.78 19.7325 44.1405 14.8642 49.1399C23.5805 48.9629 33.1576 48.8268 43.486 48.7724C41.3001 46.0499 38.9775 43.4636 36.4091 40.782L42.4204 36.9706C48.351 43.0057 53.7961 49.496 58.7054 56.3816L51.8745 60.4652C50.9318 59.0359 49.9891 57.5386 48.9918 56.1093C32.0783 56.2318 16.6129 56.858 2.65038 57.9061L1.28418 49.6163C3.98753 49.2456 6.48352 47.9685 8.36107 45.9955C13.0082 41.082 17.2997 35.8463 21.2033 30.3279L28.2666 33.1048ZM6.78995 61.4317H50.9454V89.5817H43.2401V86.3964H14.5499V89.5817H6.84459L6.78995 61.4317ZM43.2401 68.6325H14.5499V79.25H43.2401V68.6325Z" fill="white"/>
<path d="M20.4793 156.499H13.2794V143.581C10.4478 147.155 7.32698 150.492 3.94831 153.559L0 146.753C4.446 143.42 8.38897 139.468 11.7083 135.019H1.37985V128.335H13.2794V123.53H2.34986V116.86H7.41846L6.05226 109.428H2.54113V102.622H13.2521C13.0062 101.261 12.6237 99.5729 12.1865 97.885L19.3317 97.4495C19.7689 99.2599 20.0831 100.948 20.3973 102.622H30.6575V109.428H27.4742L26.108 116.874H30.7394V123.544H20.4793V128.349H31.7504V135.033H20.4793V140.641L23.6079 136.775C26.1653 138.893 28.55 141.21 30.7394 143.704L26.4222 148.876C24.635 146.447 22.6471 144.17 20.4793 142.07V156.499ZM13.8942 116.874H19.5913L20.9575 109.442H12.7603L13.8942 116.874ZM47.5846 156.499V124.796H41.2591V128.88C41.2591 139.919 38.7044 149.148 33.6221 156.635L27.4742 151.816C31.8597 145.759 34.0593 138.082 34.1139 128.921V102.663C41.6334 101.902 49.0859 100.587 56.4103 98.729L60.1673 105.345C53.9602 106.892 47.664 108.061 41.3138 108.843V117.636H60.1673V124.81H55.167V156.513L47.5846 156.499Z" fill="white"/>
<path d="M29.4966 199.445C20.1201 200.557 10.6863 201.121 1.24369 201.133V197.199L12.4465 197.023V194.518H4.12637V192.776C3.66172 192.89 3.2053 193.036 2.76017 193.211L0.888466 188.719C2.7034 188.582 4.46172 188.027 6.02538 187.099C6.65735 186.604 7.20614 186.011 7.65116 185.343H1.3803V182.104H12.7744V179.735H3.06074V176.495H12.7744V174.181H14.5914V172.18H0.628906V166.94H14.5914V164.639H22.0099V166.94H37.7895V164.639H45.2352V166.94H58.5693V172.18H45.2352V175.121H42.0383V178.17H53.4324C53.2548 181.477 53.1865 184.663 53.1865 187.848C53.1865 191.033 53.5554 192.707 54.2521 192.844C54.9489 192.98 55.9462 191.156 57.1348 187.78L59.4437 193.021C59.1253 195.039 58.3549 196.961 57.1895 198.642C56.8467 199.204 56.3788 199.678 55.822 200.03C55.2652 200.382 54.6345 200.601 53.9789 200.671C52.9979 200.711 52.027 200.459 51.1901 199.948C50.3531 199.436 49.6879 198.688 49.2792 197.798C48.1121 195.281 47.5552 192.525 47.6534 189.754C47.5851 187.63 47.5851 185.316 47.6534 182.948H42.0793C41.9647 185.239 41.6493 187.517 41.1366 189.754C43.1746 190.969 45.1407 192.301 47.0249 193.742L43.2679 198.18C41.9017 197.118 40.5355 196.056 39.1693 195.049C37.9199 197.546 36.2676 199.822 34.2783 201.787L29.6469 196.982C31.3452 195.431 32.7841 193.621 33.9095 191.618C32.6526 190.938 31.341 190.257 30.0158 189.495L33.4586 185.316C34.21 185.697 34.9751 186.065 35.7265 186.5C35.9041 185.316 36.0954 184.2 36.1637 183.016H31.2044V178.265H36.1637V174.277H37.8441V172.276H22.0099V174.998H19.4414V176.631H28.5266V179.871H19.4414V182.24H29.7152V185.479H24.6056V186.609C24.5927 186.727 24.6063 186.846 24.6457 186.957C24.685 187.069 24.749 187.17 24.833 187.254C24.9169 187.338 25.0186 187.401 25.1306 187.44C25.2426 187.48 25.362 187.493 25.48 187.48H29.4966V190.475H24.6056C24.0273 190.554 23.4385 190.498 22.8852 190.313C22.332 190.127 21.8294 189.817 21.4166 189.406C21.0038 188.994 20.6921 188.493 20.5059 187.942C20.3197 187.391 20.264 186.804 20.3431 186.228V185.479H12.6514C12.1331 187.185 11.1936 188.734 9.91903 189.985C9.23593 190.475 8.34792 191.033 7.41891 191.605H12.4465V188.665H19.4004V191.605H28.1031V194.654H19.4004V196.9C22.7203 196.723 26.0402 196.464 29.2371 196.219L29.4966 199.445ZM0.628906 209.369H58.6103V213.616H47.4075C50.4678 215.358 53.733 217.359 57.1758 219.605L51.711 223.852C50.1353 222.718 48.6325 221.656 47.2026 220.667C32.4203 220.912 19.0179 221.484 6.94073 222.287L5.57453 216.542C7.7289 216.071 9.75595 215.142 11.5175 213.82C11.5858 213.82 11.7087 213.697 11.7771 213.629H0.628906V209.369ZM5.06905 202.563H54.4844V206.796H5.06905V202.563ZM38.4042 213.616H20.3705C19.0043 214.555 17.802 215.426 16.6134 216.338C23.8998 216.211 31.7919 216.148 40.2896 216.148C39.224 215.521 38.213 214.909 37.284 214.337L38.4042 213.616Z" fill="white"/>
<path d="M0.0546875 244.91C4.37681 241.15 8.06672 236.724 10.9843 231.802L17.624 234.728C14.0068 241.089 9.25145 246.735 3.59315 251.389L0.0546875 244.91ZM13.0882 290.824H5.82004V269.426C4.45384 270.991 3.08765 272.488 1.72145 273.986L0.218645 264.307C4.93368 259.622 8.87597 254.224 11.8996 248.313L17.7196 250.927V245.06H25.0424V232.278H31.9964V245.06H39.77V252.397H32.0647V290.892H25.1108V252.397H17.9109C16.3534 254.956 14.7823 257.447 13.1565 259.829L13.0882 290.824ZM22.6516 257.692V265.002C22.6516 272.733 21.5996 279.036 19.4 283.895L14.1402 280.288C16.3398 276.409 17.3917 271.304 17.3917 265.002V257.692H22.6516ZM36.5595 243.971C35.6432 241.064 34.4682 238.244 33.0484 235.545L37.6251 233.489C39.2077 236.231 40.5779 239.089 41.7237 242.038L36.5595 243.971ZM34.4965 257.692H39.77V274.476C39.7571 274.593 39.7707 274.712 39.8101 274.824C39.8494 274.935 39.9134 275.037 39.9974 275.12C40.0813 275.204 40.183 275.268 40.295 275.307C40.407 275.346 40.5264 275.36 40.6444 275.347H43.8686V282.03H38.7317C35.8491 282.03 34.4146 280.588 34.4146 277.783L34.4965 257.692ZM54.8529 259.38V285.148C54.8529 288.837 53.1588 290.701 49.716 290.701H41.9423L40.5761 283.283H45.713C46.003 283.327 46.2993 283.302 46.5779 283.211C46.8566 283.119 47.1098 282.964 47.3172 282.758C47.5246 282.551 47.6804 282.299 47.7719 282.021C47.8635 281.743 47.8883 281.448 47.8443 281.159V259.38H40.7674V252.206H60.1264V259.38H54.8529ZM42.4478 235.354H58.6099V242.528H42.3931L42.4478 235.354Z" fill="white"/>
<path d="M23.1025 309.01V335.962H16.2715V323.806H12.7604C12.8033 326.529 12.0816 329.209 10.6766 331.545C9.27157 333.88 7.23929 335.778 4.80913 337.024L0.150391 331.919C4.0987 330.109 6.22996 327.359 6.54418 323.752H0.77885V318.008H16.3125V313.924H4.01673V300.148H10.5335V308.452H16.3535V298.923H23.1845V308.71C27.826 306.174 31.9649 302.816 35.3983 298.801L41.7238 299.236C41.0407 300.23 40.2893 301.224 39.5379 302.231H57.8039V306.968C54.7145 310.846 50.8239 314.017 46.3962 316.265H53.4321V320.458H59.5663V325.698H53.4321V329.183C53.4321 332.872 51.738 334.737 48.2952 334.737H39.6335L38.2673 329.006H44.0326C44.3226 329.05 44.6189 329.025 44.8976 328.934C45.1762 328.843 45.4295 328.688 45.6369 328.481C45.8443 328.274 46 328.022 46.0916 327.744C46.1831 327.467 46.2079 327.172 46.1639 326.883V325.698H32.9391C34.7445 327.177 36.4009 328.827 37.8848 330.626L32.8845 333.934C31.1921 331.887 29.3273 329.988 27.3104 328.258L31.1904 325.698H24.7419V320.458H27.4743L25.4114 315.707C27.9798 315.394 30.4253 315.149 32.6795 314.836C31.9828 314.155 31.2314 313.475 30.48 312.78L33.9364 309.35C35.8764 311.161 37.3793 312.535 38.3766 313.529C39.3193 313.216 40.1936 312.971 41.109 312.658C39.9204 311.528 38.6088 310.344 37.1607 309.16L39.3602 306.914H35.2617C32.9584 309.106 30.4618 311.088 27.8022 312.835L23.1025 309.01ZM2.06306 357.619L0.314328 350.69C11.1483 349.751 18.5394 347.696 22.474 344.647H1.06574V338.657H25.8622C25.8354 338.49 25.8354 338.32 25.8622 338.154V335.213H33.0758V338.154C33.0423 338.233 33.0251 338.319 33.0251 338.405C33.0251 338.492 33.0423 338.577 33.0758 338.657H41.1363C40.8221 337.84 40.5079 336.901 40.1253 335.935L46.2732 335.118C46.8333 336.302 47.3388 337.487 47.776 338.684H59.3614V344.674H37.6388C43.2676 348.104 50.727 350.037 59.9215 350.527L57.1891 357.646C45.6038 356.285 36.6962 352.719 30.316 346.661C25.9169 352.446 16.5448 356.054 2.06306 357.619ZM32.2424 320.458H46.2186V316.374C46.1503 316.374 46.1502 316.374 46.0819 316.374C41.6864 318.382 37.0265 319.757 32.2424 320.458ZM41.8877 306.914C43.4588 308.275 44.6201 309.405 45.5901 310.344C47.1588 309.343 48.6273 308.194 49.9756 306.914H41.8877Z" fill="white"/>
<path d="M79.6898 70.8105C78.5166 70.7976 77.3437 70.8613 76.1787 71.001V65.9101C77.3435 66.0518 78.5165 66.1155 79.6898 66.1007H91.3981V63.3782C91.4074 62.21 91.3526 61.0422 91.2342 59.8799H95.6743C95.5557 61.0285 95.501 62.1827 95.5104 63.3373V73.4784C95.4969 74.683 95.5517 75.8873 95.6743 77.0856H91.2342C91.3651 75.8879 91.4198 74.6831 91.3981 73.4784V70.8105H79.6898Z" fill="white"/>
<path d="M76.1787 90.099C77.028 89.9678 77.8677 89.7814 78.6925 89.5409L80.6735 88.9148V82.3265L78.6925 81.7003C77.8743 81.4292 77.0328 81.2333 76.1787 81.115V75.6702C77.0987 76.1076 78.0483 76.4805 79.0204 76.7863L93.0513 81.8092C93.8602 82.1336 94.697 82.3842 95.5514 82.5579V88.6017C94.6988 88.7944 93.8628 89.0538 93.0513 89.3776L79.0614 94.4005C77.8318 94.8497 76.8755 95.2172 76.2197 95.5167L76.1787 90.099ZM91.5348 85.5798L84.5672 83.4291V87.785L91.5348 85.5798Z" fill="white"/>
<path d="M95.5104 102.214C94.3704 102.052 93.2186 101.989 92.0676 102.023H79.6215C78.4706 101.993 77.3192 102.057 76.1787 102.214V97.1091C77.3191 97.2667 78.4706 97.3304 79.6215 97.2997H92.0676C93.2185 97.3332 94.3703 97.2695 95.5104 97.1091V102.214Z" fill="white"/>
<path d="M82.4777 109.319C81.855 109.334 81.2527 109.543 80.7563 109.918C80.3804 110.261 80.0869 110.684 79.8977 111.155C79.7085 111.626 79.6284 112.134 79.6634 112.641C79.6634 114.424 80.4558 115.486 81.7673 115.486C82.1043 115.496 82.437 115.409 82.7255 115.235C83.0139 115.061 83.2457 114.808 83.3931 114.506C83.8164 113.381 84.1321 112.218 84.3358 111.034C84.5083 109.71 84.975 108.44 85.702 107.318C86.1987 106.605 86.866 106.026 87.6436 105.634C88.4212 105.242 89.2846 105.049 90.1558 105.072C93.7352 105.072 95.9894 107.944 95.9894 112.505C95.9894 115.445 95.0878 117.677 93.339 118.929C92.5327 119.525 91.5964 119.921 90.6066 120.086L90.0738 115.186C91.5903 114.9 92.2187 114.07 92.2187 112.314C92.2187 110.953 91.44 109.864 90.3744 109.864C90.0435 109.869 89.7226 109.977 89.4559 110.172C89.1892 110.367 88.9898 110.64 88.8852 110.953C88.5092 111.982 88.2525 113.051 88.1201 114.138C87.8982 115.463 87.4352 116.736 86.7539 117.895C86.2681 118.699 85.5711 119.357 84.7381 119.796C83.9052 120.234 82.9677 120.439 82.0269 120.386C81.2408 120.422 80.4557 120.296 79.7202 120.018C78.9847 119.739 78.3144 119.313 77.7507 118.766C76.312 117.077 75.6001 114.89 75.7697 112.681C75.7265 110.896 76.1154 109.126 76.9037 107.522C77.5597 106.356 78.6178 105.466 79.882 105.018C80.5774 104.76 81.3026 104.591 82.0406 104.514L82.4777 109.319Z" fill="white"/>
<path d="M95.5104 140.151C94.3701 139.992 93.2185 139.928 92.0676 139.96H79.6215C78.4708 139.939 77.32 140.002 76.1787 140.151V135.169C77.3199 135.319 78.4708 135.382 79.6215 135.359H84.13V127.56H79.6215C78.4712 127.538 77.3207 127.597 76.1787 127.737V122.768C77.3202 122.914 78.4711 122.973 79.6215 122.945H92.0676C93.218 122.971 94.3688 122.912 95.5104 122.768V127.737C94.3681 127.6 93.2179 127.541 92.0676 127.56H88.2149V135.332H92.0676C93.2184 135.358 94.3696 135.294 95.5104 135.142V140.151Z" fill="white"/>
<path d="M95.5104 148.128C94.3692 147.979 93.2181 147.92 92.0676 147.951H79.6215C78.4711 147.925 77.3203 147.984 76.1787 148.128V143.037C77.3191 143.194 78.4706 143.258 79.6215 143.227H92.0676C93.2185 143.261 94.3703 143.197 95.5104 143.037V148.128Z" fill="white"/>
<path d="M86.0154 162.066C85.1359 162.674 84.2237 163.233 83.283 163.741C84.3623 163.645 85.4279 163.591 86.7258 163.591H92.0267C93.2043 163.612 94.382 163.553 95.5514 163.414V168.342C94.3823 168.197 93.2046 168.133 92.0267 168.151H79.7309C78.5714 168.148 77.4128 168.211 76.2607 168.342V163.278C77.2837 162.766 78.2697 162.184 79.2117 161.536L85.7012 157.261C86.6193 156.648 87.5727 156.089 88.5565 155.587C87.4082 155.705 86.2543 155.759 85.1 155.75H79.8948C78.6804 155.722 77.4655 155.786 76.2607 155.941V151C77.4695 151.161 78.6894 151.225 79.9085 151.19H92.2043C93.3595 151.209 94.5146 151.146 95.6607 151V156.023C94.6386 156.466 93.6675 157.018 92.7644 157.67L86.0154 162.066Z" fill="white"/>
<path d="M76.1787 190.312C77.0288 190.191 77.8689 190.009 78.6925 189.767L80.6735 189.141V182.539L78.6925 181.913C77.8757 181.64 77.0336 181.448 76.1787 181.341V175.896C77.0998 176.328 78.0492 176.696 79.0204 176.999L93.0513 182.036C93.8601 182.357 94.6971 182.603 95.5514 182.771V188.814C94.7007 189.02 93.8653 189.284 93.0513 189.604L79.0614 194.627C77.8318 195.062 76.8755 195.43 76.2197 195.729L76.1787 190.312ZM91.5348 185.806L84.5672 183.655V187.998L91.5348 185.806Z" fill="white"/>
<path d="M76.1787 209.015C77.4213 208.746 78.6374 208.368 79.8128 207.885C81.8348 207.15 82.3676 206.864 82.8731 206.292C83.3099 205.793 83.5352 205.144 83.5015 204.482V202.127H79.6898C78.5168 202.105 77.3436 202.164 76.1787 202.304V197.335C77.334 197.48 78.4985 197.539 79.6625 197.512H92.1632C93.3044 197.531 94.4456 197.471 95.5787 197.335C95.5787 198.356 95.5787 199.2 95.5787 200.779V206.796C95.5787 210.553 93.6251 212.731 90.2779 212.731C89.5847 212.779 88.8891 212.682 88.2353 212.448C87.5815 212.214 86.9837 211.846 86.4798 211.37C85.9161 210.747 85.517 209.993 85.3186 209.178C84.936 210.349 84.4032 210.893 82.7638 211.628C82.0124 211.969 81.22 212.295 78.6652 213.343C78.0094 213.588 77.4356 213.874 76.1924 214.446L76.1787 209.015ZM87.4772 205.734C87.4509 206.026 87.4883 206.319 87.5867 206.595C87.6852 206.871 87.8423 207.122 88.0474 207.331C88.2525 207.541 88.5006 207.704 88.7748 207.809C89.0489 207.914 89.3427 207.958 89.6358 207.939C90.9336 207.939 91.6031 207.191 91.6031 205.761V202.127H87.5045L87.4772 205.734Z" fill="white"/>
<path d="M79.6898 226.248C78.5169 226.231 77.344 226.29 76.1787 226.425V221.32C77.3438 221.457 78.5168 221.516 79.6898 221.497H91.3981V218.775C91.408 217.606 91.3532 216.439 91.2342 215.276H95.6743C95.5552 216.42 95.5005 217.57 95.5104 218.72V228.861C95.4969 230.066 95.5517 231.27 95.6743 232.469H91.2342C91.3656 231.271 91.4204 230.066 91.3981 228.861V226.248H79.6898Z" fill="white"/>
<path d="M82.4777 238.485C81.8547 238.51 81.2541 238.723 80.7563 239.098C80.3796 239.44 80.0856 239.862 79.8963 240.334C79.707 240.805 79.6274 241.313 79.6634 241.82C79.6634 243.603 80.4558 244.665 81.7673 244.665C82.1037 244.672 82.435 244.583 82.7228 244.41C83.0106 244.236 83.2431 243.985 83.3931 243.685C83.8164 242.56 84.1321 241.398 84.3358 240.214C84.509 238.885 84.9756 237.611 85.702 236.484C86.1994 235.772 86.8672 235.195 87.6449 234.805C88.4226 234.416 89.2856 234.225 90.1558 234.252C93.7352 234.252 95.9894 237.11 95.9894 241.67C95.9894 244.611 95.0878 246.857 93.339 248.109C92.5327 248.704 91.5964 249.101 90.6066 249.266L90.0738 244.366C91.5903 244.08 92.2187 243.249 92.2187 241.493C92.2187 240.132 91.44 239.043 90.3744 239.043C90.0457 239.05 89.7269 239.156 89.4608 239.348C89.1946 239.541 88.9938 239.809 88.8852 240.119C88.5083 241.152 88.2516 242.225 88.1201 243.317C87.8958 244.642 87.433 245.914 86.7539 247.074C86.2681 247.879 85.5711 248.536 84.7381 248.975C83.9052 249.414 82.9677 249.618 82.0269 249.565C81.2412 249.598 80.457 249.471 79.7219 249.193C78.9869 248.914 78.3162 248.49 77.7507 247.946C76.312 246.256 75.6001 244.07 75.7697 241.861C75.7248 240.075 76.1139 238.305 76.9037 236.702C77.5597 235.536 78.6178 234.646 79.882 234.197C80.5774 233.939 81.3026 233.77 82.0406 233.694L82.4777 238.485Z" fill="white"/>
<path d="M76.1787 271.018C77.0292 270.894 77.8694 270.707 78.6925 270.46L80.6735 269.834V263.287L78.6925 262.66C77.8743 262.389 77.0328 262.193 76.1787 262.075V256.63C77.0987 257.068 78.0483 257.441 79.0204 257.746L93.0513 262.728C93.8602 263.053 94.697 263.303 95.5514 263.477V269.521C94.7006 269.72 93.8651 269.979 93.0513 270.297L79.0614 275.32C77.8318 275.769 76.8755 276.136 76.2197 276.436L76.1787 271.018ZM91.5348 266.513L84.5672 264.348V268.731L91.5348 266.513Z" fill="white"/>
<path d="M76.1787 290.946C77.0174 290.844 77.8481 290.685 78.6652 290.47L85.4962 288.7C86.4115 288.469 87.4771 288.292 89.0073 288.061C88.0509 287.924 86.5891 287.639 85.4962 287.366L78.6652 285.651C77.8545 285.423 77.028 285.254 76.1924 285.148V280.533C76.8755 280.424 77.3536 280.302 78.7062 279.961L92.6414 276.259C93.8299 275.932 94.8956 275.605 95.524 275.374V280.656C94.6651 280.688 93.8105 280.793 92.9693 280.969L85.906 282.452C85.5645 282.52 84.5398 282.684 82.6271 282.97C84.5808 283.31 85.3595 283.473 85.906 283.609L93.1059 285.461C93.9003 285.683 94.708 285.856 95.524 285.978V290.062C94.7298 290.192 93.9448 290.374 93.1742 290.606L86.029 292.471C85.2776 292.661 84.5125 292.825 82.6271 293.124C83.078 293.124 83.078 293.124 83.9933 293.301C84.5125 293.383 85.6191 293.546 85.988 293.628L92.9146 295.084C93.7525 295.285 94.6082 295.404 95.4694 295.438V300.693C94.8409 300.461 93.748 300.135 92.5867 299.835L78.6788 296.133C77.8432 295.891 76.9949 295.696 76.1377 295.547L76.1787 290.946Z" fill="white"/>
<path d="M76.1787 314.073C77.0292 313.949 77.8694 313.762 78.6925 313.515L80.6735 312.903V306.301L78.6925 305.675C77.8757 305.401 77.0336 305.21 76.1787 305.103V299.658C77.1024 300.083 78.0514 300.452 79.0204 300.761L93.0513 305.797C93.8623 306.112 94.6987 306.358 95.5514 306.532V312.576C94.7007 312.781 93.8653 313.045 93.0513 313.366L79.0614 318.389C77.8318 318.824 76.8755 319.192 76.2197 319.491L76.1787 314.073ZM91.5348 309.568L84.5672 307.417V311.759L91.5348 309.568Z" fill="white"/>
<path d="M76.1787 332.777C77.4213 332.508 78.6374 332.13 79.8128 331.647C81.8348 330.912 82.3676 330.626 82.8731 330.054C83.3099 329.555 83.5352 328.906 83.5015 328.244V325.903H79.6898C78.5168 325.88 77.3436 325.939 76.1787 326.08V321.111C77.334 321.255 78.4985 321.314 79.6625 321.288H92.1632C93.3044 321.306 94.4456 321.247 95.5787 321.111C95.5787 322.118 95.5787 322.976 95.5787 324.555V330.572C95.5787 334.328 93.6251 336.493 90.2779 336.493C89.1556 336.622 88.0253 336.33 87.108 335.673C86.1908 335.016 85.5527 334.041 85.3186 332.94C84.936 334.111 84.4032 334.642 82.7638 335.39C82.0124 335.731 81.22 336.057 78.6652 337.105C78.0094 337.35 77.4356 337.636 76.1924 338.208L76.1787 332.777ZM87.4772 329.496C87.4507 329.787 87.488 330.08 87.5865 330.355C87.685 330.63 87.8424 330.881 88.0477 331.089C88.2531 331.298 88.5014 331.459 88.7757 331.563C89.0499 331.666 89.3434 331.709 89.6358 331.688C90.9336 331.688 91.6031 330.953 91.6031 329.523V325.903H87.5045L87.4772 329.496Z" fill="white"/>
<path d="M92.1632 340.331C93.3054 340.355 94.4476 340.286 95.5787 340.127C95.5787 341.053 95.5787 341.625 95.5787 343.544V348.39C95.7201 350.831 94.8962 353.23 93.2835 355.073C92.3171 355.958 91.1812 356.64 89.9441 357.078C88.7069 357.515 87.3939 357.699 86.0836 357.619C84.7124 357.686 83.3414 357.48 82.0511 357.012C80.7608 356.545 79.5771 355.826 78.5696 354.896C77.7695 354.019 77.1523 352.992 76.7536 351.875C76.3549 350.758 76.1827 349.573 76.247 348.39V343.598C76.247 341.815 76.247 341.175 76.1787 340.195C77.3062 340.344 78.4434 340.408 79.5805 340.386L92.1632 340.331ZM80.25 348.009C80.2062 348.63 80.2929 349.253 80.5046 349.839C80.7163 350.425 81.0484 350.961 81.4796 351.412C82.7229 352.456 84.3247 352.978 85.947 352.868C87.5102 353.001 89.0626 352.512 90.2642 351.507C90.6982 351.021 91.0275 350.451 91.2319 349.833C91.4363 349.215 91.5115 348.561 91.4528 347.913V344.959H80.25V348.009Z" fill="white"/>
<path d="M79.8954 39.3799C79.8634 39.8331 79.8634 40.2879 79.8954 40.7411H78.0237C78.0793 40.2896 78.1022 39.8347 78.092 39.3799V34.9832H77.0674C76.611 34.9792 76.1548 35.0019 75.7012 35.0512V33.377C76.1546 33.4292 76.611 33.4519 77.0674 33.445H80.8927C81.3491 33.4485 81.8052 33.4258 82.2589 33.377V35.0512C81.8058 34.9951 81.3492 34.9724 80.8927 34.9832H79.9091L79.8954 39.3799Z" fill="white"/>
<path d="M83.1875 40.7004C83.2431 40.2489 83.266 39.794 83.2558 39.3392V34.7111C83.2708 34.2562 83.2479 33.8009 83.1875 33.3499H85.0045C84.9451 33.801 84.9222 34.2562 84.9362 34.7111V35.6367C84.9362 35.7047 84.9362 35.8545 84.9362 35.9226C85.173 35.6842 85.4566 35.4971 85.7692 35.3729C86.0819 35.2488 86.4169 35.1903 86.7533 35.2011C87.0024 35.1872 87.2517 35.2235 87.4864 35.3076C87.7211 35.3918 87.9364 35.5223 88.1195 35.6911C88.3041 35.8861 88.4448 36.1181 88.5319 36.3717C88.6191 36.6252 88.6508 36.8945 88.625 37.1613V39.3528C88.5988 39.8062 88.5988 40.2607 88.625 40.714H86.8079C86.8399 40.2609 86.8399 39.806 86.8079 39.3528V37.5968C86.834 37.3701 86.7861 37.141 86.6713 36.9435C86.6035 36.8621 86.5175 36.7975 86.4203 36.755C86.3231 36.7125 86.2172 36.6931 86.1112 36.6984C85.8226 36.7157 85.5439 36.8094 85.3038 36.9697C85.0637 37.13 84.8708 37.3512 84.745 37.6105V39.38C84.738 39.8348 84.7608 40.2895 84.8133 40.7413L83.1875 40.7004Z" fill="white"/>
<path d="M91.3438 38.5225C91.3471 38.6739 91.3813 38.8231 91.4443 38.9609C91.5073 39.0987 91.5978 39.2224 91.7102 39.3242C91.8227 39.4261 91.9548 39.5041 92.0985 39.5535C92.2422 39.6029 92.3945 39.6226 92.5461 39.6115C92.8683 39.6158 93.1804 39.4992 93.4204 39.2848C93.5544 39.1678 93.6457 39.0098 93.68 38.8356L95.2101 39.2712C95.0824 39.6065 94.8872 39.9123 94.6363 40.1696C94.0669 40.6751 93.3216 40.9389 92.5597 40.9047C92.1903 40.9249 91.8206 40.8702 91.473 40.7439C91.1255 40.6175 90.8073 40.4221 90.5377 40.1696C90 39.5899 89.7151 38.8213 89.7453 38.0325C89.7249 37.6626 89.7804 37.2924 89.9086 36.9446C90.0367 36.5968 90.2347 36.2788 90.4905 36.0099C90.7463 35.741 91.0545 35.527 91.3962 35.3809C91.7379 35.2348 92.1059 35.1598 92.4777 35.1603C93.0897 35.1235 93.694 35.3106 94.1771 35.6867C94.6601 36.0627 94.9887 36.6017 95.1008 37.2022C95.1858 37.5776 95.2316 37.9608 95.2375 38.3456C95.2321 38.4044 95.2321 38.4637 95.2375 38.5225H91.3438ZM93.6253 37.3247C93.5848 37.0684 93.4478 36.8371 93.2423 36.6778C93.0367 36.5185 92.778 36.4432 92.5187 36.4671C92.254 36.4388 91.9884 36.5116 91.7755 36.6708C91.5625 36.8299 91.418 37.0636 91.3711 37.3247H93.6253Z" fill="white"/>
<path d="M77.3408 51.386C76.5484 51.386 76.3435 51.386 75.9746 51.386C75.9867 51.0392 76.0465 50.6957 76.1522 50.365C76.3963 49.6154 76.829 48.9406 77.4091 48.4049C77.9005 47.9834 78.4209 47.5968 78.9666 47.2478C79.718 46.7442 79.9093 46.5128 79.9093 46.118C79.9093 45.7233 79.5267 45.4102 78.9666 45.4102C78.7913 45.3985 78.6159 45.4325 78.4578 45.5088C78.2996 45.5852 78.1642 45.7014 78.0649 45.8458C77.9298 46.068 77.8545 46.3212 77.8463 46.5809L76.0019 46.3903C76.0528 45.82 76.2768 45.2788 76.6441 44.8385C76.9403 44.5268 77.3023 44.2845 77.7039 44.1291C78.1056 43.9738 78.5369 43.9092 78.9666 43.9401C79.4454 43.8933 79.9282 43.9702 80.3685 44.1633C80.8088 44.3564 81.1917 44.6593 81.4804 45.0427C81.6731 45.3482 81.7728 45.7028 81.7673 46.0636C81.7689 46.3775 81.6968 46.6874 81.5569 46.9687C81.4169 47.2499 81.213 47.4947 80.9612 47.6834C80.5668 48.0238 80.1466 48.3332 79.7043 48.6091C79.1507 48.8935 78.6802 49.3155 78.3381 49.8342H80.3874C80.8438 49.8392 81.3 49.8165 81.7536 49.7661V51.4132C81.2481 51.4132 80.8793 51.4132 80.2645 51.4132L77.3408 51.386Z" fill="white"/>
<path d="M83.9934 50.7325C83.7074 50.4587 83.4878 50.1235 83.3513 49.7524C83.1176 49.116 83.0018 48.4426 83.0097 47.765C82.9939 46.9254 83.1813 46.0942 83.5562 45.3421C83.8225 44.9097 84.1995 44.5558 84.6485 44.3166C85.0975 44.0773 85.6022 43.9615 86.111 43.9808C86.5008 43.9694 86.889 44.0357 87.2526 44.176C87.6163 44.3163 87.9481 44.5276 88.2286 44.7976C88.5098 45.0701 88.7288 45.3997 88.8707 45.764C89.1046 46.4051 89.2203 47.083 89.2123 47.765C89.2297 48.6049 89.0422 49.4363 88.6658 50.188C88.4156 50.5561 88.0889 50.8664 87.7079 51.0978C87.3269 51.3292 86.9004 51.4763 86.4574 51.5292C86.0144 51.5822 85.5651 51.5396 85.14 51.4045C84.7148 51.2694 84.3238 51.0449 83.9934 50.7461V50.7325ZM84.7995 47.697C84.7995 49.2487 85.2503 50.0519 86.1656 50.0519C87.081 50.0519 87.5318 49.276 87.5318 47.7242C87.5318 46.1724 87.081 45.4374 86.1656 45.4374C85.2503 45.4374 84.8541 46.2677 84.8541 47.697H84.7995Z" fill="white"/>
<path d="M90.5103 45.1515C90.5239 44.9203 90.5239 44.6885 90.5103 44.4573H91.5486C91.5338 44.6884 91.5338 44.9203 91.5486 45.1515V45.2604H91.6852C91.8534 45.276 92.0226 45.276 92.1907 45.2604V46.1043H91.7126H91.5076V47.4656C91.5019 47.512 91.5062 47.5591 91.5204 47.6037C91.5345 47.6484 91.5581 47.6894 91.5896 47.7242C91.6708 47.7396 91.7543 47.7396 91.8355 47.7242C91.9601 47.7228 92.0823 47.69 92.1907 47.6289L92.259 48.4048C92.0334 48.4736 91.7982 48.5058 91.5623 48.5001C91.2992 48.524 91.0354 48.4619 90.8109 48.3231C90.7106 48.2456 90.6327 48.1431 90.5847 48.026C90.5367 47.909 90.5205 47.7814 90.5376 47.6561V46.1043H90.319H89.8818V45.2604H90.3327H90.5103V45.1515Z" fill="white"/>
<path d="M92.7646 48.3641C92.7802 48.1103 92.7802 47.8557 92.7646 47.6019V44.8794C92.7825 44.6211 92.7825 44.3618 92.7646 44.1035H93.8166C93.7992 44.3619 93.7992 44.6211 93.8166 44.8794V45.5873C93.9514 45.446 94.1151 45.3352 94.2966 45.2624C94.4781 45.1896 94.6732 45.1564 94.8686 45.1653C95.1668 45.1476 95.4604 45.2451 95.6883 45.4375C95.7935 45.5526 95.8734 45.6884 95.9228 45.8361C95.9722 45.9838 95.9901 46.1401 95.9752 46.2951V47.5746C95.9594 47.8285 95.9594 48.0831 95.9752 48.3369H94.9096C94.9315 48.0833 94.9315 47.8282 94.9096 47.5746V46.5265C94.9096 46.3223 94.9096 46.227 94.8276 46.1453C94.791 46.0981 94.743 46.0608 94.6881 46.037C94.6331 46.0132 94.573 46.0037 94.5134 46.0092C94.3482 46.0217 94.1893 46.0774 94.0526 46.1706C93.9159 46.2638 93.8062 46.3912 93.7347 46.5401V47.5746C93.7204 47.8285 93.7204 48.083 93.7347 48.3369L92.7646 48.3641Z" fill="white"/>
</g>
<defs>
<clipPath id="clip0_312_35377">
<rect width="95.9753" height="357.619" fill="white"/>
</clipPath>
</defs>
</svg>
