<svg width="28" height="34" viewBox="0 0 28 34" fill="none" xmlns="http://www.w3.org/2000/svg">
<path fill-rule="evenodd" clip-rule="evenodd" d="M13.9954 1L6.10605 7.14352V17.1104L0 21.8509V34H3.59353V29.2502H12.2032V34H15.7968V29.2502H24.4157V34H28V21.8598L21.8938 17.1104V7.14352L13.9954 1ZM18.3093 17.1103V14.5429H9.69964V17.1195L14.0045 20.457L18.3093 17.1103ZM18.3094 10.9849V8.87604L13.9953 5.5293L9.69971 8.87604V10.9849H18.3094ZM20.1015 20.2462L15.7967 23.5837V25.6835H24.4158V23.5837L20.1015 20.2462ZM7.89836 20.2373L3.59351 23.5932V25.693H12.2032V23.5932L7.89836 20.2373Z" fill="#B4B4B4"/>
</svg>
