<svg width="92" height="30" viewBox="0 0 92 30" fill="none" xmlns="http://www.w3.org/2000/svg">
<path d="M39.2818 9.71114C39.5439 9.79812 39.7505 9.99694 39.8986 10.3045C39.9942 10.5126 40.0281 10.7083 40.0003 10.8854C39.9633 11.047 39.8585 11.1712 39.7074 11.2551C39.5501 11.3048 39.3897 11.2862 39.2325 11.2023C39.106 11.1153 39.0073 10.9973 38.9426 10.8419C38.8316 10.2113 38.736 9.83851 38.6434 9.71114C38.1932 9.70182 37.7399 9.6925 37.2804 9.68628C37.1293 9.66764 37.0614 9.61173 37.0614 9.51542C37.0707 9.40048 37.1509 9.34456 37.2927 9.34456C40.8607 9.25137 43.7719 8.72325 46.0138 7.75401C46.057 7.73226 46.0878 7.71362 46.1217 7.69809C46.1772 7.66702 46.2358 7.67634 46.2944 7.73537C46.538 7.98389 46.794 8.24795 47.0592 8.51511C47.2412 8.68597 47.2535 8.86926 47.1178 9.03391C46.9945 9.18613 46.7848 9.1706 46.498 8.99042C46.4209 8.95314 46.3037 8.95314 46.1464 8.99042C45.1842 9.20166 43.8243 9.40048 42.0603 9.5993C42.4766 9.83851 42.748 10.1119 42.856 10.4163C42.9639 10.6245 42.9947 10.8171 42.9577 10.9973C42.9207 11.1681 42.8189 11.2893 42.6524 11.3514C42.5013 11.4073 42.344 11.3887 42.1991 11.2924C42.0757 11.2147 41.9832 11.0998 41.9123 10.9289C41.7273 10.2051 41.5978 9.77637 41.5176 9.63658C40.7836 9.67386 40.0342 9.69871 39.2818 9.70803V9.71114ZM38.5478 12.6717C38.6249 12.6717 38.665 12.7183 38.6835 12.8115C38.739 13.2495 38.7329 13.7093 38.6619 14.1721C38.5725 14.6412 38.4307 14.9767 38.2364 15.1725C38.0113 15.3433 37.7923 15.421 37.5734 15.3868C37.4192 15.362 37.2896 15.2843 37.1879 15.16C36.9843 14.8494 37.1108 14.5263 37.5734 14.1846C38.0143 13.8025 38.3011 13.3427 38.4399 12.7991C38.4399 12.7121 38.4738 12.6717 38.5478 12.6717ZM41.7951 12.2865C41.8167 12.2306 41.8691 12.2088 41.9586 12.215C42.7079 12.3331 43.2599 12.6127 43.6022 13.0693C43.7533 13.2433 43.8243 13.4235 43.8243 13.6068C43.8366 13.7745 43.7657 13.9174 43.6177 14.0292C43.4758 14.1069 43.3309 14.1287 43.1613 14.0852C43.0071 14.0355 42.8806 13.9423 42.7974 13.7994C42.3749 13.0351 42.0603 12.5847 41.8568 12.4418C41.8075 12.4014 41.7859 12.3517 41.7951 12.2834V12.2865ZM47.0438 11.864H38.2641L37.5024 11.9541C37.4315 12.7773 37.2526 13.3365 36.9689 13.6534C36.7592 13.8335 36.5495 13.9174 36.3367 13.9019C36.1671 13.8988 36.0345 13.8335 35.9389 13.7093C35.7231 13.3862 35.8372 13.0507 36.2812 12.6996C36.7376 12.2647 37.0429 11.6776 37.191 10.9351C37.191 10.8481 37.228 10.8078 37.2958 10.8078C37.3729 10.8078 37.4192 10.845 37.4284 10.9351C37.4623 11.0842 37.4778 11.2427 37.4901 11.4166L38.2672 11.4757H44.478C44.8512 10.7798 45.138 10.0932 45.3446 9.43155C45.4001 9.28554 45.4865 9.22651 45.5821 9.2669C45.9336 9.40359 46.2821 9.54338 46.6275 9.6925C46.9605 9.82919 47.0962 10.0063 47.0253 10.2113C46.9636 10.4039 46.7817 10.4753 46.4795 10.4163C46.3654 10.3977 46.2543 10.4319 46.1557 10.5188C45.8658 10.8357 45.5173 11.1557 45.1133 11.4788H46.9235L47.6143 10.814C47.6914 10.7549 47.7654 10.7612 47.8209 10.8233L48.6844 11.7677C48.8818 11.9976 48.9157 12.2026 48.8016 12.3797C48.6844 12.5443 48.4778 12.5785 48.1848 12.4946C48.0645 12.4542 47.9319 12.4822 47.7901 12.5785C47.4231 12.8425 47.0993 13.0755 46.8156 13.2744C46.8773 13.3023 46.9204 13.3334 46.9544 13.3707C47.6174 13.9423 47.9227 14.4642 47.8641 14.9146C47.8271 15.0793 47.7222 15.216 47.5557 15.3154C47.3892 15.3682 47.2319 15.3526 47.0685 15.2719C46.9235 15.1973 46.8156 15.0731 46.7447 14.9022C46.6429 14.6288 46.5103 14.2902 46.3684 13.8832C46.2081 13.4825 45.9953 13.1563 45.7177 12.8922C45.6561 12.8457 45.6407 12.7866 45.6746 12.7245C45.7054 12.6499 45.7609 12.6344 45.8504 12.6655C46.0662 12.7618 46.2852 12.8829 46.498 13.032C46.7231 12.6406 46.905 12.2523 47.053 11.8733L47.0438 11.864ZM36.2041 19.4471C36.0592 19.4968 35.9667 19.475 35.9389 19.3912C35.9112 19.3073 35.9543 19.2203 36.0715 19.1333C38.2487 18.2262 39.7135 16.9712 40.4845 15.3589C40.3395 15.2998 40.2285 15.2408 40.1638 15.1725C39.8554 14.9115 39.7074 14.5294 39.7074 14.0355V12.5816C39.695 12.507 39.6919 12.4232 39.6919 12.3237C39.6919 12.2585 39.7259 12.2337 39.7937 12.2461C40.1669 12.3113 40.5246 12.3672 40.87 12.4232C41.1568 12.4635 41.2925 12.594 41.2925 12.8239C41.2925 13.0289 41.166 13.1532 40.9008 13.1905C40.8206 13.1967 40.7836 13.2464 40.7836 13.3334V13.7434C40.7929 14.0106 40.8854 14.2094 41.0612 14.3492C41.2863 14.4797 41.7674 14.5511 42.5044 14.5667C43.6485 14.5667 44.3208 14.489 44.5181 14.3492C44.6384 14.2281 44.7926 13.9019 44.9869 13.3582C45.0146 13.2464 45.0825 13.1967 45.175 13.206C45.2644 13.2153 45.3107 13.2775 45.3107 13.4048C45.3354 14.0168 45.4248 14.3492 45.5728 14.4082C45.7609 14.4642 45.8565 14.6071 45.8565 14.8307C45.8565 15.0668 45.6561 15.2501 45.2675 15.3713C44.5736 15.5515 43.3586 15.6105 41.6317 15.5421C41.3942 15.887 41.1629 16.238 40.9255 16.5735H44.2807L44.8851 15.8497C44.9406 15.7876 45.0085 15.7938 45.0732 15.8808L45.912 16.6481C46.0971 16.8345 46.1433 17.0178 46.057 17.1948C45.9182 17.347 45.7393 17.3999 45.5142 17.3657C45.397 17.347 45.2922 17.4092 45.2058 17.5521C44.8635 18.0336 44.3054 18.5617 43.5436 19.1364C44.8882 19.5993 46.4671 19.8478 48.2804 19.8882C48.4161 19.8789 48.4932 19.9162 48.5024 20C48.5024 20.0653 48.45 20.1274 48.3575 20.1864C47.8949 20.4132 47.6328 20.7518 47.5773 21.2209C47.5557 21.3017 47.491 21.3452 47.3676 21.3328C45.5266 21.1091 43.9199 20.5717 42.5476 19.7484H42.5322C40.8175 20.6245 38.847 21.137 36.6328 21.2737C36.5403 21.2737 36.4909 21.2365 36.4786 21.1526C36.4724 21.0656 36.5156 21.019 36.6019 21.0066C38.5417 20.699 40.2655 20.0995 41.7766 19.2141C41.1321 18.6704 40.5924 18.046 40.1607 17.3408C39.0536 18.3225 37.7337 19.0246 36.201 19.4533L36.2041 19.4471ZM41.4991 18.0274C41.8044 18.2821 42.1528 18.512 42.5476 18.7233C43.2198 18.2014 43.7749 17.6204 44.2067 16.968H40.9286L40.4999 17.024C40.8237 17.4278 41.1599 17.7633 41.4991 18.0274Z" fill="white"/>
<path d="M52.4126 7.97133C52.4188 7.89678 52.4619 7.87503 52.5421 7.90299C52.8567 8.02104 53.1836 8.14841 53.529 8.26646C53.8342 8.3814 53.9699 8.54294 53.9298 8.75419C53.8805 8.93437 53.6986 9.01824 53.384 9.01824C53.2761 9.01203 53.2051 9.05241 53.1651 9.14872C52.8135 9.76071 52.3818 10.2919 51.8729 10.7486C52.3263 11.1369 52.5329 11.5159 52.502 11.8825C52.4774 12.0533 52.3725 12.1776 52.1937 12.2646C52.0487 12.3205 51.8945 12.3081 51.7403 12.2242C51.6046 12.1372 51.4936 12.0192 51.4319 11.867C51.1945 11.0655 51.0033 10.5777 50.8584 10.41C50.809 10.3696 50.7998 10.3199 50.8275 10.2547C50.8707 10.1925 50.9231 10.177 50.994 10.2112C51.1883 10.2795 51.3734 10.3727 51.5522 10.497C51.876 9.944 52.1628 9.10833 52.4188 7.97444L52.4126 7.97133ZM52.8227 14.6131C52.4774 14.7529 52.1659 14.8834 51.8822 14.9953C51.7218 15.045 51.6509 15.1102 51.6601 15.2096C51.691 15.4706 51.617 15.6197 51.4381 15.6601C51.2438 15.7035 51.0958 15.6135 50.994 15.4053C50.8337 15.017 50.6672 14.6163 50.513 14.2186C50.479 14.1161 50.5253 14.0664 50.6271 14.0664C50.9139 14.0695 51.2007 14.0695 51.4936 14.0664C52.317 12.9108 52.8875 11.5967 53.2021 10.1242C53.2113 10.0496 53.2545 10.0279 53.3378 10.0558C53.6677 10.1894 53.9977 10.3106 54.3215 10.4348C54.6237 10.5498 54.7594 10.702 54.7193 10.9039C54.67 11.0841 54.4911 11.1742 54.1735 11.1742C54.0655 11.1742 53.9884 11.2177 53.9514 11.3171C53.4426 12.4168 52.832 13.3115 52.1166 14.0198C52.536 13.9732 52.9924 13.8924 53.4827 13.7775C53.4642 13.6004 53.4179 13.4233 53.3501 13.2525C53.3192 13.2059 53.3316 13.1562 53.3778 13.1003C53.4272 13.0412 53.4858 13.0412 53.5536 13.1003C53.7787 13.2742 53.9823 13.4855 54.158 13.7495C54.3832 14.0726 54.5034 14.3242 54.5096 14.4982C54.5528 14.7188 54.5312 14.9114 54.451 15.076C54.3616 15.2313 54.2321 15.3245 54.0532 15.3463C53.8836 15.3463 53.7448 15.2873 53.6276 15.1661C53.4827 15.0015 53.421 14.7157 53.4519 14.287C53.2545 14.4112 53.0417 14.5137 52.8197 14.6131H52.8227ZM55.9343 14.7219C55.9343 14.784 55.8973 14.8524 55.8295 14.9176C55.518 15.0481 55.2281 15.0667 54.966 14.9735C54.8951 14.9455 54.8581 14.8865 54.8581 14.7902V9.25123C54.8519 9.186 54.8488 9.13319 54.8488 9.09591C54.855 9.05241 54.8858 9.03688 54.9383 9.06484C55.2127 9.20153 55.5211 9.36618 55.8634 9.55878H56.0731C56.2273 8.96854 56.3229 8.40936 56.3568 7.89056C56.3692 7.74766 56.4154 7.68242 56.5141 7.69485C56.8595 7.76319 57.2172 7.82533 57.5965 7.87814C57.9357 7.94027 58.0899 8.08317 58.0653 8.2882C58.0375 8.4777 57.871 8.57401 57.578 8.57401C57.4639 8.58643 57.3714 8.63614 57.3128 8.72933C57.1062 8.9996 56.8718 9.28541 56.6066 9.58053H57.8309L58.3151 9.11144C58.386 9.03999 58.4631 9.03378 58.5494 9.09591L59.1816 9.65198C59.3358 9.75139 59.4037 9.87565 59.3882 10.0154C59.3882 10.1708 59.2618 10.2733 59.012 10.3261C58.9657 10.3447 58.9442 10.4038 58.9503 10.5001V14.697C58.9442 14.8244 58.8886 14.9083 58.7992 14.9487C58.5248 15.0605 58.275 15.0822 58.0344 15.0201C57.9265 14.9828 57.8772 14.9021 57.8772 14.7747V14.2248H55.9374V14.7219H55.9343ZM57.8741 13.8303V12.1403H55.9343V13.8303H57.8741ZM57.8741 11.7427V9.97817H56.3137L55.9343 10.0154V11.7427H57.8741ZM59.9402 10.4224C60.1592 9.95642 60.3843 9.17978 60.6156 8.0987C60.6248 8.02104 60.668 7.99619 60.7482 8.03036C61.0751 8.13909 61.4051 8.25714 61.7443 8.36587C62.065 8.47149 62.2007 8.62371 62.1606 8.81942C62.1082 9.00582 61.9324 9.09901 61.6178 9.09901C61.5099 9.09901 61.4421 9.14561 61.4112 9.23881C61.0473 9.87254 60.6433 10.3696 60.1869 10.7424C60.2178 10.7486 60.2332 10.761 60.2332 10.7703C60.5077 10.994 60.6804 11.1928 60.7482 11.3637C60.85 11.5718 60.8746 11.7675 60.8407 11.9477C60.8006 12.1186 60.6958 12.2366 60.5292 12.3019C60.372 12.3547 60.2209 12.336 60.0728 12.2397C59.9433 12.1683 59.857 12.0502 59.7922 11.8794C59.5979 11.1214 59.4622 10.6678 59.3636 10.5187C59.3173 10.4814 59.3081 10.4317 59.3389 10.3603C59.3851 10.2981 59.4437 10.2795 59.5147 10.3168C59.638 10.3603 59.7614 10.4286 59.8816 10.5187C59.8878 10.4814 59.9125 10.4473 59.9433 10.4224H59.9402ZM61.2509 14.5231C60.5231 14.8182 60.1654 15.0108 60.1777 15.0947C60.2147 15.3587 60.1407 15.5047 59.9587 15.5451C59.7614 15.5824 59.6103 15.4954 59.5116 15.2904C59.342 14.8927 59.1847 14.4951 59.0243 14.1006C58.9935 13.9887 59.0367 13.9328 59.1446 13.9328C59.4252 13.9328 59.7028 13.9452 59.968 13.9452C60.7698 12.889 61.3866 11.6122 61.8183 10.1086C61.8275 10.0341 61.8769 10.0154 61.954 10.0527C62.2778 10.1863 62.6016 10.3199 62.9285 10.4628C63.2307 10.5964 63.351 10.7641 63.2924 10.9567C63.2461 11.1307 63.0611 11.2115 62.7527 11.199C62.654 11.1897 62.5677 11.2332 62.5122 11.3264C62.0033 12.3205 61.3742 13.1841 60.631 13.9173C61.0442 13.8614 61.4852 13.7868 61.9416 13.6936C61.9725 13.6719 62.0064 13.6656 62.0496 13.6656L61.8861 13.0257C61.9416 12.9884 62.0064 12.9884 62.0742 13.0257C62.3024 13.1872 62.5276 13.4047 62.7558 13.6656C63.1505 14.2155 63.28 14.6629 63.1382 14.9984C63.0642 15.1568 62.9377 15.2531 62.7558 15.2966C62.5954 15.3121 62.4536 15.2686 62.324 15.1537C62.1945 15.0419 62.1174 14.6722 62.0866 14.0509C61.846 14.2186 61.5623 14.3802 61.2509 14.5293V14.5231ZM57.3036 20.9132C57.3159 21.0561 57.2511 21.1618 57.1247 21.227C56.8626 21.3357 56.5943 21.3513 56.3322 21.255C56.2242 21.2021 56.1687 21.1089 56.1687 21.0002V17.6172C54.9537 19.1642 53.199 20.2267 50.8892 20.8045C50.7535 20.8511 50.6641 20.8325 50.6271 20.7455C50.5931 20.6616 50.6456 20.5808 50.772 20.4907C51.7619 20.1335 52.6871 19.6271 53.5536 18.9779C54.4572 18.2571 55.0925 17.5302 55.4625 16.7815H51.7002L50.8614 16.8934C50.7751 16.912 50.7227 16.8934 50.7165 16.8374C50.6733 16.6914 50.624 16.5237 50.5685 16.3435C50.5561 16.2969 50.6086 16.2783 50.7257 16.2845L51.7002 16.3901H56.1687V14.9859C56.1687 14.93 56.2057 14.9083 56.2736 14.9145C56.6159 15.0015 56.989 15.0729 57.393 15.1413C57.7661 15.2096 57.9512 15.3587 57.9512 15.5917C57.9512 15.8496 57.7816 16.0111 57.4362 16.0763C57.3467 16.095 57.3066 16.1478 57.3066 16.2317V16.3901H60.5878L61.4575 15.4115C61.5253 15.3463 61.5901 15.3463 61.661 15.4115L62.8853 16.3155C63.021 16.4274 63.0765 16.5268 63.0487 16.6262C62.9994 16.7194 62.8976 16.7753 62.7373 16.7877H57.4701C58.9719 18.2851 60.8746 19.2108 63.1628 19.5464C63.3294 19.565 63.4157 19.6147 63.4157 19.7048C63.4157 19.8011 63.3571 19.8632 63.2399 19.9005C62.8575 20.0714 62.6139 20.3447 62.5029 20.7237C62.4844 20.8076 62.4135 20.8325 62.2963 20.7921C60.2764 20.1428 58.6173 18.9903 57.3128 17.3407V20.9194L57.3036 20.9132Z" fill="white"/>
<path d="M67.1012 10.6244L66.3827 10.702C66.3703 11.4569 66.2408 11.9819 65.9879 12.2802C65.7782 12.4572 65.5747 12.5411 65.365 12.5318C65.1861 12.5287 65.0535 12.4603 64.9734 12.3516C64.8901 12.2553 64.8623 12.1155 64.8685 11.9384C64.8778 11.7676 65.0104 11.5688 65.2632 11.342C65.6672 10.9164 65.9263 10.3883 66.0434 9.76074C66.0434 9.67065 66.0835 9.62716 66.1483 9.61473C66.2161 9.61473 66.2531 9.65512 66.2624 9.7421C66.2994 9.87568 66.3302 10.0155 66.3395 10.1677L67.1012 10.2236H70.7956V9.07419H67.3387L66.4998 9.18603C66.4012 9.20467 66.3457 9.18603 66.3364 9.13322C66.2994 8.99032 66.2501 8.82567 66.2038 8.63617C66.1945 8.59268 66.2408 8.57093 66.3487 8.58646L67.3387 8.68277H74.2804L75.1469 7.7042C75.2179 7.63896 75.2857 7.63896 75.3535 7.7042L76.5747 8.61132C76.7228 8.71383 76.7752 8.81946 76.7351 8.91576C76.6888 9.01206 76.584 9.06487 76.4236 9.0773H71.9274V10.2267H76.2078L76.8831 9.54018C76.9633 9.49047 77.0373 9.49668 77.1052 9.55882L77.9871 10.5001C78.1938 10.7176 78.2369 10.9164 78.1197 11.1028C78.0118 11.2705 77.8114 11.314 77.5184 11.227C77.3889 11.1898 77.2563 11.227 77.1175 11.3389C76.7814 11.5532 76.4884 11.7427 76.2355 11.8918C76.1214 11.9384 76.0412 11.9478 76.0011 11.9105C75.9549 11.8639 75.9456 11.7893 75.9888 11.693C76.143 11.3233 76.2664 10.9661 76.3558 10.6213H71.9274V13.8303C71.9274 13.9328 71.8503 14.0291 71.7084 14.1161C71.4648 14.228 71.2181 14.2435 70.9837 14.1565C70.8481 14.1099 70.7833 14.0385 70.7956 13.9453V10.6213H67.1012V10.6244ZM67.792 11.5812H68.4396L69.0594 10.7207C69.1211 10.6461 69.1828 10.6461 69.2506 10.7331L69.9722 11.5967C70.0678 11.693 70.1049 11.78 70.0771 11.8483C70.0339 11.9291 69.9722 11.9788 69.8828 11.9788H67.792L66.8699 12.0938C66.7897 12.1124 66.7496 12.1 66.7342 12.0627C66.6849 11.8887 66.6448 11.7179 66.6201 11.5377C66.6047 11.4911 66.6571 11.4756 66.762 11.4818L67.792 11.5781V11.5812ZM67.681 13.0506H68.3841L69.0039 12.187C69.0594 12.1155 69.1211 12.1155 69.189 12.2056L69.9137 13.0723C70.0093 13.1655 70.037 13.2494 70.0123 13.3177C69.9753 13.4109 69.9137 13.4482 69.8273 13.4482H67.681L66.7527 13.5632C66.6725 13.5818 66.6355 13.5756 66.6355 13.5352C66.5862 13.3612 66.5399 13.1873 66.5029 13.0102C66.4937 12.9636 66.5399 12.945 66.6479 12.9543L67.681 13.0537V13.0506ZM73.5279 11.5812H74.12L74.7399 10.7207C74.7985 10.6461 74.857 10.6461 74.928 10.7331L75.6496 11.5967C75.7452 11.693 75.7791 11.78 75.7544 11.8483C75.7144 11.9291 75.6496 11.9788 75.5632 11.9788H73.5248L72.6028 12.0938C72.5257 12.1124 72.4825 12.1 72.4732 12.0627C72.4239 11.8887 72.3776 11.7179 72.3376 11.5377C72.3376 11.4911 72.3961 11.4756 72.501 11.4818L73.5248 11.5781L73.5279 11.5812ZM73.5279 12.9947H74.4006L75.0174 12.131C75.0883 12.0534 75.1531 12.0596 75.2086 12.1435L75.9487 13.0071C76.0351 13.1034 76.0659 13.1904 76.0351 13.2525C76.0104 13.3426 75.9456 13.3892 75.847 13.3892H73.5341L72.612 13.501C72.5349 13.5197 72.4917 13.5135 72.4825 13.4762C72.4331 13.3022 72.3869 13.1251 72.3468 12.9512C72.3468 12.9046 72.4054 12.8859 72.5102 12.8953L73.5341 12.9947H73.5279ZM67.6285 18.5461V19.1332C67.6131 19.2078 67.5761 19.2823 67.5113 19.3445C67.1968 19.478 66.9038 19.4998 66.6109 19.4004C66.5338 19.3631 66.4968 19.3041 66.4968 19.2078V14.1627C66.4844 14.1037 66.4813 14.0478 66.4813 13.9888C66.4906 13.9639 66.5276 13.9577 66.5831 13.9639C66.8699 14.1068 67.1937 14.2901 67.5669 14.5169H74.8231L75.5262 13.8396C75.6218 13.7433 75.7113 13.7433 75.8069 13.8396L76.4791 14.5293C76.9726 15.0232 76.8893 15.3588 76.2324 15.5296C76.1646 15.5451 76.1307 15.5886 76.1307 15.6539V18.8536C76.1214 18.981 76.0536 19.0742 75.9364 19.1363C75.6897 19.2419 75.4399 19.2606 75.1901 19.1922C75.0606 19.1363 74.9989 19.0493 74.9989 18.9251V18.5461H71.9274V19.1239C71.9274 19.4377 72.0353 19.68 72.2512 19.8322C72.3406 19.8912 72.5411 19.9409 72.8556 19.9999C74.4623 20.1366 75.6773 20.0963 76.5007 19.9036C76.7567 19.7297 77.0157 19.2668 77.284 18.4995C77.321 18.397 77.3889 18.3473 77.4906 18.3566C77.5862 18.3908 77.6356 18.4467 77.6356 18.5461C77.577 19.2699 77.6202 19.6738 77.7682 19.7607C78.0426 19.8633 78.1783 20.0497 78.1783 20.3137C78.1783 20.6026 77.9162 20.8077 77.3981 20.9226C76.7413 21.0779 75.6897 21.168 74.2372 21.1742C72.7076 21.1556 71.7485 21.0003 71.3538 20.7113C70.9807 20.4069 70.7956 19.9906 70.7956 19.4749V18.5461H67.6285ZM70.7956 16.735H67.6285V18.1453H70.7956V16.735ZM71.9274 18.1453H74.9989V16.735H71.9274V18.1453ZM70.7956 14.9114H67.8783L67.6285 14.9549V16.3404H70.7956V14.9114ZM71.9274 16.3404H74.9989V14.9114H71.9274V16.3404Z" fill="white"/>
<path d="M81.3178 13.9826C81.1759 14.0013 81.105 14.0914 81.0927 14.2653C81.0865 14.5511 80.9755 14.7034 80.772 14.7344C80.553 14.7531 80.4173 14.6257 80.3618 14.3399C80.2508 13.8646 80.1398 13.3893 80.0195 12.8953C79.9887 12.7897 80.0627 12.7431 80.2415 12.7555C80.957 12.827 81.7125 12.8798 82.5174 12.9078C82.724 12.6064 82.9245 12.302 83.1064 11.9913C83.5782 11.1277 84.084 9.7515 84.6237 7.8534C84.6452 7.77884 84.6884 7.75399 84.7563 7.78505C85.1818 7.92795 85.6166 8.06154 86.0484 8.17337C86.4215 8.28831 86.5881 8.45918 86.551 8.68595C86.4986 8.89409 86.2766 8.99972 85.8726 8.99972C85.777 8.9904 85.6999 9.03699 85.6506 9.15504C84.9845 10.6369 84.1241 11.8857 83.0817 12.9078C85.521 12.9668 87.8678 12.7555 90.1098 12.2678C89.8137 11.5937 89.4128 11.0345 88.904 10.5996C88.8516 10.5499 88.8485 10.494 88.8732 10.4318C88.9194 10.3635 88.9811 10.3511 89.052 10.3883C89.6287 10.7021 90.2085 11.1681 90.7851 11.7894C91.6949 12.8021 92.0958 13.5788 91.9786 14.1131C91.9354 14.2933 91.8275 14.4175 91.6548 14.4828C91.4821 14.5356 91.3217 14.5201 91.1675 14.4238C91.0133 14.3181 90.705 13.7155 90.2393 12.5971C88.1855 13.2277 85.2096 13.6968 81.3178 13.9857V13.9826ZM82.8875 20.8295C82.8751 20.9009 82.8412 20.9724 82.7795 21.0407C82.4619 21.1712 82.1566 21.1867 81.8698 21.0935C81.7927 21.0563 81.7557 20.9941 81.7557 20.8978V15.0606C81.7403 15.0016 81.7341 14.9488 81.7341 14.8897C81.7464 14.8618 81.7804 14.8525 81.842 14.8618C82.1258 15.0016 82.4526 15.188 82.8258 15.4179H89.0212L89.7274 14.7344C89.823 14.6381 89.9217 14.6381 90.008 14.7344L90.6895 15.4303C91.1675 15.9211 91.0874 16.2535 90.4367 16.4244C90.3688 16.443 90.338 16.4834 90.338 16.5518V20.8792C90.3226 21.0065 90.2609 21.0997 90.1406 21.165C89.8816 21.2706 89.6318 21.2892 89.3943 21.224C89.2648 21.165 89.197 21.0718 89.197 20.9537V20.1212H82.8875V20.8295ZM89.197 19.7266V15.8155H83.1958L82.8905 15.859V19.7266H89.2001H89.197Z" fill="white"/>
<path d="M29.7837 26.2286C29.7837 28.31 28.1061 30 26.0368 30H3.74686C1.67761 30 0 28.31 0 26.2286V3.77446C0 1.68997 1.67761 0 3.74686 0H26.0337C28.103 0 29.7806 1.68997 29.7806 3.77446V26.2286H29.7837Z" fill="#920009"/>
<path d="M18.216 26.9651L18.66 26.9247C18.6971 27.1329 18.7711 27.2882 18.8759 27.3814C18.9808 27.4746 19.1165 27.5243 19.283 27.5243C19.4248 27.5243 19.5513 27.4932 19.6561 27.4249C19.7641 27.3597 19.8535 27.2727 19.9213 27.1639C19.9923 27.0521 20.0447 26.9061 20.094 26.7197C20.1403 26.5364 20.165 26.3469 20.165 26.1543C20.165 26.1326 20.165 26.1015 20.1619 26.0611C20.0694 26.2071 19.9429 26.3283 19.7856 26.4215C19.6253 26.5116 19.4526 26.5582 19.2645 26.5582C18.953 26.5582 18.6909 26.4432 18.4781 26.2164C18.2622 25.9897 18.1543 25.6914 18.1543 25.3155C18.1543 24.9397 18.2653 24.6228 18.4904 24.3867C18.7156 24.1537 18.9962 24.0356 19.3354 24.0356C19.579 24.0356 19.8041 24.1009 20.0077 24.2345C20.2112 24.3649 20.3654 24.5544 20.4703 24.7999C20.5782 25.0453 20.6275 25.3994 20.6275 25.8654C20.6275 26.3314 20.5751 26.7352 20.4703 27.021C20.3654 27.3068 20.2081 27.5274 20.0077 27.6734C19.8011 27.8225 19.5574 27.9002 19.2799 27.9002C18.9869 27.9002 18.7464 27.8163 18.5583 27.6548C18.3732 27.487 18.2622 27.2571 18.2221 26.962L18.216 26.9651ZM20.1094 25.2938C20.1094 25.0266 20.0385 24.8123 19.8967 24.657C19.7548 24.5016 19.5852 24.4209 19.3878 24.4209C19.1905 24.4209 19.0054 24.5078 18.8512 24.6756C18.7001 24.8433 18.623 25.0639 18.623 25.3311C18.623 25.5703 18.6971 25.766 18.842 25.9182C18.9838 26.0673 19.1627 26.145 19.3755 26.145C19.5883 26.145 19.7641 26.0704 19.9028 25.9182C20.0385 25.7691 20.1094 25.5579 20.1094 25.2907V25.2938Z" fill="white"/>
<path d="M21.1396 26.9651L21.5837 26.9247C21.6207 27.1329 21.6947 27.2882 21.7996 27.3814C21.9075 27.4746 22.0401 27.5243 22.2066 27.5243C22.3485 27.5243 22.4749 27.4932 22.5798 27.4249C22.6846 27.3597 22.7741 27.2727 22.8419 27.1639C22.9067 27.0521 22.9652 26.9061 23.0146 26.7197C23.0578 26.5364 23.0855 26.3469 23.0855 26.1543C23.0855 26.1326 23.0855 26.1015 23.0824 26.0611C22.9899 26.2071 22.8635 26.3283 22.7031 26.4215C22.5428 26.5116 22.3701 26.5582 22.185 26.5582C21.8736 26.5582 21.6114 26.4432 21.3956 26.2164C21.1828 25.9897 21.0718 25.6914 21.0718 25.3155C21.0718 24.9397 21.1859 24.6228 21.411 24.3867C21.6361 24.1537 21.9167 24.0356 22.256 24.0356C22.4996 24.0356 22.7216 24.1009 22.9252 24.2345C23.1287 24.3649 23.2798 24.5544 23.3846 24.7999C23.4895 25.0453 23.5419 25.3994 23.5419 25.8654C23.5419 26.3314 23.4895 26.7352 23.3877 27.021C23.2829 27.3068 23.1287 27.5274 22.9221 27.6734C22.7185 27.8225 22.4749 27.9002 22.1974 27.9002C21.9044 27.9002 21.6639 27.8163 21.4788 27.6548C21.2938 27.487 21.1828 27.2571 21.1427 26.962L21.1396 26.9651ZM23.03 25.2938C23.03 25.0266 22.9591 24.8123 22.8203 24.657C22.6785 24.5016 22.5088 24.4209 22.3115 24.4209C22.1141 24.4209 21.9291 24.5078 21.7749 24.6756C21.6238 24.8433 21.5467 25.0639 21.5467 25.3311C21.5467 25.5703 21.6176 25.766 21.7626 25.9182C21.9075 26.0673 22.0833 26.145 22.2961 26.145C22.5088 26.145 22.6877 26.0704 22.8234 25.9182C22.9622 25.7691 23.03 25.5579 23.03 25.2907V25.2938Z" fill="white"/>
<path d="M24.0195 24.5482V24.104H26.4527V24.4644C26.2152 24.7253 25.9778 25.0639 25.7403 25.4864C25.5059 25.912 25.324 26.35 25.1945 26.8005C25.102 27.1143 25.0434 27.4622 25.0187 27.8381H24.5438C24.5469 27.5399 24.6055 27.1795 24.7196 26.757C24.8306 26.3376 24.9909 25.9276 25.1976 25.5361C25.4042 25.1447 25.6262 24.8123 25.8606 24.5451H24.0195V24.5482Z" fill="white"/>
<path d="M21.8616 11.3696C21.766 11.4007 21.8 11.2982 21.7938 11.2423C21.7259 11.2578 21.7229 11.2143 21.729 11.1584C21.6242 11.1864 21.6612 11.0776 21.5841 11.0776V10.8974C21.5101 10.8788 21.4577 10.8415 21.4546 10.7514C21.396 10.7514 21.2942 10.7825 21.3281 10.6862H20.8409V10.621H20.5818C20.5942 10.6769 20.5726 10.6986 20.514 10.6862V11.9754H19.3637C19.3545 12.0003 19.3822 12.0593 19.3483 12.0562H18.9597V11.5032H19.0924C19.0708 11.41 19.1787 11.4473 19.1725 11.3727H19.3051C19.3298 11.2889 19.3761 11.2267 19.4994 11.2454C19.4686 11.1398 19.558 11.1584 19.6289 11.1615C19.6104 11.0932 19.6536 11.0901 19.7122 11.0963C19.7338 11.0093 19.7831 10.9472 19.9065 10.9658C19.9157 10.8571 20.0391 10.8633 20.0483 10.7545H20.1809C20.2334 10.6116 20.3876 10.5619 20.4554 10.4315H20.6497C20.6589 10.4066 20.6281 10.3476 20.6651 10.3507H20.9272C20.8964 10.2544 20.9982 10.2917 21.0568 10.2855C21.0907 10.1581 21.2202 10.1363 21.2665 10.0214H21.396C21.3682 9.92199 21.4792 9.95305 21.4792 9.87539H21.5933V9.74492C21.7136 9.73249 21.7044 9.58337 21.8709 9.61444V9.20748C21.7691 9.23544 21.8154 9.1205 21.803 9.05837C21.7105 9.08943 21.7475 8.98692 21.7383 8.92789C21.6334 8.95585 21.6704 8.84401 21.5933 8.84401V8.72907C21.4916 8.76014 21.5378 8.6452 21.5286 8.58306C21.4731 8.59549 21.4515 8.57685 21.4638 8.51783H21.3374C21.3312 8.40599 21.1863 8.43706 21.1924 8.31901H21.0629V8.23824H20.9334C20.9704 8.1264 20.8131 8.2196 20.8532 8.11087H20.5263V8.04563H20.3814V7.98039H20.2519V7.91515H20.1224V7.83438C20.0668 7.8406 20.0237 7.83438 20.0422 7.76915H19.8479V7.70391H19.1694V7.63867H18.6976C18.7285 7.75361 18.5743 7.68527 18.5033 7.70391C18.5249 7.77225 18.4756 7.77847 18.4201 7.76915V7.91515C18.2443 7.98039 18.2073 8.18543 18.0161 8.24134C18.0161 8.33143 17.9575 8.36871 17.8866 8.38735V8.52093H17.8218C17.8126 8.55821 17.8434 8.63898 17.8064 8.6483H17.609V8.79742C17.4888 8.80363 17.5196 8.96828 17.35 8.92789V9.40009C17.2575 9.37213 17.2945 9.47154 17.2852 9.53367H17.202C17.2112 9.58959 17.202 9.63308 17.1372 9.61444V9.74492C17.0293 9.74492 17.0539 9.8785 16.9429 9.87539V10.0214C16.9984 10.009 17.0231 10.0307 17.0077 10.0866C17.0478 10.096 17.1249 10.068 17.1372 10.1022V10.2823C17.1094 10.2886 17.057 10.2637 17.0755 10.3134C17.1125 10.3755 17.1865 10.4066 17.202 10.4905H17.3469V10.5588H17.4764C17.4425 10.6582 17.5782 10.5899 17.5412 10.6862H17.6861V10.7514H17.8835V10.8353H18.013V10.9658C17.9297 10.9751 17.9082 11.0466 17.865 11.0963H17.6861C17.7077 11.1615 17.6615 11.1708 17.6059 11.1615C17.5998 11.1864 17.6244 11.2485 17.5905 11.2454H17.1341V11.3727H17.0724V11.5032C16.9707 11.4659 17.0416 11.6057 16.9398 11.5685V11.7797C16.8381 11.7486 16.9059 11.8884 16.7949 11.8449C16.7856 11.904 16.8226 12.0034 16.7271 11.9754V12.2519C16.7826 12.2395 16.8072 12.2612 16.7949 12.3171C16.8843 12.3234 16.9306 12.3731 16.9398 12.4631C17.0663 12.5004 17.0909 12.6278 17.1989 12.6775C17.1711 12.9322 17.2667 13.3081 17.1341 13.4604C17.1526 13.4976 17.2359 13.4666 17.2791 13.479V13.5442H17.4733C17.4456 13.6374 17.5443 13.6033 17.6029 13.6095V13.6902H17.7509V13.7555H18.0099C17.9729 13.8642 18.1302 13.7741 18.0932 13.886H18.6267V13.9512H18.7593V14.0164H18.9012V14.0972H19.5025C19.5118 14.0723 19.484 14.0133 19.5179 14.0164H20.1193V14.1624C20.2118 14.1314 20.1779 14.2339 20.1871 14.2929C20.2426 14.2805 20.2611 14.3022 20.2488 14.3581H20.5233C20.4955 14.4513 20.5942 14.4172 20.6559 14.4234V14.5042H20.8501V14.5694H21.3374C21.3065 14.4762 21.4052 14.5135 21.4638 14.5042C21.4669 14.4172 21.5193 14.3768 21.5933 14.3581V14.1624H21.6581V13.9512H21.7383V13.6902H21.803V13.4106H21.8709V13.0006H21.9356V11.7797C21.7938 11.7611 21.9048 11.4939 21.8709 11.3696H21.8616ZM18.8179 10.1488H18.2165C18.2011 10.0742 18.158 10.0307 18.087 10.0152V9.67346H18.1518V9.39698H18.2165V9.13603C18.2936 9.1205 18.3214 9.05526 18.3461 8.99002C18.4077 8.9807 18.5218 9.0273 18.491 8.92479C18.5496 8.91857 18.6514 8.95274 18.6205 8.85955H18.9443C18.9783 8.84712 18.9505 8.76946 18.9597 8.72907H19.1571V8.79431H19.3021C19.2866 8.85023 19.3113 8.87197 19.3637 8.85955C19.3699 8.91857 19.336 9.01798 19.4285 8.99002C19.4377 9.05215 19.3946 9.1671 19.4933 9.13603C19.4778 9.26029 19.5364 9.30689 19.6228 9.33174V9.53056C19.5549 9.50882 19.5518 9.55542 19.558 9.61133C19.4316 9.56784 19.4532 9.67968 19.3637 9.67657V9.81015C19.1941 9.79773 19.1324 9.90335 19.0893 10.0183C19.0307 10.0276 18.9289 9.99033 18.9567 10.0835C18.8981 10.0928 18.7809 10.0494 18.8117 10.1488H18.8179Z" fill="white"/>
<path d="M11.142 9.60235C11.2561 9.63963 11.1636 9.47809 11.2715 9.51847V9.3911H11.3394V9.25752C11.438 9.29169 11.3671 9.15811 11.4689 9.19229V8.09878H11.2068C11.2129 8.00869 11.1019 8.03354 11.142 7.90306C11.0742 7.9186 11.0464 7.89064 11.0618 7.81919C11.0032 7.81297 10.9015 7.84715 10.9323 7.75706H10.6578C10.6856 7.85025 10.5869 7.81297 10.5283 7.81919C10.5592 7.9217 10.4697 7.90306 10.3988 7.90306C10.4266 8.00558 10.3124 7.95898 10.2539 7.9683V8.09878H10.1213V8.22925C10.038 8.23857 10.0257 8.32866 9.9794 8.37526H9.78203V8.22925C9.68643 8.26032 9.72344 8.1578 9.71727 8.09878C9.6926 8.09567 9.65868 8.10499 9.65251 8.08324V7.41534C9.597 7.43087 9.57233 7.40602 9.58775 7.3501H9.37496C9.4058 7.4464 9.30404 7.40912 9.24853 7.41534V7.56134C9.16526 7.57066 9.14368 7.63901 9.10359 7.69182H8.97407C8.96173 7.76327 8.91856 7.80676 8.84763 7.82229C8.87538 7.92481 8.76436 7.89064 8.76436 7.97141H8.65335C8.67493 8.07082 8.54233 8.0149 8.55466 8.10188H8.44056C8.4714 8.19819 8.36963 8.16091 8.31104 8.16712C8.32338 8.251 8.22469 8.22925 8.22778 8.31002H8.10134V8.44361C7.94715 8.42497 7.94407 8.55544 7.76212 8.50884V8.72009H7.69736V8.85056C7.59868 8.81639 7.6696 8.94997 7.56784 8.9158V9.19229H7.50308V9.3911H7.43832V9.60235H7.35505V10.0093C7.25637 9.97514 7.3273 10.1087 7.22553 10.0714V10.3324C7.32421 10.3106 7.26871 10.4411 7.35505 10.4318V10.5467C7.44757 10.5467 7.48149 10.6058 7.50308 10.6772H7.6326V10.7425H8.44056C8.40972 10.6493 8.51149 10.6834 8.57008 10.6772C8.57008 10.6493 8.56392 10.6182 8.5855 10.612H8.84763V10.9537C8.69652 10.9164 8.72736 11.0655 8.57008 11.0189C8.55775 11.0904 8.51149 11.1339 8.44056 11.1494V11.2302C8.30487 11.255 8.31413 11.4166 8.1661 11.4259C8.15068 11.4973 8.10751 11.5408 8.03658 11.5564C8.01808 11.6993 7.87005 11.7148 7.82688 11.8329H7.69736C7.67577 11.9167 7.62643 11.9758 7.50308 11.9633C7.49691 12.0534 7.44757 12.1031 7.35505 12.1093C7.33347 12.1932 7.28721 12.2553 7.16385 12.2398C7.17311 12.2957 7.15152 12.3206 7.09601 12.3051V12.5163H7.03125V12.6468C7.1176 12.6281 7.08676 12.7307 7.16385 12.7307V13.119C7.29646 13.119 7.19469 13.3551 7.22553 13.4638C7.31496 13.4452 7.28104 13.5508 7.35505 13.5477V13.8708H7.50308V13.936H7.69736C7.6696 14.0354 7.80529 13.9702 7.76212 14.082H8.24628C8.25553 14.0572 8.22778 13.9981 8.2617 14.0012H8.50224C8.47757 13.8801 8.6441 13.9577 8.71194 13.936C8.69344 13.8086 8.88772 13.8987 8.97098 13.8708C8.95865 13.7434 9.1591 13.8335 9.24853 13.8055C9.25161 13.7776 9.24236 13.7434 9.26395 13.7403H9.71727C9.70493 13.6129 9.90847 13.703 9.99173 13.675C10.001 13.6533 9.97323 13.5912 10.0072 13.5943H10.186C10.2045 13.4545 10.4697 13.5632 10.59 13.529V13.5943H10.7997V13.675H10.994V13.7403H11.398C11.3856 13.6844 11.4072 13.6626 11.4627 13.675V11.8981C11.3486 11.9229 11.4195 11.7707 11.398 11.6993C11.2808 11.7272 11.3548 11.5595 11.3332 11.488C11.216 11.516 11.2869 11.3607 11.2654 11.2923C11.1482 11.3172 11.2222 11.1494 11.2006 11.0811C11.0772 11.0997 11.1636 10.904 11.1358 10.8201C11.068 10.8357 11.0402 10.8077 11.0557 10.7362H10.9261C10.9015 10.8512 10.8244 10.904 10.7319 10.9475C10.7226 10.9879 10.7534 11.0655 10.7133 11.078H10.5838C10.5592 11.1463 10.5314 11.2084 10.4543 11.224V11.4197H10.3895V11.5502H10.3248V11.8266H10.0472C10.0257 11.9105 9.9794 11.9695 9.85296 11.9571C9.84371 11.982 9.87146 12.041 9.83446 12.0379C9.64017 12.0255 9.40272 12.0565 9.23619 12.0192V11.9571C9.33487 11.9913 9.26395 11.8546 9.36263 11.8919V11.6931C9.47673 11.7334 9.41197 11.5999 9.51065 11.6278C9.5014 11.5688 9.51065 11.5284 9.57541 11.5471V11.4166H9.64017V11.2892C9.74194 11.3234 9.67101 11.1867 9.7697 11.2209V11.0749C9.88071 11.0935 9.84371 10.963 9.9794 11.0096V10.8791H10.1089C10.0997 10.7922 10.1983 10.8139 10.1922 10.73H10.3217C10.2909 10.6368 10.3926 10.671 10.4512 10.6648C10.5067 10.5654 10.553 10.4535 10.7257 10.4691V10.32C10.8521 10.2982 10.8552 10.1491 10.9847 10.1243V9.99378C11.0526 10.0124 11.0557 9.96582 11.0495 9.9099H11.1297V9.58682L11.142 9.60235ZM10.5283 9.25752C10.4173 9.25442 10.4451 9.3911 10.334 9.3911V9.51847C10.2631 9.52158 10.1552 9.49051 10.1891 9.60235C10.1182 9.61788 9.96706 9.54954 9.99173 9.66448C9.93314 9.67069 9.83446 9.63652 9.86221 9.72972H9.66793C9.66793 9.80428 9.56925 9.77321 9.58775 9.86019C9.52607 9.86641 9.42739 9.82913 9.45823 9.92543H9.24853C9.27628 9.82913 9.1776 9.86641 9.11592 9.86019C9.12826 9.75146 9.12517 9.65827 9.05425 9.63342C9.04191 9.57128 9.13134 9.61167 9.16526 9.60235C9.19919 9.5806 9.1591 9.4843 9.24853 9.51847V9.32276C9.30404 9.33829 9.32562 9.31344 9.31329 9.25752H9.44281C9.47673 9.2451 9.44898 9.16433 9.46131 9.13015C9.57233 9.16433 9.47673 9.00589 9.59083 9.04317V8.84746C9.65868 8.82571 9.81287 8.89716 9.78511 8.78222H9.99481V8.84746H10.3371V8.9127H10.4666C10.4512 8.96861 10.4759 8.99036 10.5314 8.97793V9.25442L10.5283 9.25752Z" fill="white"/>
<path d="M12.9707 18.1421C12.8782 18.17 12.909 18.0675 12.9059 18.0054C12.8165 18.0302 12.8566 17.9277 12.7764 17.9277V17.732C12.6747 17.7631 12.6993 17.6761 12.6993 17.6046C12.5914 17.5922 12.5914 17.4773 12.505 17.4555V17.2598C12.4156 17.2381 12.357 17.1915 12.3755 17.0641C12.2768 17.0641 12.2583 16.9864 12.2306 16.9212H12.0332V16.8559H11.7618C11.7958 16.7565 11.6601 16.828 11.6971 16.7224C11.6416 16.7193 11.5367 16.7565 11.5676 16.6571H11.4874C11.4596 16.741 11.4134 16.8031 11.2931 16.7876C11.2931 16.8932 11.179 16.8808 11.1605 16.9678C11.2592 16.9678 11.2222 17.1076 11.2253 17.1946C11.1266 17.1666 11.1913 17.3064 11.0803 17.2598C11.0649 17.3344 11.0248 17.3778 10.9477 17.3934V17.471C10.8644 17.4804 10.8429 17.5518 10.8059 17.6046H10.6732C10.6208 17.7009 10.5746 17.8066 10.4173 17.8003V17.8811C10.3433 17.8532 10.3649 17.9277 10.334 17.9463H10.2045C10.2353 18.0426 10.1336 18.0023 10.0781 18.0054C10.0441 18.1421 9.89921 18.1545 9.86837 18.285H9.73576C9.76969 18.3844 9.66484 18.3502 9.60933 18.3533V18.4838C9.52915 18.4558 9.5569 18.5273 9.52606 18.549H9.33178C9.35954 18.6609 9.20534 18.5956 9.13442 18.6143C9.14367 18.6702 9.14058 18.7168 9.07274 18.695V18.8286C8.95864 18.8069 8.99564 18.9404 8.85996 18.8938C8.89388 18.9901 8.79211 18.9498 8.73043 18.9591V19.102H8.58858C8.604 19.1952 8.49915 19.1641 8.50531 19.2356H8.32954C8.35729 19.3536 8.19076 19.2791 8.11984 19.3008C8.14759 19.4126 7.99031 19.3443 7.92247 19.366V19.5773H8.45597C8.41897 19.6767 8.55774 19.6052 8.52073 19.7047H9.39346V19.7699H9.66792V19.8351H9.94855C9.97014 19.7513 10.0195 19.686 10.1428 19.7047C10.1151 19.5835 10.2847 19.6581 10.3525 19.6394C10.3741 19.5586 10.4204 19.4903 10.5468 19.5089C10.5561 19.4872 10.5283 19.422 10.5622 19.422H10.886C10.8583 19.3101 11.0125 19.3785 11.0834 19.3629C11.0587 19.2635 11.1882 19.3194 11.1821 19.2325H11.2962C11.3178 19.1455 11.3671 19.0833 11.4905 19.0989C11.4535 18.9933 11.5614 19.0243 11.6354 19.0212C11.657 18.9373 11.7063 18.8721 11.8297 18.8907C11.8081 18.8006 11.913 18.8348 11.9037 18.7603H12.7024C12.7086 18.6267 12.9399 18.7261 13.0416 18.695V18.4838C12.9059 18.4838 13.0077 18.2477 12.9769 18.1452L12.9707 18.1421ZM19.1075 19.0833V18.956C19.015 18.9839 19.052 18.8845 19.0428 18.8255C19.015 18.8255 18.9657 18.8441 18.978 18.7913C18.9595 18.723 19.0798 18.7913 19.0428 18.7106C18.9688 18.7043 18.9688 18.6298 18.978 18.5459C18.9225 18.5614 18.904 18.5366 18.9133 18.4807H18.8362C18.8732 18.3813 18.7344 18.4496 18.7714 18.3502C18.7313 18.3378 18.6573 18.3657 18.6419 18.3285V18.2011C18.5864 18.2104 18.5617 18.1918 18.5771 18.139H18.4322C18.4322 18.0271 18.2996 18.0489 18.3027 17.9401H18.1731C18.1947 17.8376 18.0652 17.9029 18.1022 17.791C18.0498 17.7972 18.0035 17.791 18.022 17.7258H17.8925C17.9295 17.6233 17.7938 17.6978 17.8339 17.5984H17.4947V17.5332H17.2141C17.2418 17.44 17.1431 17.4742 17.0845 17.4648V17.3872H16.8903V17.3219H16.7422V17.2567H16.551C16.588 17.1604 16.4524 17.2287 16.4863 17.1262H16.403C16.4369 17.033 16.3012 17.0951 16.3383 16.9833H15.8695V17.1262C15.7708 17.0952 15.8418 17.2318 15.7431 17.1915V17.4679C15.8325 17.4431 15.7986 17.5425 15.8047 17.6015C15.8325 17.6015 15.8695 17.5922 15.8695 17.6202V17.9463C16.0114 17.9463 15.9065 18.1824 15.9343 18.285C15.9559 18.2943 16.0175 18.2663 16.0175 18.3067V18.549C16.1193 18.5211 16.073 18.636 16.0823 18.695C16.1748 18.6671 16.144 18.7696 16.144 18.8286C16.2427 18.7975 16.2087 18.897 16.2149 18.9591C16.3167 18.9249 16.2704 19.043 16.2797 19.102C16.3012 19.1082 16.3383 19.102 16.3383 19.1237V19.3691C16.44 19.335 16.3999 19.453 16.403 19.5152C16.4647 19.5058 16.5048 19.512 16.4863 19.5804H16.6127V19.6425C16.6559 19.6518 16.733 19.6208 16.7422 19.6612V19.8382C16.7176 19.8382 16.6621 19.8227 16.6806 19.8662V19.9004C16.733 19.9439 16.8008 19.9656 16.8101 20.0495H16.8903C16.8903 20.1613 17.0198 20.1334 17.0198 20.2483C17.0568 20.2576 17.137 20.2235 17.1524 20.2607V20.3881C17.2141 20.4161 17.2819 20.444 17.2942 20.5217H18.2348V20.3881C18.3181 20.3788 18.3458 20.3104 18.3797 20.2452C18.463 20.2545 18.5216 20.2452 18.5278 20.1737H18.6388C18.6419 20.2048 18.6203 20.2638 18.6696 20.2452C18.7621 20.1831 18.7806 20.0619 18.9102 20.0464C18.9009 19.9905 18.9194 19.9656 18.9749 19.9811V19.832H19.0397V19.7015H19.1045V19.5058C19.2155 19.5462 19.126 19.3847 19.234 19.4189V19.161C19.1445 19.1796 19.1815 19.0771 19.1045 19.0802L19.1075 19.0833ZM25.343 14.6161C25.306 14.6534 25.2845 14.7062 25.1827 14.6814C25.2104 14.8025 25.0439 14.728 24.973 14.7497V14.8771H24.8435C24.8342 14.9019 24.862 14.9609 24.828 14.9578H24.6492C24.6831 15.0604 24.5659 15.0138 24.5042 15.0231C24.532 15.1411 24.3778 15.0728 24.31 15.0914C24.3223 15.2188 24.1188 15.1287 24.0324 15.1536C24.0324 15.1815 24.0386 15.2157 24.017 15.2219H23.0918C23.0918 15.2436 23.098 15.2809 23.0764 15.2871H21.26C21.2971 15.1877 21.1614 15.2561 21.1984 15.1536H20.045V15.0914H19.641V15.0231H19.2371V14.9578H17.9573C17.9974 14.846 17.8647 14.9143 17.8925 14.8149H17.6982V14.7497H17.4885V14.6814H17.2912V14.6161H17.0815V14.5509C16.6836 14.5385 16.2427 14.5726 15.8664 14.5353C15.8788 14.4515 15.8448 14.3303 15.8818 14.2744H16.3383V12.9883H16.403V12.7087H16.4863V12.513H16.551V12.3017H16.6127V10.7982C16.588 10.7982 16.5541 10.8044 16.551 10.7826V9.52758C16.5449 9.49341 16.4554 9.5369 16.4863 9.46234C16.5973 9.41575 16.622 9.28216 16.7422 9.2511V8.62979C16.6559 8.65153 16.6867 8.54591 16.6127 8.54902V8.36884C16.4986 8.39369 16.5665 8.22594 16.551 8.1607C16.4832 8.13585 16.4184 8.10789 16.4061 8.02712H16.144V7.96188H15.8695V7.88111H15.6752V7.81587H15.336C15.3638 7.91217 15.262 7.8749 15.2065 7.88111C15.2404 7.99916 15.1016 7.94013 15.1078 8.02712H14.9937C14.9814 8.09857 14.9382 8.14206 14.8673 8.1607V8.36884H14.7223C14.7624 8.257 14.6267 8.32224 14.6576 8.22283H14.525C14.5558 8.14206 14.4818 8.17002 14.4602 8.14206V7.55492C14.3584 7.58599 14.4047 7.46794 14.3954 7.40891C14.2906 7.44308 14.3122 7.35299 14.3122 7.28154C14.2197 7.3095 14.2536 7.20699 14.2474 7.14796H13.9884V7.06719H13.7787V7.00195H13.3747C13.3994 7.09515 13.3007 7.05787 13.2421 7.06719V7.27844H13.1773V7.47415H13.0971V8.02712H13.0324V8.1607H12.9645V8.43407C12.8813 8.4465 12.8597 8.51174 12.8165 8.56455H12.5606V8.43407C12.468 8.45271 12.505 8.3502 12.431 8.3502C12.4064 8.21351 12.2398 8.22904 12.2213 8.08925H12.0271C12.0209 8.14827 12.0579 8.25079 11.9623 8.22283V8.56455H11.879V9.38157H11.8143V9.65806H11.7526V9.98425H11.6878V10.326C11.8235 10.3477 11.7156 10.6118 11.7526 10.7329C11.8513 10.7019 11.805 10.8199 11.8143 10.8789C11.842 10.882 11.8759 10.8727 11.879 10.8945V11.289C11.9037 11.2952 11.9654 11.2673 11.9623 11.3045V11.5499C11.987 11.5499 12.0209 11.5437 12.0271 11.5655V12.0221H11.9623V12.3017C11.9284 12.3079 11.8636 12.2769 11.879 12.3328C11.8544 12.4011 11.9654 12.3328 11.9623 12.3825V12.6403C12.0733 12.6155 12.0085 12.7646 12.0271 12.8361C12.1442 12.8112 12.0733 12.9759 12.0918 13.0473C12.2213 13.0318 12.1319 13.2368 12.1566 13.3238C12.1812 13.3238 12.2152 13.3176 12.2213 13.3393V13.7991C12.3138 13.768 12.2799 13.8674 12.2861 13.9296H12.6901C12.6654 13.8084 12.8319 13.883 12.8998 13.8643C12.9029 13.7276 13.1372 13.8302 13.239 13.7991C13.2452 13.7742 13.2328 13.7401 13.2575 13.7339H15.2003C15.2003 13.6904 15.1849 13.6313 15.2497 13.65C15.2867 13.6655 15.2558 13.7525 15.2651 13.796C15.3052 13.8053 15.3853 13.7742 15.3977 13.8115V13.9917C15.4994 13.9606 15.4532 14.0787 15.4624 14.1377C15.5796 14.1098 15.5087 14.2651 15.5272 14.3365C15.5519 14.3427 15.6136 14.3179 15.6105 14.3521V14.467C15.521 14.4328 15.5395 14.5136 15.5118 14.5478H15.2682V14.467H15.0615V14.4018H13.0385C13.0324 14.4266 13.0416 14.4608 13.02 14.467H11.2253C11.216 14.4919 11.2438 14.5509 11.2068 14.5478H10.075C10.0688 14.5726 10.0781 14.6099 10.0565 14.613H9.5384C9.53532 14.6379 9.54457 14.672 9.5199 14.6783H8.92163C8.92163 14.7031 8.9278 14.7404 8.90621 14.7466H8.32337C8.30178 14.8336 8.24319 14.8926 8.11675 14.874C8.10442 14.8988 8.13525 14.9578 8.09825 14.9547H7.91939C7.91939 14.9796 7.92555 15.0169 7.90397 15.02H7.3643C7.37046 15.1567 7.14226 15.0573 7.04049 15.0883C7.06825 15.2064 6.90172 15.1318 6.83079 15.1504C6.86163 15.2685 6.70436 15.2002 6.63651 15.2188C6.61801 15.3586 6.35588 15.2499 6.23253 15.284C6.26337 15.399 6.12768 15.3399 6.13385 15.43H5.95498C5.97657 15.5201 5.87172 15.486 5.8748 15.5605H5.74528C5.77612 15.6568 5.67435 15.6195 5.61576 15.6257C5.64352 15.7252 5.54483 15.6848 5.48624 15.691V15.9053C5.40606 15.8743 5.4369 15.9488 5.40606 15.9675H5.27654C5.30738 16.0824 5.1501 16.0172 5.08226 16.0327C5.06067 16.1073 5.02675 16.1632 4.93732 16.1663V16.4459H4.87256V16.6571C4.98666 16.6261 4.91882 16.7814 4.93732 16.8528C4.96199 16.8622 5.02058 16.8342 5.0175 16.8715V17.0641C5.14394 17.0454 5.05759 17.2412 5.08226 17.325C5.20253 17.3002 5.12543 17.4648 5.14702 17.5363C5.20253 17.527 5.2272 17.5487 5.21178 17.6015H5.74528C5.71753 17.499 5.83163 17.5456 5.89022 17.5363C5.88097 17.4493 5.97657 17.4741 5.97349 17.3903H6.08759C6.05367 17.2909 6.17394 17.3375 6.23253 17.325C6.21094 17.2381 6.31888 17.2691 6.31271 17.1946H6.55633C6.53166 17.0951 6.66427 17.1511 6.65501 17.0641H7.1731C7.13918 16.9616 7.23478 16.9802 7.30262 16.9802C7.28412 16.8932 7.38897 16.9274 7.3828 16.8497H7.5154C7.51849 16.8249 7.50924 16.7876 7.53082 16.7845H8.58241C8.59783 16.6758 8.73352 16.6882 8.74277 16.5732H9.06657C9.08507 16.4366 9.3472 16.5453 9.47055 16.508C9.47055 16.4832 9.46439 16.449 9.48597 16.4459H10.408V16.508H10.8768C10.8768 16.4832 10.8737 16.449 10.8922 16.4459H11.62C11.6231 16.4179 11.6138 16.3837 11.6354 16.3806H12.2182C12.2182 16.3527 12.2121 16.3185 12.2337 16.3123H12.835C12.8042 16.2191 12.909 16.2533 12.9645 16.2471C12.9769 16.2222 12.946 16.1632 12.983 16.1663H13.3068C13.2822 16.2471 13.3408 16.244 13.3716 16.2626V18.2042H13.3068V18.8224C13.2606 18.8224 13.2267 18.8224 13.2421 18.8721C13.3562 18.8814 13.2945 19.0616 13.3068 19.1641C13.3315 19.1703 13.3654 19.161 13.3716 19.1796V19.8351C13.498 19.8196 13.4055 20.0246 13.4364 20.1116C13.458 20.1116 13.495 20.1085 13.5011 20.1303V21.143H13.4364C13.4549 21.2673 13.4179 21.3325 13.3716 21.3884C13.3901 21.4195 13.4641 21.3946 13.4364 21.4692H13.5782C13.6306 21.6587 13.8342 21.6991 13.902 21.8761H14.2412V21.9414H14.6483C14.636 21.8855 14.6576 21.8637 14.7131 21.8761C14.7223 21.8358 14.6946 21.7581 14.7285 21.7457H14.8611V20.736H14.9228V19.7699H14.9844V18.1421C14.9629 18.1358 14.9259 18.1483 14.9228 18.1234V17.5363C14.8981 17.5332 14.8642 17.5425 14.8611 17.5207V16.8528H14.9228V16.6571C14.8087 16.6851 14.8765 16.5298 14.8611 16.4583C14.8518 16.421 14.7655 16.4676 14.7963 16.3931C14.8395 16.362 14.9474 16.3962 14.9413 16.3092H15.262V16.3775H15.4594V16.4428H17.0784V16.5049H17.2881V16.5701H17.4854V16.654H17.6951V16.7162H17.8894V16.7814H18.0991V16.8466H18.3582V16.9119H18.5679C18.5401 17.0113 18.6758 16.946 18.6326 17.0579H18.83V17.1231H18.9749V17.1883H19.234V17.2536H19.3789V17.3188H19.5084V17.3841H19.638V17.4648H19.7829V17.5301H19.9772V17.5953H20.19V17.6605H20.3195V17.7227H20.449C20.4151 17.8128 20.5107 17.7724 20.5292 17.8066C20.4953 17.9091 20.6309 17.8345 20.597 17.937H20.7913C20.8345 18.0955 21.0411 18.0986 21.0658 18.2787C21.1244 18.2881 21.2261 18.2508 21.1953 18.3471H22.8143C22.7835 18.2539 22.8821 18.2912 22.9407 18.2787C22.9068 18.17 23.0178 18.2011 23.0888 18.2011C23.098 18.1638 23.0703 18.083 23.1042 18.0706H23.2152C23.1967 17.9805 23.3015 18.0147 23.2985 17.9401H23.5606C23.5298 17.8252 23.6839 17.8935 23.7549 17.8718C23.7209 17.7631 23.8258 17.7941 23.8967 17.791V17.6605C24.0262 17.6357 24.0293 17.4866 24.1558 17.4617V17.381H24.239V17.1852H24.3686C24.3562 17.1293 24.3778 17.1076 24.4364 17.12V16.9709H24.5012V16.8404H24.5659V16.6447H24.6461V16.2999H24.7139V16.0886C24.8034 16.0917 24.7756 15.9799 24.9082 16.0203C24.9113 15.9613 24.8774 15.8618 24.973 15.8929V15.7469H25.0532V15.2716H25.1179V15.138H25.1827V14.9423H25.3122V14.7994H25.377C25.3585 14.7404 25.414 14.6068 25.343 14.6006V14.6161ZM12.6962 10.7982C12.724 10.6956 12.6716 10.6739 12.6315 10.6366C12.6161 10.5869 12.6685 10.6087 12.6962 10.6025V10.1303C12.8196 10.1116 12.8566 10.006 12.9059 9.9159H14.1025C14.1271 9.91279 14.1179 9.87552 14.121 9.85377C14.1888 9.83513 14.343 9.90037 14.3153 9.78543C14.3893 9.76368 14.5527 9.84134 14.525 9.72019C14.5928 9.70466 14.7501 9.773 14.7223 9.65495H15.0615V9.57418H15.2065V9.65495H15.4008C15.3884 9.71087 15.41 9.73261 15.4655 9.72019C15.4902 9.80407 15.4039 9.99978 15.5303 9.98114V10.3881H15.2897C15.2558 10.3881 15.2836 10.4471 15.2712 10.4689C15.1417 10.4533 15.0862 10.5093 15.0646 10.6025C14.9968 10.6211 14.8426 10.5527 14.8703 10.6677H14.7254C14.7562 10.5714 14.6545 10.6087 14.5959 10.6025C14.6298 10.503 14.4941 10.5745 14.5311 10.4689H14.4047V10.3881H14.013C13.9791 10.3881 14.0069 10.4471 13.9976 10.4689C13.8681 10.4533 13.8126 10.5093 13.7879 10.6025C13.7293 10.6087 13.6276 10.5714 13.6584 10.6677C13.5998 10.677 13.4795 10.6304 13.5135 10.7329C13.4549 10.7391 13.3531 10.705 13.3839 10.7982H13.2051C13.1712 10.7982 13.1958 10.8572 13.1866 10.882H12.8474V10.7982H12.7024H12.6962ZM15.5303 12.2334C15.4316 12.2023 15.5025 12.3328 15.4008 12.3017V12.513H15.336V12.6435C15.2805 12.6279 15.2558 12.6528 15.2712 12.7087H13.8003C13.7787 12.7118 13.7848 12.7491 13.7818 12.7739C13.68 12.805 13.4456 12.7025 13.4425 12.8392H13.1033C13.0879 12.7646 13.0478 12.7211 12.9738 12.7087C12.946 12.6062 13.0447 12.367 12.909 12.367C12.9183 12.2614 12.9152 12.1682 12.8443 12.1402C12.909 12.1216 12.8874 12.019 12.9738 12.0221V11.8979H13.7663C13.791 11.8917 13.7818 11.8544 13.7818 11.8295H14.4448C14.4694 11.8233 14.4633 11.7892 14.4633 11.7612C14.528 11.7457 14.6853 11.8109 14.6576 11.6991H14.932V11.6183H15.2712V11.6991H15.4008C15.4162 11.7705 15.4594 11.814 15.5303 11.8264V12.2334Z" fill="white"/>
</svg>
