<svg width="108" height="37" viewBox="0 0 108 37" fill="none" xmlns="http://www.w3.org/2000/svg">
<path fill-rule="evenodd" clip-rule="evenodd" d="M46.1488 18.9808H54.1311V19.7386H55.6573V13.602C55.6573 13.2525 55.4781 13.0752 55.1128 13.0752H45.1333C44.7838 13.0752 44.6226 13.2525 44.6226 13.5863V19.7386H46.1488V18.9808ZM54.7745 11.5758C55.1863 12.0125 55.5823 12.4208 55.9348 12.8447L57.0943 11.8672C55.9198 10.5118 54.4243 9.05293 52.6775 7.50909L51.5915 8.57309C51.899 8.80333 52.502 9.35917 53.426 10.2339L46.661 10.6124C47.5858 9.34352 48.2893 8.25046 48.7903 7.34666L47.5123 6.48682C46.6018 8.03289 45.6343 9.4605 44.6225 10.7443L43.373 10.8024C43.5208 11.3568 43.6528 11.8538 43.7555 12.3045L54.7745 11.5758ZM46.1486 17.5232V14.7515C46.1329 14.6218 46.2049 14.5503 46.3676 14.5503H53.8954C54.0574 14.5503 54.1309 14.6218 54.1309 14.7515V17.5232H46.1486Z" fill="#A98446"/>
<path fill-rule="evenodd" clip-rule="evenodd" d="M69.2054 12.1269V14.041C69.1896 15.1326 69.0141 16.0781 68.6916 16.8955C68.2656 17.9021 67.5899 18.9222 66.6516 19.9415L65.4906 18.8797C66.4754 17.8574 67.1069 16.9834 67.4001 16.1966C67.6356 15.5387 67.7669 14.81 67.7819 14.041V7.62501C67.7669 7.30462 67.8996 7.12728 68.1794 7.12728C69.8939 7.12728 71.4479 6.99764 72.8444 6.77783L73.3139 8.19426C72.1244 8.38277 70.8171 8.49826 69.4401 8.52732C69.2781 8.52732 69.1896 8.60258 69.2054 8.77469V10.7134H73.4751V12.1269H72.2129V19.9571H70.7279V12.1269H69.2054ZM64.6709 19.9571H63.2616V16.517C62.6609 17.4342 61.9709 18.2523 61.2524 18.9065L60.0464 18.1339C61.1339 17.2167 62.0429 16.2257 62.7186 15.1751H60.4431V13.8212H63.2616V12.8444H60.5024V11.4883H62.1471C61.8674 10.7574 61.5876 10.2038 61.3229 9.81038L62.5131 9.21356C62.8214 9.72469 63.3494 10.8453 63.6426 11.6023L62.5731 11.4883H64.3191C64.7564 10.5696 65.0646 9.81038 65.2274 9.1845L66.5204 9.66658C66.3741 10.2202 66.1536 10.8163 65.8439 11.4883H67.1639V12.8444H64.6709V13.8212H67.1639V15.1751H65.2431C65.8146 15.7309 66.3876 16.2979 66.9314 16.9089L65.8896 17.8731C65.5356 17.4201 65.1396 16.9402 64.6709 16.4298V19.9571ZM63.335 6.83594H64.817V7.72633H67.1068V9.08166H60.6792V7.72633H63.335V6.83594Z" fill="#A98446"/>
<path fill-rule="evenodd" clip-rule="evenodd" d="M86.0538 18.3234H84.6025V14.8251H90.163V13.3692H84.6025V11.9833H88.1088V11.078C88.7995 11.4148 89.4145 11.6473 89.9875 11.7933L90.7923 10.3501C88.7245 9.69512 86.5683 8.49849 84.3978 6.76465H83.2068C81.2995 8.41132 79.1725 9.63477 76.8535 10.4082L77.6755 11.8529C78.3205 11.6629 78.982 11.4006 79.7178 11.0646V11.9833H83.1348V13.3692H77.4835V14.8251H83.1348V18.3234H80.5068L81.7555 18.4947C81.1953 17.3294 80.302 15.6991 79.7463 14.9712L78.4833 15.7446C78.952 16.3399 79.4515 17.1848 79.9945 18.3234H77.6598V19.78H89.9425V18.3234H87.7135C88.081 17.6401 88.5198 16.7505 89.02 15.7148L87.7278 15.0159C87.4638 15.7312 86.89 16.8376 86.0538 18.3234ZM80.8018 10.5118C80.8183 10.4984 80.8295 10.4805 80.8588 10.4686C81.89 9.88368 82.871 9.21384 83.8093 8.44043C84.3823 8.89345 85.451 9.59235 86.9945 10.5118H80.8018Z" fill="#A98446"/>
<mask id="mask0_453_42690" style="mask-type:alpha" maskUnits="userSpaceOnUse" x="93" y="6" width="15" height="15">
<path fill-rule="evenodd" clip-rule="evenodd" d="M93.7471 6.83594H107.783V20.0378H93.7471V6.83594Z" fill="white"/>
</mask>
<g mask="url(#mask0_453_42690)">
<path fill-rule="evenodd" clip-rule="evenodd" d="M101.953 15.3071H99.6211V14.1552C99.3248 14.5926 99.0151 14.942 98.7248 15.2333L97.5068 14.4309C98.4451 13.501 99.1478 12.4206 99.5431 11.2262L100.88 11.6904C100.559 12.5666 100.22 13.2812 99.8671 13.8057C99.8393 13.8348 99.8101 13.8616 99.7936 13.9093H105.208C104.767 13.3691 104.373 12.6091 104.034 11.6472C104.021 11.5175 103.976 11.4438 103.888 11.4438H101.1V10.0296H104.622C104.783 10.0139 104.884 10.1033 104.93 10.2919C105.107 11.1234 105.386 11.8364 105.764 12.4206C106.132 12.9742 106.736 13.5569 107.587 14.1716L106.396 15.0448C106.09 14.7692 105.812 14.5337 105.605 14.3146V15.3071H103.419V18.295H107.206V19.695H98.0183V18.295H101.953V15.3071ZM101.953 6.83594H103.419V7.81351H107.219C107.632 7.81351 107.82 8.01692 107.778 8.46994C107.689 9.4177 107.454 10.3945 107.043 11.3721C106.575 11.2104 106.119 11.0353 105.634 10.8878C105.797 10.4683 105.96 9.98696 106.119 9.44676C106.149 9.28731 106.09 9.21355 105.927 9.21355H99.781C99.6768 9.21355 99.634 9.25602 99.634 9.35958V10.9913H98.1655V8.07504C98.1655 7.90292 98.2533 7.81351 98.428 7.81351H101.953V6.83594ZM95.4938 10.6993H94.1153V9.28731H95.4938V6.99762H96.918V9.28731H97.7992V10.6993H96.918V12.5955C97.0957 12.4659 97.2562 12.3333 97.4025 12.217L98.34 13.2654C97.9462 13.5858 97.4745 13.9092 96.918 14.2266V19.1129C96.918 19.373 96.8295 19.5622 96.6698 19.6822C96.1838 20.089 95.3603 20.1464 94.2331 19.8565L94.1423 18.3686C94.8195 18.5586 95.2163 18.6301 95.3018 18.5586C95.4375 18.4848 95.4938 18.3976 95.4938 18.3395V15.0745C95.142 15.2488 94.791 15.4083 94.4521 15.599L93.7471 14.345C94.4521 14.041 95.025 13.7452 95.4938 13.483V10.6993Z" fill="#A98446"/>
</g>
<path fill-rule="evenodd" clip-rule="evenodd" d="M46.5885 24.7622V29.8646H45.4043V24.7622H43.8105V23.7578H48.1823V24.7622H46.5885Z" fill="#A98446"/>
<path fill-rule="evenodd" clip-rule="evenodd" d="M51.6871 29.8646C51.6691 29.4942 51.6601 29.0688 51.6601 28.7074V26.835C51.6601 25.8574 51.2499 25.2695 49.7934 25.2695C49.2106 25.2695 48.6279 25.3865 48.1726 25.5497L48.2731 26.5176C48.6549 26.3007 49.2016 26.1651 49.6111 26.1651C50.2666 26.1651 50.4946 26.4088 50.4946 26.8789V27.1241C48.9556 27.1241 47.8809 27.6941 47.8809 28.77C47.8809 29.4942 48.3549 29.9555 49.1739 29.9555C49.8481 29.9555 50.4039 29.6023 50.6221 29.0964L50.6311 29.1046C50.5944 29.3407 50.5854 29.6023 50.5854 29.8646H51.6871ZM50.4944 27.984C50.4944 28.5257 50.1029 29.0689 49.5292 29.0689C49.1917 29.0689 48.9922 28.8789 48.9922 28.5891C48.9922 28.2277 49.2652 27.8745 50.4944 27.8745V27.984Z" fill="#A98446"/>
<path fill-rule="evenodd" clip-rule="evenodd" d="M52.9351 29.8643H54.1006V25.3691H52.9351V29.8643ZM53.5176 24.7902C53.1171 24.7902 52.7983 24.4728 52.7983 24.0839C52.7983 23.7039 53.1171 23.3872 53.5176 23.3872C53.9188 23.3872 54.2466 23.6957 54.2466 24.0839C54.2466 24.4728 53.9188 24.7902 53.5176 24.7902Z" fill="#A98446"/>
<path fill-rule="evenodd" clip-rule="evenodd" d="M56.1852 29.955C55.8582 29.955 55.5297 29.9185 55.2387 29.8737L55.2664 28.9237C55.5477 28.996 55.8942 29.0594 56.2407 29.0594C56.6869 29.0594 56.9779 28.8783 56.9779 28.5803C56.9779 27.7845 55.1479 28.236 55.1479 26.7078C55.1479 25.9203 55.7944 25.269 57.0694 25.269C57.3334 25.269 57.6244 25.3048 57.8974 25.3503L57.8607 26.2637C57.6064 26.1922 57.3057 26.146 57.0229 26.146C56.5692 26.146 56.3494 26.3278 56.3494 26.6072C56.3494 27.3404 58.2072 27.0148 58.2072 28.4715C58.2072 29.3574 57.4242 29.955 56.1852 29.955Z" fill="#A98446"/>
<path fill-rule="evenodd" clip-rule="evenodd" d="M105.568 29.955C105.241 29.955 104.913 29.9185 104.622 29.8737L104.649 28.9237C104.931 28.996 105.276 29.0594 105.624 29.0594C106.069 29.0594 106.362 28.8783 106.362 28.5803C106.362 27.7845 104.531 28.236 104.531 26.7078C104.531 25.9203 105.177 25.269 106.452 25.269C106.716 25.269 107.007 25.3048 107.28 25.3503L107.244 26.2637C106.989 26.1922 106.689 26.146 106.406 26.146C105.952 26.146 105.732 26.3278 105.732 26.6072C105.732 27.3404 107.589 27.0148 107.589 28.4715C107.589 29.3574 106.807 29.955 105.568 29.955Z" fill="#A98446"/>
<path fill-rule="evenodd" clip-rule="evenodd" d="M61.8861 29.8643V26.9882C61.8861 26.5173 61.7586 26.2372 61.3311 26.2372C60.7386 26.2372 60.2751 26.9062 60.2751 27.6938V29.8643H59.1089V23.2612H60.2751V25.1881C60.2751 25.4593 60.2556 25.8393 60.1926 26.1015L60.2099 26.1105C60.4746 25.6031 60.9936 25.2693 61.6941 25.2693C62.7141 25.2693 63.0419 25.9205 63.0419 26.7081V29.8643H61.8861Z" fill="#A98446"/>
<path fill-rule="evenodd" clip-rule="evenodd" d="M64.2622 29.8643H65.4285V25.3691H64.2622V29.8643ZM64.8447 24.7902C64.4435 24.7902 64.1255 24.4728 64.1255 24.0839C64.1255 23.7039 64.4435 23.3872 64.8447 23.3872C65.246 23.3872 65.573 23.6957 65.573 24.0839C65.573 24.4728 65.246 24.7902 64.8447 24.7902Z" fill="#A98446"/>
<path fill-rule="evenodd" clip-rule="evenodd" d="M69.4618 29.8641V26.988C69.4618 26.5171 69.3351 26.2369 68.9076 26.2369C68.3151 26.2369 67.8508 26.906 67.8508 27.6936V29.8641H66.6846V25.3689H67.7871C67.7871 25.5768 67.7676 25.9292 67.7233 26.1647L67.7316 26.1736C68.0053 25.6394 68.5333 25.269 69.2706 25.269C70.2898 25.269 70.6191 25.9203 70.6191 26.7078V29.8641H69.4618Z" fill="#A98446"/>
<path fill-rule="evenodd" clip-rule="evenodd" d="M77.3024 29.8644V27.2141H74.6977V29.8644H73.5142V23.7583H74.6977V26.2015H77.3024V23.7583H78.4859V29.8644H77.3024Z" fill="#A98446"/>
<path fill-rule="evenodd" clip-rule="evenodd" d="M83.8583 27.5308C83.8583 25.9839 83.0303 25.2783 81.7456 25.2783C80.3708 25.2783 79.4341 26.2917 79.4341 27.6939C79.4341 29.2944 80.2613 29.9553 81.5453 29.9553C82.9028 29.9553 83.8583 28.942 83.8583 27.5308ZM82.656 27.5943C82.656 28.5085 82.2195 28.9698 81.6458 28.9698C80.9715 28.9698 80.6348 28.4996 80.6348 27.5764C80.6348 26.6533 81.1448 26.2554 81.663 26.2554C82.347 26.2554 82.656 26.7255 82.656 27.5943Z" fill="#A98446"/>
<path fill-rule="evenodd" clip-rule="evenodd" d="M84.7964 29.8643H85.9619V23.2612H84.7964V29.8643Z" fill="#A98446"/>
<path fill-rule="evenodd" clip-rule="evenodd" d="M91.0328 29.8643V23.2612H89.8764V25.3237C89.6769 25.2961 89.4939 25.2872 89.3026 25.2872C87.8012 25.2872 86.9087 26.337 86.9087 27.8563C86.9087 29.1408 87.4547 29.9641 88.5564 29.9641C89.2486 29.9641 89.7496 29.611 89.9866 29.114H90.0046C89.9679 29.3576 89.9499 29.6475 89.9499 29.8643H91.0328ZM89.8767 27.5309C89.8767 28.2999 89.5137 29.0062 88.9024 29.0062C88.3744 29.0062 88.1284 28.5718 88.1284 27.7299C88.1284 26.6174 88.6024 26.2017 89.2677 26.2017C89.4679 26.2017 89.6674 26.2285 89.8767 26.2732V27.5309Z" fill="#A98446"/>
<path fill-rule="evenodd" clip-rule="evenodd" d="M92.3003 29.8643H93.4658V25.3691H92.3003V29.8643ZM92.8821 24.7902C92.4809 24.7902 92.1621 24.4728 92.1621 24.0839C92.1621 23.7039 92.4809 23.3872 92.8821 23.3872C93.2826 23.3872 93.6104 23.6957 93.6104 24.0839C93.6104 24.4728 93.2826 24.7902 92.8821 24.7902Z" fill="#A98446"/>
<path fill-rule="evenodd" clip-rule="evenodd" d="M97.4989 29.8641V26.988C97.4989 26.5171 97.3707 26.2369 96.9439 26.2369C96.3522 26.2369 95.8872 26.906 95.8872 27.6936V29.8641H94.7217V25.3689H95.8234C95.8234 25.5768 95.8054 25.9292 95.7589 26.1647L95.7687 26.1736C96.0424 25.6394 96.5704 25.269 97.3069 25.269C98.3269 25.269 98.6554 25.9203 98.6554 26.7078V29.8641H97.4989Z" fill="#A98446"/>
<path fill-rule="evenodd" clip-rule="evenodd" d="M102.707 30.525C102.707 30.9497 102.307 31.2671 101.541 31.2671C100.96 31.2671 100.576 31.0227 100.576 30.6062C100.576 30.3536 100.723 30.1085 100.986 29.9639H101.195H101.988C102.489 29.9639 102.707 30.1994 102.707 30.525ZM103.854 30.3715C103.854 29.5034 103.288 29.0504 102.307 29.0504H101.605C101.077 29.0504 100.904 28.9781 100.904 28.7703C100.904 28.6615 100.977 28.5437 101.122 28.4804C101.241 28.508 101.413 28.5169 101.569 28.5169C102.826 28.5169 103.526 27.8657 103.526 26.8703C103.526 26.6169 103.435 26.4001 103.299 26.2727H103.909V25.3689H102.379C102.124 25.3137 101.887 25.269 101.587 25.269C100.258 25.269 99.537 26.0648 99.537 27.0148C99.537 27.5669 99.7657 28.0468 100.213 28.2725C99.8932 28.3903 99.675 28.7248 99.675 29.0504C99.675 29.3671 99.8475 29.6025 100.122 29.7374C99.7485 29.9281 99.4282 30.3536 99.4282 30.8237C99.4282 31.7007 100.165 32.1537 101.368 32.1537C102.88 32.1537 103.854 31.3483 103.854 30.3715ZM102.416 26.9337C102.416 27.4314 102.07 27.7294 101.541 27.7294C100.977 27.7294 100.649 27.4225 100.649 26.9247C100.649 26.4449 100.986 26.1104 101.541 26.1104C102.088 26.1104 102.416 26.4181 102.416 26.9337Z" fill="#A98446"/>
<path fill-rule="evenodd" clip-rule="evenodd" d="M37.0073 36.7885H1.59225L0 35.1753L1.1265 1.35682L35.406 0L37.0073 1.59227V36.7885Z" fill="#51452C"/>
<path fill-rule="evenodd" clip-rule="evenodd" d="M12.102 7.52939H6.23775L5.646 6.93839H12.693L12.102 7.52939Z" fill="#EBE6D1"/>
<path fill-rule="evenodd" clip-rule="evenodd" d="M30.9276 15.128V7.487L31.5186 6.896V15.719L30.9276 15.128Z" fill="#51452C"/>
<path fill-rule="evenodd" clip-rule="evenodd" d="M6.23728 7.52948V18.1885L5.64553 18.7802V6.93848L6.23728 7.52948Z" fill="#D8CDA5"/>
<path fill-rule="evenodd" clip-rule="evenodd" d="M30.9274 7.48678L19.4741 7.46653L19.4749 6.87553L31.5184 6.89653L30.9274 7.48678Z" fill="#DACEA7"/>
<path fill-rule="evenodd" clip-rule="evenodd" d="M9.49995 29.7421H17.4342V30.3331H8.9082L9.49995 29.7421Z" fill="#272112"/>
<path fill-rule="evenodd" clip-rule="evenodd" d="M12.102 10.1315V7.52899L12.693 6.93799V10.7225L12.102 10.1315Z" fill="#51452C"/>
<path fill-rule="evenodd" clip-rule="evenodd" d="M28.373 15.1283H30.9275L31.5185 15.7193H27.7812L28.373 15.1283Z" fill="#51452C"/>
<path fill-rule="evenodd" clip-rule="evenodd" d="M8.84033 10.1317H9.04508H9.44483H9.69683H9.97133H10.2601H10.5556H10.8481H11.1293H11.3903H11.6236H11.9708H12.1021L12.6923 10.7227H12.5528H12.1838H11.9363H11.6611H11.3671H11.0626H10.7581H10.4633H10.1881H9.94058H9.57158H9.43208L8.84033 10.1317Z" fill="#51452C"/>
<path fill-rule="evenodd" clip-rule="evenodd" d="M28.373 10.107V10.2008L27.7813 10.7543V10.698L28.373 10.107Z" fill="#DDD3B0"/>
<path fill-rule="evenodd" clip-rule="evenodd" d="M28.373 10.2012V10.3887V10.6557V10.9894V11.1762V11.3742V11.5812V11.7972V12.0192V12.2457V12.4744V12.7039L27.7813 13.2087V12.9739V12.7407V12.5112V12.2869V12.0709V11.8632V11.6667V11.4829V11.1612V10.9137V10.7547L28.373 10.2012Z" fill="#DDD3B0"/>
<path fill-rule="evenodd" clip-rule="evenodd" d="M28.373 12.7041V12.9336V13.1609V13.3836V13.6004V13.8104L27.7813 14.3474V14.1306V13.9064V13.6776V13.4436V13.2089L28.373 12.7041Z" fill="#DCD3B0"/>
<path fill-rule="evenodd" clip-rule="evenodd" d="M28.373 13.8101V14.0103V14.2001V14.3763V14.6853V14.9223V15.0746V15.1278L27.7813 15.7188V15.6633V15.5036V15.2561V14.9351V14.7513V14.5548V14.3471L28.373 13.8101Z" fill="#DCD3AF"/>
<path fill-rule="evenodd" clip-rule="evenodd" d="M8.84036 10.1313V10.2281V10.4253V10.7058V11.0583V11.2571V11.4678V11.6898V11.9193V12.1571V12.4001V12.6468V12.8936V13.1426V13.3886V13.6316V13.8686V14.0988V14.3201V14.5316V14.7303V15.0828V15.3641V15.5598V15.6573L9.43211 15.0656V15.0176V14.8796V14.6651V14.3868V14.2293V14.0583V13.8791V13.6923V13.4981V13.3001V13.0976V12.8936V12.6903V12.4893V12.2898V12.0963V11.9096V11.7303V11.5593V11.4011V11.1236V10.9091V10.7711V10.7223L8.84036 10.1313Z" fill="#51452C"/>
<path fill-rule="evenodd" clip-rule="evenodd" d="M6.23726 18.1885H6.36851H6.71501H6.94826H7.21001H7.49201H7.78451H8.07926H8.36876H8.64326H8.89526H9.29501H9.49976L8.90876 18.7803H8.76851H8.39876H8.15126H7.87601H7.58126H7.27751H6.97226H6.67826H6.40226H6.15626H5.78576H5.64551L6.23726 18.1885Z" fill="#51452C"/>
<path fill-rule="evenodd" clip-rule="evenodd" d="M9.49998 29.7421V29.6153V29.2568L8.90823 29.8366V30.2033V30.3331L9.49998 29.7421Z" fill="#DACFA8"/>
<path fill-rule="evenodd" clip-rule="evenodd" d="M9.49998 29.2563V28.9983V28.6968L8.90823 29.2675V29.5758V29.836L9.49998 29.2563Z" fill="#DACFA8"/>
<path fill-rule="evenodd" clip-rule="evenodd" d="M9.49998 28.6969V28.3519V27.9702V27.7669V27.5562V27.3364V27.1107V26.8789V26.6412V26.3974V26.1492V25.8979L8.90823 26.4222V26.6779V26.9307V27.1767V27.4182V27.6537V27.8839V28.1067V28.3212V28.5282V28.9167V29.2677L9.49998 28.6969Z" fill="#DACFA9"/>
<path fill-rule="evenodd" clip-rule="evenodd" d="M9.49998 25.8976V25.6411V25.3816V25.1206V24.8551V24.5896V24.3226V24.0549V23.7871V23.5186V23.2524V22.9861V22.7236V22.4619V22.2031L8.90823 22.6914V22.9501V23.2141V23.4796V23.7474V24.0159V24.2866V24.5574V24.8274V25.0981V25.3666V25.6336V25.8999V26.1631V26.4219L9.49998 25.8976Z" fill="#DACFA9"/>
<path fill-rule="evenodd" clip-rule="evenodd" d="M9.49998 22.2034V21.9492V21.6979V21.4519V21.2104V20.9742V20.7439V20.5204V20.3037V20.0937V19.7014V19.3437V19.0257V18.7534L8.90823 19.2777V19.5387V19.8462V20.1964V20.5864V20.7927V21.0072V21.2307V21.4594V21.6949V21.9372V22.1847V22.4359V22.6909L9.49998 22.2034Z" fill="#D8CDA5"/>
<path fill-rule="evenodd" clip-rule="evenodd" d="M9.49998 18.7537V18.3577V18.189L8.90823 18.7807V18.9097V19.2772L9.49998 18.7537Z" fill="#DBD0AB"/>
<path fill-rule="evenodd" clip-rule="evenodd" d="M17.4339 29.7419C17.5427 29.7419 17.6514 29.7397 17.7602 29.7344L17.7819 30.3239C17.6664 30.3299 17.5494 30.3329 17.4339 30.3329V29.7419Z" fill="#2B2313"/>
<path fill-rule="evenodd" clip-rule="evenodd" d="M17.7602 29.7348C17.8689 29.7296 17.9769 29.7206 18.0857 29.7108L18.1314 30.2988C18.0144 30.3101 17.8982 30.3183 17.7819 30.3243L17.7602 29.7348Z" fill="#312816"/>
<path fill-rule="evenodd" clip-rule="evenodd" d="M18.0852 29.7107C18.194 29.7002 18.302 29.6875 18.4092 29.671L18.4812 30.2552C18.3642 30.2725 18.248 30.2875 18.1317 30.2987L18.0852 29.7107Z" fill="#372C17"/>
<path fill-rule="evenodd" clip-rule="evenodd" d="M18.4093 29.6709C18.5173 29.6559 18.6245 29.6387 18.731 29.6177L18.83 30.1937C18.7138 30.2177 18.5975 30.2379 18.4813 30.2544L18.4093 29.6709Z" fill="#3D311A"/>
<path fill-rule="evenodd" clip-rule="evenodd" d="M18.731 29.6176C18.8382 29.5973 18.9455 29.5741 19.0505 29.5478L19.1772 30.1178C19.0617 30.1471 18.9462 30.1718 18.83 30.1943L18.731 29.6176Z" fill="#42341B"/>
<path fill-rule="evenodd" clip-rule="evenodd" d="M19.0505 29.5481C19.157 29.5234 19.262 29.4956 19.3663 29.4649L19.5208 30.0266C19.4068 30.0596 19.2928 30.0911 19.1773 30.1181L19.0505 29.5481Z" fill="#47381C"/>
<path fill-rule="evenodd" clip-rule="evenodd" d="M19.3662 29.4645C19.4704 29.4338 19.5747 29.4015 19.6782 29.3663L19.8604 29.9183C19.7487 29.9565 19.6347 29.9925 19.5207 30.0263L19.3662 29.4645Z" fill="#4B3B1D"/>
<path fill-rule="evenodd" clip-rule="evenodd" d="M19.6779 29.3667C19.7806 29.3314 19.8826 29.2939 19.9846 29.2542L20.1961 29.7949C20.0851 29.8384 19.9741 29.8797 19.8609 29.9187L19.6779 29.3667Z" fill="#4F3E1F"/>
<path fill-rule="evenodd" clip-rule="evenodd" d="M19.9846 29.2536C20.0859 29.2138 20.1864 29.1726 20.2854 29.1268L20.5261 29.6563C20.4181 29.7058 20.3079 29.7516 20.1969 29.7951L19.9846 29.2536Z" fill="#534120"/>
<path fill-rule="evenodd" clip-rule="evenodd" d="M20.2854 29.1269C20.3851 29.0819 20.4841 29.0361 20.5809 28.9881L20.8494 29.5041C20.7429 29.5566 20.6349 29.6084 20.5261 29.6564L20.2854 29.1269Z" fill="#564321"/>
<path fill-rule="evenodd" clip-rule="evenodd" d="M20.5808 28.9886C20.6783 28.9391 20.7743 28.8873 20.8703 28.8341L21.1643 29.3388C21.0601 29.3951 20.9558 29.4513 20.8493 29.5038L20.5808 28.9886Z" fill="#584521"/>
<path fill-rule="evenodd" clip-rule="evenodd" d="M20.8701 28.8337C20.9639 28.7804 21.0576 28.7242 21.1506 28.6664L21.4716 29.1584C21.3704 29.2207 21.2684 29.2799 21.1649 29.3384L20.8701 28.8337Z" fill="#5A4622"/>
<path fill-rule="evenodd" clip-rule="evenodd" d="M21.1508 28.667C21.2438 28.61 21.3346 28.5507 21.4231 28.4892L21.7681 28.9647C21.6713 29.0307 21.5723 29.0952 21.4718 29.1582L21.1508 28.667Z" fill="#5C4822"/>
<path fill-rule="evenodd" clip-rule="evenodd" d="M21.4235 28.4892C21.5143 28.4262 21.6028 28.3625 21.6883 28.2972L22.055 28.7585C21.9605 28.829 21.8653 28.898 21.7685 28.9655L21.4235 28.4892Z" fill="#5C4922"/>
<path fill-rule="evenodd" clip-rule="evenodd" d="M21.6881 28.297C21.7751 28.2303 21.8598 28.1613 21.9438 28.0923L22.3286 28.5393C22.2393 28.615 22.1478 28.6878 22.0548 28.7583L21.6881 28.297Z" fill="#5D4923"/>
<path fill-rule="evenodd" clip-rule="evenodd" d="M21.9438 28.092C22.0271 28.0215 22.1088 27.9488 22.1891 27.8753L22.5903 28.3095C22.5056 28.3883 22.4178 28.4655 22.3286 28.5398L21.9438 28.092Z" fill="#5E4923"/>
<path fill-rule="evenodd" clip-rule="evenodd" d="M28.3727 10.1073H28.2332H27.9205H27.706H27.4592H27.1802H26.8735H26.5435H26.191H25.8205H25.435H25.2377H25.0382H24.8365H24.6332H24.4262H24.2207H24.0137H23.806H23.5997H23.3935H23.1872H22.984H22.7815H22.5812H22.3832H22.1882H21.8095H21.4472H21.1037H20.7827H20.4887H20.2232H19.99H19.7927H19.5145H19.417V10.6983H19.5115H19.777H19.966H20.1887H20.443H20.7242H21.0295H21.3572H21.703H22.0637H22.249H22.4365H22.6277H22.8197H23.0132H23.2075H23.4032H23.5997H23.7947H23.9912H24.1855H24.3797H24.571H24.7622H24.9505H25.135H25.4957H25.8415H26.1692H26.4745H26.7557H27.01H27.232H27.4225H27.688H27.781L28.3727 10.1073Z" fill="#272012"/>
<path fill-rule="evenodd" clip-rule="evenodd" d="M12.1021 27.0538H12.1906H12.3616H12.6031H12.9023H13.2488L13.6013 26.4628H13.3043H13.0546H12.8611H12.7373H12.6931L12.1021 27.0538Z" fill="#DCD3B0"/>
<path fill-rule="evenodd" clip-rule="evenodd" d="M13.2485 27.0538H13.6273H13.8268H14.0293H14.234H14.4395H14.645H14.8468L15.014 26.4628H14.8318H14.6488H14.4658H14.2843H14.105H13.931H13.601L13.2485 27.0538Z" fill="#DCD3AF"/>
<path fill-rule="evenodd" clip-rule="evenodd" d="M14.8467 27.0538H15.0462H15.2397H15.6064H15.9327H16.4202H16.6039V26.4628H16.4367H15.9934H15.6972H15.3664H15.1917H15.0132L14.8467 27.0538Z" fill="#DCD2AE"/>
<path fill-rule="evenodd" clip-rule="evenodd" d="M19.4745 7.46667C19.3598 7.46592 19.2443 7.46892 19.131 7.47567L19.1055 6.88467C19.2278 6.87867 19.3508 6.87492 19.4745 6.87492V7.46667Z" fill="#DCD2AE"/>
<path fill-rule="evenodd" clip-rule="evenodd" d="M19.1314 7.47525C19.0189 7.48125 18.9071 7.49025 18.7969 7.5015L18.7436 6.91425C18.8629 6.9015 18.9836 6.891 19.1059 6.88425L19.1314 7.47525Z" fill="#DFD6B4"/>
<path fill-rule="evenodd" clip-rule="evenodd" d="M18.7969 7.50186C18.6866 7.51311 18.5771 7.52811 18.4691 7.54536L18.3896 6.96336C18.5059 6.94386 18.6244 6.92661 18.7444 6.91461L18.7969 7.50186Z" fill="#E1DABB"/>
<path fill-rule="evenodd" clip-rule="evenodd" d="M18.469 7.54507C18.361 7.56232 18.2545 7.58182 18.1487 7.60432L18.0437 7.02982C18.157 7.00432 18.2725 6.98257 18.3895 6.96307L18.469 7.54507Z" fill="#E4DDC1"/>
<path fill-rule="evenodd" clip-rule="evenodd" d="M18.1486 7.60398C18.0429 7.62723 17.9386 7.65198 17.8359 7.67973L17.7039 7.11423C17.8149 7.08348 17.9281 7.05573 18.0429 7.03023L18.1486 7.60398Z" fill="#E6E1C7"/>
<path fill-rule="evenodd" clip-rule="evenodd" d="M17.8358 7.67987C17.733 7.70837 17.6318 7.73837 17.532 7.77137L17.3723 7.21562C17.481 7.17962 17.592 7.14587 17.7038 7.11437L17.8358 7.67987Z" fill="#E8E4CD"/>
<path fill-rule="evenodd" clip-rule="evenodd" d="M17.5318 7.7709C17.432 7.80315 17.333 7.8384 17.2355 7.8759L17.0503 7.33365C17.1568 7.2909 17.264 7.25265 17.3728 7.2159L17.5318 7.7709Z" fill="#EAE6D1"/>
<path fill-rule="evenodd" clip-rule="evenodd" d="M17.2362 7.87594C17.1387 7.91344 17.0434 7.95319 16.9489 7.99444L16.7374 7.46644C16.8409 7.41919 16.9452 7.37569 17.0509 7.33369L17.2362 7.87594Z" fill="#ECE9D5"/>
<path fill-rule="evenodd" clip-rule="evenodd" d="M16.949 7.99461C16.8538 8.03661 16.7615 8.08161 16.67 8.12811L16.4338 7.61436C16.5335 7.56261 16.6348 7.51311 16.7375 7.46661L16.949 7.99461Z" fill="#EDEBD9"/>
<path fill-rule="evenodd" clip-rule="evenodd" d="M16.6703 8.12797C16.578 8.17447 16.4888 8.22322 16.401 8.27347L16.1393 7.77622C16.2353 7.71997 16.3335 7.66597 16.434 7.61422L16.6703 8.12797Z" fill="#EEEDDC"/>
<path fill-rule="evenodd" clip-rule="evenodd" d="M16.4012 8.27339C16.3127 8.32364 16.2257 8.37689 16.1409 8.43089L15.8537 7.95164C15.9474 7.89089 16.0419 7.83314 16.1394 7.77614L16.4012 8.27339Z" fill="#EFEFDF"/>
<path fill-rule="evenodd" clip-rule="evenodd" d="M16.1409 8.43087C16.0554 8.48562 15.9721 8.54187 15.8896 8.60112L15.5799 8.13987C15.6699 8.07537 15.7614 8.01237 15.8536 7.95162L16.1409 8.43087Z" fill="#F0F0E1"/>
<path fill-rule="evenodd" clip-rule="evenodd" d="M15.8898 8.60047C15.8088 8.65822 15.7285 8.71822 15.649 8.77972L15.3153 8.33947C15.4015 8.27122 15.4893 8.20447 15.58 8.13922L15.8898 8.60047Z" fill="#F1F1E3"/>
<path fill-rule="evenodd" clip-rule="evenodd" d="M15.6491 8.78015C15.5711 8.8424 15.4946 8.9054 15.4181 8.97065L15.0618 8.5514C15.1443 8.47865 15.2283 8.4089 15.3153 8.3399L15.6491 8.78015Z" fill="#F2F2E5"/>
<path fill-rule="evenodd" clip-rule="evenodd" d="M15.4179 8.97052C15.3429 9.03577 15.2694 9.10327 15.1982 9.17077C15.1982 9.17077 15.0557 9.30952 14.9874 9.38077C14.9874 9.38077 14.8532 9.52402 14.7887 9.59827L14.3672 9.24577C14.4384 9.16327 14.5869 9.00427 14.5869 9.00427C14.6619 8.92552 14.8187 8.77327 14.8187 8.77327C14.8982 8.69752 14.9784 8.62402 15.0609 8.55127L15.4179 8.97052Z" fill="#F2F2E5"/>
<path fill-rule="evenodd" clip-rule="evenodd" d="M14.7886 9.59816C14.7241 9.67241 14.6611 9.74741 14.5996 9.82466L14.1586 9.49466C14.2261 9.40991 14.2951 9.32741 14.3671 9.24566L14.7886 9.59816Z" fill="#F2F2E5"/>
<path fill-rule="evenodd" clip-rule="evenodd" d="M14.5995 9.82512C14.5388 9.90087 14.4803 9.97887 14.4225 10.0576L13.962 9.75162C14.0258 9.66537 14.0918 9.57912 14.1585 9.49512L14.5995 9.82512Z" fill="#F1F1E4"/>
<path fill-rule="evenodd" clip-rule="evenodd" d="M14.4223 10.0572C14.3653 10.1359 14.3106 10.2154 14.2573 10.2979L13.7788 10.0159C13.8381 9.92665 13.8996 9.83815 13.9626 9.7519L14.4223 10.0572Z" fill="#F1F1E3"/>
<path fill-rule="evenodd" clip-rule="evenodd" d="M14.2575 10.2982C14.2035 10.3777 14.1525 10.4609 14.1037 10.5434L13.6087 10.2862C13.6635 10.1947 13.7212 10.1054 13.779 10.0162L14.2575 10.2982Z" fill="#F0F0E1"/>
<path fill-rule="evenodd" clip-rule="evenodd" d="M14.1035 10.5435C14.054 10.6268 14.006 10.7108 13.961 10.7948L13.4502 10.5615C13.5012 10.4693 13.5537 10.377 13.6085 10.2863L14.1035 10.5435Z" fill="#EFEEDE"/>
<path fill-rule="evenodd" clip-rule="evenodd" d="M13.9607 10.7945C13.9157 10.8793 13.8729 10.9655 13.8317 11.051L13.3059 10.8425C13.3524 10.748 13.4004 10.6543 13.4507 10.5613L13.9607 10.7945Z" fill="#EEEDDC"/>
<path fill-rule="evenodd" clip-rule="evenodd" d="M13.8312 11.0508C13.7899 11.1363 13.7502 11.2233 13.7134 11.311L13.1757 11.1273C13.2169 11.032 13.2604 10.9368 13.3062 10.8423L13.8312 11.0508Z" fill="#EDEBD9"/>
<path fill-rule="evenodd" clip-rule="evenodd" d="M13.7141 11.3111C13.6773 11.3988 13.6413 11.4873 13.6083 11.5758L13.0593 11.4153C13.0961 11.3193 13.1343 11.2233 13.1763 11.1273L13.7141 11.3111Z" fill="#ECE9D5"/>
<path fill-rule="evenodd" clip-rule="evenodd" d="M13.6085 11.5761C13.5762 11.6646 13.5455 11.7539 13.517 11.8431L12.956 11.7066C12.9882 11.6091 13.0227 11.5124 13.0595 11.4156L13.6085 11.5761Z" fill="#EAE7D2"/>
<path fill-rule="evenodd" clip-rule="evenodd" d="M13.5168 11.8428C13.4883 11.9321 13.4613 12.0228 13.438 12.1121L12.868 11.9996C12.895 11.9021 12.9243 11.8046 12.9558 11.7063L13.5168 11.8428Z" fill="#E8E4CD"/>
<path fill-rule="evenodd" clip-rule="evenodd" d="M13.4381 12.1125C13.4126 12.2033 13.3916 12.294 13.3721 12.3848L12.7953 12.2948C12.8171 12.1965 12.8418 12.0975 12.8681 12L13.4381 12.1125Z" fill="#E7E2C9"/>
<path fill-rule="evenodd" clip-rule="evenodd" d="M13.3718 12.3845C13.3523 12.4752 13.3351 12.566 13.3201 12.6567L12.7366 12.5892C12.7538 12.4902 12.7726 12.3935 12.7951 12.2945L13.3718 12.3845Z" fill="#E5DFC4"/>
<path fill-rule="evenodd" clip-rule="evenodd" d="M13.3201 12.6571C13.3051 12.7486 13.2923 12.8394 13.2818 12.9309L12.6946 12.8851C12.7058 12.7861 12.7201 12.6886 12.7373 12.5896L13.3201 12.6571Z" fill="#E2DCBE"/>
<path fill-rule="evenodd" clip-rule="evenodd" d="M13.2816 12.9304C13.2711 13.0219 13.2636 13.1127 13.2576 13.2042L12.6666 13.1787C12.6726 13.0804 12.6824 12.9829 12.6944 12.8847L13.2816 12.9304Z" fill="#E0D8B8"/>
<path fill-rule="evenodd" clip-rule="evenodd" d="M13.2578 13.2039C13.2518 13.2946 13.248 13.3861 13.2473 13.4769L12.6563 13.4709C12.657 13.3741 12.6608 13.2766 12.6668 13.1784L13.2578 13.2039Z" fill="#DED4B1"/>
<path fill-rule="evenodd" clip-rule="evenodd" d="M22.1889 27.875C22.2707 27.7985 22.3517 27.7212 22.4289 27.641L22.8482 28.058C22.7642 28.1435 22.6787 28.2275 22.5909 28.3092L22.1889 27.875Z" fill="#5E4A23"/>
<path fill-rule="evenodd" clip-rule="evenodd" d="M22.4292 27.6415C22.5072 27.562 22.5822 27.481 22.6549 27.3985C22.6549 27.3985 22.7997 27.232 22.8672 27.1465L23.3194 27.5207C23.2459 27.6137 23.0907 27.7945 23.0907 27.7945C23.0119 27.8845 22.9317 27.9722 22.8484 28.0585L22.4292 27.6415Z" fill="#5F4A23"/>
<path fill-rule="evenodd" clip-rule="evenodd" d="M22.8674 27.1465C22.9364 27.061 23.0024 26.974 23.0662 26.8855L23.5349 27.235C23.4659 27.3325 23.3939 27.427 23.3204 27.5207L22.8674 27.1465Z" fill="#5E4A23"/>
<path fill-rule="evenodd" clip-rule="evenodd" d="M23.0658 26.8855C23.1288 26.797 23.1903 26.7085 23.2495 26.6185L23.734 26.9403C23.6703 27.04 23.6035 27.1383 23.5345 27.235L23.0658 26.8855Z" fill="#5D4922"/>
<path fill-rule="evenodd" clip-rule="evenodd" d="M23.2495 26.6184C23.3072 26.5269 23.3635 26.4354 23.4175 26.3424L23.9185 26.6356C23.8592 26.7391 23.7977 26.8404 23.734 26.9409L23.2495 26.6184Z" fill="#5B4822"/>
<path fill-rule="evenodd" clip-rule="evenodd" d="M23.417 26.3421C23.471 26.2491 23.5227 26.1554 23.5715 26.0601L24.086 26.3241C24.0327 26.4306 23.9772 26.5334 23.918 26.6361L23.417 26.3421Z" fill="#594621"/>
<path fill-rule="evenodd" clip-rule="evenodd" d="M23.5715 26.0602C23.6203 25.965 23.6653 25.8682 23.7095 25.7715L24.239 26.0055C24.1918 26.1127 24.14 26.22 24.086 26.3242L23.5715 26.0602Z" fill="#564321"/>
<path fill-rule="evenodd" clip-rule="evenodd" d="M23.7095 25.7718C23.7537 25.6736 23.7942 25.5761 23.8332 25.4756L24.3755 25.6803C24.3327 25.7891 24.2877 25.8993 24.239 26.0058L23.7095 25.7718Z" fill="#524120"/>
<path fill-rule="evenodd" clip-rule="evenodd" d="M23.8333 25.4755C23.8708 25.3765 23.9076 25.2775 23.9406 25.177L24.4948 25.3487C24.4581 25.4597 24.4183 25.5707 24.3756 25.6795L23.8333 25.4755Z" fill="#4E3D1E"/>
<path fill-rule="evenodd" clip-rule="evenodd" d="M23.9404 25.1771C23.9734 25.0759 24.0042 24.9746 24.0327 24.8719L24.5967 25.0136C24.5659 25.1276 24.5322 25.2386 24.4947 25.3489L23.9404 25.1771Z" fill="#49391D"/>
<path fill-rule="evenodd" clip-rule="evenodd" d="M24.0332 24.8718C24.0609 24.7698 24.0857 24.6663 24.1089 24.5636L24.6827 24.6738C24.6572 24.7886 24.6294 24.9011 24.5972 25.0136L24.0332 24.8718Z" fill="#43351B"/>
<path fill-rule="evenodd" clip-rule="evenodd" d="M24.1086 24.5631C24.1318 24.4588 24.1521 24.3538 24.1686 24.2496L24.7498 24.3313C24.7311 24.4468 24.7078 24.5601 24.6831 24.6733L24.1086 24.5631Z" fill="#3D311A"/>
<path fill-rule="evenodd" clip-rule="evenodd" d="M24.1685 24.2501C24.1858 24.1443 24.2008 24.0393 24.2128 23.9328L24.7993 23.9876C24.7858 24.1023 24.7693 24.2178 24.7498 24.3318L24.1685 24.2501Z" fill="#372C17"/>
<path fill-rule="evenodd" clip-rule="evenodd" d="M24.2127 23.9327C24.224 23.8262 24.233 23.7204 24.2397 23.6132L24.8292 23.6417C24.8225 23.7572 24.8127 23.8719 24.7992 23.9874L24.2127 23.9327Z" fill="#302715"/>
<path fill-rule="evenodd" clip-rule="evenodd" d="M24.2393 23.6129C24.246 23.5049 24.249 23.3999 24.2505 23.2912L24.8408 23.2949C24.8408 23.4097 24.8363 23.5259 24.8288 23.6414L24.2393 23.6129Z" fill="#2A2213"/>
<path fill-rule="evenodd" clip-rule="evenodd" d="M8.84033 15.6577H9.04508H9.44483L9.94058 15.0659H9.57158H9.43208L8.84033 15.6577Z" fill="#DCD2AE"/>
<path fill-rule="evenodd" clip-rule="evenodd" d="M9.44482 15.6577H9.69682H9.97132H10.2601H10.5556H10.8481H11.1301H11.3911L11.9363 15.0659H11.6618H11.3671H11.0626H10.7581H10.4633H10.1881H9.94132L9.44482 15.6577Z" fill="#DCD2AE"/>
<path fill-rule="evenodd" clip-rule="evenodd" d="M11.3906 15.6577H11.6239H11.9704H12.1016L12.6926 15.0659H12.5524H12.1834H11.9366L11.3906 15.6577Z" fill="#DCD2AE"/>
<path fill-rule="evenodd" clip-rule="evenodd" d="M16.6042 27.0533C16.6942 27.0533 16.7812 27.0518 16.8675 27.0503L16.854 26.4593C16.7722 26.4616 16.689 26.4623 16.6042 26.4623V27.0533Z" fill="#DDD3B0"/>
<path fill-rule="evenodd" clip-rule="evenodd" d="M16.8675 27.0507C16.9545 27.0485 17.0393 27.0455 17.1233 27.0417L17.0925 26.4522C17.0138 26.456 16.935 26.4575 16.8533 26.4597L16.8675 27.0507Z" fill="#DED5B3"/>
<path fill-rule="evenodd" clip-rule="evenodd" d="M17.1236 27.0417C17.2068 27.0372 17.2893 27.0327 17.3711 27.026L17.3223 26.4387C17.2473 26.444 17.1708 26.4485 17.0928 26.4522L17.1236 27.0417Z" fill="#DFD6B6"/>
<path fill-rule="evenodd" clip-rule="evenodd" d="M17.3711 27.0263C17.4521 27.0195 17.5316 27.012 17.6096 27.0053L17.5421 26.421C17.4708 26.4278 17.3973 26.4345 17.3231 26.439L17.3711 27.0263Z" fill="#E0D8B9"/>
<path fill-rule="evenodd" clip-rule="evenodd" d="M17.6097 27.005C17.6877 26.9975 17.7649 26.9885 17.8414 26.978L17.7522 26.3983C17.6839 26.4058 17.6134 26.4148 17.5414 26.4215L17.6097 27.005Z" fill="#E1DABC"/>
<path fill-rule="evenodd" clip-rule="evenodd" d="M17.8416 26.9778C17.9173 26.9673 17.9916 26.9576 18.0651 26.9448L17.9541 26.3688C17.8881 26.3793 17.8206 26.3898 17.7523 26.3988L17.8416 26.9778Z" fill="#E3DCC0"/>
<path fill-rule="evenodd" clip-rule="evenodd" d="M18.0647 26.9451C18.1374 26.9324 18.2094 26.9204 18.2807 26.9054L18.1472 26.3361C18.0842 26.3489 18.0197 26.3594 17.9537 26.3691L18.0647 26.9451Z" fill="#E4DEC3"/>
<path fill-rule="evenodd" clip-rule="evenodd" d="M18.2809 26.9056C18.3514 26.8913 18.4211 26.8763 18.4894 26.8598L18.3319 26.2966C18.2711 26.3101 18.2096 26.3236 18.1474 26.3356L18.2809 26.9056Z" fill="#E6E0C7"/>
<path fill-rule="evenodd" clip-rule="evenodd" d="M18.4895 26.8603C18.5577 26.8445 18.6245 26.8265 18.6897 26.8093L18.5097 26.252C18.452 26.2678 18.3927 26.2828 18.3327 26.2963L18.4895 26.8603Z" fill="#E7E2CA"/>
<path fill-rule="evenodd" clip-rule="evenodd" d="M18.6897 26.8086C18.7557 26.7906 18.8202 26.7711 18.8839 26.7509L18.6792 26.2011C18.6237 26.2199 18.5674 26.2356 18.5097 26.2521L18.6897 26.8086Z" fill="#E8E4CD"/>
<path fill-rule="evenodd" clip-rule="evenodd" d="M18.8835 26.7509C18.9458 26.7314 19.0088 26.7089 19.0695 26.6871L18.8423 26.1456C18.7898 26.1651 18.735 26.1839 18.6795 26.2019L18.8835 26.7509Z" fill="#EAE6D1"/>
<path fill-rule="evenodd" clip-rule="evenodd" d="M19.0698 26.6872C19.1305 26.6655 19.1898 26.6415 19.2483 26.6167L18.9993 26.0842C18.9475 26.106 18.8958 26.1262 18.8425 26.1457L19.0698 26.6872Z" fill="#EBE8D4"/>
<path fill-rule="evenodd" clip-rule="evenodd" d="M19.2484 26.6168C19.3654 26.5673 19.4771 26.514 19.5844 26.457L19.2934 25.9448C19.1996 25.9958 19.1014 26.0415 18.9986 26.0843L19.2484 26.6168Z" fill="#EDEBD9"/>
<path fill-rule="evenodd" clip-rule="evenodd" d="M19.5845 26.4571C19.6918 26.4009 19.7945 26.3401 19.8928 26.2741L19.565 25.7821C19.478 25.8406 19.3873 25.8946 19.2928 25.9441L19.5845 26.4571Z" fill="#EEEEDE"/>
<path fill-rule="evenodd" clip-rule="evenodd" d="M19.4169 10.1069C19.3044 10.1069 19.1919 10.1122 19.0802 10.1242L19.1297 10.7114C19.2234 10.7024 19.3194 10.6979 19.4169 10.6979V10.1069Z" fill="#272012"/>
<path fill-rule="evenodd" clip-rule="evenodd" d="M19.0799 10.1241C18.9681 10.1354 18.8579 10.1534 18.7476 10.1766L18.8519 10.7519C18.9434 10.7331 19.0356 10.7204 19.1294 10.7114L19.0799 10.1241Z" fill="#342A17"/>
<path fill-rule="evenodd" clip-rule="evenodd" d="M18.7473 10.1768C18.6378 10.2 18.5283 10.2285 18.4211 10.263L18.5861 10.8203C18.6731 10.7933 18.7623 10.7708 18.8523 10.7528L18.7473 10.1768Z" fill="#40331B"/>
<path fill-rule="evenodd" clip-rule="evenodd" d="M18.4211 10.2628C18.3131 10.2966 18.2066 10.3378 18.1024 10.3821L18.3274 10.9168C18.4129 10.8801 18.4984 10.8471 18.5861 10.8201L18.4211 10.2628Z" fill="#493A1D"/>
<path fill-rule="evenodd" clip-rule="evenodd" d="M18.1027 10.3818C17.9977 10.4276 17.8949 10.4771 17.7944 10.5341L18.0779 11.0411C18.1604 10.9946 18.2437 10.9533 18.3277 10.9158L18.1027 10.3818Z" fill="#51401F"/>
<path fill-rule="evenodd" clip-rule="evenodd" d="M17.7943 10.5345C17.6938 10.5907 17.5948 10.6515 17.4981 10.7182L17.8356 11.196C17.9151 11.1397 17.9968 11.0887 18.0771 11.0415L17.7943 10.5345Z" fill="#554320"/>
<path fill-rule="evenodd" clip-rule="evenodd" d="M17.4985 10.7176C17.4018 10.7843 17.308 10.8563 17.2165 10.9321L17.599 11.3791C17.677 11.3131 17.7558 11.2516 17.8353 11.1953L17.4985 10.7176Z" fill="#574421"/>
<path fill-rule="evenodd" clip-rule="evenodd" d="M17.2164 10.9324C17.1242 11.0089 17.0357 11.0907 16.9502 11.1769L17.3694 11.5939C17.4452 11.5174 17.5217 11.4462 17.5997 11.3794L17.2164 10.9324Z" fill="#594621"/>
<path fill-rule="evenodd" clip-rule="evenodd" d="M13.2475 13.4772V13.5192L12.6558 13.5155C12.6558 13.5005 12.6558 13.4847 12.6565 13.472L13.2475 13.4772Z" fill="#DCD2AE"/>
<path fill-rule="evenodd" clip-rule="evenodd" d="M13.2475 13.5188V13.5601H12.6558V13.5151L13.2475 13.5188Z" fill="#DCD2AD"/>
<path fill-rule="evenodd" clip-rule="evenodd" d="M12.102 27.0532V26.8852V26.4952V26.2252V25.9132V25.5607V25.1722V24.9659V24.7522V24.5317V24.3052V24.0719V23.8334V23.5904V23.3429V23.0917V22.8359V22.5794V22.3192V22.0574V21.7942V21.5302V21.2654V21.0022V20.7382V20.4757V20.2162V19.9574V19.7017V19.4489V19.1999V18.9554V18.7154V18.4807V18.2527V18.0307V17.8139V17.6054V17.4044V17.0279V16.6882V16.3904V16.1377V15.7829V15.6577L12.693 15.0659V15.1942V15.5557V15.8137V16.1174V16.4639V16.8464V17.0512V17.2634V17.4824V17.7089V17.9414V18.1799V18.4237V18.6719V18.9239V19.1804V19.4392V19.7009V19.9649V20.2304V20.4967V20.7637V21.0314V21.2977V21.5632V21.8264V22.0889V22.3484V22.6034V22.8562V23.1037V23.3474V23.5859V23.8184V24.0449V24.2639V24.4762V24.6817V25.0642V25.4099V25.7129V25.9717V26.3339V26.4622L12.102 27.0532Z" fill="#51452C"/>
<path fill-rule="evenodd" clip-rule="evenodd" d="M19.893 26.2745C20.013 26.1942 20.1278 26.1072 20.2365 26.015L19.863 25.5605C19.77 25.637 19.6703 25.712 19.5653 25.7825L19.893 26.2745Z" fill="#F0F0E2"/>
<path fill-rule="evenodd" clip-rule="evenodd" d="M20.2362 26.015C20.345 25.9235 20.4477 25.8253 20.5437 25.7218L20.126 25.316C20.0442 25.4015 19.9565 25.4825 19.8635 25.5605L20.2362 26.015Z" fill="#F1F1E4"/>
<path fill-rule="evenodd" clip-rule="evenodd" d="M20.5437 25.7218C20.6382 25.6191 20.729 25.5111 20.8115 25.3993L20.351 25.0536C20.282 25.1436 20.207 25.2321 20.126 25.3161L20.5437 25.7218Z" fill="#F1F1E3"/>
<path fill-rule="evenodd" clip-rule="evenodd" d="M20.8119 25.3999C20.8944 25.2874 20.9709 25.1704 21.0399 25.0519L20.5374 24.7729C20.4827 24.8682 20.4197 24.9619 20.3507 25.0542L20.8119 25.3999Z" fill="#EFEFE0"/>
<path fill-rule="evenodd" clip-rule="evenodd" d="M21.0396 25.0518C21.1086 24.9326 21.1694 24.8096 21.2226 24.6836L20.6864 24.4736C20.6436 24.5756 20.5934 24.6746 20.5371 24.7728L21.0396 25.0518Z" fill="#EDEBD9"/>
<path fill-rule="evenodd" clip-rule="evenodd" d="M21.2221 24.6834C21.2753 24.5589 21.3218 24.4306 21.3601 24.3009L20.7946 24.1614C20.7653 24.2679 20.7286 24.3729 20.6858 24.4741L21.2221 24.6834Z" fill="#EAE6D0"/>
<path fill-rule="evenodd" clip-rule="evenodd" d="M21.3601 24.3013C21.3788 24.236 21.3946 24.1708 21.4096 24.1048L20.8343 24.0005C20.8223 24.0545 20.8088 24.1085 20.7946 24.161L21.3601 24.3013Z" fill="#E7E1C9"/>
<path fill-rule="evenodd" clip-rule="evenodd" d="M21.4095 24.1048C21.4237 24.0403 21.4365 23.9743 21.447 23.9076L20.8628 23.8356C20.8553 23.8911 20.8455 23.9458 20.8343 23.9998L21.4095 24.1048Z" fill="#E4DEC2"/>
<path fill-rule="evenodd" clip-rule="evenodd" d="M21.4469 23.9077C21.4574 23.8425 21.4649 23.775 21.4716 23.709L20.8821 23.6685C20.8776 23.724 20.8709 23.7795 20.8634 23.835L21.4469 23.9077Z" fill="#E1D9BA"/>
<path fill-rule="evenodd" clip-rule="evenodd" d="M21.4716 23.7093C21.4769 23.6433 21.4799 23.5758 21.4821 23.5083L20.8911 23.4978C20.8896 23.5548 20.8866 23.611 20.8821 23.668L21.4716 23.7093Z" fill="#DED5B3"/>
<path fill-rule="evenodd" clip-rule="evenodd" d="M16.9499 11.1771C16.8674 11.2596 16.7901 11.3451 16.7159 11.4336L17.1644 11.8161C17.2289 11.7411 17.2964 11.6668 17.3691 11.5941L16.9499 11.1771Z" fill="#594622"/>
<path fill-rule="evenodd" clip-rule="evenodd" d="M16.7167 11.4337C16.6432 11.5222 16.5742 11.613 16.5097 11.706L16.9867 12.0457C17.0422 11.9685 17.1007 11.892 17.1652 11.8162L16.7167 11.4337Z" fill="#594621"/>
<path fill-rule="evenodd" clip-rule="evenodd" d="M16.5093 11.706C16.4456 11.7998 16.3848 11.8943 16.3293 11.9918L16.8348 12.2813C16.8813 12.201 16.9316 12.123 16.9871 12.0458L16.5093 11.706Z" fill="#574421"/>
<path fill-rule="evenodd" clip-rule="evenodd" d="M16.3289 11.9922C16.2741 12.0889 16.2231 12.1887 16.1774 12.2892L16.7099 12.5224C16.7466 12.4414 16.7886 12.3604 16.8344 12.2809L16.3289 11.9922Z" fill="#534120"/>
<path fill-rule="evenodd" clip-rule="evenodd" d="M16.1772 12.2883C16.1314 12.3888 16.0902 12.4915 16.0549 12.5935L16.6099 12.7713C16.6384 12.6865 16.6714 12.604 16.7097 12.5223L16.1772 12.2883Z" fill="#4D3C1E"/>
<path fill-rule="evenodd" clip-rule="evenodd" d="M16.0549 12.5939C16.0196 12.6967 15.9889 12.8009 15.9634 12.9052L16.5364 13.0252C16.5559 12.9389 16.5806 12.8549 16.6099 12.7709L16.0549 12.5939Z" fill="#44361C"/>
<path fill-rule="evenodd" clip-rule="evenodd" d="M15.9633 12.9052C15.9378 13.0095 15.9176 13.1145 15.9041 13.2202L16.4891 13.2862C16.5003 13.1985 16.5161 13.1115 16.5363 13.0252L15.9633 12.9052Z" fill="#392E18"/>
<path fill-rule="evenodd" clip-rule="evenodd" d="M15.9041 13.2202C15.8891 13.3252 15.8801 13.4295 15.8771 13.5352L16.4674 13.5532C16.4704 13.4632 16.4779 13.3747 16.4891 13.2862L15.9041 13.2202Z" fill="#2C2414"/>
<path fill-rule="evenodd" clip-rule="evenodd" d="M15.8744 13.6802L15.8774 13.5354L16.4684 13.5437L16.4661 13.6892L15.8744 13.6802Z" fill="#241E11"/>
<path fill-rule="evenodd" clip-rule="evenodd" d="M21.4821 23.5084C21.4829 23.4972 21.4829 23.4852 21.4829 23.4732L20.8911 23.4672V23.4994L21.4821 23.5084Z" fill="#DCD2AD"/>
<path fill-rule="evenodd" clip-rule="evenodd" d="M21.4829 23.4737V23.4355H20.8911V23.4677L21.4829 23.4737Z" fill="#DBD1AC"/>
<path fill-rule="evenodd" clip-rule="evenodd" d="M13.2471 13.5603C13.2471 13.6458 13.2486 13.732 13.2509 13.816L12.6606 13.8333C12.6569 13.7425 12.6554 13.6518 12.6554 13.5603H13.2471Z" fill="#DBD0AB"/>
<path fill-rule="evenodd" clip-rule="evenodd" d="M13.2512 13.8162C13.2549 13.9017 13.2579 13.9857 13.2639 14.0697L12.6744 14.1027C12.6684 14.0135 12.6639 13.9235 12.6609 13.8335L13.2512 13.8162Z" fill="#D9CEA7"/>
<path fill-rule="evenodd" clip-rule="evenodd" d="M13.264 14.0694C13.2693 14.1526 13.276 14.2359 13.2835 14.3184L12.697 14.3701C12.688 14.2816 12.6813 14.1924 12.6745 14.1024L13.264 14.0694Z" fill="#D7CBA2"/>
<path fill-rule="evenodd" clip-rule="evenodd" d="M13.2834 14.3181C13.2916 14.3998 13.3006 14.4823 13.3119 14.5633L12.7284 14.6331C12.7164 14.5461 12.7059 14.4583 12.6969 14.3698L13.2834 14.3181Z" fill="#D5C89D"/>
<path fill-rule="evenodd" clip-rule="evenodd" d="M13.3118 14.5635C13.3231 14.6445 13.3343 14.7248 13.3471 14.805L12.7688 14.8935C12.7546 14.808 12.7411 14.721 12.7291 14.6333L13.3118 14.5635Z" fill="#D4C598"/>
<path fill-rule="evenodd" clip-rule="evenodd" d="M13.3471 14.8055C13.3613 14.885 13.3756 14.9645 13.3913 15.0425L12.8183 15.1505C12.8003 15.0658 12.7846 14.9803 12.7688 14.894L13.3471 14.8055Z" fill="#D1C293"/>
<path fill-rule="evenodd" clip-rule="evenodd" d="M13.3914 15.0424C13.4071 15.1211 13.4244 15.1991 13.4424 15.2756L12.8761 15.4039C12.8559 15.3206 12.8364 15.2359 12.8184 15.1504L13.3914 15.0424Z" fill="#D0BF8D"/>
<path fill-rule="evenodd" clip-rule="evenodd" d="M13.4424 15.2757C13.4611 15.353 13.4806 15.4295 13.5009 15.5052L12.9421 15.653C12.9189 15.5712 12.8964 15.4872 12.8761 15.404L13.4424 15.2757Z" fill="#CDBB88"/>
<path fill-rule="evenodd" clip-rule="evenodd" d="M13.5009 15.5052C13.5219 15.5809 13.5444 15.6567 13.5676 15.7309L13.0171 15.8982C12.9909 15.8172 12.9669 15.7362 12.9421 15.6529L13.5009 15.5052Z" fill="#CAB882"/>
<path fill-rule="evenodd" clip-rule="evenodd" d="M13.5683 15.7307C13.5916 15.8049 13.6163 15.8784 13.6433 15.9512L13.1011 16.1394C13.0711 16.0599 13.0441 15.9797 13.0178 15.8987L13.5683 15.7307Z" fill="#C9B57D"/>
<path fill-rule="evenodd" clip-rule="evenodd" d="M13.6427 15.9519C13.669 16.0247 13.6952 16.0959 13.7237 16.1687L13.192 16.3772C13.1597 16.2992 13.1297 16.2197 13.1005 16.1394L13.6427 15.9519Z" fill="#C6B177"/>
<path fill-rule="evenodd" clip-rule="evenodd" d="M13.7242 16.1682C13.7534 16.2402 13.7819 16.3099 13.8134 16.3804L13.2914 16.6092C13.2569 16.5327 13.2239 16.4547 13.1924 16.3767L13.7242 16.1682Z" fill="#C4AE71"/>
<path fill-rule="evenodd" clip-rule="evenodd" d="M13.8132 16.3805C13.8447 16.4503 13.8762 16.5193 13.91 16.5875L13.3985 16.8373C13.3617 16.7623 13.3257 16.6865 13.2912 16.61L13.8132 16.3805Z" fill="#C1AA6B"/>
<path fill-rule="evenodd" clip-rule="evenodd" d="M13.9096 16.5875C13.9426 16.6565 13.9778 16.7232 14.0131 16.7907L13.5136 17.06C13.4738 16.9865 13.4356 16.9122 13.3981 16.8372L13.9096 16.5875Z" fill="#BEA764"/>
<path fill-rule="evenodd" clip-rule="evenodd" d="M14.0135 16.7901C14.0495 16.8568 14.0862 16.9221 14.1245 16.9881L13.6377 17.2783C13.595 17.2063 13.5537 17.1328 13.5132 17.0593L14.0135 16.7901Z" fill="#BCA25E"/>
<path fill-rule="evenodd" clip-rule="evenodd" d="M14.1244 16.988C14.1619 17.0533 14.2017 17.1178 14.2422 17.1808L13.7682 17.4905C13.7224 17.4208 13.6789 17.3503 13.6377 17.2783L14.1244 16.988Z" fill="#B99F58"/>
<path fill-rule="evenodd" clip-rule="evenodd" d="M14.2422 17.1806C14.2835 17.2443 14.3247 17.3066 14.3675 17.3681L13.9062 17.6973C13.859 17.6298 13.8125 17.5593 13.7682 17.4903L14.2422 17.1806Z" fill="#B79B52"/>
<path fill-rule="evenodd" clip-rule="evenodd" d="M14.3674 17.3679C14.4109 17.4302 14.4551 17.4917 14.5001 17.5509L14.0524 17.8997C14.0014 17.8337 13.9534 17.7662 13.9061 17.6979L14.3674 17.3679Z" fill="#B4974C"/>
<path fill-rule="evenodd" clip-rule="evenodd" d="M14.5003 17.5511C14.5453 17.6111 14.5918 17.6704 14.6398 17.7289L14.2056 18.0964C14.1531 18.0319 14.1021 17.9666 14.0526 17.8999L14.5003 17.5511Z" fill="#B19446"/>
<path fill-rule="evenodd" clip-rule="evenodd" d="M14.6391 17.7283C14.6864 17.7861 14.7351 17.8438 14.7854 17.9001L14.3654 18.2863C14.3114 18.2241 14.2574 18.1603 14.2049 18.0958L14.6391 17.7283Z" fill="#AE8F41"/>
<path fill-rule="evenodd" clip-rule="evenodd" d="M14.7856 17.9007C14.8853 18.0139 14.9896 18.1227 15.0983 18.2284L14.7091 18.6492C14.5891 18.5322 14.4751 18.4122 14.3656 18.2862L14.7856 17.9007Z" fill="#AA8A39"/>
<path fill-rule="evenodd" clip-rule="evenodd" d="M15.0976 18.228C15.2071 18.3338 15.3196 18.4358 15.4381 18.5333L15.0789 18.9855C14.9506 18.8783 14.8269 18.7658 14.7084 18.6488L15.0976 18.228Z" fill="#A28233"/>
<path fill-rule="evenodd" clip-rule="evenodd" d="M15.4381 18.5334C15.4966 18.5821 15.5566 18.6301 15.6174 18.6774L15.2731 19.1454C15.2079 19.0944 15.1419 19.0404 15.0789 18.9856L15.4381 18.5334Z" fill="#997B31"/>
<path fill-rule="evenodd" clip-rule="evenodd" d="M15.6177 18.6777C15.6784 18.7249 15.7407 18.7714 15.8037 18.8157L15.4767 19.2979C15.4077 19.2477 15.3402 19.1974 15.2734 19.1457L15.6177 18.6777Z" fill="#90742F"/>
<path fill-rule="evenodd" clip-rule="evenodd" d="M15.8035 18.8149C15.8672 18.8607 15.931 18.9042 15.9962 18.9477L15.685 19.4419C15.6137 19.3947 15.5447 19.3467 15.4765 19.2979L15.8035 18.8149Z" fill="#886D2E"/>
<path fill-rule="evenodd" clip-rule="evenodd" d="M15.9962 18.9478C16.0614 18.9913 16.1274 19.0333 16.1957 19.0738L15.8994 19.5815C15.8267 19.5358 15.7547 19.4908 15.6842 19.442L15.9962 18.9478Z" fill="#81672C"/>
<path fill-rule="evenodd" clip-rule="evenodd" d="M16.1958 19.0738C16.2633 19.1143 16.3323 19.1541 16.4013 19.1931L16.1215 19.7113C16.0473 19.6693 15.973 19.6251 15.8995 19.5816L16.1958 19.0738Z" fill="#7A612A"/>
<path fill-rule="evenodd" clip-rule="evenodd" d="M16.4013 19.193C16.4703 19.2328 16.5416 19.2703 16.6136 19.3063L16.3496 19.8343C16.2723 19.7945 16.1966 19.7525 16.1208 19.7105L16.4013 19.193Z" fill="#745B29"/>
<path fill-rule="evenodd" clip-rule="evenodd" d="M16.6136 19.3064C16.6848 19.3432 16.7568 19.3792 16.8311 19.4137L16.5836 19.9484C16.5041 19.9124 16.4261 19.8734 16.3496 19.8344L16.6136 19.3064Z" fill="#6D5527"/>
<path fill-rule="evenodd" clip-rule="evenodd" d="M16.8305 19.4136C16.9047 19.4481 16.979 19.4819 17.0547 19.5141L16.823 20.0571C16.742 20.0226 16.6617 19.9874 16.583 19.9491L16.8305 19.4136Z" fill="#665025"/>
<path fill-rule="evenodd" clip-rule="evenodd" d="M24.2505 23.2917C24.2505 23.2069 24.2482 23.1199 24.2445 23.0367L24.8355 23.0149C24.8392 23.1072 24.8415 23.1987 24.8415 23.2917H24.2505Z" fill="#231E10"/>
<path fill-rule="evenodd" clip-rule="evenodd" d="M24.2446 23.0366C24.2416 22.9526 24.2364 22.8686 24.2289 22.7861L24.8176 22.7426C24.8251 22.8326 24.8311 22.9241 24.8356 23.0149L24.2446 23.0366Z" fill="#292213"/>
<path fill-rule="evenodd" clip-rule="evenodd" d="M24.2291 22.7866C24.2224 22.7048 24.2141 22.6231 24.2036 22.5421L24.7879 22.4761C24.7999 22.5638 24.8089 22.6531 24.8179 22.7431L24.2291 22.7866Z" fill="#2F2615"/>
<path fill-rule="evenodd" clip-rule="evenodd" d="M24.2032 22.5418C24.1919 22.4608 24.1799 22.3798 24.1657 22.3011L24.7462 22.2141C24.7612 22.2996 24.7762 22.3866 24.7874 22.4758L24.2032 22.5418Z" fill="#352B17"/>
<path fill-rule="evenodd" clip-rule="evenodd" d="M24.166 22.3007C24.1517 22.2219 24.136 22.1432 24.1195 22.0652L24.6925 21.9542C24.712 22.0389 24.73 22.1259 24.7457 22.2137L24.166 22.3007Z" fill="#3C3019"/>
<path fill-rule="evenodd" clip-rule="evenodd" d="M24.1196 22.0652C24.1016 21.9872 24.0828 21.9107 24.0603 21.8342L24.6266 21.7014C24.6506 21.7847 24.6723 21.8694 24.6926 21.9549L24.1196 22.0652Z" fill="#43351B"/>
<path fill-rule="evenodd" clip-rule="evenodd" d="M24.0606 21.8343C24.0396 21.7578 24.0178 21.6821 23.9923 21.6071L24.5503 21.4518C24.5781 21.5343 24.6036 21.6176 24.6268 21.7008L24.0606 21.8343Z" fill="#4B3B1D"/>
<path fill-rule="evenodd" clip-rule="evenodd" d="M23.9923 21.6071C23.9683 21.5329 23.9413 21.4586 23.9136 21.3851L24.4611 21.2074C24.4926 21.2876 24.5226 21.3694 24.5503 21.4519L23.9923 21.6071Z" fill="#534120"/>
<path fill-rule="evenodd" clip-rule="evenodd" d="M23.9131 21.3855C23.8853 21.312 23.8553 21.24 23.8238 21.1688L24.3616 20.967C24.3968 21.0465 24.4298 21.126 24.4613 21.2078L23.9131 21.3855Z" fill="#5C4822"/>
<path fill-rule="evenodd" clip-rule="evenodd" d="M23.8239 21.1686C23.7924 21.0966 23.7586 21.0261 23.7234 20.9556L24.2491 20.7328C24.2881 20.8093 24.3264 20.8881 24.3616 20.9668L23.8239 21.1686Z" fill="#654F25"/>
<path fill-rule="evenodd" clip-rule="evenodd" d="M23.7233 20.9555C23.688 20.885 23.6505 20.8153 23.6123 20.7478L24.126 20.5025C24.1695 20.5783 24.21 20.6548 24.249 20.7328L23.7233 20.9555Z" fill="#6E5627"/>
<path fill-rule="evenodd" clip-rule="evenodd" d="M23.6124 20.7472C23.5734 20.6782 23.5329 20.61 23.4901 20.544L23.9911 20.2762C24.0376 20.3512 24.0826 20.4262 24.1261 20.5027L23.6124 20.7472Z" fill="#775E2A"/>
<path fill-rule="evenodd" clip-rule="evenodd" d="M23.4907 20.5436C23.4487 20.4761 23.4044 20.4101 23.3587 20.3433L23.8447 20.0561C23.8964 20.1288 23.9452 20.2023 23.9909 20.2766L23.4907 20.5436Z" fill="#81672C"/>
<path fill-rule="evenodd" clip-rule="evenodd" d="M23.3584 20.3439C23.3127 20.2794 23.2647 20.2142 23.2152 20.1497L23.6877 19.8407C23.7424 19.9127 23.7949 19.9847 23.8444 20.0559L23.3584 20.3439Z" fill="#8B6F2E"/>
<path fill-rule="evenodd" clip-rule="evenodd" d="M23.215 20.1493C23.1648 20.0848 23.1138 20.0218 23.0605 19.9588L23.5188 19.631C23.5773 19.6993 23.6328 19.7683 23.6875 19.8403L23.215 20.1493Z" fill="#957831"/>
<path fill-rule="evenodd" clip-rule="evenodd" d="M23.0613 19.9593C23.008 19.897 22.9533 19.8363 22.8963 19.7748L23.3395 19.4245C23.401 19.492 23.461 19.561 23.5188 19.6315L23.0613 19.9593Z" fill="#A08033"/>
<path fill-rule="evenodd" clip-rule="evenodd" d="M22.8964 19.7748C22.8401 19.7133 22.7816 19.6533 22.7216 19.5933L23.1476 19.2243C23.2136 19.2903 23.2766 19.357 23.3389 19.4245L22.8964 19.7748Z" fill="#A68533"/>
<path fill-rule="evenodd" clip-rule="evenodd" d="M22.7213 19.5929C22.6606 19.5344 22.5983 19.4752 22.5353 19.4167L22.9456 19.0282C23.0146 19.0919 23.0821 19.1579 23.1473 19.2239L22.7213 19.5929Z" fill="#A98937"/>
<path fill-rule="evenodd" clip-rule="evenodd" d="M22.5351 19.4166C22.4706 19.3596 22.4054 19.3011 22.3379 19.2448L22.7309 18.8383C22.8044 18.9006 22.8756 18.9643 22.9454 19.0281L22.5351 19.4166Z" fill="#AD8E3D"/>
<path fill-rule="evenodd" clip-rule="evenodd" d="M22.3376 19.2451C22.2701 19.1881 22.2011 19.1318 22.1298 19.0771L22.5071 18.6533C22.5836 18.7141 22.6586 18.7756 22.7306 18.8386L22.3376 19.2451Z" fill="#AF9143"/>
<path fill-rule="evenodd" clip-rule="evenodd" d="M22.1303 19.0772C22.0591 19.0217 21.9863 18.9677 21.9113 18.9137L22.2713 18.4727C22.3516 18.5319 22.4303 18.5919 22.5076 18.6534L22.1303 19.0772Z" fill="#B29649"/>
<path fill-rule="evenodd" clip-rule="evenodd" d="M21.9116 18.9138C21.8358 18.8606 21.7601 18.8073 21.6813 18.7556L22.0248 18.2981C22.1088 18.3558 22.1913 18.4136 22.2708 18.4728L21.9116 18.9138Z" fill="#B5994E"/>
<path fill-rule="evenodd" clip-rule="evenodd" d="M21.6815 18.7555C21.6035 18.703 21.5233 18.652 21.4408 18.601L21.7678 18.1293C21.8555 18.1848 21.941 18.241 22.025 18.2988L21.6815 18.7555Z" fill="#B79D54"/>
<path fill-rule="evenodd" clip-rule="evenodd" d="M21.4408 18.6007C21.359 18.5505 21.275 18.5002 21.1903 18.4507L21.4993 17.9647C21.5908 18.0187 21.68 18.0735 21.7678 18.129L21.4408 18.6007Z" fill="#BAA05A"/>
<path fill-rule="evenodd" clip-rule="evenodd" d="M21.1901 18.4514C21.1039 18.4027 21.0169 18.3539 20.9276 18.3059L21.2201 17.8064C21.3154 17.8589 21.4084 17.9114 21.4991 17.9654L21.1901 18.4514Z" fill="#BCA35F"/>
<path fill-rule="evenodd" clip-rule="evenodd" d="M20.9273 18.3056C20.838 18.2591 20.7473 18.2111 20.6543 18.1654L20.9295 17.6524C21.0285 17.7026 21.1253 17.7536 21.2198 17.8061L20.9273 18.3056Z" fill="#BEA664"/>
<path fill-rule="evenodd" clip-rule="evenodd" d="M20.6545 18.1654C20.5623 18.1189 20.467 18.0732 20.3703 18.0289L20.629 17.5054C20.7325 17.5534 20.8315 17.6029 20.9305 17.6532L20.6545 18.1654Z" fill="#C1A968"/>
<path fill-rule="evenodd" clip-rule="evenodd" d="M20.3696 18.0288C20.2736 17.9838 20.1761 17.9396 20.0741 17.8961L20.3186 17.3628C20.4243 17.4093 20.5271 17.4566 20.6291 17.5053L20.3696 18.0288Z" fill="#C2AB6D"/>
<path fill-rule="evenodd" clip-rule="evenodd" d="M20.0746 17.8958C19.9748 17.8515 19.8728 17.8095 19.7686 17.7675L19.9966 17.2253C20.1053 17.2703 20.2126 17.316 20.3183 17.3625L20.0746 17.8958Z" fill="#C4AE71"/>
<path fill-rule="evenodd" clip-rule="evenodd" d="M19.7687 17.7679C19.6652 17.7259 19.5595 17.6847 19.4515 17.6442L19.6645 17.0944C19.777 17.1372 19.8872 17.1807 19.9967 17.2257L19.7687 17.7679Z" fill="#C6B075"/>
<path fill-rule="evenodd" clip-rule="evenodd" d="M19.4519 17.6437C19.3439 17.6032 19.2344 17.5634 19.1242 17.5237L19.3214 16.9687C19.4377 17.0084 19.5517 17.0504 19.6649 17.0939L19.4519 17.6437Z" fill="#C7B379"/>
<path fill-rule="evenodd" clip-rule="evenodd" d="M19.1235 17.5243C19.0125 17.4853 18.9 17.4478 18.783 17.4095L18.9682 16.8478C19.0875 16.8868 19.2052 16.9273 19.3215 16.9685L19.1235 17.5243Z" fill="#C9B57D"/>
<path fill-rule="evenodd" clip-rule="evenodd" d="M15.8741 13.6801C15.8741 13.7904 15.8786 13.8991 15.8868 14.0064L16.4756 13.9674C16.4696 13.8736 16.4658 13.7776 16.4658 13.6801H15.8741Z" fill="#292213"/>
<path fill-rule="evenodd" clip-rule="evenodd" d="M15.8867 14.0062C15.8949 14.1134 15.9077 14.2184 15.9234 14.3219L16.5039 14.2417C16.4912 14.1524 16.4814 14.0602 16.4754 13.9672L15.8867 14.0062Z" fill="#332916"/>
<path fill-rule="evenodd" clip-rule="evenodd" d="M15.9237 14.3221C15.9394 14.4256 15.9604 14.5276 15.9852 14.6273L16.5529 14.5051C16.5334 14.4188 16.5177 14.3318 16.5042 14.2418L15.9237 14.3221Z" fill="#3E321A"/>
<path fill-rule="evenodd" clip-rule="evenodd" d="M15.9847 14.6275C16.0087 14.7273 16.0372 14.8255 16.0695 14.9215L16.6207 14.7558C16.5952 14.6748 16.572 14.5908 16.5525 14.5053L15.9847 14.6275Z" fill="#4B3B1D"/>
<path fill-rule="evenodd" clip-rule="evenodd" d="M16.0693 14.9215C16.1015 15.0182 16.1375 15.1127 16.1773 15.2042L16.709 14.9957C16.676 14.9177 16.6468 14.8382 16.6205 14.7557L16.0693 14.9215Z" fill="#594621"/>
<path fill-rule="evenodd" clip-rule="evenodd" d="M16.1775 15.2048C16.2172 15.2978 16.2607 15.3878 16.308 15.4763L16.8157 15.2236C16.7767 15.1501 16.7407 15.0736 16.7085 14.9963L16.1775 15.2048Z" fill="#685225"/>
<path fill-rule="evenodd" clip-rule="evenodd" d="M16.3081 15.4763C16.3554 15.564 16.4064 15.6503 16.4611 15.7335L16.9419 15.4395C16.8969 15.369 16.8541 15.2978 16.8151 15.2235L16.3081 15.4763Z" fill="#79602A"/>
<path fill-rule="evenodd" clip-rule="evenodd" d="M16.461 15.7334C16.5165 15.8174 16.5743 15.8991 16.6365 15.9794L17.0888 15.6426C17.0363 15.5774 16.9875 15.5091 16.9418 15.4386L16.461 15.7334Z" fill="#8B6F2E"/>
<path fill-rule="evenodd" clip-rule="evenodd" d="M16.6363 15.9794C16.6978 16.0589 16.7646 16.1361 16.8336 16.2111L17.2543 15.8354C17.1958 15.7739 17.1403 15.7086 17.0886 15.6434L16.6363 15.9794Z" fill="#9D7F32"/>
<path fill-rule="evenodd" clip-rule="evenodd" d="M16.8333 16.211C16.9023 16.286 16.9751 16.3587 17.0516 16.4285L17.4401 16.0152C17.3748 15.9575 17.3126 15.8967 17.2541 15.8352L16.8333 16.211Z" fill="#A88835"/>
<path fill-rule="evenodd" clip-rule="evenodd" d="M17.0511 16.4286C17.1276 16.4984 17.2071 16.5666 17.2896 16.6311L17.6451 16.1834C17.5724 16.1301 17.5041 16.0739 17.4396 16.0154L17.0511 16.4286Z" fill="#AE9041"/>
<path fill-rule="evenodd" clip-rule="evenodd" d="M17.2897 16.6312C17.373 16.6972 17.4592 16.7595 17.5492 16.8195L17.8695 16.341C17.7915 16.29 17.7165 16.2382 17.6445 16.1835L17.2897 16.6312Z" fill="#B4984D"/>
<path fill-rule="evenodd" clip-rule="evenodd" d="M17.5492 16.8194C17.6392 16.8794 17.7329 16.9371 17.8289 16.9911L18.1139 16.4856C18.0292 16.4391 17.9482 16.3911 17.8694 16.3409L17.5492 16.8194Z" fill="#B99F59"/>
<path fill-rule="evenodd" clip-rule="evenodd" d="M17.8291 16.9915C17.9251 17.0463 18.0256 17.0988 18.1284 17.1475L18.3789 16.618C18.2874 16.576 18.1996 16.5318 18.1141 16.4853L17.8291 16.9915Z" fill="#BEA764"/>
<path fill-rule="evenodd" clip-rule="evenodd" d="M18.1282 17.148C18.231 17.1975 18.3375 17.244 18.4462 17.2875L18.6637 16.7393C18.5655 16.701 18.4702 16.6605 18.3787 16.6178L18.1282 17.148Z" fill="#C3AD6F"/>
<path fill-rule="evenodd" clip-rule="evenodd" d="M18.4465 17.2872C18.556 17.3307 18.6685 17.372 18.7833 17.4095L18.9685 16.8477C18.8635 16.8132 18.7615 16.7772 18.664 16.739L18.4465 17.2872Z" fill="#C7B37A"/>
<path fill-rule="evenodd" clip-rule="evenodd" d="M21.4827 23.4355C21.4827 23.365 21.4804 23.2953 21.4767 23.2285L20.8864 23.2668C20.8894 23.3215 20.8909 23.3785 20.8909 23.4355H21.4827Z" fill="#DACEA8"/>
<path fill-rule="evenodd" clip-rule="evenodd" d="M21.4771 23.2281C21.4741 23.1606 21.4673 23.0931 21.4598 23.0278L20.8726 23.1028C20.8793 23.1553 20.8838 23.2108 20.8861 23.2671L21.4771 23.2281Z" fill="#D6CAA0"/>
<path fill-rule="evenodd" clip-rule="evenodd" d="M21.4598 23.0281C21.4523 22.9636 21.4433 22.8991 21.432 22.8383L20.8508 22.9471C20.8598 22.9973 20.8665 23.0491 20.8725 23.1031L21.4598 23.0281Z" fill="#D4C598"/>
<path fill-rule="evenodd" clip-rule="evenodd" d="M21.4319 22.838C21.4214 22.7758 21.4086 22.715 21.3936 22.6558L20.8191 22.7975C20.8311 22.8463 20.8416 22.8958 20.8506 22.9468L21.4319 22.838Z" fill="#D0BF8E"/>
<path fill-rule="evenodd" clip-rule="evenodd" d="M21.3939 22.6563C21.3661 22.5363 21.3309 22.4223 21.2889 22.3143L20.7331 22.5183C20.7676 22.6075 20.7961 22.7005 20.8194 22.798L21.3939 22.6563Z" fill="#CAB780"/>
<path fill-rule="evenodd" clip-rule="evenodd" d="M21.2891 22.3137C21.2479 22.2042 21.1999 22.1007 21.1489 22.0009L20.6171 22.2627C20.6606 22.3437 20.6989 22.4277 20.7334 22.5177L21.2891 22.3137Z" fill="#C2AB6D"/>
<path fill-rule="evenodd" clip-rule="evenodd" d="M21.1483 22.0012C21.0951 21.903 21.0373 21.8077 20.9736 21.7185L20.4718 22.029C20.5243 22.1032 20.5731 22.1805 20.6173 22.263L21.1483 22.0012Z" fill="#BAA059"/>
<path fill-rule="evenodd" clip-rule="evenodd" d="M20.9737 21.7186C20.9107 21.6279 20.8424 21.5424 20.7704 21.4591L20.3017 21.8154C20.3624 21.8844 20.4194 21.9541 20.4719 22.0291L20.9737 21.7186Z" fill="#B29447"/>
<path fill-rule="evenodd" clip-rule="evenodd" d="M20.771 21.4593C20.699 21.3775 20.6225 21.2995 20.5422 21.2245L20.108 21.6213C20.1762 21.6835 20.2407 21.748 20.3022 21.8155L20.771 21.4593Z" fill="#AA8A38"/>
<path fill-rule="evenodd" clip-rule="evenodd" d="M20.5417 21.224C20.4622 21.1498 20.3782 21.0793 20.2912 21.011L19.8929 21.4438C19.9679 21.5 20.0392 21.5585 20.1074 21.6208L20.5417 21.224Z" fill="#A08032"/>
<path fill-rule="evenodd" clip-rule="evenodd" d="M20.2908 21.0113C20.2046 20.9438 20.1138 20.8801 20.0216 20.8186L19.6593 21.2806C19.7403 21.3323 19.8176 21.3863 19.8926 21.4441L20.2908 21.0113Z" fill="#8E712F"/>
<path fill-rule="evenodd" clip-rule="evenodd" d="M20.0217 20.8186C19.9287 20.7578 19.8335 20.6986 19.7367 20.6423L19.409 21.1298C19.4952 21.1778 19.5777 21.2281 19.6595 21.2806L20.0217 20.8186Z" fill="#7F652C"/>
<path fill-rule="evenodd" clip-rule="evenodd" d="M19.7367 20.6418C19.6392 20.5863 19.5409 20.533 19.4397 20.482L19.1442 20.9905C19.2349 21.0355 19.3234 21.0813 19.4089 21.1293L19.7367 20.6418Z" fill="#745B29"/>
<path fill-rule="evenodd" clip-rule="evenodd" d="M19.4402 20.4824C19.3397 20.4307 19.2377 20.3812 19.1349 20.3362L18.8694 20.8612C18.9632 20.9032 19.0547 20.9459 19.1439 20.9909L19.4402 20.4824Z" fill="#6A5426"/>
<path fill-rule="evenodd" clip-rule="evenodd" d="M19.1351 20.3355C19.0331 20.289 18.9296 20.2425 18.8254 20.199L18.5846 20.7375C18.6806 20.778 18.7759 20.8193 18.8696 20.8605L19.1351 20.3355Z" fill="#644E24"/>
<path fill-rule="evenodd" clip-rule="evenodd" d="M18.8252 20.1995C18.7217 20.1553 18.6182 20.1148 18.5132 20.0735L18.292 20.621C18.3902 20.6593 18.4877 20.6983 18.5845 20.738L18.8252 20.1995Z" fill="#5F4A23"/>
<path fill-rule="evenodd" clip-rule="evenodd" d="M18.5135 20.0736C18.4108 20.0331 18.3073 19.9948 18.2045 19.9551L17.9953 20.5078C18.0943 20.5453 18.1933 20.5828 18.2923 20.6211L18.5135 20.0736Z" fill="#5C4822"/>
<path fill-rule="evenodd" clip-rule="evenodd" d="M18.2048 19.9547C18.1028 19.9164 18.0016 19.8789 17.9018 19.8422L17.6956 20.3957C17.7961 20.4332 17.8951 20.4699 17.9948 20.5074L18.2048 19.9547Z" fill="#5A4622"/>
<path fill-rule="evenodd" clip-rule="evenodd" d="M17.0554 19.5141C17.0569 19.5141 17.1094 19.5344 17.1889 19.5659L16.9632 20.1119C16.8814 20.0804 16.8274 20.0594 16.8267 20.0594L17.0554 19.5141Z" fill="#5C4922"/>
<path fill-rule="evenodd" clip-rule="evenodd" d="M17.1891 19.5662C17.2686 19.5962 17.3743 19.6375 17.4801 19.678L17.2581 20.2277C17.1508 20.185 17.0436 20.1437 16.9633 20.1122L17.1891 19.5662Z" fill="#5C4922"/>
<path fill-rule="evenodd" clip-rule="evenodd" d="M17.4795 19.6783C17.5852 19.7195 17.691 19.76 17.769 19.7908L17.901 19.8425L17.6872 20.393L17.5537 20.3413C17.4727 20.3098 17.3655 20.2685 17.2582 20.2273L17.4795 19.6783Z" fill="#5C4922"/>
<path fill-rule="evenodd" clip-rule="evenodd" d="M22.9463 30.0632L23.8601 29.7045L27.0903 29.687L27.3419 30.2836C27.3419 30.2836 23.5841 30.3056 23.334 30.3064C23.0419 30.3072 22.9463 30.0632 22.9463 30.0632Z" fill="#282112"/>
<path fill-rule="evenodd" clip-rule="evenodd" d="M27.0909 29.687C27.1888 29.5882 27.2844 29.4871 27.3777 29.3838L27.6767 29.9295C27.5689 30.0511 27.4572 30.1696 27.3418 30.2836L27.0909 29.687Z" fill="#624D24"/>
<path fill-rule="evenodd" clip-rule="evenodd" d="M27.3772 29.3837C27.4705 29.2773 27.5607 29.1694 27.6479 29.0562L27.992 29.5562C27.8895 29.6839 27.7848 29.8093 27.677 29.9302L27.3772 29.3837Z" fill="#644E24"/>
<path fill-rule="evenodd" clip-rule="evenodd" d="M27.6482 29.0561C27.6917 29.0006 27.7353 28.9436 27.7774 28.8851C27.7774 28.8851 27.8615 28.768 27.9028 28.708L28.2874 29.1594C28.24 29.2278 28.1422 29.3593 28.1422 29.3593C28.0932 29.4254 28.0435 29.4916 27.9923 29.5554L27.6482 29.0561Z" fill="#654F25"/>
<path fill-rule="evenodd" clip-rule="evenodd" d="M27.9033 28.7081C27.9438 28.6488 27.9843 28.5895 28.0241 28.5272L28.4279 28.9559C28.3812 29.0258 28.3338 29.0927 28.2871 29.1595L27.9033 28.7081Z" fill="#644E24"/>
<path fill-rule="evenodd" clip-rule="evenodd" d="M28.0242 28.527C28.0632 28.4662 28.103 28.4038 28.1412 28.3415L28.5618 28.7466C28.5174 28.8165 28.4731 28.8872 28.4272 28.9556L28.0242 28.527Z" fill="#634E24"/>
<path fill-rule="evenodd" clip-rule="evenodd" d="M28.1411 28.3416C28.1801 28.2777 28.2176 28.2154 28.2543 28.1501L28.691 28.5331C28.6489 28.6045 28.6061 28.676 28.5617 28.7467L28.1411 28.3416Z" fill="#624D24"/>
<path fill-rule="evenodd" clip-rule="evenodd" d="M28.254 28.1503C28.2915 28.0857 28.3275 28.0203 28.3626 27.9542L28.8153 28.3152C28.7748 28.3889 28.7335 28.4619 28.6907 28.5333L28.254 28.1503Z" fill="#614B23"/>
<path fill-rule="evenodd" clip-rule="evenodd" d="M28.3626 27.9541C28.3985 27.8888 28.4329 27.8211 28.4673 27.7535L28.9353 28.0932C28.8963 28.1669 28.8566 28.2414 28.8153 28.3151L28.3626 27.9541Z" fill="#5F4A23"/>
<path fill-rule="evenodd" clip-rule="evenodd" d="M28.4673 27.7535C28.5009 27.6867 28.5345 27.6183 28.5674 27.5483L29.0484 27.866C29.011 27.9428 28.9743 28.0188 28.9345 28.0925L28.4673 27.7535Z" fill="#5D4922"/>
<path fill-rule="evenodd" clip-rule="evenodd" d="M28.5676 27.5488C28.5998 27.4804 28.6319 27.4097 28.6632 27.3398L29.158 27.6362C29.1221 27.7145 29.0861 27.7912 29.0486 27.8665L28.5676 27.5488Z" fill="#5B4722"/>
<path fill-rule="evenodd" clip-rule="evenodd" d="M28.6629 27.3393C28.6951 27.2694 28.7249 27.1987 28.7532 27.1265L29.2609 27.4031C29.2273 27.4814 29.1929 27.5589 29.1577 27.6364L28.6629 27.3393Z" fill="#594621"/>
<path fill-rule="evenodd" clip-rule="evenodd" d="M28.753 27.1268C28.7843 27.0554 28.8134 26.9832 28.8409 26.9102L29.3594 27.1664C29.3273 27.2462 29.2944 27.3252 29.2607 27.4035L28.753 27.1268Z" fill="#574421"/>
<path fill-rule="evenodd" clip-rule="evenodd" d="M28.841 26.9098C28.8685 26.8361 28.8961 26.7631 28.9236 26.6879L29.452 26.9257C29.4214 27.0055 29.3908 27.0853 29.3595 27.1659L28.841 26.9098Z" fill="#544220"/>
<path fill-rule="evenodd" clip-rule="evenodd" d="M28.9232 26.688C28.9492 26.6143 28.9752 26.5398 28.9997 26.4638L29.5388 26.6812C29.5105 26.764 29.4814 26.8446 29.4516 26.9251L28.9232 26.688Z" fill="#52401F"/>
<path fill-rule="evenodd" clip-rule="evenodd" d="M29.0001 26.4638C29.0261 26.3878 29.0498 26.3118 29.0735 26.2351L29.621 26.4342C29.5943 26.517 29.5668 26.5991 29.5392 26.6812L29.0001 26.4638Z" fill="#4E3E1E"/>
<path fill-rule="evenodd" clip-rule="evenodd" d="M29.0732 26.2351C29.0969 26.1576 29.1198 26.0808 29.1405 26.0025L29.6964 26.1842C29.6727 26.2678 29.6475 26.3506 29.6207 26.4342L29.0732 26.2351Z" fill="#4C3C1E"/>
<path fill-rule="evenodd" clip-rule="evenodd" d="M29.1406 26.0028C29.1628 25.9246 29.185 25.8455 29.2041 25.7657L29.7677 25.9306C29.7455 26.0158 29.7218 26.1001 29.6965 26.1837L29.1406 26.0028Z" fill="#493A1D"/>
<path fill-rule="evenodd" clip-rule="evenodd" d="M29.2044 25.7661C29.225 25.6878 29.2449 25.608 29.264 25.5282L29.8337 25.6756C29.8123 25.76 29.7902 25.8451 29.768 25.931L29.2044 25.7661Z" fill="#47381C"/>
<path fill-rule="evenodd" clip-rule="evenodd" d="M29.2639 25.5276C29.2822 25.4486 29.2998 25.3672 29.3174 25.2852L29.8924 25.4159C29.8741 25.5033 29.8534 25.5884 29.8336 25.675L29.2639 25.5276Z" fill="#44361C"/>
<path fill-rule="evenodd" clip-rule="evenodd" d="M29.3173 25.2853C29.3341 25.2055 29.3502 25.1234 29.3655 25.0413L29.9474 25.1553C29.9306 25.2427 29.9122 25.3301 29.8924 25.416L29.3173 25.2853Z" fill="#41331B"/>
<path fill-rule="evenodd" clip-rule="evenodd" d="M29.3657 25.041C29.3818 24.9589 29.3963 24.8753 29.4101 24.7925L29.9966 24.892C29.9813 24.981 29.9645 25.0684 29.9477 25.155L29.3657 25.041Z" fill="#3E321A"/>
<path fill-rule="evenodd" clip-rule="evenodd" d="M29.4099 24.7925C29.4236 24.7097 29.4366 24.6261 29.4489 24.5417L30.0384 24.6269C30.0262 24.715 30.0117 24.8047 29.9964 24.8921L29.4099 24.7925Z" fill="#3C2F19"/>
<path fill-rule="evenodd" clip-rule="evenodd" d="M29.4488 24.5416C29.461 24.4588 29.4725 24.3737 29.4832 24.2885L30.0766 24.3592C30.0652 24.4489 30.0529 24.5371 30.0384 24.6267L29.4488 24.5416Z" fill="#382E18"/>
<path fill-rule="evenodd" clip-rule="evenodd" d="M29.4832 24.2885C29.4939 24.2042 29.503 24.1183 29.5122 24.0316L30.1087 24.0902C30.0988 24.1806 30.088 24.2703 30.0766 24.3592L29.4832 24.2885Z" fill="#362B17"/>
<path fill-rule="evenodd" clip-rule="evenodd" d="M29.5124 24.0318C29.5208 23.9467 29.5292 23.8616 29.5354 23.7742L30.1341 23.819C30.1265 23.9094 30.1181 23.9999 30.1089 24.0903L29.5124 24.0318Z" fill="#332A16"/>
<path fill-rule="evenodd" clip-rule="evenodd" d="M29.5355 23.7739C29.5432 23.6881 29.5485 23.6007 29.5539 23.5125L30.1549 23.5459C30.1488 23.6356 30.1419 23.7276 30.1343 23.8188L29.5355 23.7739Z" fill="#312715"/>
<path fill-rule="evenodd" clip-rule="evenodd" d="M29.5536 23.5128C29.5589 23.4262 29.5643 23.338 29.5681 23.2499L30.1692 23.2711C30.1653 23.3631 30.1607 23.4543 30.1546 23.5463L29.5536 23.5128Z" fill="#2E2614"/>
<path fill-rule="evenodd" clip-rule="evenodd" d="M29.5679 23.2499C29.5709 23.1625 29.5732 23.0744 29.5747 22.9847L30.1773 22.9961C30.1758 23.088 30.1735 23.1792 30.1697 23.2704L29.5679 23.2499Z" fill="#2B2313"/>
<path fill-rule="evenodd" clip-rule="evenodd" d="M29.5751 22.9847C29.5774 22.8966 29.5774 22.8084 29.5774 22.718H30.1808C30.1808 22.8107 30.18 22.9034 30.1777 22.9961L29.5751 22.9847Z" fill="#292213"/>
<path fill-rule="evenodd" clip-rule="evenodd" d="M29.5774 22.7185L29.5751 22.4411L30.1777 22.435L30.1808 22.7124L29.5774 22.7185Z" fill="#262011"/>
<path fill-rule="evenodd" clip-rule="evenodd" d="M24.0863 29.4918L23.8607 29.7046L22.9469 30.0634C22.9469 30.0634 22.8697 29.8202 23.0073 29.6704C23.0838 29.5884 23.6718 29.0571 23.6718 29.0571L24.0863 29.4918Z" fill="#F1F1E3"/>
<path fill-rule="evenodd" clip-rule="evenodd" d="M24.0859 29.4922C24.1654 29.4177 24.2541 29.3311 24.3504 29.2315C24.3504 29.2315 24.5493 29.0187 24.6594 28.8941L24.1998 28.5103C24.1027 28.622 23.923 28.812 23.923 28.812C23.8335 28.9032 23.7502 28.983 23.6714 29.0582L24.0859 29.4922Z" fill="#F1F1E3"/>
<path fill-rule="evenodd" clip-rule="evenodd" d="M24.6591 28.8934C24.7126 28.8303 24.7684 28.7649 24.8242 28.6958L24.3494 28.3325C24.2989 28.3948 24.2484 28.4541 24.2002 28.5096L24.6591 28.8934Z" fill="#F0F0E2"/>
<path fill-rule="evenodd" clip-rule="evenodd" d="M24.8246 28.6966C24.8812 28.6267 24.937 28.5553 24.9951 28.48L24.5065 28.1327C24.4529 28.2041 24.4002 28.2695 24.3497 28.3326L24.8246 28.6966Z" fill="#F0F0E1"/>
<path fill-rule="evenodd" clip-rule="evenodd" d="M24.9956 28.4795C25.0537 28.405 25.111 28.3267 25.1699 28.2454L24.6713 27.9095C24.6147 27.9885 24.5604 28.063 24.5069 28.1321L24.9956 28.4795Z" fill="#F0EFE1"/>
<path fill-rule="evenodd" clip-rule="evenodd" d="M25.1691 28.2457C25.228 28.1637 25.2861 28.0785 25.3442 27.9911L24.8418 27.6598C24.7837 27.7479 24.7256 27.8308 24.6705 27.9098L25.1691 28.2457Z" fill="#EFEFDF"/>
<path fill-rule="evenodd" clip-rule="evenodd" d="M25.3449 27.9911C25.3885 27.9272 25.4313 27.8596 25.4749 27.7904L24.9717 27.4613C24.9282 27.5297 24.8853 27.5959 24.8425 27.6597L25.3449 27.9911Z" fill="#EFEEDE"/>
<path fill-rule="evenodd" clip-rule="evenodd" d="M25.4752 27.7908C25.5188 27.7201 25.5631 27.6487 25.606 27.5727L25.0997 27.2504C25.0569 27.3234 25.0133 27.3941 24.9712 27.461L25.4752 27.7908Z" fill="#EEEDDD"/>
<path fill-rule="evenodd" clip-rule="evenodd" d="M25.6063 27.5725C25.6507 27.498 25.695 27.4205 25.7386 27.3392L25.2263 27.0283C25.185 27.1051 25.1429 27.1788 25.0993 27.2503L25.6063 27.5725Z" fill="#EEEDDC"/>
<path fill-rule="evenodd" clip-rule="evenodd" d="M25.7387 27.3397C25.7823 27.2599 25.8266 27.1771 25.8694 27.092L25.351 26.7933C25.3097 26.8746 25.2684 26.9521 25.2263 27.0289L25.7387 27.3397Z" fill="#EDECDA"/>
<path fill-rule="evenodd" clip-rule="evenodd" d="M25.8696 27.0914C25.9132 27.0071 25.9553 26.9174 25.9973 26.8269L25.472 26.5465C25.4322 26.6309 25.3917 26.7129 25.3504 26.7927L25.8696 27.0914Z" fill="#EDEBD8"/>
<path fill-rule="evenodd" clip-rule="evenodd" d="M25.9977 26.8274C26.0406 26.737 26.0811 26.6443 26.1224 26.5485L25.5879 26.2871C25.5504 26.376 25.5114 26.4626 25.4724 26.547L25.9977 26.8274Z" fill="#ECEAD7"/>
<path fill-rule="evenodd" clip-rule="evenodd" d="M26.1227 26.5486C26.1632 26.4529 26.203 26.3548 26.242 26.2537L25.6983 26.0151C25.6623 26.1071 25.6264 26.1983 25.5882 26.2872L26.1227 26.5486Z" fill="#EBE8D4"/>
<path fill-rule="evenodd" clip-rule="evenodd" d="M26.242 26.2539C26.281 26.1528 26.3177 26.0502 26.3545 25.9446L25.8016 25.7287C25.7687 25.826 25.7343 25.921 25.6983 26.0153L26.242 26.2539Z" fill="#EAE7D2"/>
<path fill-rule="evenodd" clip-rule="evenodd" d="M26.3545 25.9443C26.3904 25.8386 26.4248 25.7307 26.4592 25.619L25.8964 25.429C25.8666 25.5308 25.836 25.6312 25.8016 25.7284L26.3545 25.9443Z" fill="#E8E5CF"/>
<path fill-rule="evenodd" clip-rule="evenodd" d="M26.4591 25.6194C26.492 25.5084 26.5234 25.3952 26.5539 25.2804L25.9835 25.1162C25.9552 25.2234 25.9269 25.3268 25.8963 25.4294L26.4591 25.6194Z" fill="#E8E3CB"/>
<path fill-rule="evenodd" clip-rule="evenodd" d="M26.5539 25.2803C26.5852 25.1655 26.6127 25.0462 26.6387 24.9253L26.0591 24.7893C26.0354 24.901 26.0102 25.0097 25.9834 25.1161L26.5539 25.2803Z" fill="#E6E1C7"/>
<path fill-rule="evenodd" clip-rule="evenodd" d="M26.6391 24.9248C26.6643 24.8047 26.6888 24.6824 26.7109 24.557L26.1236 24.4475C26.1045 24.563 26.0831 24.6778 26.0586 24.788L26.6391 24.9248Z" fill="#E4DEC3"/>
<path fill-rule="evenodd" clip-rule="evenodd" d="M26.711 24.5571C26.7225 24.494 26.7324 24.4309 26.7416 24.3671L26.1512 24.2713C26.1421 24.3313 26.1336 24.3899 26.1237 24.4476L26.711 24.5571Z" fill="#E3DCC0"/>
<path fill-rule="evenodd" clip-rule="evenodd" d="M26.7415 24.3669C26.7514 24.3023 26.7606 24.2377 26.7698 24.1731L26.1756 24.0933C26.1672 24.1526 26.1603 24.2126 26.1512 24.2711L26.7415 24.3669Z" fill="#E2DBBD"/>
<path fill-rule="evenodd" clip-rule="evenodd" d="M26.7697 24.1734C26.7782 24.108 26.7858 24.0419 26.7935 23.9758L26.1962 23.9089C26.1909 23.9712 26.1832 24.0313 26.1763 24.0936L26.7697 24.1734Z" fill="#E1DABB"/>
<path fill-rule="evenodd" clip-rule="evenodd" d="M26.7936 23.9757C26.7997 23.9088 26.8066 23.8419 26.8135 23.775L26.2139 23.7218C26.2094 23.7849 26.2032 23.8465 26.1964 23.9088L26.7936 23.9757Z" fill="#E0D8B8"/>
<path fill-rule="evenodd" clip-rule="evenodd" d="M26.8131 23.7759C26.8185 23.7075 26.8246 23.6399 26.8284 23.5707L26.2274 23.5319C26.2236 23.5958 26.2197 23.6596 26.2136 23.7227L26.8131 23.7759Z" fill="#DFD6B6"/>
<path fill-rule="evenodd" clip-rule="evenodd" d="M26.8285 23.5704C26.8339 23.502 26.8377 23.4321 26.84 23.3629L26.2389 23.3371C26.2359 23.4024 26.232 23.467 26.2275 23.5309L26.8285 23.5704Z" fill="#DED5B3"/>
<path fill-rule="evenodd" clip-rule="evenodd" d="M26.8401 23.3627C26.8431 23.2928 26.8462 23.2221 26.8477 23.1522L26.2444 23.1385C26.2429 23.2054 26.2406 23.2707 26.2383 23.3376L26.8401 23.3627Z" fill="#DDD4B1"/>
<path fill-rule="evenodd" clip-rule="evenodd" d="M26.8474 23.1521C26.849 23.0807 26.8497 23.01 26.8497 22.937H26.2464C26.2464 23.0054 26.2456 23.0723 26.2441 23.1384L26.8474 23.1521Z" fill="#DCD2AE"/>
<path fill-rule="evenodd" clip-rule="evenodd" d="M26.85 22.9369C26.85 22.9369 26.8439 22.7735 26.8385 22.6101L26.8278 22.2826H26.2252L26.2352 22.6193C26.2413 22.7887 26.2474 22.9559 26.2474 22.9559L26.85 22.9369Z" fill="#DACFA8"/>
<path fill-rule="evenodd" clip-rule="evenodd" d="M29.5752 22.4412C29.5737 22.3379 29.5698 22.2353 29.5645 22.1327L30.1655 22.1068C30.1717 22.214 30.1762 22.3227 30.1778 22.4291L29.5752 22.4412Z" fill="#231E10"/>
<path fill-rule="evenodd" clip-rule="evenodd" d="M29.5641 22.1321C29.558 22.028 29.5503 21.9254 29.5419 21.822L30.1422 21.7802C30.1522 21.8889 30.1606 21.9968 30.1652 22.1063L29.5641 22.1321Z" fill="#282112"/>
<path fill-rule="evenodd" clip-rule="evenodd" d="M29.5416 21.8221C29.5324 21.7195 29.5217 21.6161 29.5095 21.5135L30.1083 21.4565C30.1213 21.5652 30.132 21.6723 30.1419 21.7803L29.5416 21.8221Z" fill="#2C2414"/>
<path fill-rule="evenodd" clip-rule="evenodd" d="M29.5097 21.5131C29.4967 21.4098 29.4829 21.3072 29.4668 21.2046L30.0618 21.1316C30.0794 21.2403 30.0939 21.3482 30.1084 21.4561L29.5097 21.5131Z" fill="#312816"/>
<path fill-rule="evenodd" clip-rule="evenodd" d="M29.4668 21.2048C29.4515 21.1022 29.434 20.9996 29.4148 20.8978L30.006 20.8081C30.0258 20.916 30.045 21.0239 30.0618 21.1319L29.4668 21.2048Z" fill="#362B17"/>
<path fill-rule="evenodd" clip-rule="evenodd" d="M29.4148 20.8974C29.3949 20.7955 29.3743 20.6922 29.3513 20.5911L29.9386 20.4847C29.9631 20.5919 29.9853 20.6998 30.0052 20.8077L29.4148 20.8974Z" fill="#3B2F19"/>
<path fill-rule="evenodd" clip-rule="evenodd" d="M29.3511 20.5905C29.3282 20.4887 29.3045 20.3876 29.2785 20.2865L29.8612 20.1626C29.8887 20.2698 29.9139 20.3777 29.9384 20.4841L29.3511 20.5905Z" fill="#40321A"/>
<path fill-rule="evenodd" clip-rule="evenodd" d="M29.2785 20.2864C29.254 20.1845 29.2265 20.0835 29.1974 19.9839L29.7733 19.8418C29.8039 19.9489 29.8337 20.0553 29.8612 20.1625L29.2785 20.2864Z" fill="#44361C"/>
<path fill-rule="evenodd" clip-rule="evenodd" d="M29.197 19.984C29.1679 19.8822 29.1373 19.7826 29.1052 19.6831L29.6757 19.525C29.7093 19.6299 29.7414 19.7355 29.7728 19.8419L29.197 19.984Z" fill="#48391D"/>
<path fill-rule="evenodd" clip-rule="evenodd" d="M29.1052 19.6823C29.0731 19.582 29.0402 19.4825 29.005 19.3837L29.5679 19.2066C29.6053 19.3122 29.6405 19.4171 29.6757 19.5243L29.1052 19.6823Z" fill="#4D3D1E"/>
<path fill-rule="evenodd" clip-rule="evenodd" d="M29.005 19.3838C28.9691 19.2842 28.9324 19.1854 28.8941 19.0874L29.4501 18.8928C29.4914 18.9969 29.5296 19.1018 29.5678 19.2067L29.005 19.3838Z" fill="#534120"/>
<path fill-rule="evenodd" clip-rule="evenodd" d="M28.8944 19.0878C28.8562 18.989 28.8172 18.8917 28.7751 18.7944L29.3226 18.5824C29.367 18.685 29.409 18.7883 29.4496 18.8932L28.8944 19.0878Z" fill="#584521"/>
<path fill-rule="evenodd" clip-rule="evenodd" d="M28.7755 18.7946C28.7349 18.6973 28.6921 18.6008 28.6478 18.505L29.1869 18.274C29.2343 18.3758 29.2794 18.4784 29.323 18.5826L28.7755 18.7946Z" fill="#5D4923"/>
<path fill-rule="evenodd" clip-rule="evenodd" d="M28.648 18.5049C28.6037 18.4084 28.5586 18.3134 28.5111 18.2184L29.0403 17.9699C29.0923 18.0702 29.139 18.1721 29.1871 18.2739L28.648 18.5049Z" fill="#634D24"/>
<path fill-rule="evenodd" clip-rule="evenodd" d="M28.5113 18.2183C28.4647 18.1233 28.4157 18.0291 28.3668 17.9356L28.8868 17.6696C28.9396 17.7692 28.9908 17.8695 29.0405 17.9698L28.5113 18.2183Z" fill="#695226"/>
<path fill-rule="evenodd" clip-rule="evenodd" d="M28.3669 17.9351C28.318 17.8409 28.266 17.7474 28.214 17.6562L28.7248 17.3727C28.7806 17.4708 28.8349 17.5688 28.8877 17.6691L28.3669 17.9351Z" fill="#6E5627"/>
<path fill-rule="evenodd" clip-rule="evenodd" d="M28.2134 17.6558C28.1606 17.5631 28.1071 17.4719 28.0513 17.3815L28.5529 17.0798C28.6118 17.1763 28.6684 17.2743 28.7242 17.3724L28.2134 17.6558Z" fill="#745C29"/>
<path fill-rule="evenodd" clip-rule="evenodd" d="M28.0511 17.3815C27.9968 17.2903 27.9394 17.2007 27.8829 17.1117L28.3723 16.7925C28.4342 16.8875 28.4939 16.9833 28.5527 17.0806L28.0511 17.3815Z" fill="#7A612A"/>
<path fill-rule="evenodd" clip-rule="evenodd" d="M27.8826 17.1117C27.8245 17.0228 27.7648 16.9339 27.7044 16.8457L28.1847 16.5106C28.2489 16.6041 28.3116 16.6983 28.3728 16.7925L27.8826 17.1117Z" fill="#80662C"/>
<path fill-rule="evenodd" clip-rule="evenodd" d="M27.7045 16.8456C27.6448 16.7589 27.5829 16.6715 27.5202 16.5864L27.989 16.2338C28.0547 16.325 28.1205 16.4177 28.184 16.5104L27.7045 16.8456Z" fill="#866B2D"/>
<path fill-rule="evenodd" clip-rule="evenodd" d="M27.5206 16.5861C27.4571 16.4995 27.3921 16.4151 27.3279 16.3308L27.7852 15.9629C27.854 16.0519 27.9221 16.1423 27.9886 16.2335L27.5206 16.5861Z" fill="#8D712F"/>
<path fill-rule="evenodd" clip-rule="evenodd" d="M27.3276 16.3309C27.2626 16.2473 27.1946 16.1645 27.1273 16.0824L27.5731 15.6986C27.6457 15.786 27.7153 15.8742 27.7849 15.9638L27.3276 16.3309Z" fill="#937630"/>
<path fill-rule="evenodd" clip-rule="evenodd" d="M27.1268 16.0824C27.0588 15.9996 26.9892 15.919 26.9196 15.8385L27.3539 15.4402C27.4289 15.5246 27.5015 15.6105 27.5727 15.6986L27.1268 16.0824Z" fill="#9B7C32"/>
<path fill-rule="evenodd" clip-rule="evenodd" d="M26.9196 15.8381C26.8485 15.7583 26.7781 15.6793 26.7047 15.601L27.1284 15.1875C27.2041 15.2696 27.2798 15.354 27.3539 15.4399L26.9196 15.8381Z" fill="#A18132"/>
<path fill-rule="evenodd" clip-rule="evenodd" d="M26.7049 15.6012C26.6314 15.5229 26.5588 15.4461 26.4839 15.3701L26.8945 14.943C26.9733 15.0236 27.0513 15.1049 27.1285 15.1877L26.7049 15.6012Z" fill="#A58433"/>
<path fill-rule="evenodd" clip-rule="evenodd" d="M26.4842 15.3703C26.4093 15.2943 26.3328 15.2206 26.2556 15.1469L26.6548 14.7061C26.7366 14.7844 26.8161 14.8634 26.8949 14.9432L26.4842 15.3703Z" fill="#A88835"/>
<path fill-rule="evenodd" clip-rule="evenodd" d="M26.2552 15.1468C26.178 15.0731 26.0992 15.0009 26.0205 14.9294L26.4082 14.4765C26.4915 14.5517 26.5733 14.6285 26.6544 14.706L26.2552 15.1468Z" fill="#AA8A39"/>
<path fill-rule="evenodd" clip-rule="evenodd" d="M26.0204 14.9295C25.9408 14.858 25.8605 14.7881 25.7795 14.7205L26.1542 14.2553C26.2398 14.3275 26.324 14.402 26.4081 14.4765L26.0204 14.9295Z" fill="#AD8E3D"/>
<path fill-rule="evenodd" clip-rule="evenodd" d="M25.7791 14.7204C25.6972 14.6513 25.6146 14.5844 25.5321 14.5175L25.8945 14.0425C25.9825 14.1124 26.0689 14.1831 26.1545 14.2553L25.7791 14.7204Z" fill="#AF9042"/>
<path fill-rule="evenodd" clip-rule="evenodd" d="M25.5317 14.5181C25.4476 14.4527 25.3627 14.3873 25.277 14.3243L25.6288 13.8386C25.719 13.9047 25.807 13.9731 25.8949 14.0431L25.5317 14.5181Z" fill="#B19447"/>
<path fill-rule="evenodd" clip-rule="evenodd" d="M25.2774 14.3235C25.1917 14.2604 25.1046 14.1981 25.0174 14.1373L25.3569 13.6425C25.4502 13.7064 25.5397 13.771 25.6292 13.8379L25.2774 14.3235Z" fill="#B3964B"/>
<path fill-rule="evenodd" clip-rule="evenodd" d="M25.0168 14.1376C24.9296 14.0768 24.8409 14.0175 24.7514 13.9597L25.0795 13.4574C25.1735 13.5174 25.2661 13.579 25.3571 13.6428L25.0168 14.1376Z" fill="#B69A50"/>
<path fill-rule="evenodd" clip-rule="evenodd" d="M26.8275 22.2821C26.8222 22.1886 26.813 22.0951 26.8023 22.0017L26.2028 22.0609C26.2127 22.1483 26.2204 22.235 26.2257 22.3209L26.8275 22.2821Z" fill="#D7CAA0"/>
<path fill-rule="evenodd" clip-rule="evenodd" d="M26.8024 22.0014C26.7917 21.9071 26.7779 21.8129 26.7627 21.7179L26.1654 21.7992C26.1807 21.8874 26.1929 21.9733 26.2021 22.0607L26.8024 22.0014Z" fill="#D4C699"/>
<path fill-rule="evenodd" clip-rule="evenodd" d="M26.7628 21.7182C26.7467 21.6232 26.7284 21.5282 26.7085 21.4332L26.1181 21.5388C26.1357 21.6262 26.1518 21.7121 26.1655 21.7995L26.7628 21.7182Z" fill="#D1C292"/>
<path fill-rule="evenodd" clip-rule="evenodd" d="M26.7084 21.4333C26.687 21.3376 26.6648 21.2426 26.6396 21.1468L26.0553 21.2768C26.079 21.3634 26.0989 21.4508 26.118 21.539L26.7084 21.4333Z" fill="#CFBE8B"/>
<path fill-rule="evenodd" clip-rule="evenodd" d="M26.6399 21.1468C26.6147 21.051 26.5879 20.9545 26.5581 20.8602L25.9822 21.0138C26.009 21.1019 26.0335 21.1886 26.0557 21.2767L26.6399 21.1468Z" fill="#CCBA84"/>
<path fill-rule="evenodd" clip-rule="evenodd" d="M26.5581 20.8602C26.5283 20.7637 26.4969 20.6687 26.4625 20.5714L25.8951 20.7523C25.9257 20.8397 25.9547 20.9271 25.9823 21.0138L26.5581 20.8602Z" fill="#C9B67F"/>
<path fill-rule="evenodd" clip-rule="evenodd" d="M26.4628 20.5716C26.4284 20.4766 26.3932 20.3808 26.3535 20.2858L25.796 20.491C25.8312 20.5784 25.8633 20.6651 25.8947 20.7525L26.4628 20.5716Z" fill="#C6B278"/>
<path fill-rule="evenodd" clip-rule="evenodd" d="M26.3537 20.2859C26.3155 20.1894 26.2757 20.0951 26.2329 19.9994L25.6854 20.2312C25.7244 20.3171 25.7611 20.4045 25.7963 20.4911L26.3537 20.2859Z" fill="#C4AE72"/>
<path fill-rule="evenodd" clip-rule="evenodd" d="M26.2332 19.9992C26.1904 19.905 26.1453 19.81 26.0986 19.7165L25.5618 19.9719C25.6054 20.0585 25.6467 20.1436 25.6857 20.231L26.2332 19.9992Z" fill="#C1AA6C"/>
<path fill-rule="evenodd" clip-rule="evenodd" d="M26.0989 19.7167C26.0523 19.6224 26.0033 19.5282 25.9529 19.4355L25.4275 19.7144C25.4742 19.8003 25.5193 19.8861 25.5621 19.972L26.0989 19.7167Z" fill="#BFA765"/>
<path fill-rule="evenodd" clip-rule="evenodd" d="M25.9528 19.4353C25.9016 19.341 25.8488 19.2491 25.7938 19.1571L25.2806 19.4596C25.3319 19.544 25.3801 19.6298 25.4275 19.7142L25.9528 19.4353Z" fill="#BCA360"/>
<path fill-rule="evenodd" clip-rule="evenodd" d="M25.7937 19.1568C25.7402 19.0641 25.6829 18.9722 25.624 18.8817L25.1223 19.2062C25.1766 19.2898 25.2294 19.375 25.2806 19.4593L25.7937 19.1568Z" fill="#BAA05A"/>
<path fill-rule="evenodd" clip-rule="evenodd" d="M25.6238 18.8816C25.5649 18.7911 25.5045 18.7007 25.4418 18.6118L24.9524 18.956C25.0113 19.0389 25.0679 19.1217 25.1222 19.2068L25.6238 18.8816Z" fill="#B79D54"/>
<path fill-rule="evenodd" clip-rule="evenodd" d="M25.4419 18.6114C25.3792 18.5217 25.315 18.4328 25.2492 18.3454L24.772 18.7086C24.8332 18.79 24.8944 18.8736 24.9525 18.9556L25.4419 18.6114Z" fill="#B5994F"/>
<path fill-rule="evenodd" clip-rule="evenodd" d="M25.2487 18.3458C25.1829 18.2569 25.1156 18.171 25.0452 18.0851L24.5795 18.4643C24.6453 18.5457 24.7088 18.627 24.7715 18.7091L25.2487 18.3458Z" fill="#B2964A"/>
<path fill-rule="evenodd" clip-rule="evenodd" d="M25.0455 18.085C24.9752 17.9991 24.9041 17.9147 24.8314 17.8319L24.3764 18.2241C24.446 18.3039 24.5133 18.3837 24.5798 18.4642L25.0455 18.085Z" fill="#B09245"/>
<path fill-rule="evenodd" clip-rule="evenodd" d="M24.7513 13.96C24.6603 13.9007 24.5677 13.8437 24.4744 13.7867L24.7918 13.2775C24.8889 13.336 24.9845 13.3961 25.0793 13.4576L24.7513 13.96Z" fill="#B79D55"/>
<path fill-rule="evenodd" clip-rule="evenodd" d="M24.4748 13.7868C24.3823 13.7305 24.2875 13.6751 24.1942 13.6219L24.497 13.1051C24.5972 13.1605 24.6943 13.2183 24.7922 13.2776L24.4748 13.7868Z" fill="#BAA05A"/>
<path fill-rule="evenodd" clip-rule="evenodd" d="M24.1939 13.6214C24.099 13.5674 24.0035 13.515 23.9086 13.464L24.1962 12.9404C24.2971 12.9936 24.398 13.0491 24.4967 13.1046L24.1939 13.6214Z" fill="#BCA25E"/>
<path fill-rule="evenodd" clip-rule="evenodd" d="M23.9091 13.4642C23.8135 13.4141 23.7179 13.3647 23.6208 13.3168L23.8915 12.784C23.9932 12.835 24.0957 12.8866 24.1966 12.9406L23.9091 13.4642Z" fill="#BDA562"/>
<path fill-rule="evenodd" clip-rule="evenodd" d="M23.6205 13.3164C23.5249 13.2685 23.4278 13.2214 23.3315 13.1766L23.5831 12.637C23.6863 12.6841 23.7895 12.7335 23.8912 12.7844L23.6205 13.3164Z" fill="#C0A866"/>
<path fill-rule="evenodd" clip-rule="evenodd" d="M23.3313 13.1771C23.2334 13.1322 23.1371 13.0889 23.0392 13.0471L23.2717 12.4999C23.3757 12.544 23.4797 12.5896 23.5829 12.6375L23.3313 13.1771Z" fill="#C1AA6B"/>
<path fill-rule="evenodd" clip-rule="evenodd" d="M23.0397 13.0468C22.9426 13.005 22.8455 12.9647 22.7484 12.926L22.9587 12.3704C23.0634 12.4122 23.1674 12.4548 23.2722 12.4996L23.0397 13.0468Z" fill="#C3AD6F"/>
<path fill-rule="evenodd" clip-rule="evenodd" d="M22.748 12.9256C22.6509 12.8868 22.5537 12.8488 22.4559 12.8138L22.6447 12.2514C22.748 12.2902 22.8543 12.329 22.9583 12.37L22.748 12.9256Z" fill="#C5B074"/>
<path fill-rule="evenodd" clip-rule="evenodd" d="M22.4558 12.8143C22.3594 12.7793 22.2623 12.7451 22.1659 12.7132L22.3304 12.144C22.4351 12.1789 22.5391 12.2139 22.6447 12.2519L22.4558 12.8143Z" fill="#C7B379"/>
<path fill-rule="evenodd" clip-rule="evenodd" d="M22.1659 12.7128C22.0695 12.6809 21.9739 12.6505 21.8768 12.6216L22.0175 12.0463C22.1208 12.0774 22.2263 12.1093 22.3303 12.1435L22.1659 12.7128Z" fill="#C9B67E"/>
<path fill-rule="evenodd" clip-rule="evenodd" d="M21.8766 12.6216C21.7818 12.5927 21.6862 12.5661 21.5914 12.5418L21.7061 11.9597C21.8093 11.9863 21.9133 12.0151 22.0181 12.0463L21.8766 12.6216Z" fill="#CAB882"/>
<path fill-rule="evenodd" clip-rule="evenodd" d="M21.5911 12.5418C21.4963 12.5167 21.4014 12.4939 21.3089 12.4719L21.3984 11.8852C21.5001 11.908 21.6026 11.9331 21.7058 11.9597L21.5911 12.5418Z" fill="#CDBB87"/>
<path fill-rule="evenodd" clip-rule="evenodd" d="M21.3089 12.472C21.2156 12.4515 21.1223 12.4317 21.0313 12.4142L21.0933 11.8222C21.1942 11.8404 21.2952 11.8617 21.3984 11.8853L21.3089 12.472Z" fill="#D0BF8C"/>
<path fill-rule="evenodd" clip-rule="evenodd" d="M21.031 12.4143C20.9384 12.396 20.8474 12.3808 20.758 12.3671L20.7939 11.7705C20.8925 11.7857 20.9927 11.8025 21.0937 11.8222L21.031 12.4143Z" fill="#D1C292"/>
<path fill-rule="evenodd" clip-rule="evenodd" d="M20.7575 12.3673C20.6672 12.3537 20.5785 12.3415 20.4898 12.3324L20.4998 11.7335C20.5961 11.7434 20.6948 11.7563 20.7934 11.7707L20.7575 12.3673Z" fill="#D4C598"/>
<path fill-rule="evenodd" clip-rule="evenodd" d="M20.4902 12.3319C20.4023 12.3213 20.3151 12.3144 20.2302 12.3083L20.2118 11.7064C20.3067 11.7133 20.4023 11.7216 20.5001 11.7323L20.4902 12.3319Z" fill="#D6C99E"/>
<path fill-rule="evenodd" clip-rule="evenodd" d="M20.2303 12.3089C20.2226 12.3096 20.1729 12.3074 20.1263 12.3043L20.1393 11.7039C20.1714 11.7062 20.205 11.7077 20.2119 11.707L20.2303 12.3089Z" fill="#D9CDA5"/>
<path fill-rule="evenodd" clip-rule="evenodd" d="M20.1257 12.3043C20.0791 12.3012 20.0332 12.2982 20.0332 12.2982L20.076 11.7008C20.076 11.7008 20.1066 11.7024 20.1387 11.7039L20.1257 12.3043Z" fill="#D7CBA2"/>
<path fill-rule="evenodd" clip-rule="evenodd" d="M20.0336 12.2979C19.9426 12.2979 19.8531 12.307 19.7667 12.3245L19.6696 11.7408C19.7889 11.7134 19.9112 11.6982 20.0336 11.6982V12.2979Z" fill="#E0D8B7"/>
<path fill-rule="evenodd" clip-rule="evenodd" d="M19.7667 12.3243C19.6803 12.3417 19.5969 12.3676 19.5181 12.4003L19.3193 11.8599C19.4325 11.8082 19.5495 11.7687 19.6696 11.7406L19.7667 12.3243Z" fill="#E8E4CD"/>
<path fill-rule="evenodd" clip-rule="evenodd" d="M19.5181 12.4002C19.4393 12.4329 19.3644 12.4739 19.294 12.5203L18.9927 12.0453C19.0967 11.9731 19.2061 11.9108 19.3193 11.8598L19.5181 12.4002Z" fill="#EEEDDC"/>
<path fill-rule="evenodd" clip-rule="evenodd" d="M19.2937 12.5206C19.2234 12.5677 19.1576 12.6217 19.098 12.6802L18.7034 12.2873C18.7921 12.1991 18.89 12.1178 18.9924 12.0456L19.2937 12.5206Z" fill="#F1F2E4"/>
<path fill-rule="evenodd" clip-rule="evenodd" d="M19.0981 12.6801C19.0385 12.7394 18.9849 12.804 18.9383 12.8732L18.4596 12.5745C18.5322 12.4719 18.614 12.3761 18.7035 12.2872L19.0981 12.6801Z" fill="#F2F2E5"/>
<path fill-rule="evenodd" clip-rule="evenodd" d="M18.9376 12.8733C18.8901 12.9425 18.8488 13.017 18.8152 13.0945L18.2715 12.8961C18.3235 12.7852 18.3862 12.6765 18.4596 12.5747L18.9376 12.8733Z" fill="#EEEEDD"/>
<path fill-rule="evenodd" clip-rule="evenodd" d="M18.8158 13.0946C18.7829 13.1737 18.7562 13.255 18.7393 13.3393L18.152 13.2436C18.1796 13.125 18.2201 13.0087 18.2721 12.8963L18.8158 13.0946Z" fill="#E9E5CF"/>
<path fill-rule="evenodd" clip-rule="evenodd" d="M18.7394 13.3385C18.7218 13.4244 18.7126 13.5125 18.7126 13.6022H18.1093C18.1093 13.4806 18.1238 13.3598 18.1521 13.2427L18.7394 13.3385Z" fill="#E1D9BA"/>
<path fill-rule="evenodd" clip-rule="evenodd" d="M24.8308 17.8316C24.7528 17.7426 24.6748 17.656 24.5937 17.5716L24.1517 17.9775C24.2274 18.058 24.3024 18.1401 24.3758 18.2245L24.8308 17.8316Z" fill="#AE8F3F"/>
<path fill-rule="evenodd" clip-rule="evenodd" d="M24.5944 17.5717C24.5149 17.4866 24.4331 17.4038 24.3497 17.3217L23.9222 17.7427C24.0002 17.8195 24.0767 17.8985 24.1517 17.9783L24.5944 17.5717Z" fill="#AB8B39"/>
<path fill-rule="evenodd" clip-rule="evenodd" d="M24.3495 17.3219C24.2677 17.2406 24.1828 17.1615 24.0971 17.0833L23.6857 17.5172C23.7653 17.5909 23.8448 17.6662 23.922 17.7422L24.3495 17.3219Z" fill="#A88835"/>
<path fill-rule="evenodd" clip-rule="evenodd" d="M24.0971 17.0832C24.0122 17.0049 23.9242 16.9289 23.8371 16.8552L23.444 17.3036C23.5251 17.3727 23.6061 17.4449 23.6857 17.5171L24.0971 17.0832Z" fill="#A38333"/>
<path fill-rule="evenodd" clip-rule="evenodd" d="M23.8366 16.8548C23.7478 16.7803 23.6591 16.7074 23.5689 16.6375L23.1957 17.1011C23.2791 17.1664 23.3617 17.2348 23.4435 17.3032L23.8366 16.8548Z" fill="#9E7F32"/>
<path fill-rule="evenodd" clip-rule="evenodd" d="M23.5689 16.6378C23.4787 16.5664 23.3869 16.498 23.2944 16.4311L22.9419 16.9091C23.0268 16.9714 23.1116 17.036 23.1958 17.1014L23.5689 16.6378Z" fill="#957831"/>
<path fill-rule="evenodd" clip-rule="evenodd" d="M23.2942 16.431C23.2017 16.3649 23.1084 16.2988 23.0135 16.2357L22.6824 16.7282C22.7704 16.7867 22.8568 16.8475 22.9424 16.9091L23.2942 16.431Z" fill="#8D712F"/>
<path fill-rule="evenodd" clip-rule="evenodd" d="M23.0133 16.2357C22.9185 16.1726 22.8229 16.1126 22.7266 16.0533L22.4184 16.5595C22.5071 16.6142 22.5958 16.6704 22.6822 16.7282L23.0133 16.2357Z" fill="#846A2D"/>
<path fill-rule="evenodd" clip-rule="evenodd" d="M22.7271 16.0528C22.6307 15.9935 22.5328 15.9365 22.435 15.8818L22.149 16.4008C22.24 16.4518 22.3294 16.505 22.4189 16.5589L22.7271 16.0528Z" fill="#7D632B"/>
<path fill-rule="evenodd" clip-rule="evenodd" d="M22.4347 15.8822C22.336 15.8267 22.2366 15.7743 22.1372 15.7241L21.8749 16.2554C21.9667 16.3025 22.0585 16.3511 22.1487 16.4021L22.4347 15.8822Z" fill="#755D29"/>
<path fill-rule="evenodd" clip-rule="evenodd" d="M22.1374 15.7235C22.0373 15.6726 21.9371 15.6232 21.8354 15.5768L21.596 16.121C21.6901 16.1643 21.7826 16.2084 21.8751 16.2555L22.1374 15.7235Z" fill="#6E5627"/>
<path fill-rule="evenodd" clip-rule="evenodd" d="M21.8357 15.5768C21.7347 15.5304 21.6323 15.4856 21.5298 15.4438L21.3118 15.9986C21.4074 16.0373 21.5015 16.0784 21.5956 16.1209L21.8357 15.5768Z" fill="#665025"/>
<path fill-rule="evenodd" clip-rule="evenodd" d="M21.5297 15.4438C21.4265 15.4012 21.3233 15.3617 21.22 15.3229L21.025 15.8876C21.1214 15.9226 21.2177 15.9598 21.3125 15.9986L21.5297 15.4438Z" fill="#5F4A23"/>
<path fill-rule="evenodd" clip-rule="evenodd" d="M21.2198 15.3231C21.1165 15.2851 21.011 15.2494 20.907 15.216L20.7334 15.789C20.8305 15.8194 20.9284 15.8528 21.0248 15.8878L21.2198 15.3231Z" fill="#574421"/>
<path fill-rule="evenodd" clip-rule="evenodd" d="M20.9067 15.2164C20.8019 15.1837 20.6964 15.1518 20.5901 15.1229L20.4371 15.702C20.5366 15.7286 20.6352 15.7575 20.7331 15.7894L20.9067 15.2164Z" fill="#503F1F"/>
<path fill-rule="evenodd" clip-rule="evenodd" d="M20.5902 15.1226C20.4839 15.0938 20.3783 15.0672 20.272 15.0436L20.1374 15.6273C20.2392 15.6501 20.3378 15.6752 20.4364 15.7018L20.5902 15.1226Z" fill="#49391D"/>
<path fill-rule="evenodd" clip-rule="evenodd" d="M18.7126 13.6024C18.7126 13.6533 18.7149 13.7042 18.7218 13.7544L18.1238 13.8129C18.1146 13.7415 18.1093 13.6715 18.1093 13.6024H18.7126Z" fill="#D9CDA6"/>
<path fill-rule="evenodd" clip-rule="evenodd" d="M18.7221 13.7546C18.7274 13.8048 18.7358 13.8549 18.7481 13.9036L18.1669 14.0259C18.1485 13.9552 18.1332 13.8838 18.1241 13.8131L18.7221 13.7546Z" fill="#D2C395"/>
<path fill-rule="evenodd" clip-rule="evenodd" d="M18.7483 13.9032C18.7598 13.9511 18.7743 13.999 18.7919 14.0461L18.2344 14.2376C18.2077 14.1677 18.1847 14.097 18.1671 14.0256L18.7483 13.9032Z" fill="#CBB983"/>
<path fill-rule="evenodd" clip-rule="evenodd" d="M18.7919 14.0464C18.808 14.0927 18.8286 14.1391 18.8516 14.1832L18.3254 14.4431C18.2918 14.3762 18.2612 14.3071 18.2344 14.2371L18.7919 14.0464Z" fill="#C4AE71"/>
<path fill-rule="evenodd" clip-rule="evenodd" d="M18.8511 14.1835C18.8962 14.2731 18.9521 14.3575 19.0171 14.435L18.5682 14.8226C18.4757 14.7063 18.3938 14.5794 18.3258 14.4434L18.8511 14.1835Z" fill="#B89D56"/>
<path fill-rule="evenodd" clip-rule="evenodd" d="M19.0173 14.4349C19.0831 14.5131 19.158 14.5846 19.2422 14.6484L18.8774 15.1249C18.7657 15.0398 18.6617 14.9372 18.5684 14.8232L19.0173 14.4349Z" fill="#A88835"/>
<path fill-rule="evenodd" clip-rule="evenodd" d="M20.2725 15.0434C20.1991 15.0275 20.1295 15.01 20.0645 14.9925L19.9024 15.5678C19.9773 15.5899 20.0561 15.6089 20.1387 15.6279L20.2725 15.0434Z" fill="#48391D"/>
<path fill-rule="evenodd" clip-rule="evenodd" d="M20.0647 14.9925C19.9997 14.975 19.937 14.9568 19.8797 14.9393L19.6824 15.5032C19.7527 15.5252 19.8254 15.5473 19.9026 15.5678L20.0647 14.9925Z" fill="#4E3E1E"/>
<path fill-rule="evenodd" clip-rule="evenodd" d="M19.8797 14.9395C19.8216 14.9212 19.7681 14.9038 19.7168 14.8855L19.4836 15.4327C19.5463 15.457 19.6128 15.4798 19.6824 15.5034L19.8797 14.9395Z" fill="#554321"/>
<path fill-rule="evenodd" clip-rule="evenodd" d="M19.7169 14.8854C19.6679 14.8672 19.6205 14.8497 19.5777 14.8322L19.3047 15.3604C19.3613 15.3848 19.4202 15.4091 19.4836 15.4326L19.7169 14.8854Z" fill="#5D4922"/>
<path fill-rule="evenodd" clip-rule="evenodd" d="M19.5778 14.8326C19.4921 14.7976 19.421 14.7626 19.3659 14.7322L19.018 15.2186C19.0975 15.2642 19.1939 15.3129 19.3055 15.3608L19.5778 14.8326Z" fill="#6B5426"/>
<path fill-rule="evenodd" clip-rule="evenodd" d="M19.3657 14.7318C19.3099 14.6999 19.2686 14.6718 19.2418 14.6482L18.8365 15.0905C18.8778 15.1278 18.9397 15.1726 19.0177 15.2182L19.3657 14.7318Z" fill="#8B6F2E"/>
</svg>
