<svg width="94" height="30" viewBox="0 0 94 30" fill="none" xmlns="http://www.w3.org/2000/svg">
<g clip-path="url(#clip0_453_43170)">
<path d="M6.53611 16.1015L3.88281 23.4652H9.17176L9.65755 24.8196H3.42704L1.5775 29.9998H0L5.86837 14.2435L6.53611 16.1015ZM6.38066 13.3315H7.8451L13.876 29.9998H12.3533L7.36108 16.0709L6.95655 14.9378L6.37889 13.3315H6.38066Z" fill="white"/>
<path d="M30.3716 14.6859V13.3315H42.5694V14.6859H37.2045V29.9998H35.7365V14.6859H30.3716Z" fill="white"/>
<path d="M53.7552 23.8502L56.8766 13.3315H57.6822V20.528L54.9547 29.0789L53.7552 23.8502ZM58.4736 29.9998V18.1897L58.4683 13.3315H61.6374V29.9998H58.4736ZM45.0728 13.3315H48.203V29.9998H45.0728V13.3315ZM49.051 13.3315H49.8318L53.4284 24.7945L54.6261 29.9998H52.0523L49.051 20.6989V13.3315Z" fill="white"/>
<path d="M71.2561 18.5333L69.615 23.557H72.9837L73.9235 26.2892H68.7317L67.5234 29.9998H64.0981L69.7033 14.0024L71.2561 18.5351V18.5333ZM70.3075 13.3315H73.4042L79.1577 29.9998H76.0292L70.3075 13.3315Z" fill="white"/>
<path d="M87.6192 16.1808H85.7749V13.3299H88.5466C92.3782 13.3299 93.8691 15.9704 93.8691 18.6756C93.8691 21.3808 92.38 24.0212 88.5466 24.0212H85.7749V21.1757H87.6192C89.1932 21.1757 90.5905 20.8016 90.5905 18.6756C90.5905 16.5495 89.1932 16.179 87.6192 16.179V16.1808ZM81.606 13.3281H84.9906V29.9964H81.606V13.3317V13.3281Z" fill="white"/>
<path d="M48.779 2.03429H49.6163V1.43174H52.1795V0.670904H49.6163V0H48.779V0.670904H45.4315V1.43174H48.779V2.03429ZM45.3202 10.1967H53.9832L53.5963 10.6517L54.2216 11.024H49.0616C49.1482 10.8873 49.2401 10.7255 49.316 10.6139H48.2049C48.1395 10.7273 48.0388 10.8873 47.954 11.024H46.1451V11.6536H55.1738C55.4388 11.8316 55.7038 12.0511 55.9281 12.2291L56.4934 11.5582C55.8486 11.0906 55.1791 10.5942 54.4495 10.1949H57.4402V9.56532H45.3202V10.1949V10.1967ZM57.1541 6.04892C57.1382 6.0759 56.9615 6.85113 56.7937 6.90509H56.5464C56.3556 6.90509 56.2849 6.90509 56.2849 6.67846V3.2394H55.4635V6.77199C55.4635 7.07956 55.4635 7.44109 55.8203 7.58858C55.9193 7.62815 56.5729 7.64254 56.9862 7.64254C57.6028 7.64254 57.767 7.10654 57.9737 6.39787L57.1523 6.05072L57.1541 6.04892ZM45.1559 5.4068C45.3361 5.63523 45.405 5.88884 45.4438 6.06151C46.9383 5.70178 47.3128 4.80424 47.5018 4.37616H49.0263V5.15139C49.0122 5.66041 49.3955 5.66041 49.9025 5.66041H50.7116C51.109 5.66041 51.2892 5.57947 51.5648 5.0057C51.3581 4.96433 51.0543 4.84561 50.8494 4.71071C50.8229 4.88339 50.7681 5.11002 50.6303 5.15139C50.5879 5.16578 50.2169 5.17837 50.012 5.17837C49.8336 5.17837 49.7665 5.16578 49.7665 4.97692V4.37436H51.3581V3.82577H48.7613V3.25019H50.89V2.63505H48.7613V2.21956H47.924V2.63505H45.7176V3.25019H47.924V3.82577H45.3166V4.37436H46.7157C46.4136 5.03088 45.813 5.2719 45.1523 5.405L45.1559 5.4068ZM51.4093 7.13172C51.616 7.26482 51.8633 7.61197 51.987 7.80083C52.3156 7.59938 53.0575 7.07776 53.6493 6.18023C53.9213 6.32772 54.264 6.51478 54.5237 6.70184L54.9388 6.03453C54.6209 5.86006 54.264 5.66041 53.9496 5.51112C54.1669 5.03088 54.2375 4.44091 54.2764 3.95887H54.771V3.2376H54.3206V2.24834H53.4974V3.2376H51.8934V3.95887H53.4709C53.4709 4.37436 53.3455 4.869 53.2236 5.19096C52.8809 5.03088 52.4958 4.85641 52.1672 4.7359L51.8245 5.37802C52.1672 5.52551 52.5646 5.69998 52.9215 5.86006C52.6212 6.32772 51.9888 6.83674 51.4111 7.13172H51.4093ZM53.7835 1.43174H57.2459V0.670904H53.7835V0H52.948V2.03429H53.7835V1.43174ZM45.3908 7.49505L45.4544 8.16416L51.0048 7.52024L50.9324 6.98423C50.0951 7.07776 48.5582 7.23964 48.5582 7.23964V6.58313H50.6021V6.06151H48.5582V5.51292H47.7332V6.06151H46.1169V6.58313H47.7332V7.30619L45.3908 7.49685V7.49505ZM55.3363 8.25589H47.7615V8.88542H55.3363V8.25589Z" fill="white"/>
<path d="M66.0591 5.15161H69.6398V4.30983H66.0591V5.15161ZM65.9779 2.78456H63.9322V0.17469H63.0401V2.78456H61.1341V3.62814H63.0401V11.9776H63.9322V3.62814H65.9779V2.78456ZM65.5221 5.40702L64.6159 5.52753C64.6848 6.3837 64.8226 7.8694 65.3031 9.7688C65.6175 9.71484 65.9231 9.66087 66.2782 9.60871C65.6864 7.81544 65.5786 6.27758 65.5221 5.40702ZM67.4441 10.839C67.4441 10.9721 67.3769 11.0548 67.2392 11.0548H66.0432C66.2623 11.3876 66.3329 11.7905 66.3877 12.0693C67.9917 11.9488 68.3521 11.7743 68.3521 10.8786V5.94123H67.4441V10.839ZM60.5547 10.2634C60.8726 10.3318 61.104 10.3965 61.4467 10.5188C61.8972 9.16624 62.1887 7.4665 62.3918 5.47537L61.4609 5.34047C61.2948 7.09417 61.0616 8.45936 60.5547 10.2652V10.2634ZM60.0724 2.98601C59.1697 4.39437 58.3182 5.36745 57.4738 6.18045L58.3589 6.54198C58.5002 6.38909 58.7298 6.13908 58.8535 5.98259V12.0315H59.7191V5.04369C60.0883 4.6174 60.4451 4.10838 60.7472 3.61375L60.0742 2.98421L60.0724 2.98601ZM69.3643 0.671123H66.0591V1.5129H69.3643V0.671123ZM57.8607 2.85111C59.4665 1.80608 59.8374 1.55247 60.65 0.723284L60.0159 0.09375C59.0708 1.03086 58.191 1.646 57.2725 2.1946C57.5463 2.4626 57.6964 2.61009 57.8607 2.85111ZM66.015 2.18201C65.7676 1.74133 65.4249 1.23231 65.0434 0.735875L64.3703 1.13698C64.7537 1.646 65.0716 2.16762 65.3313 2.5957L66.0167 2.18021L66.015 2.18201Z" fill="white"/>
<path d="M87.8279 4.09567H88.8878V3.55966H85.8741V4.09567H86.9905V4.79175H83.4345V5.42129H91.2584V4.79175H87.8261V4.09567H87.8279ZM85.7822 10.1176H89.1439V9.50067H85.7822V10.1176ZM84.2719 10.1176H85.0509V6.00945H84.2719V10.1176ZM83.59 0.629629V1.44623H91.8732V12.0044H92.7935V0.629629H83.59ZM84.5156 4.09567H85.3159V2.12792H84.5156V4.09387V4.09567ZM90.2851 4.09567V2.12792H85.8741V2.73048H89.4301V4.09387H90.2851V4.09567ZM90.6525 10.1176V6.00945H85.7822V6.58503H89.8682V10.1176H90.6525ZM72.097 8.21822V4.48418H73.6339V3.65499H72.097V0.429977H71.2032V3.65319H69.6539V4.48238H71.2032V8.44305L69.5303 8.84415L69.6663 9.73989L73.7558 8.56356L73.6604 7.86748L72.0953 8.21642L72.097 8.21822ZM77.34 9.30102H78.2304V0.120605H77.34V4.13524L76.4356 4.35647V5.20005L77.34 4.97881V9.30102ZM80.1806 6.99872C80.1682 7.77574 80.1382 7.77574 79.7672 7.77574H79.0288C79.2373 8.09591 79.3433 8.44485 79.3963 8.69846C80.4385 8.63191 80.8112 8.38909 80.9208 8.04195C81.0851 7.60127 81.101 4.89787 81.101 3.65319L80.3873 3.26468L80.1947 3.45354L79.0165 3.73233V4.56332L80.2053 4.28093C80.2053 5.59216 80.2053 6.40876 80.1788 6.99692L80.1806 6.99872ZM81.8959 9.74169C81.6027 9.62298 81.3394 9.46649 81.0162 9.21828C80.9632 9.91616 80.836 10.3424 80.7547 10.5295C80.6735 10.7292 80.5887 10.8101 80.3414 10.8371C80.2212 10.8497 79.3821 10.8497 78.7639 10.8497H76.4179C75.7731 10.8245 75.6477 10.7957 75.6477 10.087V1.23218H74.7698V4.73779L73.081 5.15328L73.2453 5.95549L74.768 5.59396V10.3964C74.768 11.6825 75.4428 11.6825 77.3065 11.6825C78.0202 11.6825 79.2143 11.6825 79.7937 11.6968C81.0833 11.6968 81.5638 11.6968 81.8924 9.91436V12.044H82.8092V0.629629H81.8924V9.74349L81.8959 9.74169ZM85.7805 8.9125H88.3242V8.3783H86.4376V7.68221H88.2624V8.9143H89.0026V7.17499H85.7787V8.9143L85.7805 8.9125ZM83.5882 11.5476H91.0977V10.7453H83.5882V11.5476Z" fill="white"/>
<path d="M18.725 21.2457H23.3392C25.1269 21.2457 26.6584 20.0334 26.6584 18.0027C26.6584 15.972 25.5367 14.6859 23.3392 14.6859H18.725V13.3315H23.4451C25.9907 13.3315 28.1247 14.6626 28.1247 17.6753C28.1247 19.7762 27.1107 21.5047 25.1269 21.9238V21.9706C27.1301 22.2511 27.7113 23.744 27.8208 25.728C27.8862 26.8719 27.8862 29.158 28.5309 29.998H26.9146C26.5472 29.3451 26.5472 28.1076 26.5083 27.4079C26.3793 25.0751 26.2097 22.4814 23.4275 22.6001H18.725V21.2439V21.2457ZM17.8612 29.9998H16.4038V13.3315H17.8612V29.9998Z" fill="white"/>
</g>
<defs>
<clipPath id="clip0_453_43170">
<rect width="93.871" height="30" fill="white"/>
</clipPath>
</defs>
</svg>
