<svg width="148" height="111" viewBox="0 0 148 111" fill="none" xmlns="http://www.w3.org/2000/svg">
<g clip-path="url(#clip0_453_43410)">
<path d="M83.5144 83.0861C85.038 84.5122 87.0125 86.5563 87.8764 87.9492L86.2009 89.1614C85.9873 88.7954 85.6882 88.3628 85.337 87.9017C76.5323 88.3343 75.3552 88.3675 74.4771 88.667C74.3774 88.2677 74.0641 87.2884 73.8315 86.775C74.2635 86.6609 74.6622 86.3424 75.208 85.81C75.7871 85.2966 77.5955 83.2858 78.7204 81.2939L80.7092 82.1401C79.665 83.6851 78.3549 85.1635 77.0971 86.3757L83.8941 86.1618C83.2486 85.4297 82.5841 84.7357 81.9718 84.1177L83.5144 83.0861ZM75.0277 89.7604H86.2009V97.0336H84.0792V96.2017H77.0497V97.0479H75.0277V89.7604ZM77.0497 91.6524V94.3097H84.0792V91.6524H77.0497Z" fill="#C30D23"/>
<path d="M95.6653 92.3989C95.2523 93.5921 94.5688 94.9564 93.9898 95.8025C93.6907 95.5554 93.0595 95.1228 92.6987 94.9041C93.2636 94.1245 93.8094 92.9931 94.1559 91.9663L95.6653 92.3989ZM97.9863 91.4339V96.9482H96.0782V91.4339H92.993V89.7748H96.0782V88.496H92.8933V86.8703H94.5024C94.4217 86.3711 94.2223 85.6581 94.023 85.1446L95.3805 84.8119H93.1401V83.2004H95.9738C95.8267 82.7535 95.6415 82.2876 95.4754 81.8883L97.45 81.4082C97.6968 81.9549 97.9958 82.6394 98.1952 83.2004H100.568V84.8119H98.4942L99.8374 85.0781C99.5906 85.7103 99.3391 86.3569 99.0922 86.8703H100.815V88.496H97.9816V89.7748H100.549V91.4339H97.9816H97.9863ZM95.5988 84.8071C95.8456 85.3538 96.064 86.0669 96.1447 86.5327L94.9533 86.8655H97.3408C97.5876 86.2665 97.8866 85.4204 98.0528 84.8071H95.5988ZM108.215 88.8431H106.672V96.9957H104.75V88.8431H103.207V89.0427C103.207 91.4814 102.994 94.9041 101.584 97.029C101.252 96.682 100.473 96.0497 100.061 95.8501C100.374 95.37 100.625 94.8185 100.806 94.2386L99.6286 94.9706C99.3628 94.3051 98.7979 93.245 98.3375 92.4797L99.6286 91.7809C100.075 92.4464 100.592 93.3258 100.872 93.9581C101.337 92.3656 101.385 90.5687 101.385 89.0427V83.1291C103.193 82.7963 105.196 82.2829 106.407 81.7172L107.916 83.1623C106.558 83.709 104.831 84.1083 103.207 84.4078V87.0129H108.215V88.8383V88.8431Z" fill="#C30D23"/>
<path d="M121.443 88.1677V89.8934H126.731V91.6713H124.111L125.768 92.2702C125.188 93.202 124.538 94.1955 124.026 94.9086H127.59V96.7197H113.251V94.9086H116.517C116.251 94.1432 115.686 93.0498 115.14 92.2179L116.45 91.6713H114.048V89.8934H119.322V88.1677H115.957V87.3548C115.259 87.6876 114.547 87.9871 113.816 88.2533C113.55 87.6733 113.004 86.927 112.506 86.4279C115.624 85.5294 118.605 83.8561 120.181 81.3794L122.056 82.2256C121.909 82.4395 121.757 82.6581 121.591 82.8911C123.214 84.3505 125.9 85.7291 128.388 86.4279C127.941 86.8605 127.324 87.6401 127.03 88.1535C126.285 87.8873 125.521 87.5545 124.776 87.1885V88.1677H121.443ZM116.816 91.6713C117.395 92.4841 118.026 93.5823 118.259 94.3096L116.901 94.9086H119.322V91.6713H116.82H116.816ZM123.314 86.3566C122.269 85.7101 121.292 84.978 120.447 84.1984C119.649 85.0303 118.738 85.7243 117.76 86.3566H123.314ZM121.439 91.6713V94.9086H123.513L122.402 94.4427C122.915 93.6963 123.532 92.5317 123.859 91.6713H121.439Z" fill="#C30D23"/>
<path d="M136.215 91.3055V94.9754C136.215 95.8881 136.048 96.3873 135.55 96.701C135.052 97.0148 134.34 97.0813 133.262 97.0671C133.21 96.5869 132.996 95.7693 132.764 95.2416C133.362 95.2749 133.927 95.2749 134.121 95.2606C134.321 95.2606 134.401 95.1941 134.401 94.9802V91.8902L132.826 92.4036L132.446 90.4926C133.011 90.3595 133.675 90.1599 134.401 89.9602V86.5375H132.678V84.7121H134.401V81.5746H136.21V84.7121H137.567V86.5375H136.21V89.4278L137.634 88.9952L137.947 90.7541L136.205 91.3008L136.215 91.3055ZM148 94.8233V96.6012H137.506V94.8233H141.768V92.1659H138.469V90.388H147.141V92.1659H143.709V94.8233H148.005H148ZM139.461 86.5042H137.752V83.3477H141.782C141.583 82.8676 141.383 82.3827 141.17 81.9549L142.992 81.4082C143.306 82.0214 143.657 82.7535 143.904 83.3525H147.881V86.4567H146.073V84.9973H145.029V87.2411C145.029 87.6879 145.076 87.84 145.361 87.84H146.704C147.003 87.84 147.483 87.8068 147.729 87.7402C147.782 88.1871 147.81 88.8668 147.896 89.2852C147.616 89.385 147.15 89.4183 146.733 89.4183H145.29C143.633 89.4183 143.249 88.805 143.249 87.2268V85.002H142.418C142.304 87.5596 141.72 89.038 138.74 89.7843C138.592 89.3707 138.161 88.6862 137.809 88.3915C140.197 87.859 140.562 86.913 140.643 85.002H139.447V86.5137L139.461 86.5042Z" fill="#C30D23"/>
<path d="M90.4393 105.167H87.4775V104.392H88.6689C88.5692 104.079 88.3984 103.665 88.2417 103.347L89.0629 103.057C89.2527 103.413 89.4663 103.874 89.566 104.179L89.0154 104.392H90.4393V105.167ZM90.24 109.493C90.4441 109.042 90.577 108.428 90.6434 107.877L91.3269 108.077C91.2367 108.728 91.0944 109.503 90.8096 109.973L90.24 109.736V110.297H88.5123V110.625H87.7054V107.806H90.24V109.493ZM90.2637 106.289H87.7149V105.548H90.2637V106.289ZM87.7149 106.669H90.2637V107.402H87.7149V106.669ZM89.4283 108.58H88.517V109.526H89.4283V108.58ZM93.2065 104.141C93.0404 105.576 92.6227 106.779 91.0659 107.501C90.9567 107.278 90.7194 106.964 90.5248 106.807C91.1276 106.551 91.5263 106.213 91.7921 105.819C91.4788 105.514 91.0042 105.101 90.6577 104.797L91.175 104.278C91.4646 104.511 91.8396 104.806 92.1481 105.067C92.2383 104.778 92.2952 104.469 92.3379 104.136H90.7574V103.313H94.9532C94.9532 103.313 94.9437 103.575 94.9295 103.684C94.8488 105.738 94.7491 106.536 94.5261 106.807C94.3694 107.021 94.1796 107.097 93.9233 107.135C93.7002 107.169 93.3394 107.169 92.9692 107.15C92.9455 106.893 92.8458 106.541 92.7129 106.308C93.0262 106.332 93.3299 106.341 93.4771 106.341C93.5863 106.341 93.6575 106.327 93.7381 106.242C93.8521 106.094 93.9375 105.524 93.9992 104.131H93.2018L93.2065 104.141ZM93.1923 109.793C93.4296 109.793 93.4723 109.66 93.4961 108.794C93.6764 108.928 94.0229 109.051 94.246 109.108C94.1653 110.254 93.9422 110.549 93.2825 110.549H92.3759C91.569 110.549 91.3744 110.301 91.3744 109.526V107.73H92.2145V109.517C92.2145 109.755 92.2572 109.788 92.5041 109.788H93.197L93.1923 109.793ZM92.6512 107.04C93.0119 107.411 93.4011 107.915 93.5625 108.262L92.955 108.68C92.7888 108.343 92.4186 107.806 92.0816 107.421L92.6512 107.04ZM94.5118 107.535C94.8156 108.096 95.1289 108.818 95.2285 109.298L94.5118 109.56C94.4311 109.089 94.1511 108.348 93.8521 107.772L94.5118 107.535Z" fill="#727171"/>
<path d="M102.661 109.213C103.502 109.469 104.389 109.807 104.93 110.068L104.114 110.729C103.573 110.434 102.647 110.03 101.745 109.755L102.272 109.213H99.8705L100.635 109.75C99.9844 110.144 98.9639 110.539 98.1523 110.739C97.9957 110.548 97.7014 110.254 97.4878 110.073C98.2852 109.892 99.2487 109.536 99.7756 109.217H97.5305V108.409H98.6222V104.782H100.587C100.611 104.668 100.635 104.545 100.663 104.411H97.7489V103.594H100.777C100.791 103.389 100.82 103.19 100.825 103.019L101.855 103.118L101.774 103.594H104.645V104.411H101.617C101.584 104.545 101.57 104.668 101.541 104.782H103.777V108.409H104.84V109.217H102.661V109.213ZM99.5668 105.391V105.742H102.79V105.391H99.5668ZM102.79 106.299H99.5668V106.612H102.79V106.299ZM99.5668 107.154V107.478H102.79V107.154H99.5668ZM99.5668 108.409H102.79V108.029H99.5668V108.409Z" fill="#727171"/>
<path d="M110.873 102.762H111.201V111H110.873V102.762Z" fill="#727171"/>
<path d="M120.048 106.569C119.654 108.276 118.8 109.55 117.793 110.23C117.627 110.025 117.243 109.645 117.005 109.498C117.779 109.036 118.429 108.228 118.809 107.259H117.214V106.336H119.222L119.393 106.294L120.053 106.574L120.048 106.569ZM124.505 106.008C123.878 106.569 123.133 107.187 122.507 107.606C123.081 108.395 123.831 109.008 124.794 109.384C124.562 109.574 124.258 109.978 124.111 110.239C122.919 109.702 122.07 108.823 121.453 107.691V109.578C121.453 110.116 121.344 110.377 120.992 110.543C120.655 110.7 120.152 110.71 119.464 110.71C119.421 110.429 119.265 109.992 119.137 109.731C119.549 109.754 120.057 109.754 120.205 109.745C120.352 109.735 120.404 109.697 120.404 109.564V105.633H118.349V104.692H121.401C120.703 104.378 119.749 104.059 118.989 103.86L119.474 103.061C120.428 103.265 121.799 103.703 122.502 104.069L121.975 104.982C121.837 104.901 121.652 104.81 121.458 104.72V105.405C121.614 105.923 121.814 106.412 122.041 106.855C122.601 106.408 123.219 105.832 123.612 105.338L124.51 106.004L124.505 106.008Z" fill="#727171"/>
<path d="M129.151 108.219C129.137 108.105 129.118 107.972 129.094 107.824C127.637 108.038 127.367 108.114 127.196 108.195C127.148 108.029 127.016 107.62 126.916 107.397C127.115 107.354 127.277 107.159 127.523 106.845C127.623 106.721 127.803 106.465 128.027 106.118C127.424 106.194 127.253 106.232 127.129 106.289C127.087 106.123 126.949 105.728 126.859 105.524C127.006 105.481 127.139 105.319 127.296 105.062C127.452 104.83 127.927 103.893 128.193 103.028L128.99 103.342C128.72 104.017 128.359 104.744 127.979 105.343L128.506 105.3C128.696 104.944 128.886 104.568 129.042 104.188L129.783 104.635C129.346 105.514 128.776 106.422 128.188 107.173L128.943 107.083C128.886 106.859 128.829 106.636 128.762 106.451L129.412 106.279C129.602 106.84 129.792 107.563 129.849 108L129.156 108.224L129.151 108.219ZM127.951 108.566C127.884 109.341 127.751 110.163 127.58 110.691C127.414 110.601 127.063 110.491 126.864 110.444C127.053 109.926 127.158 109.165 127.21 108.452L127.951 108.566ZM128.715 108.433C128.814 109.041 128.886 109.807 128.905 110.33L128.212 110.453C128.212 109.935 128.145 109.16 128.074 108.552L128.715 108.438V108.433ZM129.441 108.219C129.598 108.68 129.778 109.289 129.844 109.693L129.218 109.907C129.151 109.493 128.99 108.87 128.838 108.39L129.441 108.219ZM133.077 109.512C133.627 109.693 134.187 109.907 134.558 110.054L134.173 110.738C133.737 110.534 133.02 110.235 132.398 110.006L132.669 109.512H131.449L131.942 109.997C131.292 110.277 130.471 110.582 129.868 110.781C129.792 110.601 129.645 110.301 129.531 110.106C129.982 109.959 130.618 109.735 131.088 109.512H129.987V107.04H134.149V109.512H133.082H133.077ZM131.61 104.017H129.655V103.389H131.61V103.033H132.564V103.389H134.425V104.017H132.564V104.297H134.168V104.882H129.958V104.297H131.61V104.017ZM129.683 105.115H134.415V106.798H129.683V105.115ZM130.48 106.203H131.074V105.709H130.48V106.203ZM130.841 107.796H133.229V107.549H130.841V107.796ZM130.841 108.404H133.229V108.157H130.841V108.404ZM130.841 109.022H133.229V108.761H130.841V109.022ZM132.332 106.203V105.709H131.795V106.203H132.332ZM133.575 105.709H133.048V106.203H133.575V105.709Z" fill="#727171"/>
<path d="M45.1533 52.3673C42.9034 47.951 41.6314 42.9454 41.6314 37.6449C41.6314 35.4582 41.8497 33.319 42.2579 31.2511L42.201 31.2416C42.5569 29.5303 42.7421 27.7571 42.7421 25.9412C42.7421 11.6134 31.1464 0 16.8405 0C12.1415 0 7.73202 1.25499 3.93483 3.44647L12.0038 17.5081C13.4278 16.6857 15.0796 16.215 16.8453 16.215C22.2088 16.215 26.5613 20.5695 26.5613 25.946C26.5613 31.3224 22.2135 35.6769 16.8453 35.6769V51.8919C25.7876 51.8919 33.0355 59.1509 33.0355 68.1069C33.0355 77.063 25.7876 84.322 16.8453 84.322C13.76 84.322 10.8789 83.4568 8.425 81.9594L0 95.8023C4.90786 98.8019 10.6701 100.527 16.8405 100.527C34.7252 100.527 49.221 86.0096 49.221 68.0974C49.221 62.3882 47.7401 57.026 45.158 52.3673H45.1533Z" fill="#C30D23"/>
<path d="M123.798 37.645C123.798 55.5572 109.302 70.0751 91.4171 70.0751C79.1142 70.0751 68.4157 63.2059 62.9335 53.0852C60.4463 48.4931 59.0366 43.2355 59.0366 37.6498C59.0366 35.4631 59.255 33.3239 59.6632 31.256C62.625 16.4053 75.7157 5.21973 91.4124 5.21973C109.297 5.21973 123.793 19.7377 123.793 37.6498L123.798 37.645Z" fill="#C30D23"/>
<path d="M62.7389 22.5948L56.3549 17.3467C55.8376 17.9932 55.3439 18.6587 54.874 19.348L61.9937 24.1113C62.2311 23.5979 62.4779 23.094 62.7389 22.5948Z" fill="#727171"/>
<path d="M61.7041 24.7483L54.4847 19.9185C54.0338 20.6125 53.6018 21.3208 53.2031 22.0529L61.0918 26.2742C61.2864 25.7608 61.4857 25.2522 61.7041 24.7483Z" fill="#727171"/>
<path d="M63.9588 20.4698L58.4671 14.9697C57.8881 15.5639 57.328 16.1772 56.7964 16.8142L63.0712 21.972C63.3513 21.4633 63.6503 20.9642 63.9588 20.4698Z" fill="#727171"/>
<path d="M65.3684 18.3879L60.7928 12.8022C60.1568 13.3347 59.5397 13.8909 58.9512 14.4708L64.3384 19.8663C64.6707 19.3624 65.0124 18.8728 65.3732 18.3879H65.3684Z" fill="#727171"/>
<path d="M60.1712 29.1359L51.5468 25.561C51.2383 26.3264 50.963 27.1108 50.7114 27.9046L59.7962 30.6666C59.9101 30.1532 60.0335 29.6445 60.1712 29.1406V29.1359Z" fill="#727171"/>
<path d="M60.8498 26.935L52.8805 22.6709C52.496 23.403 52.14 24.1541 51.8125 24.9194L60.3514 28.461C60.5033 27.9476 60.6694 27.4389 60.8451 26.935H60.8498Z" fill="#727171"/>
<path d="M59.6538 31.3416L50.5121 28.5654C50.2795 29.3593 50.0849 30.1674 49.9141 30.9803L59.3928 32.8676C59.4687 32.3542 59.5589 31.8455 59.6586 31.3416H59.6538Z" fill="#727171"/>
<path d="M59.3023 33.5569L49.7761 31.6602C49.6242 32.473 49.5008 33.2907 49.4106 34.1226L59.1457 35.0829C59.1836 34.5695 59.2359 34.0608 59.3023 33.5569Z" fill="#727171"/>
<path d="M66.9869 16.3675L63.3226 10.877C62.6391 11.3476 61.9746 11.842 61.3291 12.3649L65.8003 17.8222C66.1847 17.3278 66.5787 16.8429 66.9869 16.3723V16.3675Z" fill="#727171"/>
<path d="M73.1338 10.8862L71.8713 6.7124C71.0786 6.96435 70.3002 7.24482 69.5312 7.55382L71.4298 12.1459C71.9852 11.7086 72.55 11.2903 73.1338 10.8862Z" fill="#727171"/>
<path d="M78.3357 7.98157L78.0842 5.41455C77.2535 5.50487 76.4324 5.62372 75.6255 5.77108L76.2615 8.98461C76.9403 8.62333 77.6332 8.29057 78.3357 7.98157Z" fill="#727171"/>
<path d="M81.2549 6.85527V5.22949C80.4195 5.239 79.5889 5.27228 78.7725 5.34358L79.005 7.69193C79.7407 7.38294 80.4954 7.10722 81.2596 6.85527H81.2549Z" fill="#727171"/>
<path d="M84.3636 5.98996L84.4253 5.34821C83.6041 5.2769 82.7782 5.23412 81.9429 5.22461V6.63172C82.7355 6.38928 83.5424 6.17061 84.3636 5.98996Z" fill="#727171"/>
<path d="M86.4995 5.59555C86.0391 5.52425 85.5787 5.46245 85.1135 5.41016L85.0708 5.8475C85.5407 5.75243 86.0201 5.67161 86.4995 5.59555Z" fill="#727171"/>
<path d="M68.8145 14.4278L66.033 9.21289C65.3068 9.61221 64.5948 10.04 63.9019 10.4916L67.4665 15.8349C67.9031 15.3547 68.3541 14.8841 68.8192 14.4278H68.8145Z" fill="#727171"/>
<path d="M70.8601 12.5931L68.8856 7.82031C68.1214 8.14832 67.3714 8.5001 66.6357 8.8804L69.3365 13.9384C69.8301 13.4773 70.338 13.0257 70.8601 12.5931Z" fill="#727171"/>
<path d="M59.0984 35.7772L49.3491 34.8169C49.2779 35.6393 49.2352 36.4664 49.2305 37.3031H59.0509C59.0557 36.7897 59.0699 36.2811 59.0984 35.7772Z" fill="#727171"/>
<path d="M75.6256 9.33663L74.9469 5.90918C74.1305 6.08031 73.3283 6.27997 72.5356 6.51291L73.7365 10.4823C74.3535 10.0782 74.9848 9.69792 75.6256 9.33663Z" fill="#727171"/>
<path d="M67.4616 59.4603L63.897 64.8035C64.59 65.2551 65.3019 65.683 66.0281 66.0823L68.8143 60.8627C68.3492 60.4063 67.8983 59.9404 67.4616 59.4556V59.4603Z" fill="#727171"/>
<path d="M71.425 63.1538L69.5264 67.7459C70.2905 68.0549 71.0737 68.3354 71.8664 68.5826L73.1289 64.4088C72.5451 64.0095 71.9755 63.5912 71.4202 63.1538H71.425Z" fill="#727171"/>
<path d="M69.3366 61.3618L66.6406 66.4151C67.3716 66.8001 68.1263 67.1519 68.8905 67.4799L70.865 62.7024C70.3429 62.2698 69.8303 61.8229 69.3366 61.3618Z" fill="#727171"/>
<path d="M85.0757 69.4478L85.1184 69.8804C85.5788 69.8281 86.0392 69.7663 86.4949 69.695C86.0202 69.6236 85.5456 69.5381 85.0757 69.4478Z" fill="#727171"/>
<path d="M73.7316 64.8174L72.5308 68.7868C73.3234 69.0197 74.1256 69.2193 74.942 69.3905L75.6207 65.963C74.9752 65.6017 74.3439 65.2215 73.7316 64.8174Z" fill="#727171"/>
<path d="M76.2615 66.3057L75.6255 69.5192C76.4371 69.6713 77.2535 69.7949 78.0842 69.8852L78.3357 67.3182C77.6285 67.0045 76.9403 66.6669 76.2615 66.3057Z" fill="#727171"/>
<path d="M65.7954 57.478L61.3242 62.9353C61.9697 63.4535 62.639 63.9479 63.3225 64.4185L66.9868 58.9279C66.5786 58.4573 66.1799 57.9772 65.7954 57.4828V57.478Z" fill="#727171"/>
<path d="M81.9429 68.6636V70.0707C82.7782 70.0612 83.6041 70.0184 84.4253 69.9471L84.3636 69.3006C83.5472 69.1199 82.7403 68.906 81.9429 68.6636Z" fill="#727171"/>
<path d="M79.0002 67.6035L78.7676 69.9519C79.5887 70.0232 80.4146 70.0659 81.25 70.0707V68.4449C80.4858 68.193 79.7359 67.9125 79.0002 67.6035Z" fill="#727171"/>
<path d="M64.3384 55.4242L58.9512 60.8197C59.5445 61.3996 60.1615 61.9558 60.7928 62.4883L65.3684 56.9026C65.0124 56.4177 64.6659 55.9233 64.3384 55.4194V55.4242Z" fill="#727171"/>
<path d="M60.3704 46.8296L51.8125 50.3806C52.14 51.146 52.496 51.8971 52.8805 52.6292L60.864 48.3555C60.6884 47.8516 60.527 47.343 60.3751 46.8296H60.3704Z" fill="#727171"/>
<path d="M59.8057 44.6283L50.7114 47.3902C50.963 48.1841 51.2383 48.9685 51.5468 49.7338L60.1759 46.1542C60.0383 45.6503 59.9196 45.1369 59.8057 44.6235V44.6283Z" fill="#727171"/>
<path d="M59.4021 42.4227L49.9092 44.3147C50.0801 45.1324 50.2794 45.9405 50.5072 46.7296L59.6537 43.9487C59.554 43.4448 59.4733 42.9314 59.3974 42.418L59.4021 42.4227Z" fill="#727171"/>
<path d="M59.1506 40.2075L49.4155 41.1678C49.5057 41.9997 49.6244 42.8221 49.7763 43.6302L59.2977 41.7335C59.236 41.2296 59.1933 40.7162 59.1506 40.2075Z" fill="#727171"/>
<path d="M59.0508 37.9922H49.2256C49.2351 38.8288 49.2731 39.656 49.3442 40.4784L59.0983 39.5181C59.0698 39.0142 59.0555 38.5056 59.0508 37.9922Z" fill="#727171"/>
<path d="M61.0965 49.0161L53.2031 53.2422C53.6018 53.9695 54.0338 54.6826 54.4847 55.3766L61.7136 50.5421C61.4952 50.0382 61.2911 49.5343 61.0965 49.0209V49.0161Z" fill="#727171"/>
<path d="M63.0711 53.3232L56.7915 58.4858C57.3231 59.1228 57.8832 59.7361 58.4623 60.3303L63.9539 54.8302C63.6454 54.3358 63.3511 53.8366 63.0711 53.328V53.3232Z" fill="#727171"/>
<path d="M61.9889 51.1841L54.8691 55.9521C55.339 56.6366 55.8327 57.3022 56.3548 57.9487L62.7436 52.7005C62.4825 52.2014 62.2309 51.7022 61.9936 51.1888L61.9889 51.1841Z" fill="#727171"/>
<path d="M88.7026 31.023C88.7596 31.0848 88.8213 31.1514 88.8783 31.2179L106.407 16.8093C105.875 16.1723 105.315 15.5591 104.736 14.9648L88.7026 31.023Z" fill="#5E0000"/>
<path d="M88.019 30.3573C88.0855 30.4144 88.1472 30.4714 88.2137 30.5332L104.247 14.4751C103.654 13.8951 103.042 13.3342 102.406 12.8018L88.019 30.3573Z" fill="#5E0000"/>
<path d="M87.2739 29.7631C87.3451 29.8154 87.4116 29.8677 87.4828 29.92L101.865 12.3644C101.219 11.8462 100.555 11.3471 99.8711 10.8765L87.2739 29.7631Z" fill="#5E0000"/>
<path d="M90.3164 33.3713C90.3544 33.4474 90.3924 33.5282 90.4303 33.6043L111.386 24.9097C111.059 24.1443 110.698 23.398 110.318 22.6611L90.3212 33.3666L90.3164 33.3713Z" fill="#5E0000"/>
<path d="M86.4761 29.2452C86.552 29.288 86.6232 29.3355 86.6992 29.3783L99.2963 10.4964C98.6033 10.0448 97.8961 9.61221 97.1699 9.21289L86.4761 29.2452Z" fill="#5E0000"/>
<path d="M89.856 32.5394C89.9034 32.6155 89.9461 32.6868 89.9889 32.7628L109.991 22.0574C109.592 21.3301 109.16 20.617 108.709 19.9277L89.856 32.5442V32.5394Z" fill="#5E0000"/>
<path d="M89.3145 31.7549C89.3667 31.8262 89.4189 31.8928 89.4711 31.9641L108.329 19.3476C107.859 18.6631 107.365 17.9976 106.843 17.3511L89.3145 31.7549Z" fill="#5E0000"/>
<path d="M85.6312 28.8032C85.7119 28.8413 85.7878 28.8793 85.8638 28.9173L96.5529 8.88502C95.8219 8.49997 95.072 8.13868 94.3078 7.81543L85.6265 28.8032H85.6312Z" fill="#5E0000"/>
<path d="M81.9434 27.9379C82.0288 27.9379 82.119 27.9474 82.2044 27.9522L84.3641 5.99463C83.5429 6.17527 82.7408 6.39394 81.9434 6.63638V27.9379Z" fill="#5E0000"/>
<path d="M90.6914 34.2508C90.7199 34.3316 90.7531 34.4124 90.7816 34.4932L112.487 27.8997C112.236 27.1059 111.951 26.3263 111.642 25.5562L90.6914 34.246V34.2508Z" fill="#5E0000"/>
<path d="M82.8926 28.0139C82.978 28.0234 83.0634 28.0377 83.1489 28.0519L87.5726 5.77586C87.2166 5.7093 86.8606 5.65226 86.4999 5.59521C86.0205 5.66652 85.5459 5.75209 85.0712 5.84716L82.8926 28.0139Z" fill="#5E0000"/>
<path d="M80.045 28.047C80.1305 28.0328 80.2159 28.0232 80.3013 28.0137L78.3315 7.98145C77.6291 8.29519 76.9361 8.62795 76.2573 8.98449L80.045 28.047Z" fill="#5E0000"/>
<path d="M88.2562 69.3856C89.0726 69.2144 89.8748 69.0053 90.6674 68.7771L84.0841 47.043C83.9986 47.0667 83.918 47.0858 83.8325 47.1095L88.2562 69.3903V69.3856Z" fill="#5E0000"/>
<path d="M84.7484 28.4513C84.8291 28.4798 84.9098 28.5083 84.9905 28.5416L93.667 7.55857C92.9029 7.24958 92.1244 6.96435 91.327 6.7124L84.7437 28.4513H84.7484Z" fill="#5E0000"/>
<path d="M88.2562 5.90918L83.8325 28.19C83.918 28.209 83.9986 28.2328 84.0841 28.2565L90.6674 6.52241C89.8748 6.28948 89.0726 6.08507 88.2562 5.91393V5.90918Z" fill="#5E0000"/>
<path d="M90.9805 35.1589C91.0042 35.2444 91.0232 35.3253 91.0469 35.4108L113.294 30.9803C113.123 30.1627 112.914 29.3593 112.686 28.5654L90.9852 35.1589H90.9805Z" fill="#5E0000"/>
<path d="M101.869 62.9301L87.4828 45.3745C87.4163 45.4268 87.3451 45.4791 87.2739 45.5314L99.8711 64.418C100.555 63.9474 101.219 63.453 101.865 62.9301H101.869Z" fill="#5E0000"/>
<path d="M104.242 60.815L88.2088 44.7568C88.1471 44.8139 88.0806 44.8757 88.0142 44.9327L102.401 62.4883C103.037 61.9559 103.649 61.3949 104.242 60.815Z" fill="#5E0000"/>
<path d="M106.402 58.4853L88.8734 44.0767C88.8164 44.1432 88.7595 44.205 88.6978 44.2716L104.731 60.3297C105.31 59.7355 105.871 59.1223 106.402 58.4853Z" fill="#5E0000"/>
<path d="M76.4992 29.3784C76.5752 29.3309 76.6464 29.2833 76.7176 29.2405L68.8147 14.4326C68.3495 14.889 67.9033 15.3596 67.4619 15.8397L76.4945 29.3784H76.4992Z" fill="#5E0000"/>
<path d="M108.324 55.9519L89.4667 43.3354C89.4145 43.4068 89.3623 43.4733 89.3101 43.5446L106.839 57.9485C107.356 57.302 107.855 56.6364 108.324 55.9519Z" fill="#5E0000"/>
<path d="M99.2963 64.7984L86.6992 45.9165C86.6232 45.964 86.552 46.0068 86.4761 46.0496L97.1652 66.0819C97.8914 65.6826 98.6033 65.25 99.2916 64.7984H99.2963Z" fill="#5E0000"/>
<path d="M85.6313 46.4915L94.3127 67.4793C95.0768 67.1513 95.822 66.79 96.5577 66.4097L85.8687 46.3774C85.7927 46.4155 85.712 46.4535 85.6361 46.4915H85.6313Z" fill="#5E0000"/>
<path d="M76.4945 45.9214L67.4619 59.4601C67.8986 59.9402 68.3495 60.4108 68.8147 60.8672L76.7176 46.0592C76.6416 46.0165 76.5657 45.9737 76.4945 45.9261V45.9214Z" fill="#5E0000"/>
<path d="M113.968 37.9922H91.294C91.294 38.0778 91.2845 38.1681 91.2798 38.2536L113.845 40.4784C113.916 39.656 113.958 38.8288 113.968 37.9922Z" fill="#5E0000"/>
<path d="M81.2551 27.9331V6.85498C80.4909 7.10693 79.7409 7.38265 79.0005 7.69164L80.994 27.9474C81.0794 27.9426 81.1696 27.9378 81.2551 27.9378V27.9331Z" fill="#5E0000"/>
<path d="M109.995 53.2372L89.9933 42.5317C89.9505 42.6078 89.9031 42.6791 89.8604 42.7552L108.713 55.3716C109.164 54.6776 109.596 53.9693 110 53.2372H109.995Z" fill="#5E0000"/>
<path d="M113.417 31.6602L91.1753 36.0907C91.1895 36.1762 91.2038 36.2618 91.2133 36.3474L113.783 34.1226C113.693 33.2907 113.569 32.473 113.417 31.6602Z" fill="#5E0000"/>
<path d="M111.386 50.3802L90.4303 41.6855C90.3924 41.7664 90.3544 41.8424 90.3164 41.9185L110.313 52.6239C110.698 51.8918 111.054 51.1407 111.381 50.3754L111.386 50.3802Z" fill="#5E0000"/>
<path d="M113.289 44.3143L91.0425 39.8838C91.0235 39.9694 90.9998 40.0502 90.9761 40.1357L112.677 46.7292C112.91 45.9353 113.114 45.1319 113.285 44.3143H113.289Z" fill="#5E0000"/>
<path d="M112.487 47.3947L90.7816 40.8013C90.7531 40.8821 90.7246 40.9629 90.6914 41.0437L111.642 49.7336C111.951 48.9682 112.236 48.1886 112.487 47.39V47.3947Z" fill="#5E0000"/>
<path d="M113.783 41.1676L91.2133 38.9429C91.2038 39.0284 91.1895 39.114 91.1753 39.1996L113.417 43.6301C113.569 42.8172 113.693 41.9995 113.783 41.1676Z" fill="#5E0000"/>
<path d="M75.1751 44.9372C75.1086 44.8802 75.0422 44.8232 74.9805 44.7661L64.3389 55.424C64.6711 55.9279 65.0129 56.4223 65.3689 56.9072L75.1751 44.9372Z" fill="#5E0000"/>
<path d="M74.4917 44.2764C74.4347 44.2146 74.3778 44.1481 74.3161 44.0815L63.0669 53.3276C63.3469 53.8362 63.6412 54.3401 63.9497 54.8298L74.4869 44.2764H74.4917Z" fill="#5E0000"/>
<path d="M75.9201 45.5363C75.8489 45.484 75.7825 45.4317 75.7113 45.3794L65.7959 57.4777C66.1756 57.9721 66.5743 58.4522 66.9873 58.9228L75.9201 45.5363Z" fill="#5E0000"/>
<path d="M77.5673 46.4964C77.4866 46.4584 77.4107 46.4204 77.33 46.3823L69.3369 61.3614C69.8305 61.8225 70.3432 62.2694 70.8653 62.7019L77.5673 46.4964Z" fill="#5E0000"/>
<path d="M72.8776 41.9232C72.8396 41.8472 72.8016 41.7664 72.7637 41.6855L60.3706 46.8243C60.5225 47.3378 60.6839 47.8464 60.8595 48.3503L72.8728 41.9185L72.8776 41.9232Z" fill="#5E0000"/>
<path d="M72.4981 41.0485C72.4696 40.9676 72.4364 40.8868 72.4079 40.8013L59.8013 44.6328C59.9152 45.1462 60.0338 45.6548 60.1715 46.1635L72.4934 41.0532L72.4981 41.0485Z" fill="#5E0000"/>
<path d="M73.8793 43.5446C73.8271 43.4733 73.7702 43.4068 73.7227 43.3354L61.9941 51.1839C62.2315 51.6973 62.483 52.1964 62.7441 52.6956L73.8793 43.5399V43.5446Z" fill="#5E0000"/>
<path d="M73.3378 42.76C73.2904 42.684 73.2477 42.6079 73.2049 42.5366L61.0967 49.016C61.2865 49.5294 61.4954 50.038 61.7137 50.5372L73.3378 42.76Z" fill="#5E0000"/>
<path d="M78.4501 46.8483C78.3694 46.8197 78.284 46.7912 78.2033 46.7627L71.4253 63.1536C71.9806 63.591 72.5502 64.0093 73.134 64.4086L78.4501 46.8483Z" fill="#5E0000"/>
<path d="M84.9906 46.7529C84.9099 46.7815 84.8292 46.8147 84.7485 46.8433L91.3319 68.5821C92.1246 68.3302 92.903 68.045 93.6719 67.736L84.9954 46.7529H84.9906Z" fill="#5E0000"/>
<path d="M87.5775 69.5143L83.1538 47.2383C83.0683 47.2525 82.9829 47.2668 82.8975 47.2763L85.0761 69.4478C85.546 69.5429 86.0159 69.6237 86.4953 69.695C86.856 69.6379 87.2215 69.5809 87.5775 69.5096V69.5143Z" fill="#5E0000"/>
<path d="M91.2847 37.0412C91.2894 37.1267 91.2942 37.2123 91.2989 37.3026H113.973C113.963 36.466 113.921 35.6388 113.849 34.8164L91.2847 37.0412Z" fill="#5E0000"/>
<path d="M81.2551 47.3616C81.1696 47.3616 81.0794 47.3616 80.994 47.3521L79.0005 67.5983C79.7362 67.9072 80.4909 68.1877 81.2503 68.4397V47.3616H81.2551Z" fill="#5E0000"/>
<path d="M80.3013 47.2855C80.2159 47.276 80.1305 47.2569 80.045 47.2427L76.2573 66.3004C76.9361 66.6617 77.6243 66.9992 78.3315 67.313L80.3013 47.2855Z" fill="#5E0000"/>
<path d="M79.366 47.1145C79.2806 47.0955 79.1951 47.0717 79.1144 47.0527L73.7319 64.8175C74.349 65.2216 74.9803 65.6019 75.621 65.9631L79.366 47.1145Z" fill="#5E0000"/>
<path d="M82.2044 47.3472C82.119 47.3519 82.0335 47.3567 81.9434 47.3614V68.663C82.736 68.9054 83.5429 69.1193 84.3641 69.3L82.2044 47.3472Z" fill="#5E0000"/>
<path d="M73.2053 32.7581C73.248 32.6821 73.2907 32.606 73.3382 32.5347L61.7046 24.748C61.4862 25.2519 61.2869 25.7606 61.0923 26.274L73.2053 32.7581Z" fill="#5E0000"/>
<path d="M74.9852 30.5335C75.0469 30.4765 75.1134 30.4147 75.1798 30.3576L65.3736 18.3877C65.0176 18.8726 64.6711 19.3622 64.3389 19.8661L74.9852 30.5288V30.5335Z" fill="#5E0000"/>
<path d="M74.3157 31.2132C74.3727 31.1466 74.4344 31.0848 74.4961 31.023L63.9589 20.4697C63.6504 20.9641 63.3513 21.4633 63.0713 21.9719L74.3204 31.2179L74.3157 31.2132Z" fill="#5E0000"/>
<path d="M73.7179 31.9597C73.7702 31.8884 73.8271 31.8219 73.8793 31.7553L62.7393 22.5996C62.4783 23.0988 62.2315 23.6026 61.9941 24.1161L73.7227 31.9645L73.7179 31.9597Z" fill="#5E0000"/>
<path d="M79.1146 28.2421C79.2 28.2183 79.2855 28.204 79.3709 28.185L75.6259 9.33643C74.9804 9.69771 74.3539 10.078 73.7368 10.4821L79.1146 28.2421Z" fill="#5E0000"/>
<path d="M75.7114 29.9202C75.7826 29.868 75.8491 29.8157 75.9203 29.7634L66.9874 16.3721C66.5792 16.8427 66.1852 17.3276 65.8008 17.822L75.7162 29.9202H75.7114Z" fill="#5E0000"/>
<path d="M78.2033 28.5321C78.284 28.5036 78.3694 28.4751 78.4501 28.4466L73.1293 10.8862C72.5455 11.2855 71.9806 11.7086 71.4253 12.146L78.2033 28.5321Z" fill="#5E0000"/>
<path d="M77.33 28.9124C77.4059 28.8744 77.4866 28.8363 77.5626 28.7983L70.8605 12.5928C70.3384 13.0254 69.8305 13.4722 69.3369 13.9381L77.33 28.9124Z" fill="#5E0000"/>
<path d="M71.9805 36.352C71.99 36.2664 72.0042 36.1808 72.0184 36.0953L59.3026 33.5615C59.2409 34.0654 59.1887 34.5741 59.146 35.0875L71.9805 36.352Z" fill="#5E0000"/>
<path d="M71.9047 37.3028C71.9047 37.2172 71.9142 37.1269 71.919 37.0413L59.0987 35.7769C59.0703 36.2808 59.056 36.7894 59.0513 37.3028H71.9047Z" fill="#5E0000"/>
<path d="M71.9046 38.2536C71.8999 38.1681 71.8999 38.0778 71.8951 37.9922H59.0464C59.0511 38.5008 59.0654 39.0095 59.0939 39.5181L71.8999 38.2536H71.9046Z" fill="#5E0000"/>
<path d="M72.7685 33.6088C72.8065 33.528 72.8349 33.4472 72.8729 33.3711L60.8501 26.9346C60.6745 27.4385 60.5083 27.9471 60.3564 28.4605L72.7685 33.6088Z" fill="#5E0000"/>
<path d="M72.0137 39.204C71.9995 39.1184 71.9852 39.0328 71.971 38.9473L59.146 40.2118C59.184 40.7252 59.2267 41.2338 59.2931 41.7377L72.0137 39.204Z" fill="#5E0000"/>
<path d="M72.2083 40.1361C72.1846 40.0505 72.1656 39.965 72.1466 39.8794L59.4023 42.4179C59.4783 42.9313 59.559 43.4399 59.6587 43.9486L72.2131 40.1361H72.2083Z" fill="#5E0000"/>
<path d="M72.4174 34.4931C72.4459 34.4123 72.4696 34.3267 72.5029 34.2459L60.1762 29.1309C60.0386 29.6348 59.9152 30.1434 59.8013 30.6568L72.4174 34.4883V34.4931Z" fill="#5E0000"/>
<path d="M72.1513 35.4105C72.1703 35.3249 72.1893 35.2394 72.213 35.1586L59.6491 31.3413C59.5494 31.8452 59.4592 32.3539 59.3833 32.8673L72.1466 35.4105H72.1513Z" fill="#5E0000"/>
</g>
<defs>
<clipPath id="clip0_453_43410">
<rect width="148" height="111" fill="white"/>
</clipPath>
</defs>
</svg>
