<svg width="33" height="33" viewBox="0 0 33 33" fill="none" xmlns="http://www.w3.org/2000/svg">
<g clip-path="url(#clip0_453_43535)">
<path d="M32.1595 0H1.8859C0.836602 0 0 0.836602 0 1.8859V32.1595C0 33.1946 0.836602 34.0312 1.8859 34.0312H18.1784V20.8583H13.7401V15.7253H18.1784V11.9393C18.1784 7.54359 20.8583 5.14723 24.7861 5.14723C26.672 5.14723 28.2743 5.28902 28.7564 5.34574V9.93996H26.0339C23.907 9.93996 23.4816 10.9609 23.4816 12.4356V15.7111H28.5721L27.9056 20.8441H23.4816V34.0171H32.1595C33.1946 34.0171 34.0312 33.1805 34.0312 32.1312V1.87172C34.0312 0.836602 33.1946 0 32.1595 0Z" fill="#B4B4B4"/>
</g>
<defs>
<clipPath id="clip0_453_43535">
<rect width="33" height="33" fill="white"/>
</clipPath>
</defs>
</svg>
