<svg width="83" height="110" viewBox="0 0 83 110" fill="none" xmlns="http://www.w3.org/2000/svg">
<path d="M41.7731 67.218H42.1541V51.8338C44.58 60.694 52.6323 67.218 62.196 67.218C73.6649 67.218 83 57.8343 83 46.3057C83 34.7772 73.6649 25.3935 62.196 25.3935C50.7272 25.3935 41.392 34.7772 41.392 46.3057V66.4519H8.78898C27.7767 62.7495 42.1541 45.9227 42.1541 25.7637V24.8445L42.1033 24.8955C41.6461 11.2221 30.5582 0.229805 16.9048 0.0255339V0H16.5238C7.70941 0 0.533435 7.20056 0.533435 16.0608V16.4438H16.9048V0.791551C30.3931 0.995822 41.3031 12.0392 41.3793 25.6233L0.647743 66.5541L0 67.2052H41.7731V67.218ZM69.9943 58.613C63.2375 58.613 57.7507 53.085 57.7507 46.3057C57.7507 39.5265 63.2502 33.9984 69.9943 33.9984C76.7385 33.9984 82.2379 39.5265 82.2379 46.3057C82.2379 53.085 76.7385 58.613 69.9943 58.613ZM62.196 26.1595C70.8199 26.1595 78.1991 31.662 81.0187 39.3733C78.7198 35.6964 74.6301 33.2324 69.9943 33.2324C63.7582 33.2324 58.5382 37.6625 57.2808 43.548C56.1504 40.3691 53.1276 38.0838 49.5714 38.0838C46.6375 38.0838 44.0719 39.6158 42.624 41.9394C44.6181 32.9259 52.6323 26.1595 62.196 26.1595ZM42.1541 46.0759C42.2811 42.0288 45.5325 38.8498 49.5714 38.8498C53.6102 38.8498 56.9887 42.1948 56.9887 46.3057C56.9887 50.4167 53.6611 53.7616 49.5714 53.7616C45.4817 53.7616 42.2811 50.5954 42.1541 46.5355C42.1541 46.4589 42.1541 46.3823 42.1541 46.3057C42.1541 46.2291 42.1541 46.1525 42.1541 46.0631V46.0759ZM41.3793 26.7212C40.8967 48.4123 23.4331 65.9668 1.85432 66.4519L41.3793 26.7212Z" fill="white"/>
<path d="M11.6722 96.2115V89.8535H1.8418V96.2115H2.47684V95.1263H11.0245V96.2115H11.6595H11.6722ZM2.48954 94.5518V90.4408H11.0372V94.5518H2.47684H2.48954Z" fill="white"/>
<path d="M12.8279 89.1261L13.3995 88.7814C12.3072 87.1983 11.0117 85.6152 9.50032 84.0448L9.01769 84.3512C9.88135 85.2705 10.6688 86.1642 11.3673 87.0578C7.90001 87.211 4.81371 87.377 2.09573 87.5558C3.63253 86.0876 5.05503 84.4151 6.36321 82.5383L5.82978 82.2319C4.6105 83.9938 3.23881 85.6152 1.7274 87.0961C1.44799 87.3515 1.16857 87.5302 0.914551 87.6324L1.00346 88.2452C4.05166 87.9898 7.6587 87.7983 11.8246 87.6451C12.1929 88.143 12.5231 88.6409 12.8279 89.1261Z" fill="white"/>
<path d="M21.147 92.3691C21.8074 92.9691 22.3409 93.5692 22.7727 94.1692L23.2172 93.633C22.7219 93.0585 22.1503 92.4967 21.5026 91.9478L21.1597 92.3691H21.147Z" fill="white"/>
<path d="M25.2495 88.0792H28.158V96.2756H28.793V88.0792H30.4314V87.4409H25.2495V84.2874C27.1546 84.1598 28.8311 83.9044 30.3171 83.547L29.9742 82.9214C28.4755 83.3044 26.6974 83.5597 24.6272 83.7002V89.6751C24.6272 92.0881 24.081 94.1052 23.0396 95.7266L23.573 96.1096C24.6907 94.3733 25.2622 92.2285 25.2749 89.6751V88.092L25.2495 88.0792Z" fill="white"/>
<path d="M19.8135 91.4497V96.2628H20.4486V90.5305H23.8016V89.956H20.4486V87.8749H23.5095V87.3004H21.7568L22.3664 84.364H23.5222V83.7895H20.4613C20.3851 83.2661 20.2581 82.7171 20.1183 82.1426L19.496 82.2064C19.6738 82.7682 19.7881 83.2916 19.8643 83.7895H16.7272V84.364H17.8576L18.4672 87.3004H16.6637V87.8749H19.8262V89.956H16.3589V90.5305H19.7373C18.9626 91.9987 17.8195 93.352 16.3335 94.6159L16.651 95.1776C17.9592 94.0542 19.0261 92.803 19.8389 91.4497H19.8135ZM19.0896 87.2877L18.518 84.3513H21.706L21.1344 87.2877H19.1023H19.0896Z" fill="white"/>
<path d="M47.1203 89.0622L46.79 88.3728C46.5233 89.3559 46.282 89.841 46.0534 89.841C45.7613 89.841 45.5835 89.3686 45.5327 88.4494C45.4819 87.5302 45.4565 86.5982 45.4565 85.6279H42.9671V84.6576H43.4624V83.5342H46.9933V83.049H43.4624V82.2319H42.8274V83.049H37.7343V82.2319H37.0993V83.049H33.3271V83.5342H37.0993V84.4917H36.6167V85.2066H33.7971V85.6662H36.6167V86.5855H33.3907V87.0451H35.3466C35.1815 87.3642 34.9783 87.6068 34.7369 87.7728C34.4194 88.0026 33.9749 88.1558 33.4034 88.2324L33.632 88.7175C34.2416 88.5899 34.7242 88.3984 35.0926 88.1175C35.3847 87.8749 35.626 87.5174 35.8165 87.0323H38.1154V87.3642C38.1154 87.926 38.3948 88.2069 38.9536 88.2069H40.2618V87.7856H38.8266C38.6869 87.7856 38.6107 87.7089 38.6107 87.5685V87.0323H40.1983V86.5727H37.2644V85.6535H39.9189V85.1939H37.2644V84.581H37.747V83.5086H42.8401V84.4661H42.3956V85.6152H40.6047V86.1641H42.3956V86.4833C42.3956 87.0706 42.2939 87.6196 42.1034 88.1175C41.7478 87.9004 41.3795 87.6962 40.9985 87.4919L40.6936 87.8621C41.1128 88.092 41.5192 88.3345 41.9002 88.5771C41.5827 89.1899 41.1128 89.7261 40.4777 90.1857L40.846 90.6581C41.5192 90.1347 42.0399 89.5474 42.3956 88.8707C42.929 89.2282 43.4243 89.5857 43.8688 89.9687L44.2372 89.5474C43.7291 89.1644 43.1957 88.7814 42.6115 88.4239C42.8528 87.8366 42.9798 87.1855 42.9798 86.4833V86.1641H44.8849C44.8849 86.9812 44.9103 87.7855 44.9484 88.5771C45.0119 89.8538 45.3802 90.5177 46.0534 90.5432C46.5233 90.5687 46.8789 90.0708 47.133 89.0495L47.1203 89.0622Z" fill="white"/>
<path d="M33.3779 90.3004V90.7983C35.7403 90.7983 38.001 90.6706 40.1348 90.4536L40.084 90.0067C39.1695 90.0833 38.2297 90.1599 37.2517 90.1982V89.1513H39.8427V88.73H37.2517V87.9385H36.6166V88.73H34.0384V89.1513H36.6166V90.2238C35.5752 90.2748 34.4956 90.3004 33.3779 90.3004Z" fill="white"/>
<path d="M46.1169 91.5518H34.394V92.0752H46.1169V91.5518Z" fill="white"/>
<path d="M43.31 93.7222H47.0695V93.1987H33.3398V93.7222H37.1882C36.8326 93.9775 36.4643 94.2201 36.0832 94.4371C35.4609 94.8074 34.9274 95.0372 34.4702 95.1521L34.5591 95.7138C37.7851 95.5223 41.3795 95.4457 45.3294 95.4712C45.6978 95.701 46.0788 95.9436 46.4471 96.199L46.917 95.8032C45.6089 94.9861 44.4023 94.2839 43.2973 93.7222H43.31ZM35.7149 95.1265C36.388 94.8074 37.2009 94.3478 38.1535 93.7222H43.0433L42.7004 93.952C43.2846 94.2711 43.8815 94.6031 44.4785 94.9606C41.2271 94.9861 38.3059 95.0499 35.7149 95.1265Z" fill="white"/>
<path d="M58.5637 82.7168L58.0938 82.9338C58.424 83.5466 58.7161 84.1978 58.9447 84.9127L59.4781 84.7084C59.2368 84.019 58.932 83.3551 58.5637 82.7168Z" fill="white"/>
<path d="M61.7514 96.0585C62.3991 96.0585 62.7167 95.7138 62.7167 95.0243V88.0153H64.2281V87.377H59.732V88.0153H62.0816V95.0116C62.0816 95.2797 61.9419 95.4201 61.6752 95.4201H59.6558L59.8209 96.0585H61.7514Z" fill="white"/>
<path d="M53.6231 82.5253L53.0516 82.2827C52.3276 83.6488 51.3623 84.8106 50.1558 85.7681L50.4606 86.3171C51.7688 85.283 52.8356 84.019 53.6231 82.5253Z" fill="white"/>
<path d="M57.1536 96.2757V86.2919H59.4906V85.6535H57.1536V82.2192H56.5186V85.6535H54.1689V86.2919H56.5186V96.2757H57.1536Z" fill="white"/>
<path d="M63.8727 83.4575H60.1387V84.0959H63.8727V83.4575Z" fill="white"/>
<path d="M59.3256 94.0924H60.5067V93.454H59.2748C59.135 93.454 59.0588 93.3774 59.0588 93.237V88.2451H58.4873V93.2625C58.4873 93.8243 58.7667 94.1051 59.3256 94.1051V94.0924Z" fill="white"/>
<path d="M52.4801 96.2755V88.8196C52.9246 88.1302 53.3691 87.3514 53.801 86.4833L53.204 86.2407C52.2388 88.2196 51.1719 89.7516 50.0161 90.824L50.2828 91.4879C50.8036 91.0156 51.3116 90.441 51.8323 89.7389V96.2628H52.4674L52.4801 96.2755Z" fill="white"/>
<path d="M55.1726 88.1812H54.601V90.7345C54.601 92.4198 54.2708 93.7858 53.6104 94.82L54.1438 95.2285C54.8296 94.0667 55.1726 92.573 55.1726 90.7345V88.1812Z" fill="white"/>
<path d="M73.7284 94.5774H68.0512L70.9089 91.7303C71.7852 90.875 72.4711 90.0706 72.9537 89.3174C73.4363 88.5641 73.6776 87.8109 73.6776 87.0576C73.6776 86.1257 73.3855 85.3724 72.814 84.8234C72.2425 84.2745 71.4677 84.0063 70.5151 84.0063C69.5626 84.0063 68.8005 84.3127 68.1782 84.9256C67.5558 85.5384 67.2129 86.2789 67.1748 87.1598H67.9496C67.9877 86.4831 68.2417 85.9086 68.7116 85.4362C69.1815 84.9639 69.7785 84.7213 70.5278 84.7213C71.2772 84.7213 71.8868 84.9383 72.2933 85.3724C72.6997 85.8065 72.9029 86.3682 72.9029 87.0576C72.9029 87.696 72.6743 88.3726 72.2043 89.0876C71.7471 89.8025 71.074 90.5813 70.1976 91.4495L67.1494 94.5518V95.2668H73.7412V94.5901L73.7284 94.5774Z" fill="white"/>
<path d="M79.2407 84.0063C78.0088 84.0063 77.1451 84.4787 76.6244 85.4235C76.1036 86.3682 75.8496 87.8492 75.8496 89.8536C75.8496 91.7431 76.129 93.1347 76.6879 94.0284C77.2467 94.9349 78.0977 95.3817 79.2407 95.3817C80.3838 95.3817 81.2856 94.9349 81.819 94.0284C82.3524 93.1219 82.6192 91.7303 82.6192 89.8536C82.6192 87.8364 82.3524 86.3555 81.819 85.4107C81.2856 84.4787 80.4346 84.0063 79.228 84.0063H79.2407ZM81.1967 93.4794C80.7775 94.2837 80.1171 94.6923 79.2407 94.6923C78.3644 94.6923 77.6912 94.2965 77.2721 93.4922C76.853 92.6879 76.6371 91.475 76.6371 89.8536C76.6371 88.0662 76.8403 86.7512 77.2594 85.9341C77.6785 85.1171 78.339 84.6958 79.2534 84.6958C80.1679 84.6958 80.841 85.1043 81.2475 85.9341C81.6539 86.764 81.8571 88.0662 81.8571 89.8408C81.8571 91.4495 81.6412 92.6623 81.2221 93.4666L81.1967 93.4794Z" fill="white"/>
<path d="M0.927246 102.684H3.40391V109.91H3.95005V102.684H6.40131V102.212H0.927246V102.684Z" fill="white"/>
<path d="M10.0463 102.212L6.94727 109.91H7.5061L8.53487 107.306H12.1165L13.158 109.91H13.7295L10.6559 102.212H10.0463ZM8.72538 106.834L10.3384 102.85L11.9387 106.834H8.72538Z" fill="white"/>
<path d="M15.6345 102.212H15.0884V109.91H15.6345V102.212Z" fill="white"/>
<path d="M20.7153 105.672C19.8516 105.506 19.2166 105.314 18.8228 105.072C18.4291 104.829 18.2259 104.472 18.2259 104.012C18.2259 103.578 18.4037 103.233 18.7593 102.978C19.115 102.723 19.6357 102.595 20.3215 102.595C20.9312 102.595 21.4138 102.723 21.7821 102.991C22.1505 103.259 22.341 103.591 22.3537 103.999H22.9125C22.8871 103.45 22.6331 102.991 22.1632 102.646C21.6932 102.301 21.0836 102.123 20.3342 102.123C19.496 102.123 18.8482 102.289 18.3783 102.633C17.9084 102.978 17.6798 103.438 17.6798 104.012C17.6798 104.587 17.9084 105.072 18.3656 105.391C18.8228 105.71 19.496 105.965 20.3977 106.131C21.2614 106.297 21.8583 106.514 22.2013 106.782C22.5442 107.051 22.7093 107.421 22.7093 107.906C22.7093 108.391 22.5061 108.8 22.0997 109.081C21.6932 109.374 21.1471 109.515 20.4358 109.515C19.7246 109.515 19.1404 109.374 18.7085 109.081C18.2767 108.787 18.0608 108.378 18.0608 107.868H17.5146C17.5146 108.506 17.7814 109.017 18.2894 109.412C18.7974 109.808 19.5214 110 20.4358 110C21.2868 110 21.9726 109.808 22.4934 109.438C23.0014 109.068 23.2554 108.557 23.2554 107.906C23.2554 107.255 23.0522 106.808 22.6585 106.451C22.2648 106.093 21.617 105.838 20.7026 105.659L20.7153 105.672Z" fill="white"/>
<path d="M30.2278 105.71H25.592V102.212H25.0459V109.91H25.592V106.195H30.2278V109.91H30.774V102.212H30.2278V105.71Z" fill="white"/>
<path d="M33.6321 102.212H33.0859V109.91H33.6321V102.212Z" fill="white"/>
<path d="M41.138 109.195L36.5657 102.212H35.9307V109.91H36.4768V103.016L40.9856 109.91H41.6714V102.212H41.138V109.195Z" fill="white"/>
<path d="M49.7621 102.212L46.6631 109.91H47.2219L48.2507 107.306H51.8323L52.8738 109.91H53.4453L50.3717 102.212H49.7621ZM48.4412 106.834L50.0542 102.85L51.6545 106.834H48.4412Z" fill="white"/>
<path d="M58.8939 106.182C59.313 106.068 59.6178 105.876 59.8464 105.582C60.1258 105.212 60.2656 104.778 60.2656 104.28C60.2656 103.629 60.0877 103.118 59.7194 102.748C59.3511 102.391 58.8431 102.212 58.1953 102.212H54.8169V109.91H55.363V106.412H57.9286C58.6017 106.412 59.0844 106.68 59.3892 107.204C59.694 107.727 59.8591 108.634 59.8718 109.91H60.4434C60.418 108.787 60.2783 107.919 60.0242 107.306C59.8083 106.782 59.44 106.399 58.9066 106.182H58.8939ZM55.3503 105.94V102.684H58.1699C58.6652 102.684 59.059 102.825 59.313 103.093C59.5797 103.361 59.7067 103.757 59.7067 104.267C59.7067 104.804 59.5543 105.225 59.2495 105.506C58.9447 105.799 58.5255 105.94 58.0175 105.94H55.3503Z" fill="white"/>
<path d="M61.5229 102.684H63.9996V109.91H64.5458V102.684H66.997V102.212H61.5229V102.684Z" fill="white"/>
<path d="M74.3761 107.472C74.9858 106.885 75.4557 106.323 75.7859 105.8C76.1162 105.276 76.2813 104.753 76.2813 104.229C76.2813 103.578 76.0781 103.067 75.6843 102.684C75.2906 102.301 74.7572 102.11 74.0967 102.11C73.4363 102.11 72.9155 102.327 72.471 102.748C72.0392 103.17 71.7979 103.68 71.7725 104.293H72.3059C72.3313 103.821 72.5091 103.425 72.8393 103.106C73.1569 102.774 73.576 102.608 74.0967 102.608C74.6175 102.608 75.0366 102.761 75.316 103.055C75.5954 103.348 75.7351 103.744 75.7351 104.229C75.7351 104.676 75.57 105.148 75.2525 105.634C74.935 106.131 74.4651 106.668 73.8554 107.268L71.7471 109.413V109.91H76.3067V109.438H72.3821L74.3634 107.472H74.3761Z" fill="white"/>
<path d="M80.2818 102.123C79.4308 102.123 78.8339 102.455 78.4656 103.106C78.1099 103.757 77.9321 104.778 77.9321 106.17C77.9321 107.472 78.1226 108.442 78.5164 109.068C78.9101 109.693 79.4943 110 80.2818 110C81.0692 110 81.6916 109.693 82.0599 109.068C82.4282 108.442 82.6188 107.485 82.6188 106.17C82.6188 104.765 82.4409 103.744 82.0726 103.093C81.7043 102.442 81.1073 102.123 80.2818 102.123ZM81.6408 108.685C81.3487 109.247 80.8914 109.527 80.2818 109.527C79.6721 109.527 79.2149 109.247 78.9101 108.698C78.618 108.149 78.4656 107.306 78.4656 106.182C78.4656 104.944 78.6053 104.038 78.8974 103.476C79.1895 102.901 79.6467 102.62 80.2691 102.62C80.8914 102.62 81.3614 102.901 81.6408 103.476C81.9202 104.05 82.0599 104.957 82.0599 106.182C82.0599 107.293 81.9075 108.136 81.6154 108.698L81.6408 108.685Z" fill="white"/>
</svg>
