<svg width="100" height="30" viewBox="0 0 100 30" fill="none" xmlns="http://www.w3.org/2000/svg">
<g clip-path="url(#clip0_453_43182)">
<path d="M0 30V0H10.4133C16.2433 0 20.7833 4.5 20.7833 10.07C20.7833 15.64 16.24 20.14 10.4133 20.14H6.85667V29.9967H0V30ZM9.94333 13.5C11.8733 13.5 13.4133 11.9567 13.4133 10.07C13.4133 8.18333 11.87 6.64 9.94333 6.64H9.9C7.93 6.64 6.43 8.09667 6.43 10.07C6.43 12.0433 7.93 13.5 9.9 13.5H9.94333Z" fill="white"/>
<path d="M30.5134 30C24.8567 30 20.4434 25.5866 20.4434 20.1433C20.4434 14.7 24.8567 10.2866 30.5134 10.2866H40.1567V30H30.5134ZM33.9434 20.1433C33.9434 18.2133 32.4 16.63 30.5134 16.63C28.6267 16.63 27.0834 18.2166 27.0834 20.1433C27.0834 22.07 28.6267 23.6566 30.5134 23.6566C32.4 23.6566 33.9434 22.07 33.9434 20.1433Z" fill="white"/>
<path d="M43.8433 30V10.2866H55.3733C57.2599 10.2866 58.6299 11.4866 58.6299 13.2866C58.6299 15.0866 57.2599 16.2866 55.3733 16.2866H53.3166C51.5599 16.2866 50.2733 17.5733 50.2733 19.33V30H43.8433Z" fill="white"/>
<path d="M63.2402 15.6933V10.2866H64.9469C65.8969 10.2866 66.6469 11.03 66.6469 11.9466C66.6469 12.8633 65.8969 13.6066 64.9469 13.6066H64.0502V15.6933H63.2402ZM64.9002 12.82C65.3802 12.82 65.7736 12.4266 65.7736 11.9466C65.7736 11.4666 65.3802 11.0666 64.9002 11.0666H64.8936C64.3836 11.0666 64.0036 11.4533 64.0036 11.9466C64.0036 12.44 64.3836 12.82 64.8936 12.82H64.9002Z" fill="white"/>
<path d="M68.587 12.063C69.6136 12.063 70.3403 12.8297 70.3403 13.8797V14.2363H67.6503C67.767 14.653 68.0903 14.9697 68.747 14.9697H70.0203V15.6963H68.7536C67.6036 15.6963 66.8203 14.933 66.8203 13.8897C66.8203 12.8463 67.5303 12.0663 68.567 12.0663H68.5836L68.587 12.063ZM68.5636 12.7597C68.077 12.7597 67.737 13.0597 67.627 13.523H69.5203C69.3903 13.0197 69.0403 12.7597 68.5836 12.7597H68.5603H68.5636Z" fill="white"/>
<path d="M71.1235 15.693V12.1396H73.0102C73.2335 12.1396 73.4035 12.2863 73.4035 12.503C73.4035 12.7196 73.2335 12.8663 73.0102 12.8663H72.4935C72.1535 12.873 71.9002 13.1196 71.9002 13.453V15.693H71.1269H71.1235Z" fill="white"/>
<path d="M74.7302 15.6932V13.4132C74.7302 13.0965 74.4902 12.8632 74.1735 12.8632H73.6235V12.1365H74.1169C74.4635 12.1365 74.7269 11.8799 74.7269 11.5265C74.7269 10.8065 75.2835 10.2832 76.0402 10.2832H76.6569V11.0032H76.0602C75.7269 11.0032 75.4969 11.2565 75.4969 11.5765C75.4969 11.8965 75.7302 12.1399 76.0602 12.1399H76.6569V12.8665H76.0469C75.7302 12.8665 75.4969 13.0999 75.4969 13.4165V15.6965H74.7235L74.7302 15.6932Z" fill="white"/>
<path d="M78.82 15.7731C77.7767 15.7731 76.9434 14.9531 76.9434 13.9197C76.9434 12.8864 77.7767 12.0664 78.82 12.0664H78.8367C79.8867 12.0664 80.7134 12.8864 80.7134 13.9197C80.7134 14.9531 79.8867 15.7731 78.8367 15.7731H78.82ZM78.8367 14.9997C79.4334 14.9997 79.91 14.5064 79.91 13.9164C79.91 13.3264 79.43 12.8331 78.8367 12.8331H78.82C78.2234 12.8331 77.7467 13.3131 77.7467 13.9164C77.7467 14.5197 78.2267 14.9997 78.82 14.9997H78.8367Z" fill="white"/>
<path d="M81.4937 15.693V12.1396H83.3803C83.6037 12.1396 83.7737 12.2863 83.7737 12.503C83.7737 12.7196 83.6037 12.8663 83.3803 12.8663H82.8637C82.5237 12.873 82.2703 13.1196 82.2703 13.453V15.693H81.497H81.4937Z" fill="white"/>
<path d="M84.3838 15.693V12.1396H87.9705C88.8205 12.1396 89.4238 12.6896 89.4238 13.523V15.693H88.6505V13.523C88.6505 13.143 88.3505 12.8363 87.9705 12.8363C87.5905 12.8363 87.2905 13.1463 87.2905 13.523V15.693H86.5171V13.523C86.5171 13.143 86.2171 12.8363 85.8371 12.8363C85.4571 12.8363 85.1571 13.1463 85.1571 13.523V15.693H84.3838Z" fill="white"/>
<path d="M90.1567 10.9566C90.1567 10.5999 90.4334 10.3232 90.7901 10.3232C91.1467 10.3232 91.4301 10.5999 91.4301 10.9566C91.4301 11.3132 91.1434 11.5966 90.7901 11.5966C90.4367 11.5966 90.1567 11.3032 90.1567 10.9566ZM90.3901 15.6932V12.1399H91.1867V15.6932H90.3901Z" fill="white"/>
<path d="M92.1869 15.693V12.1396H93.8703C94.7736 12.1396 95.4303 12.803 95.4303 13.723V15.693H94.6569V13.7163C94.6569 13.213 94.3003 12.8363 93.8069 12.8363C93.3136 12.8363 92.9569 13.2163 92.9569 13.7163V15.693H92.1836H92.1869Z" fill="white"/>
<path d="M98.3537 15.0931H100V15.7564C100 16.9397 99.0737 17.8597 97.8737 17.8597C96.6737 17.8597 95.7471 16.9564 95.7471 15.7564H96.5271C96.5271 16.5664 97.1071 17.1331 97.8704 17.1331C98.6337 17.1331 99.2137 16.5697 99.2137 15.7731H96.9871L97.7737 14.7464C97.0704 14.6697 96.5304 14.0964 96.5304 13.4097C96.5304 12.6664 97.1471 12.0664 97.9137 12.0664C98.6804 12.0664 99.2971 12.6697 99.2971 13.4097C99.2971 13.7497 99.1437 14.0431 98.8937 14.3764L98.3437 15.0964L98.3537 15.0931ZM97.9204 14.0264C98.2671 14.0264 98.5371 13.7497 98.5371 13.4097C98.5371 13.0697 98.2671 12.7931 97.9204 12.7931C97.5737 12.7931 97.3037 13.0631 97.3037 13.4097C97.3037 13.7564 97.5804 14.0197 97.9204 14.0264Z" fill="white"/>
<path d="M88.0236 22.8468C87.0203 22.8468 86.2236 22.0501 86.2236 21.0701C86.2236 20.0901 87.0203 19.2935 88.0236 19.2935H89.7869V22.8468H88.0236ZM89.037 21.0701C89.037 20.5068 88.5903 20.0501 88.0336 20.0501C87.477 20.0501 87.0303 20.5068 87.0303 21.0701C87.0303 21.6335 87.487 22.0901 88.0336 22.0901C88.5803 22.0901 89.037 21.6268 89.037 21.0701Z" fill="white"/>
<path d="M90.7905 22.8468V19.2935H92.6772C92.9005 19.2935 93.0705 19.4401 93.0705 19.6568C93.0705 19.8735 92.9005 20.0201 92.6772 20.0201H92.1605C91.8205 20.0268 91.5672 20.2735 91.5672 20.6068V22.8468H90.7939H90.7905Z" fill="white"/>
<path d="M94.5071 22.8466V20.6533C94.5071 20.29 94.2371 20.02 93.8738 20.02H93.2871V19.2933H93.8738C94.2371 19.2933 94.5071 19.0233 94.5071 18.66V17.98H95.2804V18.66C95.2804 19.0233 95.5504 19.2933 95.9138 19.2933H96.4938V20.02H95.9138C95.5504 20.02 95.2804 20.29 95.2804 20.6533V22.8466H94.5071Z" fill="white"/>
<path d="M96.9104 22.8468V22.1201H98.4937C98.6937 22.1201 98.8504 21.9735 98.8504 21.7735C98.8504 21.5735 98.697 21.4268 98.4937 21.4268H97.977C97.3437 21.4268 96.8804 20.9801 96.8804 20.3601C96.8804 19.7401 97.3437 19.2935 97.977 19.2935H99.577V20.0201H98.007C97.807 20.0201 97.6504 20.1668 97.6504 20.3668C97.6504 20.5668 97.8037 20.7135 98.007 20.7135H99.577V22.8468H96.9104Z" fill="white"/>
<path d="M67.7368 29.9996V26.4463H69.6235C69.8468 26.4463 70.0168 26.593 70.0168 26.8096C70.0168 27.0263 69.8468 27.173 69.6235 27.173H69.1068C68.7668 27.1796 68.5135 27.4263 68.5135 27.7596V29.9996H67.7401H67.7368Z" fill="white"/>
<path d="M72.027 26.3667C73.0537 26.3667 73.7803 27.13 73.7803 28.1834V28.54H71.0903C71.207 28.9567 71.5303 29.2734 72.187 29.2734H73.4637V30H72.197C71.047 30 70.2637 29.2367 70.2637 28.1934C70.2637 27.15 70.9737 26.37 72.0103 26.37H72.027V26.3667ZM72.0037 27.0634C71.517 27.0634 71.177 27.3634 71.067 27.8267H72.9603C72.8303 27.3234 72.4803 27.0634 72.0237 27.0634H72.0003H72.0037Z" fill="white"/>
<path d="M77.8903 29.9999H76.1136C75.1336 29.9999 74.3369 29.2033 74.3369 28.2233C74.3369 27.2433 75.1336 26.4466 76.1136 26.4466H77.1169V24.5933H77.8903V30.0033V29.9999ZM77.1403 28.2233C77.1403 27.6599 76.6936 27.2033 76.1369 27.2033C75.5803 27.2033 75.1403 27.6599 75.1403 28.2233C75.1403 28.7866 75.5869 29.2433 76.1369 29.2433C76.6869 29.2433 77.1403 28.7799 77.1403 28.2233Z" fill="white"/>
<path d="M80.4333 26.3667C81.4599 26.3667 82.1866 27.13 82.1866 28.1834V28.54H79.4966C79.6133 28.9567 79.9366 29.2734 80.5933 29.2734H81.8699V30H80.6033C79.4533 30 78.6699 29.2367 78.6699 28.1934C78.6699 27.15 79.3799 26.37 80.4166 26.37H80.4333V26.3667ZM80.4099 27.0634C79.9233 27.0634 79.5833 27.3634 79.4733 27.8267H81.3666C81.2366 27.3234 80.8866 27.0634 80.4299 27.0634H80.4066H80.4099Z" fill="white"/>
<path d="M83.5803 29.9998V27.7198C83.5803 27.4032 83.3403 27.1698 83.0236 27.1698H82.4736V26.4432H82.967C83.3136 26.4432 83.577 26.1865 83.577 25.8332C83.577 25.1132 84.1336 24.5898 84.8903 24.5898H85.507V25.3098H84.9103C84.577 25.3098 84.347 25.5665 84.347 25.8832C84.347 26.1998 84.5803 26.4465 84.9103 26.4465H85.507V27.1732H84.897C84.5803 27.1732 84.347 27.4065 84.347 27.7232V30.0032H83.5736L83.5803 29.9998ZM85.937 25.2632C85.937 24.9065 86.2136 24.6298 86.5703 24.6298C86.927 24.6298 87.2103 24.9065 87.2103 25.2632C87.2103 25.6198 86.9236 25.9032 86.5703 25.9032C86.217 25.9032 85.937 25.6098 85.937 25.2632ZM86.1703 29.9998V26.4465H86.967V29.9998H86.1703Z" fill="white"/>
<path d="M87.9667 29.9996V26.4463H89.65C90.5534 26.4463 91.21 27.1096 91.21 28.0296V29.9996H90.4367V28.023C90.4367 27.5196 90.08 27.143 89.5867 27.143C89.0934 27.143 88.7367 27.523 88.7367 28.023V29.9996H87.9634H87.9667Z" fill="white"/>
<path d="M93.7101 26.3667C94.7368 26.3667 95.4634 27.13 95.4634 28.1834V28.54H92.7734C92.8901 28.9567 93.2134 29.2734 93.8701 29.2734H95.1468V30H93.8801C92.7301 30 91.9468 29.2367 91.9468 28.1934C91.9468 27.15 92.6568 26.37 93.6934 26.37H93.7101V26.3667ZM93.6868 27.0634C93.2001 27.0634 92.8601 27.3634 92.7501 27.8267H94.6434C94.5134 27.3234 94.1634 27.0634 93.7068 27.0634H93.6834H93.6868Z" fill="white"/>
<path d="M99.5768 29.9999H97.8001C96.8201 29.9999 96.0234 29.2033 96.0234 28.2233C96.0234 27.2433 96.8201 26.4466 97.8001 26.4466H98.8034V24.5933H99.5768V30.0033V29.9999ZM98.8268 28.2233C98.8268 27.6599 98.3801 27.2033 97.8234 27.2033C97.2668 27.2033 96.8268 27.6599 96.8268 28.2233C96.8268 28.7866 97.2734 29.2433 97.8234 29.2433C98.3734 29.2433 98.8268 28.7799 98.8268 28.2233Z" fill="white"/>
<path d="M74.2435 5.64979C74.0802 5.84645 74.0202 5.90979 73.7469 6.15979V7.56312C74.2702 7.46645 74.5569 7.39979 75.1569 7.24312V7.95978C74.6469 8.10312 74.4902 8.13645 73.7335 8.29312C73.2702 8.38312 73.2435 8.38979 72.8669 8.44979C72.758 8.46756 72.6513 8.48312 72.5469 8.49645C72.4102 8.52312 72.2802 8.54979 72.2202 8.56312L72.0569 7.76645C72.3302 7.75979 72.5669 7.73979 72.9969 7.68312V6.74979C72.5402 7.05645 72.1869 7.23312 71.5469 7.49979C71.4235 7.20645 71.3235 7.02979 71.1235 6.76978C72.0302 6.52312 72.7469 6.15645 73.3169 5.64645H72.0302C71.7169 5.64645 71.4635 5.65979 71.2335 5.68645V4.94979C71.4369 4.98312 71.6235 4.98979 72.0235 4.98979H73.8902V4.55312H72.5602C72.1702 4.55312 72.0069 4.55979 71.8102 4.57979V3.89979C72.0002 3.91979 72.1635 3.92645 72.5602 3.92645H73.8902V3.50979H72.2535C71.8802 3.50979 71.6735 3.51645 71.4902 3.54312V2.82645C71.6935 2.85312 71.9402 2.86645 72.2869 2.86645H73.8869C73.8869 2.57312 73.8802 2.44312 73.8469 2.27979H74.6835C74.6502 2.44979 74.6435 2.55979 74.6435 2.86645H76.3535C76.7269 2.86645 76.9602 2.85312 77.1635 2.82645V3.54312C76.9802 3.51645 76.7669 3.50979 76.4002 3.50979H74.6435V3.92645H76.0802C76.4902 3.92645 76.6535 3.91979 76.8369 3.89979V4.57979C76.6402 4.55979 76.4769 4.55312 76.0802 4.55312H74.6435V4.98979H76.6135C77.0035 4.98979 77.2135 4.98312 77.3969 4.94979V5.68645C77.1635 5.65979 76.9202 5.64645 76.6135 5.64645H75.0269C75.1569 5.93979 75.3069 6.17645 75.5569 6.48312C75.9035 6.21645 76.1902 5.92312 76.3535 5.69979L77.0335 6.12312C77.0024 6.15423 76.9502 6.20645 76.8769 6.27979C76.6802 6.47645 76.3869 6.74312 76.0735 6.98979C76.5569 7.34978 76.9402 7.54979 77.5669 7.75979C77.3502 8.02645 77.2269 8.22312 77.1169 8.49645C76.1902 8.09312 75.5702 7.64312 75.0869 7.05312C74.7735 6.66312 74.5069 6.19979 74.2835 5.64979H74.2435Z" fill="white"/>
<path d="M78.8701 4.01002C79.3334 4.28335 79.5934 4.46669 80.0301 4.84002L79.6201 5.47335C79.2168 5.08335 79.0001 4.92002 78.4468 4.58669L78.8701 4.00669V4.01002ZM80.0701 6.34002C79.9001 6.92669 79.7968 7.19335 79.5601 7.72335C79.3968 8.08335 79.3634 8.14669 79.2534 8.35002C79.2401 8.37002 79.2334 8.37669 79.1568 8.52669L78.5034 7.96002C78.8701 7.53669 79.1701 6.89669 79.4634 5.91002L80.0701 6.34002ZM79.8601 3.80335C79.4801 3.36669 79.2668 3.19002 78.7568 2.85669L79.2334 2.31002C79.6768 2.60335 79.9134 2.79335 80.2968 3.17669C80.2901 2.93002 80.2901 2.85002 80.2768 2.75335C80.4334 2.77335 80.6434 2.78002 80.9501 2.78002H82.0668V2.72669C82.0668 2.52335 82.0534 2.40669 82.0334 2.27002H82.8301C82.8035 2.41335 82.7968 2.52335 82.7968 2.72669V2.78002H83.9834C84.3368 2.78002 84.5501 2.77335 84.7134 2.75335C84.7001 2.90335 84.6935 3.01335 84.6935 3.23002V3.62002C84.6935 3.81669 84.7001 3.96669 84.7201 4.10335H84.1334V4.39002C83.9501 4.37002 83.7734 4.36335 83.5001 4.36335H82.7701V4.73002H83.8868C84.1801 4.73002 84.3034 4.72335 84.4734 4.70335C84.4534 4.88669 84.4468 5.05669 84.4468 5.31669V6.68669C84.4468 6.94002 84.4534 7.12335 84.4734 7.31335C84.3168 7.29335 84.0768 7.28669 83.8601 7.28669H83.1801C83.4401 7.47002 83.5335 7.52669 83.7468 7.62002C84.1201 7.79002 84.4135 7.87335 84.9135 7.93335C84.7235 8.18002 84.6601 8.28002 84.5468 8.58002C84.1434 8.49002 83.9668 8.43002 83.6134 8.27335C83.2401 8.10335 83.0534 8.00002 82.7134 7.75002L83.1635 7.28669H81.6568L82.1268 7.75002C81.4934 8.22002 81.1601 8.37002 80.3268 8.58002C80.1968 8.30002 80.1168 8.17002 79.9101 7.96002C80.6734 7.83669 81.0468 7.69335 81.6334 7.28669H81.0801C80.8001 7.28669 80.6834 7.29335 80.4934 7.30669C80.5068 7.14335 80.5134 6.97335 80.5134 6.70002V5.29669C80.5068 5.03669 80.5068 4.84669 80.4934 4.71002C80.6101 4.72335 80.8401 4.73002 81.0668 4.73002H82.0968V4.36335H81.4501C81.1768 4.36335 81.0268 4.37002 80.8301 4.39002V4.11002H80.2768C80.2901 3.97335 80.2968 3.83002 80.2968 3.66669V3.22335L79.8601 3.80335ZM83.9834 3.39335H80.9834V3.76669C81.1401 3.77335 81.2568 3.78002 81.4468 3.78002H83.4968C83.7068 3.78002 83.8168 3.77335 83.9801 3.76669V3.39335H83.9834ZM81.1901 5.27335V5.73002H82.0968V5.27335H81.1901ZM81.1901 6.26669V6.72335H82.0968V6.26669H81.1901ZM82.7701 5.72669H83.7634V5.27002H82.7701V5.72669ZM82.7701 6.72002H83.7634V6.26335H82.7701V6.72002Z" fill="white"/>
<path d="M90.6868 6.12652C90.4535 5.90318 90.3801 5.82652 90.2034 5.68318C90.0268 5.97652 89.8368 6.17985 89.5635 6.37985H90.4501C90.8168 6.37985 90.9201 6.37318 91.1235 6.34652V6.85652C90.9135 6.83652 90.7335 6.82985 90.4501 6.82985H87.5735C87.2735 6.82985 87.0968 6.83652 86.8935 6.85652V6.38652C86.5068 6.41318 86.239 6.43541 86.0901 6.45318L86.0068 5.87318C86.1568 5.88652 86.2601 5.89318 86.4301 5.89318C86.6001 5.89318 86.8268 5.88652 87.3101 5.86652V5.61985H86.9768C86.8135 5.61985 86.6768 5.62652 86.5201 5.64652V5.41318C86.3768 5.47985 86.3168 5.50318 86.1301 5.56318C86.0401 5.30985 86.0135 5.24985 85.8701 5.07318C86.3801 4.96985 86.6201 4.83985 86.7368 4.60985H86.5401C86.3635 4.60985 86.2135 4.61652 86.0368 4.63652V4.13318C86.1935 4.15318 86.3301 4.15985 86.5401 4.15985H87.2835V3.98985H86.7801C86.6101 3.98985 86.4868 3.99652 86.3101 4.01652V3.53985C86.4601 3.55985 86.5768 3.56652 86.7801 3.56652H87.2835C87.2768 3.45652 87.2701 3.38318 87.2501 3.31318H87.5635C87.5701 3.25318 87.5701 3.22985 87.5701 3.16318H86.7101C86.4035 3.16318 86.1701 3.17652 85.9601 3.20318V2.54318C86.1701 2.56985 86.4168 2.58318 86.7368 2.58318H87.5668C87.5601 2.39985 87.5601 2.35985 87.5468 2.26318H88.2968C88.2768 2.37985 88.2701 2.45318 88.2701 2.58318H89.7301C89.7301 2.43985 89.7234 2.35985 89.7034 2.26318H90.4601C90.4468 2.37318 90.4401 2.45318 90.4401 2.58318H91.3868C91.7135 2.58318 91.9401 2.56985 92.1435 2.54318V3.20318C91.9335 3.17652 91.7201 3.16318 91.4134 3.16318H90.4401C90.4401 3.29985 90.4401 3.35318 90.4468 3.42318H90.6501C90.6368 3.50652 90.6368 3.55985 90.6168 3.84652H90.9968C91.2568 3.84652 91.4201 3.83985 91.5768 3.81985C91.5568 3.96318 91.5435 4.18652 91.5435 4.39985C91.5435 4.99985 91.6468 5.72318 91.7468 5.80985C91.7468 5.81652 91.7535 5.81652 91.7535 5.82318L91.7601 5.82985C91.8001 5.79652 91.8135 5.66652 91.8335 5.23652C92.0035 5.39985 92.1001 5.45985 92.2968 5.54318C92.2135 6.24652 92.0435 6.56652 91.7501 6.56652C91.5168 6.56652 91.2801 6.33318 91.1501 5.97318C91.0535 5.71985 90.9868 5.38652 90.9601 5.04652C90.9601 5.00652 90.9468 4.78652 90.9334 4.40652H90.5801C90.5468 4.72652 90.5135 4.91652 90.4368 5.16985C90.6768 5.34652 90.7701 5.42318 91.0501 5.66652L90.6901 6.12318L90.6868 6.12652ZM86.6935 7.54985C86.3801 7.54985 86.2368 7.55652 86.0135 7.58318V7.00318C86.2301 7.02985 86.3735 7.03652 86.6935 7.03652H91.4368C91.7768 7.03652 91.9068 7.02985 92.1101 7.00318V7.58318C91.8934 7.55652 91.7635 7.54985 91.4368 7.54985H90.8501C91.1634 7.76652 91.3334 7.90985 91.7034 8.25985L91.1634 8.66985C90.9935 8.47318 90.9301 8.40985 90.8035 8.27318C89.6301 8.38318 89.1535 8.40985 86.9068 8.51318C86.7301 8.52652 86.6535 8.53318 86.4768 8.55318L86.3801 7.91318C86.5635 7.92652 86.7835 7.93318 86.9868 7.93318C87.1101 7.93318 87.1968 7.93318 87.5468 7.92652C87.6568 7.78985 87.7168 7.71652 87.8201 7.55318H86.6968L86.6935 7.54985ZM87.3068 5.15652C87.3068 5.00652 87.3001 4.92318 87.2801 4.82985H87.9335C87.9135 4.92652 87.9068 5.02652 87.9068 5.15652V5.20985H88.1535C88.0701 5.14985 88.0501 5.09318 88.0501 4.93652V4.60985H87.3068C87.2335 4.85652 87.1035 5.03318 86.8701 5.20985H87.3068V5.15652ZM89.3635 6.37652C89.2401 6.22652 89.1535 6.15318 88.9468 6.00985C89.3501 5.76985 89.5268 5.60652 89.7034 5.30652C89.5334 5.18985 89.5068 5.17652 89.2668 5.01985C89.1834 5.21652 89.0901 5.26652 88.7135 5.27985V5.63985C88.5635 5.62652 88.4201 5.61985 88.2635 5.61985H87.9035V5.82985C88.2701 5.80318 88.3935 5.78985 88.8301 5.73985V6.16985C88.2435 6.25318 87.6501 6.31985 87.1068 6.36652C87.2168 6.37318 87.3168 6.37318 87.5701 6.37318H89.3635V6.37652ZM89.5335 4.56985C89.7101 4.67985 89.7935 4.72652 89.9001 4.79318C89.9268 4.66318 89.9401 4.60318 89.9601 4.40318H89.7135C89.5235 4.40318 89.4001 4.40985 89.2701 4.42985V3.80985C89.4001 3.83652 89.5368 3.84318 89.7401 3.84318H89.9868C89.9801 3.63985 89.9801 3.57652 89.9601 3.45318H89.7001C89.7135 3.39318 89.7201 3.30318 89.7201 3.15985H88.2601C88.2668 3.26985 88.2668 3.33652 88.2801 3.40652H87.9068C87.9001 3.45985 87.9001 3.47318 87.8935 3.56318H88.3968C88.6001 3.56318 88.7301 3.55652 88.8801 3.53652V4.01318C88.7101 3.99318 88.5668 3.98652 88.3968 3.98652H87.8935V4.15652H88.6101C88.8001 4.15652 88.9635 4.14985 89.1068 4.13652V4.62652C88.9435 4.61318 88.8268 4.60652 88.6101 4.60652H88.5068V4.77652C88.5068 4.85985 88.5268 4.87318 88.6901 4.87318C88.8535 4.87318 88.8735 4.85318 88.8735 4.64985C89.0301 4.72318 89.0968 4.74652 89.3101 4.78652C89.3035 4.81985 89.3035 4.83318 89.2968 4.86985L89.5301 4.56985H89.5335ZM88.5868 7.54652C88.4568 7.72985 88.4168 7.77985 88.3068 7.90652C89.1168 7.88652 89.7935 7.85985 90.2968 7.81652C90.1601 7.71318 90.1268 7.69318 89.8935 7.54318H88.5835L88.5868 7.54652Z" fill="white"/>
<path d="M96.0236 3.06667C96.0236 2.72667 96.017 2.55667 95.9836 2.32333H96.7536C96.7203 2.55667 96.7136 2.72 96.7136 3.06667V3.64H97.0269C97.3269 3.64 97.4636 3.63333 97.647 3.60667V4.15333C97.7636 4.16667 97.8236 4.16667 97.987 4.16667H99.0169C99.2903 4.16667 99.4203 4.16 99.577 4.13333V4.89C99.407 4.87 99.317 4.86333 98.997 4.86333V7.78C98.997 8.14 98.9069 8.32667 98.6836 8.41333C98.5669 8.45333 98.3236 8.48 97.9803 8.48C97.8503 8.48 97.7703 8.48 97.4336 8.46667C97.4136 8.17333 97.3736 7.98333 97.2769 7.75C97.5769 7.79 97.8136 7.81 98.0803 7.81C98.2503 7.81 98.297 7.77667 98.297 7.65333V4.86H97.9836C97.7803 4.86 97.677 4.86667 97.547 4.88667V4.33333C97.4303 4.32667 97.3436 4.32 97.187 4.32H96.7103V7.72667C96.7103 8.11667 96.717 8.3 96.7503 8.54333H95.9803C96.0136 8.28333 96.0203 8.1 96.0203 7.72667V4.32333H95.4203C95.2236 4.32333 95.127 4.33 94.9903 4.35C94.807 4.65667 94.6503 4.89 94.5336 5.05333V7.78667C94.5336 8.16 94.5403 8.36 94.567 8.55667H93.797C93.8236 8.34 93.837 8.14 93.837 7.76667V6.50667C93.837 6.23333 93.8369 6.22667 93.8503 5.76333C93.7269 5.92 93.5569 6.09 93.3936 6.21333C93.3036 5.83333 93.257 5.71 93.127 5.46333C93.517 5.18333 93.8369 4.84333 94.1436 4.38C94.3069 4.14 94.437 3.91667 94.4836 3.76667L94.9736 4.06V3.61C95.1636 3.63667 95.287 3.64333 95.5936 3.64333H96.0169V3.07L96.0236 3.06667ZM95.0636 2.62333C95.037 2.65667 94.9203 2.8 94.7103 3.06667C94.3903 3.47 94.0569 3.77667 93.5169 4.16333C93.4203 3.91667 93.3469 3.76 93.1836 3.51667C93.7369 3.17 94.2003 2.68667 94.417 2.25L95.0636 2.62333ZM95.7603 4.83C95.6703 6.36333 95.5503 7.12 95.2836 7.86333C95.0936 7.74 94.9636 7.66667 94.6636 7.51667C94.8403 7.12667 94.937 6.80667 95.0036 6.38C95.0703 5.96333 95.127 5.33 95.1403 4.74333L95.7603 4.83333V4.83ZM97.307 3.53C97.117 3.14 97.047 3.04 96.7603 2.67667L97.2769 2.37C97.4936 2.62333 97.6103 2.78 97.7736 3.05V2.64667C97.9236 2.67333 98.0803 2.68 98.3036 2.68H98.9303C99.1703 2.68 99.327 2.67333 99.4603 2.64667V3.41C99.297 3.38333 99.1536 3.37667 98.9303 3.37667H98.3036C98.1003 3.37667 97.937 3.38333 97.7736 3.41V3.23333L97.3036 3.52667L97.307 3.53ZM97.4436 4.73667C97.6536 5.49333 97.8103 6.25 97.9403 7.13667L97.307 7.34667C97.1903 6.30333 97.0536 5.54667 96.8636 4.88L97.4436 4.73667Z" fill="white"/>
</g>
<defs>
<clipPath id="clip0_453_43182">
<rect width="100" height="30" fill="white"/>
</clipPath>
</defs>
</svg>
