<svg width="119" height="37" viewBox="0 0 119 37" fill="none" xmlns="http://www.w3.org/2000/svg">
<g clip-path="url(#clip0_453_43142)">
<path d="M55.3404 24.2777V30.2639H53.9397V24.2777H52.0542V23.0996H57.226V24.2777H55.3404Z" fill="white"/>
<path d="M60.1782 28.0562C60.1782 28.693 59.7149 29.3299 59.0361 29.3299C58.6375 29.3299 58.4004 29.107 58.4004 28.7673C58.4004 28.3428 58.7237 27.9289 60.1782 27.9289V28.0562ZM61.5897 30.2639C61.5682 29.8287 61.5574 29.3299 61.5574 28.9053V26.7083C61.5574 25.562 61.0725 24.8721 59.3486 24.8721C58.659 24.8721 57.9695 25.01 57.4307 25.2011L57.5492 26.3368C58.0018 26.082 58.6482 25.9228 59.1331 25.9228C59.9089 25.9228 60.1782 26.2094 60.1782 26.7613V27.0479C58.3573 27.0479 57.0859 27.7166 57.0859 28.9849C57.0859 29.8287 57.6462 30.37 58.6159 30.37C59.4132 30.37 60.0705 29.9561 60.3291 29.3617L60.3399 29.3723C60.2968 29.6483 60.286 29.9561 60.286 30.2639H61.5897Z" fill="white"/>
<path d="M63.7555 24.3092C63.2814 24.3092 62.9043 23.9377 62.9043 23.4813C62.9043 23.0249 63.2814 22.6641 63.7555 22.6641C64.2296 22.6641 64.6175 23.0249 64.6175 23.4813C64.6175 23.9377 64.235 24.3092 63.7555 24.3092ZM63.0659 30.2636V24.9885H64.4451V30.2636H63.0659Z" fill="white"/>
<path d="M66.8587 30.37C66.4708 30.37 66.0829 30.3276 65.7381 30.2745L65.7704 29.1601C66.1044 29.245 66.5139 29.3193 66.9233 29.3193C67.4513 29.3193 67.7961 29.107 67.7961 28.7567C67.7961 27.8227 65.6304 28.3534 65.6304 26.5597C65.6304 25.6363 66.3954 24.8721 67.9038 24.8721C68.2163 24.8721 68.561 24.9145 68.8843 24.9676L68.8412 26.0396C68.5395 25.9547 68.1839 25.9016 67.8499 25.9016C67.3112 25.9016 67.0526 26.1139 67.0526 26.4429C67.0526 27.3026 69.2506 26.9258 69.2506 28.6294C69.2506 29.6695 68.324 30.37 66.8587 30.37Z" fill="white"/>
<path d="M73.6031 30.2637V26.8885C73.6031 26.3366 73.4523 26.0076 72.9459 26.0076C72.2455 26.0076 71.696 26.793 71.696 27.7164V30.2637H70.3169V22.5156H71.696V24.7764C71.696 25.0948 71.6745 25.5406 71.5991 25.8484L71.6206 25.859C71.9331 25.2646 72.5472 24.8719 73.3769 24.8719C74.5836 24.8719 74.9715 25.6361 74.9715 26.5595V30.2637H73.6031Z" fill="white"/>
<path d="M77.1588 24.3092C76.6847 24.3092 76.313 23.9377 76.313 23.4813C76.313 23.0249 76.6901 22.6641 77.1588 22.6641C77.6275 22.6641 78.0208 23.0249 78.0208 23.4813C78.0208 23.9377 77.6329 24.3092 77.1588 24.3092ZM76.4692 30.2636V24.9885H77.8484V30.2636H76.4692Z" fill="white"/>
<path d="M82.6217 30.2639V26.8887C82.6217 26.3368 82.4708 26.0078 81.9644 26.0078C81.2641 26.0078 80.7146 26.7932 80.7146 27.7166V30.2639H79.3354V24.9888H80.6392C80.6392 25.2329 80.6176 25.6469 80.5637 25.9228L80.5745 25.9335C80.8978 25.3072 81.5227 24.8721 82.3954 24.8721C83.6022 24.8721 83.9901 25.6363 83.9901 26.5597V30.2639H82.6217Z" fill="white"/>
<path d="M90.6324 25.0525C90.6324 25.6894 90.1313 26.0768 89.1724 26.0768C88.9461 26.0768 88.7738 26.0768 88.6014 26.0662V24.1981C88.8492 24.1875 89.1293 24.1769 89.4202 24.1769C90.3037 24.1769 90.627 24.5271 90.627 25.0578L90.6324 25.0525ZM92.2486 28.0562C92.2486 27.3345 91.8176 26.634 90.9556 26.4536V26.4323C91.6452 26.167 92.1085 25.5408 92.1085 24.8296C92.1085 23.6833 91.2357 23.0571 89.6627 23.0571C88.7684 23.0571 87.8202 23.0784 87.2061 23.1155V30.2692C88.1219 30.2692 88.8869 30.2905 89.3286 30.2905C91.5213 30.2905 92.2486 29.1017 92.2486 28.0616V28.0562ZM90.7509 28.0881C90.7509 28.7355 90.2876 29.1601 89.3717 29.1601C89.0485 29.1601 88.7791 29.1389 88.6067 29.1229V27.1169C88.7576 27.1063 89.1131 27.1063 89.2209 27.1063C90.1367 27.1063 90.7509 27.3929 90.7509 28.0934V28.0881Z" fill="white"/>
<path d="M96.1978 28.0562C96.1978 28.693 95.7345 29.3299 95.0557 29.3299C94.657 29.3299 94.42 29.107 94.42 28.7673C94.42 28.3428 94.7432 27.9289 96.1978 27.9289V28.0562ZM97.6092 30.2639C97.5877 29.8287 97.5769 29.3299 97.5769 28.9053V26.7083C97.5769 25.562 97.092 24.8721 95.3681 24.8721C94.6786 24.8721 93.989 25.01 93.4503 25.2011L93.5688 26.3368C94.0213 26.082 94.6678 25.9228 95.1526 25.9228C95.9284 25.9228 96.1978 26.2094 96.1978 26.7613V27.0479C94.3769 27.0479 93.1055 27.7166 93.1055 28.9849C93.1055 29.8287 93.6657 30.37 94.6355 30.37C95.4328 30.37 96.09 29.9561 96.3486 29.3617L96.3594 29.3723C96.3163 29.6483 96.3055 29.9561 96.3055 30.2639H97.6092Z" fill="white"/>
<path d="M102.371 30.2639V26.8887C102.371 26.3368 102.22 26.0078 101.714 26.0078C101.014 26.0078 100.464 26.7932 100.464 27.7166V30.2639H99.085V24.9888H100.389C100.389 25.2329 100.367 25.6469 100.313 25.9228L100.324 25.9335C100.647 25.3072 101.272 24.8721 102.145 24.8721C103.352 24.8721 103.74 25.6363 103.74 26.5597V30.2639H102.371Z" fill="white"/>
<path d="M108.281 30.2637L106.622 27.6527V30.2637H105.243V22.5156H106.622V27.1857L108.184 24.9886H109.865L107.99 27.398L110.005 30.2637H108.281Z" fill="white"/>
<path d="M54.5272 17.6015V15.0967C54.5164 14.9799 54.581 14.9162 54.7319 14.9162H61.5899C61.7407 14.9162 61.8054 14.9799 61.8054 15.0967V17.6015H54.5272ZM62.3926 12.2256C62.7697 12.6236 63.1252 12.9898 63.4485 13.3719L64.5044 12.491C63.4323 11.2651 62.0693 9.94894 60.4747 8.54792L59.4834 9.51377C59.7636 9.72074 60.3131 10.2249 61.1535 11.0156L54.9851 11.3553C55.8309 10.209 56.472 9.22189 56.9245 8.40463L55.7608 7.62451C54.9312 9.02023 54.0477 10.3151 53.1265 11.472L51.9897 11.5251C52.1244 12.0239 52.2429 12.475 52.3399 12.8837L62.3872 12.2256H62.3926ZM54.5272 18.9176H61.8054V19.6022H63.1953V14.0512C63.1953 13.7381 63.0337 13.5789 62.6997 13.5789H53.6059C53.2827 13.5789 53.1372 13.7381 53.1372 14.0406V19.6022H54.5272V18.9176Z" fill="white"/>
<path d="M70.1936 7.94278H71.5458V8.74943H73.6306V9.97533H67.7693V8.74943H70.1882V7.94278H70.1936ZM71.4111 19.8037H70.1289V16.6939C69.5848 17.5218 68.9545 18.2594 68.2972 18.8538L67.2036 18.1533C68.1949 17.3254 69.0245 16.4285 69.6387 15.4786H67.5646V14.2527H70.1343V13.3718H67.6184V12.1459H69.1161C68.8629 11.4825 68.6097 10.9836 68.3673 10.6281L69.4501 10.0868C69.7302 10.5485 70.0158 11.1163 70.2798 11.8009L69.504 12.1406H71.0932C71.4973 11.3074 71.7774 10.6228 71.9229 10.0549L73.1027 10.4901C72.968 10.9943 72.7687 11.5303 72.4885 12.1406H73.6899V13.3665H71.4165V14.2474H73.6899V15.4733H71.939C72.4616 15.9775 72.9842 16.4869 73.4798 17.0388L72.5262 17.9092C72.203 17.5005 71.8421 17.0654 71.4165 16.6037V19.7931L71.4111 19.8037ZM75.5485 12.7243V14.4491C75.5323 15.4361 75.3761 16.2959 75.0798 17.0335C74.6919 17.941 74.0778 18.8644 73.2212 19.7878L72.1653 18.8273C73.0596 17.9039 73.636 17.1131 73.9054 16.402C74.1209 15.8076 74.2394 15.1496 74.2502 14.4491V8.65922C74.2394 8.36733 74.3579 8.20813 74.6111 8.20813C76.1788 8.20813 77.5957 8.09138 78.8671 7.89502L79.2927 9.17399C78.2098 9.34381 77.0192 9.44995 75.764 9.47648C75.6132 9.47648 75.5377 9.54016 75.5485 9.69937V11.4507H79.4381V12.7296H78.2906V19.809H76.9384V12.7296H75.5485V12.7243Z" fill="white"/>
<path d="M92.9818 11.7905V12.6609C92.9818 12.8678 92.8632 12.9846 92.6478 12.9846H89.6363V11.7905H92.9818ZM82.6382 15.2453C82.8806 15.8503 83.1177 16.6782 83.3331 17.7396L84.5453 17.4371C84.3567 16.4129 84.1197 15.5744 83.8234 14.8898L82.6382 15.2453ZM86.878 14.9057C86.6302 15.7442 86.3877 16.3916 86.1992 16.7949L87.212 17.2673C87.4383 16.6994 87.7076 16.0467 87.9339 15.2984L86.878 14.9004V14.9057ZM84.8631 18.1217C84.1574 18.2544 83.5163 18.3446 82.9345 18.4242L83.0961 19.6713C83.2954 19.6448 84.7769 19.3423 87.5083 18.7797L87.8423 20.0109C89.4423 19.7084 90.7622 19.3263 91.8181 18.8806L91.4195 17.66C90.9238 17.8563 90.3366 18.0686 89.647 18.2756V14.2052H90.5413C90.6598 16.0148 91.2578 17.4742 92.3245 18.5515C92.7393 18.9443 93.3104 19.406 94.0323 19.8889L95.1528 18.9814C94.1831 18.4295 93.3804 17.798 92.8094 17.1452C93.6498 16.4925 94.3286 15.8715 94.835 15.2984L93.9676 14.4015C93.542 14.8738 92.9441 15.4258 92.1844 16.0573C92.0228 15.5956 91.8882 14.9641 91.8235 14.2052H93.8868C94.1562 14.2052 94.2855 14.0725 94.2855 13.8125V8.48432C94.2855 8.25081 94.1562 8.11283 93.903 8.11283H88.742C88.4888 8.11283 88.3541 8.2455 88.3541 8.48432V18.594C88.1278 18.6311 87.9016 18.6736 87.7022 18.7373C87.7669 18.6842 87.8477 18.6577 87.9554 18.6577L87.713 17.4106C87.4329 17.4902 86.9265 17.6334 86.1561 17.8192V14.513H87.8477V13.3083H86.1561V12.2204H87.379V10.9998H83.8234C84.5399 10.5805 85.2079 10.018 85.7844 9.34934L87.476 10.7398L88.3541 9.71552L86.113 8.07568H85.154C84.4375 8.95663 83.581 9.63592 82.6651 10.1082L83.5055 11.159C83.5055 11.159 83.5325 11.1484 83.5702 11.1325V12.2204H84.8739V13.3083H83.053V14.513H84.8739V18.1217H84.8631ZM89.6363 10.5859V9.63592C89.6201 9.43956 89.7278 9.33342 89.9541 9.33342H92.6909C92.8794 9.33342 92.9818 9.42895 92.9818 9.60938V10.5805H89.6363V10.5859Z" fill="white"/>
<path d="M101.316 8.40442C100.621 9.96996 99.802 11.1693 98.8808 11.9601L97.7548 11.1693C98.8 10.2459 99.5757 9.15269 100.066 7.88965L101.31 8.40442H101.316ZM98.6653 15.6908L97.6094 14.8205C98.8646 13.8812 99.8451 12.6871 100.54 11.2648L101.731 11.8592C101.424 12.4271 101.127 12.9418 100.82 13.3982V19.6445H99.4841V15.0115C99.204 15.2716 98.9346 15.5104 98.6653 15.6961V15.6908ZM109.504 8.3885V9.70461H102.641V8.3885H109.504ZM102.172 12.7508V11.4187H109.919V12.7508H108.298V18.5884C108.298 18.8113 108.244 18.9705 108.136 19.1191C108.001 19.2889 107.829 19.4322 107.587 19.5383C106.8 19.9098 105.486 19.878 103.654 19.4481V18.0789C103.918 18.1426 104.15 18.2116 104.36 18.2753C105.523 18.5619 106.337 18.5778 106.795 18.3284C106.886 18.2647 106.94 18.1585 106.94 18.0099V12.7508H102.167H102.172Z" fill="white"/>
<path d="M29.3686 4C24.2668 4 20.8136 8.17654 20.7759 12.1196C20.7436 15.4736 22.2466 18.7532 25.9692 20.3188C28.1995 21.2634 32.143 21.9533 32.0784 25.4346C32.0191 28.1995 28.7167 30.2745 25.6029 30.2745H20.2479V15.0543H15.8196V7.78383H20.2479V4H12V18.8381H16.4283V34H26.718C31.6959 34 36.0811 30.0676 36.1135 25.1746C36.1404 20.8442 32.6602 18.6152 28.415 17.2408C25.6783 16.3598 24.5577 14.3803 24.6278 12.2098C24.6978 9.99151 26.7719 7.77852 29.2878 7.78383H41.0536V14.8473H44.8085V4H29.3632H29.3686Z" fill="#D80C18"/>
<path d="M37.579 12.9472C35.8551 11.8434 33.5224 10.8722 31.4375 10.7396H31.4267C31.3567 10.7396 31.2867 10.7236 31.2112 10.7236C30.1661 10.7236 29.3203 11.5621 29.3203 12.5864C29.3203 13.1807 29.6058 13.7114 30.0476 14.0511C30.2308 14.2156 30.7426 14.465 31.5075 14.6614C36.1083 15.8554 39.8632 20.101 40.1218 24.044C40.5582 30.6511 35.8928 33.9573 35.8928 33.9573H40.6605C42.767 31.946 44.1515 28.5602 44.0653 24.235C43.9791 19.9046 41.4632 15.4203 37.579 12.9366V12.9472Z" fill="#D80C18"/>
</g>
<defs>
<clipPath id="clip0_453_43142">
<rect width="98" height="30" fill="white" transform="translate(12 4)"/>
</clipPath>
</defs>
</svg>
