<svg width="263" height="32" viewBox="0 0 263 32" fill="none" xmlns="http://www.w3.org/2000/svg">
<mask id="mask0_453_43243" style="mask-type:alpha" maskUnits="userSpaceOnUse" x="0" y="0" width="34" height="32">
<path fill-rule="evenodd" clip-rule="evenodd" d="M0.000488281 0H33.8275V31.5996H0.000488281V0Z" fill="white"/>
</mask>
<g mask="url(#mask0_453_43243)">
<path fill-rule="evenodd" clip-rule="evenodd" d="M17.8995 2.72523e-06C12.6455 -0.00399728 9.07949 4.396 9.04549 8.555C9.01249 12.088 10.5595 15.541 14.3985 17.189C16.6945 18.182 20.7645 18.91 20.6915 22.578C20.6345 25.494 17.2245 27.678 14.0175 27.678H8.50449V11.643H3.93849V3.986H8.50449V2.72523e-06H0.000488281V15.631H4.56349V31.6H15.1775C20.3065 31.6 24.8325 27.457 24.8625 22.301C24.8885 17.74 21.3015 15.395 16.9215 13.949C14.1065 13.021 12.9465 10.938 13.0185 8.646C13.0915 6.305 15.2325 3.979 17.8285 3.986H29.9565V11.424H33.8275V2.72523e-06H17.8995Z" fill="#D41318"/>
</g>
<path fill-rule="evenodd" clip-rule="evenodd" d="M26.3669 9.42198C24.5949 8.25798 22.1839 7.23598 20.0339 7.09798H20.0249C19.9509 7.09398 19.8819 7.08398 19.8049 7.08398C18.7259 7.08398 17.8569 7.96298 17.8569 9.04498C17.8569 9.67198 18.1469 10.229 18.6009 10.586C18.7939 10.764 19.3149 11.027 20.1069 11.233C24.8519 12.486 28.7229 16.961 28.9919 21.117C29.4329 28.08 24.6299 31.565 24.6299 31.565H29.5409C31.7139 29.445 33.1459 25.873 33.0549 21.318C32.9689 16.758 30.3769 12.035 26.3669 9.42198Z" fill="#D41318"/>
<path fill-rule="evenodd" clip-rule="evenodd" d="M237.714 27.6306C237.714 27.7106 237.708 27.9066 237.697 28.2416C237.671 28.5776 237.603 28.7266 237.525 28.9026C237.434 29.0626 237.358 29.1326 237.223 29.2216C237.14 29.2716 237.026 29.3026 236.828 29.3026C236.582 29.2986 236.406 29.1716 236.302 29.0136C236.184 28.8496 236.079 28.5456 236.079 27.9736V25.1836H234.618V28.5456C234.618 29.0676 234.664 29.3866 234.745 29.6506C234.817 29.8416 234.998 30.1186 235.137 30.2416C235.242 30.3606 235.446 30.4806 235.608 30.5426C235.725 30.6096 236.04 30.7206 236.339 30.7206C236.66 30.7206 236.881 30.6646 237.127 30.5286C237.457 30.3536 237.51 30.2636 237.76 29.9276V30.5876H239.147V25.1836H237.714V27.6306Z" fill="white"/>
<path fill-rule="evenodd" clip-rule="evenodd" d="M254.376 25.3672C254.221 25.4872 254.014 25.7522 253.807 26.0252V25.1832H252.484V30.5882H253.92V28.9142C253.92 28.0132 253.933 27.3802 254.059 27.0662C254.248 26.5682 254.908 26.5292 255.252 26.5332C255.398 26.5372 255.496 26.5582 255.595 26.5582V25.1772C255.471 25.1052 255.199 25.0972 255.035 25.0972C254.809 25.0972 254.49 25.2602 254.376 25.3672Z" fill="white"/>
<path fill-rule="evenodd" clip-rule="evenodd" d="M249.903 27.6306C249.903 27.7106 249.897 27.9066 249.88 28.2416C249.858 28.5776 249.794 28.7266 249.715 28.9026C249.627 29.0626 249.546 29.1326 249.407 29.2216C249.329 29.2716 249.212 29.3026 249.01 29.3026C248.76 29.2986 248.596 29.1716 248.485 29.0136C248.374 28.8496 248.268 28.5456 248.268 27.9736V25.1836H246.809V28.5456C246.809 29.0676 246.843 29.3866 246.936 29.6506C247.01 29.8416 247.193 30.1186 247.322 30.2416C247.431 30.3606 247.639 30.4806 247.794 30.5426C247.916 30.6096 248.233 30.7206 248.54 30.7206C248.85 30.7206 249.057 30.6646 249.315 30.5286C249.646 30.3536 249.703 30.2636 249.95 29.9276V30.5876H251.332V25.1836H249.903V27.6306Z" fill="white"/>
<path fill-rule="evenodd" clip-rule="evenodd" d="M257.956 27.455C257.956 27.095 258.063 26.788 258.249 26.559C258.446 26.322 258.71 26.207 259.028 26.207C259.354 26.207 259.622 26.312 259.81 26.531C260 26.742 260.088 27.055 260.088 27.455H257.956ZM260.98 26.1222C260.554 25.4512 259.88 25.1162 258.95 25.1162C258.149 25.1162 257.511 25.4142 257.063 26.0012C256.671 26.5172 256.479 27.1682 256.479 27.9592C256.479 28.1892 256.505 28.4422 256.554 28.7002C256.61 28.9612 256.688 29.2172 256.798 29.4532C257.056 29.9862 257.442 30.3532 257.981 30.5702C258.296 30.6822 258.663 30.7352 259.081 30.7352C259.68 30.7352 260.171 30.6072 260.569 30.3272C260.964 30.0512 261.247 29.5602 261.428 29.0432H260.038C259.989 29.1522 259.927 29.2602 259.835 29.3712C259.677 29.5562 259.401 29.6502 259.101 29.6502C258.716 29.6502 258.431 29.5162 258.206 29.2342C258.024 28.9942 257.931 28.6962 257.931 28.3282H261.498C261.498 27.3932 261.335 26.6582 260.98 26.1222Z" fill="white"/>
<path fill-rule="evenodd" clip-rule="evenodd" d="M231.777 29.1295C231.477 29.4075 231.133 29.5155 230.682 29.5155C230.361 29.5155 230.081 29.4525 229.84 29.3175C229.607 29.1985 229.413 29.0305 229.27 28.8105C229.118 28.5955 229.016 28.3415 228.962 28.0605C228.916 27.7785 228.877 27.4425 228.877 27.0435C228.877 26.2825 229.033 25.6935 229.335 25.2815C229.64 24.8645 230.092 24.6615 230.706 24.6615C231.093 24.6615 231.411 24.6615 231.684 24.8575C231.964 25.0645 232.072 25.1765 232.247 25.5005L233.7 25.5055C233.622 25.2295 233.532 24.9985 233.443 24.8105C233.319 24.6055 233.185 24.4055 233.014 24.2505C232.646 23.8985 232.225 23.6675 231.745 23.5465C231.461 23.4685 231.143 23.4355 230.778 23.4355C229.64 23.4355 228.771 23.8015 228.171 24.5415C227.63 25.2145 227.366 26.0755 227.366 27.1465C227.366 28.2415 227.669 29.1165 228.271 29.7555C228.877 30.4066 229.69 30.7345 230.686 30.7345C231.494 30.7345 232.145 30.5466 232.655 30.1776C233.163 29.7936 233.51 29.2215 233.725 28.4545L232.278 28.4565C232.126 28.7635 231.964 28.9805 231.777 29.1295Z" fill="white"/>
<path fill-rule="evenodd" clip-rule="evenodd" d="M245.659 29.6447C245.591 29.6627 245.444 29.6277 245.353 29.6277C245.133 29.6277 245.023 29.4627 245.019 29.3137C245.003 29.1637 244.989 28.9037 244.989 28.5167V26.4007H245.893V25.3577H244.989V23.8267L243.554 23.9367L243.546 25.3577H242.846V26.4007H243.554V28.7007C243.554 29.1467 243.569 29.4627 243.591 29.6507C243.613 29.8377 243.677 30.0157 243.77 30.1927C243.858 30.3697 244.026 30.5037 244.276 30.6077C244.469 30.6817 244.698 30.7207 244.958 30.7207C245.056 30.7207 245.638 30.7357 245.836 30.7107L245.899 29.6387C245.899 29.6387 245.743 29.6607 245.659 29.6447Z" fill="white"/>
<path fill-rule="evenodd" clip-rule="evenodd" d="M240.299 23.3633V30.5883H241.796L241.794 23.3633H240.299Z" fill="white"/>
<mask id="mask1_453_43243" style="mask-type:alpha" maskUnits="userSpaceOnUse" x="0" y="-1" width="263" height="33">
<path fill-rule="evenodd" clip-rule="evenodd" d="M0 31.5995H262.48V-0.000488281H0V31.5995Z" fill="white"/>
</mask>
<g mask="url(#mask1_453_43243)">
<path fill-rule="evenodd" clip-rule="evenodd" d="M54.6968 24.7165H56.1188V23.3945H54.6968V24.7165Z" fill="white"/>
<path fill-rule="evenodd" clip-rule="evenodd" d="M54.6968 30.5706H56.1188V25.1836H54.6968V30.5706Z" fill="white"/>
<path fill-rule="evenodd" clip-rule="evenodd" d="M60.0689 27.2363C60.0429 27.2343 59.8299 27.1723 59.4279 27.0723C59.1309 26.9883 58.9469 26.9443 58.8539 26.9093C58.6809 26.8363 58.5899 26.7203 58.5899 26.5753C58.5899 26.3783 58.7259 26.2483 58.9959 26.1833C59.1279 26.1463 59.3179 26.1313 59.5619 26.1313C59.7729 26.1313 59.9509 26.1543 60.1009 26.2223C60.3389 26.3223 60.4649 26.6233 60.5419 26.8923H61.9069C61.8299 26.2833 61.5079 25.6353 61.1269 25.4313C60.7489 25.2183 60.2109 25.1133 59.5309 25.1133C58.8979 25.1133 58.3739 25.2293 57.9759 25.4743C57.5049 25.7593 57.2699 26.1913 57.2699 26.7633C57.2699 27.3433 57.5369 27.7793 58.0679 28.0703C58.4019 28.2463 59.0799 28.4553 60.1009 28.6723C60.2809 28.7133 60.4249 28.7663 60.5199 28.8303C60.6249 28.8943 60.6749 28.9883 60.6749 29.1303C60.6749 29.3773 60.5199 29.5493 60.2089 29.6503C60.0489 29.6923 59.8649 29.7223 59.6489 29.7223C59.3819 29.7223 59.1489 29.6683 58.9649 29.5523C58.7259 29.4123 58.6469 29.1303 58.5669 28.8103L57.1299 28.8813C57.1519 29.1303 57.1639 29.2713 57.3119 29.6573C57.4119 29.8133 57.5049 29.9613 57.6419 30.0823C57.8749 30.3003 58.1509 30.4553 58.4629 30.5703C58.7799 30.6813 59.1739 30.7353 59.6489 30.7353C60.4759 30.7353 61.1049 30.5473 61.5499 30.1473C61.9199 29.8223 62.0969 29.4183 62.0969 28.9283C62.0969 28.4023 61.8849 28.0073 61.4359 27.7263C61.1659 27.5583 60.7079 27.3903 60.0689 27.2363Z" fill="white"/>
<path fill-rule="evenodd" clip-rule="evenodd" d="M67.2715 25.617C67.0705 25.472 66.9255 25.357 66.7215 25.288C66.5875 25.226 66.3425 25.161 66.1365 25.152C65.8085 25.138 65.5125 25.116 65.2455 25.256C64.9625 25.398 64.7515 25.516 64.5505 25.767V23.394H63.1255V30.625H64.5505V27.924C64.5505 27.433 64.5245 27.285 64.6165 27.044C64.7925 26.623 65.0355 26.44 65.4485 26.447C65.8085 26.451 65.9635 26.533 66.1425 26.81C66.2375 26.976 66.2595 27.197 66.2595 27.762V30.63L67.7165 30.609V27.388C67.7165 26.94 67.7075 26.344 67.7075 26.344C67.5915 26.004 67.5105 25.844 67.2715 25.617Z" fill="white"/>
<path fill-rule="evenodd" clip-rule="evenodd" d="M68.916 24.7254H70.341V23.3994H68.916V24.7254Z" fill="white"/>
<path fill-rule="evenodd" clip-rule="evenodd" d="M68.916 30.5793H70.341V25.1953H68.916V30.5793Z" fill="white"/>
<path fill-rule="evenodd" clip-rule="evenodd" d="M75.4926 25.5341C75.3806 25.4221 75.1756 25.2911 75.0206 25.2361C74.9026 25.1611 74.5826 25.0591 74.2786 25.0591C73.9646 25.0591 73.7596 25.1161 73.5106 25.2471C73.1756 25.4221 73.1196 25.5161 72.8706 25.8491V25.1931L71.4956 25.1951V30.5791H72.9186V28.1351C72.9186 28.0581 72.9296 27.8501 72.9416 27.5191C72.9636 27.1891 73.0306 27.0441 73.1066 26.8711C73.1986 26.7091 73.2766 26.6391 73.4116 26.5551C73.4846 26.5061 73.6056 26.4611 73.8036 26.4691C74.0576 26.4761 74.2166 26.6031 74.3276 26.7541C74.4466 26.9261 74.5536 27.2141 74.5536 27.7981V30.5791H76.0076V27.2241C76.0076 26.7031 75.9686 26.3781 75.8766 26.1281C75.8016 25.9321 75.6186 25.6681 75.4926 25.5341Z" fill="white"/>
<path fill-rule="evenodd" clip-rule="evenodd" d="M52.0588 28.3123C52.0588 28.5993 52.0418 28.8303 52.0068 28.9843C51.9718 29.1523 51.8928 29.2853 51.7628 29.3863C51.6348 29.4983 51.5088 29.5833 51.3718 29.6413C51.2348 29.7053 51.0818 29.7323 50.9258 29.7323C50.6798 29.7323 50.4748 29.6453 50.3218 29.4723C50.1938 29.3203 50.1348 29.1643 50.1348 28.9943C50.1348 28.7713 50.2418 28.5993 50.4588 28.4763C50.5788 28.3953 50.7498 28.3403 50.9618 28.3023L51.4598 28.1973C51.5648 28.1723 51.6538 28.1433 51.7358 28.1343C51.8228 28.1153 51.9238 28.0803 52.0588 28.0283V28.3123ZM53.4476 29.2303L53.4606 27.1323C53.4606 26.4803 53.3656 26.0173 53.1646 25.7513C52.8496 25.3263 52.1906 25.1133 51.1856 25.1133C50.4356 25.1133 49.9016 25.3183 49.5096 25.5923C49.0116 25.9433 48.9636 26.5113 48.9156 27.0393L50.3026 27.0203C50.3186 26.8043 50.3916 26.5943 50.4726 26.5023C50.5946 26.3323 50.7756 26.2013 51.0786 26.2013C51.5196 26.2013 51.8066 26.2833 51.9406 26.4513C52.0186 26.5373 52.0586 26.7073 52.0586 26.9563V27.1013C51.8506 27.1893 51.6286 27.2563 51.3906 27.3143C51.3276 27.3223 51.0946 27.3733 50.6796 27.4493C50.0986 27.5583 49.6776 27.6973 49.4086 27.8653C48.9416 28.1433 48.7056 28.5743 48.7056 29.1523C48.7056 29.6273 48.8776 30.0093 49.2016 30.3113C49.5256 30.5953 49.9596 30.7353 50.4996 30.7353C50.8696 30.7353 51.2246 30.6543 51.5546 30.4723C51.7806 30.3613 51.9876 30.2103 52.1786 30.0203L52.2566 30.3183L52.3596 30.6253H53.7656C53.6386 30.3453 53.5496 30.1263 53.5076 29.9683C53.4706 29.8003 53.4476 29.5523 53.4476 29.2303Z" fill="white"/>
<path fill-rule="evenodd" clip-rule="evenodd" d="M48.9776 23.3994H43.0796V24.6684H45.2896V30.5874H46.7806V24.6684H48.9776V23.3994Z" fill="white"/>
<path fill-rule="evenodd" clip-rule="evenodd" d="M84.8174 28.8808C84.7204 29.0678 84.5514 29.1988 84.3234 29.2768C84.1964 29.3178 84.0484 29.3458 83.8794 29.3498C83.6924 29.3558 83.5474 29.3668 83.4264 29.3668H83.2964H83.1584H81.7944V27.4668H82.9844C83.8174 27.4668 84.3454 27.5458 84.5744 27.7028C84.8064 27.8608 84.9174 28.1148 84.9174 28.4508C84.9174 28.6078 84.8864 28.7468 84.8174 28.8808ZM81.7944 24.6167H82.6514H83.0064C83.3914 24.6167 83.6484 24.6227 83.7604 24.6227C83.8814 24.6377 84.0134 24.6577 84.1464 24.6797C84.2954 24.7257 84.4094 24.8137 84.4974 24.9567C84.6024 25.1097 84.6484 25.2617 84.6484 25.4397C84.6484 25.7707 84.4974 26.0077 84.2074 26.1367C84.0274 26.2167 83.7544 26.2587 83.3914 26.2587H81.7944V24.6167ZM85.0574 26.7539C85.3884 26.6129 85.6364 26.4009 85.8114 26.1309C85.9894 25.8499 86.0744 25.5429 86.0744 25.1999C86.0744 24.9019 85.9994 24.6169 85.8424 24.3559C85.7154 24.1409 85.5344 23.9489 85.3064 23.7849C85.0774 23.6159 84.8134 23.5179 84.5214 23.4809C84.2244 23.4279 83.7984 23.3999 83.2414 23.3999H80.3384V30.5739H82.8194C83.5884 30.5739 84.1344 30.5629 84.4634 30.5289C84.7844 30.5039 85.0574 30.4469 85.2554 30.3609C85.6274 30.2009 85.9234 29.9339 86.1424 29.5609C86.3324 29.2219 86.4284 28.8629 86.4284 28.4889C86.4284 28.1729 86.3584 27.8769 86.2144 27.6189C85.9774 27.1969 85.5884 26.9089 85.0574 26.7539Z" fill="white"/>
<path fill-rule="evenodd" clip-rule="evenodd" d="M103.852 25.2002H102.097L100.437 27.0882V23.4102H99.0083V30.5742H100.427V28.8542L101.091 28.1552L102.436 30.5742H103.973L102.011 27.1602L103.852 25.2002Z" fill="white"/>
<path fill-rule="evenodd" clip-rule="evenodd" d="M90.7119 28.2642C90.7119 28.5602 90.6989 28.7852 90.6609 28.9372C90.6259 29.1102 90.5429 29.2452 90.4199 29.3452C90.2949 29.4552 90.1549 29.5402 90.0279 29.5982C89.8879 29.6602 89.7429 29.6852 89.5829 29.6852C89.3359 29.6852 89.1319 29.6062 88.9789 29.4292C88.8579 29.2852 88.7939 29.1292 88.7939 28.9542C88.7939 28.7332 88.8999 28.5602 89.1149 28.4332C89.2369 28.3622 89.4079 28.3022 89.6209 28.2532L90.1049 28.1552C90.2189 28.1232 90.3179 28.1152 90.3949 28.0952C90.4789 28.0702 90.5759 28.0362 90.7119 27.9902V28.2642ZM92.099 29.2164L92.108 27.1234C92.108 26.4684 92.013 26.0074 91.822 25.7514C91.504 25.3184 90.847 25.1094 89.841 25.1094C89.09 25.1094 88.559 25.3164 88.171 25.5864C87.679 25.9324 87.625 26.5054 87.566 27.0304L88.954 27.0154C88.972 26.7944 89.051 26.5814 89.125 26.4924C89.258 26.3314 89.424 26.1974 89.733 26.1974C90.17 26.1974 90.458 26.2774 90.591 26.4414C90.681 26.5314 90.712 26.7024 90.712 26.9514V27.0974C90.502 27.1754 90.286 27.2514 90.047 27.3044C89.99 27.3164 89.749 27.3614 89.336 27.4394C88.762 27.5464 88.337 27.6894 88.068 27.8504C87.599 28.1344 87.373 28.5654 87.373 29.1394C87.373 29.6174 87.535 30.0014 87.863 30.2884C88.183 30.5784 88.623 30.7264 89.157 30.7264C89.536 30.7264 89.885 30.6364 90.209 30.4664C90.439 30.3484 90.639 30.2014 90.824 30.0094L90.91 30.3024L91.015 30.6004H92.41C92.293 30.3294 92.207 30.1204 92.165 29.9564C92.121 29.7934 92.099 29.5404 92.099 29.2164Z" fill="white"/>
<path fill-rule="evenodd" clip-rule="evenodd" d="M97.302 25.5199C97.186 25.4109 96.986 25.2779 96.835 25.2209C96.707 25.1519 96.399 25.0469 96.093 25.0469C95.772 25.0469 95.571 25.1099 95.317 25.2299C94.993 25.4109 94.933 25.5009 94.68 25.8309V25.1839H93.313V30.5559H94.729V28.1159C94.729 28.0379 94.739 27.8339 94.755 27.5019C94.773 27.1719 94.841 27.0279 94.922 26.8539C95.005 26.7039 95.085 26.6179 95.219 26.5339C95.302 26.4879 95.415 26.4519 95.613 26.4519C95.861 26.4589 96.033 26.5819 96.14 26.7389C96.252 26.9099 96.361 27.1979 96.361 27.7799V30.5559H97.81V27.2039C97.81 26.6839 97.77 26.3599 97.681 26.1059C97.611 25.9239 97.425 25.6409 97.302 25.5199Z" fill="white"/>
<path fill-rule="evenodd" clip-rule="evenodd" d="M108.241 30.4277H109.796V27.3727H113.049V26.1547H109.796V24.4527H113.558V23.2417H108.241V30.4277Z" fill="white"/>
<path fill-rule="evenodd" clip-rule="evenodd" d="M135.752 28.4683C135.68 28.6963 135.552 28.8803 135.383 29.0403C135.262 29.1543 135.136 29.2343 135.002 29.2753C134.861 29.3133 134.735 29.3313 134.605 29.3313C134.306 29.3313 134.051 29.2303 133.85 29.0043C133.592 28.7243 133.459 28.2903 133.459 27.7143C133.459 27.2843 133.522 26.9253 133.667 26.6483C133.856 26.2343 134.187 26.0303 134.655 26.0303C135.01 26.0303 135.305 26.1623 135.526 26.4253C135.749 26.6833 135.863 27.0723 135.863 27.5753C135.863 27.9543 135.825 28.2453 135.752 28.4683ZM135.854 25.7004C135.68 25.5164 135.491 25.3664 135.308 25.2514C134.999 25.0644 134.655 24.9764 134.271 24.9764C133.631 24.9764 133.097 25.1954 132.674 25.6284C132.218 26.1164 131.984 26.7844 131.984 27.6534C131.984 28.5404 132.221 29.2394 132.686 29.7474C133.108 30.2054 133.635 30.4294 134.257 30.4294C134.511 30.4294 134.767 30.3824 135.01 30.2784C135.383 30.1324 135.695 29.8854 135.945 29.5464V30.3184H137.285V23.1094H135.854V25.7004Z" fill="white"/>
<path fill-rule="evenodd" clip-rule="evenodd" d="M118.404 29.031C118.175 29.276 117.864 29.402 117.497 29.402C117.116 29.402 116.815 29.271 116.581 29.005C116.322 28.717 116.175 28.295 116.175 27.75C116.175 27.197 116.322 26.769 116.581 26.482C116.815 26.217 117.116 26.086 117.497 26.086C117.883 26.086 118.198 26.226 118.448 26.511C118.7 26.807 118.821 27.214 118.821 27.729C118.821 28.297 118.688 28.726 118.404 29.031ZM117.497 24.918C116.602 24.918 115.896 25.215 115.378 25.814C114.934 26.332 114.713 26.947 114.713 27.669C114.713 28.763 115.074 29.56 115.796 30.066C116.28 30.404 116.856 30.574 117.507 30.574C118.353 30.574 119.034 30.283 119.552 29.709C120.051 29.163 120.293 28.504 120.293 27.724C120.293 26.976 120.064 26.337 119.591 25.803C119.081 25.215 118.382 24.918 117.497 24.918Z" fill="white"/>
<path fill-rule="evenodd" clip-rule="evenodd" d="M130.617 25.3477C130.508 25.2267 130.299 25.1057 130.147 25.0447C130.025 24.9767 129.702 24.8657 129.394 24.8657C129.077 24.8657 128.867 24.9217 128.617 25.0567C128.283 25.2297 128.225 25.3287 127.975 25.6677V24.9987L126.587 25.0017V30.4297H128.029V27.9687C128.029 27.8927 128.029 27.6897 128.04 27.3507C128.059 27.0157 128.133 26.8677 128.216 26.6957C128.302 26.5337 128.377 26.4587 128.52 26.3677C128.596 26.3227 128.715 26.2837 128.915 26.2837C129.17 26.2867 129.331 26.4207 129.447 26.5817C129.564 26.7427 129.669 27.0407 129.669 27.6287V30.4297H131.142V27.0437C131.142 26.5237 131.094 26.2017 131.009 25.9437C130.934 25.7497 130.751 25.4747 130.617 25.3477Z" fill="white"/>
<path fill-rule="evenodd" clip-rule="evenodd" d="M124.271 27.467C124.271 27.544 124.266 27.754 124.247 28.09C124.234 28.422 124.152 28.568 124.075 28.742C123.988 28.904 123.909 28.981 123.772 29.065C123.69 29.117 123.578 29.153 123.372 29.153C123.127 29.147 122.955 29.014 122.848 28.86C122.733 28.691 122.618 28.395 122.618 27.813V25.002H121.149V28.395C121.149 28.914 121.196 29.235 121.29 29.496C121.356 29.686 121.543 29.961 121.674 30.086C121.783 30.211 121.998 30.336 122.145 30.393C122.27 30.467 122.586 30.571 122.892 30.571C123.216 30.571 123.42 30.514 123.677 30.381C124.011 30.206 124.064 30.114 124.32 29.772V30.43H125.711V25.002H124.271V27.467Z" fill="white"/>
<path fill-rule="evenodd" clip-rule="evenodd" d="M154.109 28.8772C153.874 29.1302 153.575 29.2562 153.208 29.2562C152.831 29.2562 152.536 29.1262 152.29 28.8562C152.024 28.5652 151.899 28.1442 151.899 27.5982C151.899 27.0472 152.024 26.6342 152.29 26.3402C152.536 26.0762 152.831 25.9492 153.208 25.9492C153.59 25.9492 153.901 26.0862 154.157 26.3672C154.404 26.6582 154.524 27.0682 154.524 27.5932C154.524 28.1502 154.385 28.5782 154.109 28.8772ZM153.208 24.7842C152.315 24.7842 151.604 25.0802 151.094 25.6732C150.652 26.1912 150.426 26.8082 150.426 27.5232C150.426 28.6132 150.796 29.4082 151.506 29.9122C151.992 30.2462 152.565 30.4102 153.214 30.4102C154.055 30.4102 154.734 30.1272 155.259 29.5492C155.747 29.0122 155.994 28.3572 155.994 27.5722C155.994 26.8362 155.758 26.2012 155.295 25.6682C154.786 25.0742 154.087 24.7842 153.208 24.7842Z" fill="white"/>
<path fill-rule="evenodd" clip-rule="evenodd" d="M141.601 27.9841C141.601 28.2691 141.575 28.5041 141.543 28.6581C141.504 28.8301 141.432 28.9611 141.298 29.0641C141.174 29.1791 141.038 29.2591 140.911 29.3091C140.77 29.3751 140.619 29.4081 140.461 29.4081C140.207 29.4081 140.007 29.3181 139.859 29.1521C139.733 29.0001 139.674 28.8431 139.674 28.6681C139.674 28.4511 139.779 28.2691 139.997 28.1501C140.119 28.0761 140.288 28.0171 140.506 27.9731L140.993 27.8661C141.104 27.8391 141.2 27.8181 141.276 27.8121C141.354 27.7811 141.467 27.7541 141.601 27.7031V27.9841ZM142.99 28.9032L142.993 26.8072C142.993 26.1522 142.902 25.6892 142.71 25.4252C142.385 24.9952 141.727 24.7842 140.721 24.7842C139.975 24.7842 139.431 24.9922 139.04 25.2632C138.554 25.6132 138.504 26.1912 138.455 26.7072L139.834 26.7002C139.859 26.4762 139.931 26.2632 140.003 26.1702C140.134 26.0072 140.313 25.8732 140.616 25.8732C141.055 25.8732 141.343 25.9532 141.483 26.1282C141.557 26.2132 141.601 26.3782 141.601 26.6332V26.7742C141.381 26.8592 141.169 26.9292 140.929 26.9822C140.866 27.0052 140.629 27.0442 140.207 27.1172C139.639 27.2342 139.215 27.3732 138.942 27.5412C138.481 27.8182 138.248 28.2462 138.248 28.8302C138.248 29.3022 138.414 29.6852 138.733 29.9842C139.061 30.2692 139.493 30.4102 140.039 30.4102C140.412 30.4102 140.762 30.3302 141.1 30.1562C141.318 30.0432 141.529 29.8852 141.702 29.6922L141.789 29.9942L141.896 30.2892H143.295C143.174 30.0152 143.098 29.8072 143.051 29.6502C143.009 29.4802 142.99 29.2342 142.99 28.9032Z" fill="white"/>
<path fill-rule="evenodd" clip-rule="evenodd" d="M146.72 29.3494C146.635 29.3744 146.502 29.3434 146.408 29.3434C146.174 29.3434 146.084 29.1794 146.076 29.0314C146.052 28.8764 146.045 28.6074 146.045 28.2294V26.1014H146.939V25.0594H146.045V23.5264L144.603 23.6364V25.0594H143.898V26.1014H144.61V28.4024C144.61 28.8544 144.612 29.1794 144.638 29.3674C144.662 29.5484 144.72 29.7324 144.817 29.9054C144.91 30.0814 145.074 30.2214 145.324 30.3224C145.526 30.3924 145.746 30.4294 146.012 30.4294C146.114 30.4294 146.696 30.4524 146.887 30.4274L146.946 29.3454C146.946 29.3454 146.794 29.3704 146.72 29.3494Z" fill="white"/>
<path fill-rule="evenodd" clip-rule="evenodd" d="M160.898 25.2001C160.79 25.0881 160.585 24.9641 160.424 24.9051C160.305 24.8381 159.981 24.7271 159.692 24.7271C159.368 24.7271 159.161 24.7841 158.913 24.9221C158.579 25.0911 158.526 25.1891 158.278 25.5191V24.8611L156.893 24.8651V30.2561H158.329V27.8121C158.329 27.7291 158.332 27.5231 158.34 27.1971C158.364 26.8631 158.436 26.7091 158.512 26.5421C158.604 26.3801 158.678 26.3011 158.811 26.2221C158.897 26.1811 159.007 26.1371 159.206 26.1371C159.456 26.1461 159.626 26.2691 159.735 26.4291C159.85 26.5951 159.954 26.8881 159.954 27.4671V30.2561H161.412V26.8921C161.412 26.3671 161.372 26.0611 161.286 25.7971C161.208 25.6061 161.032 25.3321 160.898 25.2001Z" fill="white"/>
<path fill-rule="evenodd" clip-rule="evenodd" d="M148.104 30.2557H149.532V24.8647H148.104V30.2557Z" fill="white"/>
<path fill-rule="evenodd" clip-rule="evenodd" d="M148.104 24.4107H149.532V23.0947H148.104V24.4107Z" fill="white"/>
<path fill-rule="evenodd" clip-rule="evenodd" d="M200.376 26.909C200.353 26.899 200.146 26.84 199.739 26.738C199.439 26.666 199.247 26.61 199.167 26.575C198.978 26.506 198.893 26.396 198.893 26.234C198.893 26.041 199.028 25.912 199.298 25.844C199.432 25.814 199.626 25.793 199.88 25.793C200.082 25.793 200.263 25.819 200.411 25.887C200.649 25.989 200.776 26.283 200.851 26.558H202.221C202.151 25.945 201.826 25.301 201.444 25.091C201.063 24.871 200.521 24.771 199.849 24.771C199.206 24.771 198.683 24.883 198.272 25.135C197.804 25.422 197.564 25.849 197.564 26.43C197.564 27.012 197.831 27.449 198.382 27.744C198.704 27.924 199.384 28.124 200.411 28.352C200.6 28.394 200.741 28.448 200.835 28.51C200.937 28.567 200.993 28.668 200.993 28.801C200.993 29.062 200.835 29.234 200.521 29.325C200.367 29.375 200.173 29.402 199.954 29.402C199.689 29.402 199.464 29.346 199.27 29.234C199.028 29.088 198.95 28.81 198.878 28.495L197.428 28.565C197.454 28.801 197.464 28.937 197.618 29.325C197.712 29.494 197.804 29.641 197.944 29.763C198.169 29.98 198.446 30.137 198.764 30.254C199.095 30.363 199.49 30.428 199.954 30.428C200.784 30.428 201.425 30.222 201.867 29.827C202.241 29.498 202.421 29.1 202.421 28.607C202.421 28.086 202.195 27.68 201.75 27.392C201.483 27.228 201.028 27.061 200.376 26.909Z" fill="white"/>
<path fill-rule="evenodd" clip-rule="evenodd" d="M190.874 25.1952C190.728 25.3262 190.512 25.5872 190.308 25.8692V25.0162H188.979V30.4272H190.419V28.7472C190.419 27.8502 190.433 27.2242 190.552 26.8992C190.75 26.4062 191.411 26.3592 191.749 26.3672C191.897 26.3712 192.003 26.3962 192.101 26.4002V25.0102C191.966 24.9382 191.706 24.9312 191.549 24.9312C191.306 24.9312 191.001 25.0912 190.874 25.1952Z" fill="white"/>
<path fill-rule="evenodd" clip-rule="evenodd" d="M183.6 27.5725L184.621 24.8955L185.657 27.5725H183.6ZM183.833 23.2153L180.911 30.4273H182.526L183.147 28.7883H186.135L186.784 30.4273H188.436L185.432 23.2153H183.833Z" fill="white"/>
<path fill-rule="evenodd" clip-rule="evenodd" d="M195.754 29.3182C195.527 29.3182 195.438 29.1632 195.422 29.0132C195.402 28.8632 195.381 28.5952 195.381 28.2072V26.0762H196.289V25.0332H195.381V23.4922L193.949 23.5952L193.945 25.0332H193.233V26.0762H193.949V28.3942C193.949 28.8432 193.965 29.1632 193.984 29.3492C194.012 29.5392 194.069 29.7222 194.156 29.8902C194.252 30.0742 194.42 30.2112 194.674 30.3152C194.859 30.3882 195.092 30.4272 195.365 30.4272C195.457 30.4272 196.043 30.4432 196.238 30.4172L196.298 29.3252C196.298 29.3252 196.148 29.3492 196.066 29.3452C195.99 29.3672 195.853 29.3182 195.754 29.3182Z" fill="white"/>
<path fill-rule="evenodd" clip-rule="evenodd" d="M167.34 24.5623C167.34 24.4633 167.375 24.3723 167.444 24.2873C167.516 24.2043 167.641 24.1653 167.824 24.1673C168.008 24.1743 168.139 24.1753 168.219 24.1753V23.0573C168.095 23.0483 167.994 23.0422 167.924 23.0383C167.853 23.0333 167.772 23.0312 167.686 23.0312C166.914 23.0312 166.43 23.1852 166.227 23.4972C166.035 23.7142 165.941 24.1012 165.941 24.6643V25.0033H165.178V25.9822H165.966V30.2302H167.34V25.9822H168.243V25.0033H167.34V24.5623Z" fill="white"/>
<path fill-rule="evenodd" clip-rule="evenodd" d="M172.419 28.834C172.2 29.121 171.883 29.264 171.475 29.264C171.062 29.264 170.747 29.121 170.524 28.834C170.304 28.548 170.194 28.14 170.194 27.609C170.194 27.079 170.304 26.67 170.524 26.385C170.747 26.1 171.062 25.957 171.475 25.957C171.883 25.957 172.2 26.1 172.419 26.385C172.64 26.67 172.749 27.079 172.749 27.609C172.749 28.14 172.64 28.548 172.419 28.834ZM171.478 24.7871C170.56 24.7871 169.873 25.0641 169.421 25.6221C168.97 26.1811 168.743 26.8401 168.743 27.6001C168.743 28.3751 168.97 29.0371 169.421 29.5861C169.873 30.1351 170.56 30.4081 171.478 30.4081C172.398 30.4081 173.083 30.1351 173.536 29.5861C173.987 29.0371 174.214 28.3751 174.214 27.6001C174.214 26.8401 173.987 26.1811 173.536 25.6221C173.083 25.0641 172.398 24.7871 171.478 24.7871Z" fill="white"/>
<path fill-rule="evenodd" clip-rule="evenodd" d="M178.119 24.8242C177.7 24.8242 177.355 24.9332 177.093 25.1492C176.932 25.2772 176.744 25.5192 176.524 25.8732V24.9512H175.203V30.2302H176.602V27.7112C176.602 27.2832 176.655 26.9672 176.765 26.7652C176.958 26.4042 177.338 26.2242 177.903 26.2242C177.944 26.2242 178.002 26.2262 178.071 26.2262C178.14 26.2282 178.218 26.2322 178.306 26.2362V24.8382C178.243 24.8322 178.204 24.8302 178.185 24.8282C178.169 24.8262 178.145 24.8242 178.119 24.8242Z" fill="white"/>
<path fill-rule="evenodd" clip-rule="evenodd" d="M209.937 28.3246C209.924 28.7916 209.791 29.1136 209.534 29.2906C209.276 29.4656 208.994 29.5556 208.689 29.5556C208.497 29.5556 208.333 29.5046 208.196 29.3966C208.062 29.2936 207.995 29.1176 207.995 28.8816C207.995 28.6136 208.106 28.4136 208.327 28.2856C208.459 28.2126 208.67 28.1506 208.971 28.0956L209.289 28.0356C209.45 28.0076 209.575 27.9736 209.665 27.9396C209.756 27.9046 209.847 27.8616 209.937 27.8076V28.3246ZM211.34 29.6576C211.334 29.4176 211.332 29.2116 211.332 29.0416V26.6056C211.332 25.9696 211.103 25.5356 210.647 25.3126C210.188 25.0886 209.668 24.9766 209.081 24.9766C208.177 24.9766 207.539 25.2076 207.167 25.6666C206.932 25.9596 206.802 26.3346 206.774 26.7956H208.124C208.153 26.5896 208.219 26.4286 208.32 26.3106C208.459 26.1506 208.697 26.0706 209.032 26.0706C209.329 26.0706 209.553 26.1116 209.709 26.1936C209.864 26.2776 209.942 26.4266 209.942 26.6446C209.942 26.8226 209.839 26.9536 209.639 27.0416C209.526 27.0906 209.338 27.1306 209.081 27.1646L208.599 27.2196C208.057 27.2876 207.643 27.3996 207.362 27.5586C206.85 27.8526 206.595 28.3246 206.595 28.9776C206.595 29.4826 206.756 29.8726 207.073 30.1476C207.39 30.4236 207.791 30.5606 208.28 30.5606C208.661 30.5606 209.002 30.4726 209.307 30.3036C209.559 30.1566 209.785 29.9766 209.981 29.7686C209.99 29.8886 210.002 29.9966 210.018 30.0886C210.034 30.1796 210.064 30.2786 210.107 30.3816H211.633V30.1786C211.541 30.1366 211.471 30.0846 211.424 30.0206C211.379 29.9556 211.35 29.8366 211.34 29.6576Z" fill="white"/>
<path fill-rule="evenodd" clip-rule="evenodd" d="M215.51 24.9766C215.071 24.9766 214.708 25.0816 214.424 25.2926C214.264 25.4106 214.095 25.6076 213.916 25.8786V25.1026H212.556V30.3806H213.957V27.5276C213.957 27.1996 214.001 26.9296 214.092 26.7206C214.263 26.3206 214.582 26.1216 215.047 26.1216C215.426 26.1216 215.682 26.2576 215.816 26.5296C215.892 26.6806 215.927 26.8926 215.927 27.1736V30.3806H217.376V26.8236C217.376 26.1606 217.201 25.6876 216.855 25.4026C216.506 25.1206 216.057 24.9766 215.51 24.9766Z" fill="white"/>
<path fill-rule="evenodd" clip-rule="evenodd" d="M221.863 28.9756C221.659 29.2696 221.36 29.4146 220.967 29.4146C220.572 29.4146 220.276 29.2696 220.084 28.9726C219.889 28.6816 219.793 28.2876 219.793 27.7946C219.793 27.3396 219.889 26.9556 220.081 26.6486C220.271 26.3376 220.57 26.1846 220.976 26.1846C221.243 26.1846 221.477 26.2696 221.679 26.4416C222.009 26.7186 222.171 27.1866 222.171 27.8396C222.171 28.3056 222.069 28.6836 221.863 28.9756ZM222.134 25.7703C221.977 25.5233 221.772 25.3293 221.522 25.1893C221.269 25.0453 220.981 24.9763 220.659 24.9763C219.957 24.9763 219.391 25.2343 218.972 25.7513C218.553 26.2673 218.343 26.9803 218.343 27.8843C218.343 28.6673 218.557 29.3093 218.983 29.8103C219.413 30.3093 219.937 30.5603 220.563 30.5603C220.942 30.5603 221.259 30.4913 221.514 30.3493C221.77 30.2083 221.999 29.9843 222.197 29.6773V30.3803H223.559V23.2593H222.134V25.7703Z" fill="white"/>
<path fill-rule="evenodd" clip-rule="evenodd" d="M57.0987 16.4548V12.7128C57.0987 12.5198 56.9957 12.4238 56.7917 12.4238H46.6987C46.4947 12.4238 46.3987 12.5198 46.4107 12.7128V16.4548H57.0987ZM46.4107 19.441H44.3487V11.146C44.3487 10.685 44.5787 10.455 45.0397 10.455H58.4317C58.9177 10.455 59.1617 10.692 59.1617 11.165V19.441H57.0987V18.424H46.4107V19.441ZM43.1977 9.41701L42.6797 7.38101L44.3497 7.30501C45.7327 5.56301 47.0257 3.64901 48.2297 1.56201L49.9387 2.71501C49.2727 3.95701 48.3257 5.42901 47.0967 7.13201L56.1607 6.61301L53.7027 4.36601L55.1617 2.94501C57.5307 5.04501 59.5017 7.00401 61.0767 8.82201L59.5217 10.127L57.9657 8.41801L43.1977 9.41701Z" fill="white"/>
<path fill-rule="evenodd" clip-rule="evenodd" d="M74.8252 9.19426V11.7673C74.7992 13.2533 74.5682 14.5393 74.1322 15.6273C73.5542 16.9853 72.6442 18.3543 71.4022 19.7373L69.8462 18.2973C71.1642 16.9403 72.0162 15.7363 72.4002 14.6863C72.7332 13.7903 72.9062 12.8173 72.9192 11.7673V3.12126C72.9062 2.67326 73.0792 2.44826 73.4392 2.44826C75.7582 2.43626 77.8462 2.27626 79.7032 1.96826L80.3362 3.88926C78.7232 4.14526 76.9892 4.29226 75.1322 4.33026C74.9142 4.33026 74.8122 4.44526 74.8252 4.67626V7.28826H80.5462V9.19426H78.8562V19.7563H76.8882V9.19426H74.8252ZM66.9812 2.06926H68.9502V3.25726H72.0232V5.06926H63.4092V3.25726H66.9812V2.06926ZM68.7632 19.7405H66.8562V15.0935C66.0242 16.3615 65.1282 17.4365 64.1682 18.3195L62.5542 17.2825C64.0392 16.0405 65.2302 14.7095 66.1262 13.2885H63.0922V11.4755H66.8562V10.1315H63.1692V8.3195H65.3772C64.9932 7.3465 64.6222 6.5915 64.2632 6.0535L65.8582 5.2665C66.2802 5.9325 66.6902 6.7835 67.0872 7.8205L65.9342 8.3195H68.2812C68.8712 7.0905 69.2812 6.0535 69.5122 5.2085L71.2402 5.8615C71.0352 6.6045 70.7342 7.4235 70.3382 8.3195H72.1042V10.1315H68.7632V11.4755H72.1042V13.2885H69.5312C70.2992 14.0305 71.0482 14.8115 71.7782 15.6315L70.3952 16.9365L68.7632 14.9785V19.7405Z" fill="white"/>
<path fill-rule="evenodd" clip-rule="evenodd" d="M93.1597 7.75342V9.53442H97.5977C97.9307 9.52242 98.0967 9.35642 98.0967 9.03642V7.75342H93.1597ZM98.0964 5.9415V4.4915C98.0844 4.2085 97.9364 4.0655 97.6554 4.0655H93.6204C93.3004 4.0655 93.1464 4.2205 93.1594 4.5295V5.9415H98.0964ZM90.6526 13.0062L89.5766 15.9632L88.0986 15.2532C88.3796 14.6262 88.7126 13.6782 89.0976 12.4102L90.6526 13.0062ZM86.1283 11.8155H83.4393V10.0035H86.1283V8.3785H84.2073V6.7565L84.1113 6.7955L82.8633 5.2215C84.2463 4.5045 85.4753 3.4935 86.5523 2.1875H87.9573L91.2793 4.6455L89.9733 6.1815L87.4753 4.0885C86.6153 5.1125 85.6473 5.9395 84.5723 6.5665H89.8393V8.3785H88.0343V10.0035H90.5313V11.8155H88.0343V16.7715L90.3013 16.1565L90.6623 18.0195C90.4973 18.0195 90.3703 18.0575 90.2823 18.1345L91.2533 17.9225V2.8095C91.2653 2.4395 91.4513 2.2535 91.8103 2.2535H99.4263C99.8103 2.2665 100.003 2.4515 100.003 2.8085V10.7535C100.003 11.1495 99.8043 11.3475 99.4073 11.3475H96.3693C96.4853 12.4995 96.6583 13.4205 96.8883 14.1125C98.0293 13.1655 98.9133 12.3395 99.5413 11.6355L100.809 12.9795C100.054 13.8505 99.0613 14.7725 97.8303 15.7445C98.7013 16.7695 99.8553 17.6915 101.289 18.5105L99.6383 19.8545C98.5483 19.1115 97.7083 18.4455 97.1193 17.8575C95.5433 16.2185 94.6593 14.0485 94.4663 11.3475H93.1593V17.4425C94.1703 17.1355 95.0413 16.8285 95.7713 16.5215L96.3663 18.3455C94.8043 19.0245 92.8543 19.5935 90.5153 20.0545L90.0173 18.1915L83.5163 19.5365L83.2853 17.6735L86.1283 17.2125V11.8155ZM84.5844 12.3916C85.0194 13.4036 85.3774 14.6776 85.6594 16.2136L83.8544 16.6546C83.5344 15.0676 83.1954 13.8256 82.8364 12.9296L84.5844 12.3916Z" fill="white"/>
<path fill-rule="evenodd" clip-rule="evenodd" d="M110.257 4.67701H120.339V2.70801H110.257V4.67701ZM109.554 9.20775V7.23975H120.932V9.20775H118.551V17.9268C118.551 18.2467 118.475 18.5087 118.322 18.7137C118.13 18.9697 117.863 19.1817 117.519 19.3477C116.357 19.8857 114.431 19.8407 111.743 19.2137V17.1587L112.78 17.4467C114.508 17.8818 115.705 17.9078 116.371 17.5227C116.512 17.4207 116.583 17.2677 116.583 17.0627V9.20775H109.554ZM108.317 2.71775C107.28 5.07375 106.083 6.84675 104.726 8.03775L103.074 6.84675C104.623 5.47675 105.763 3.85175 106.493 1.96875L108.317 2.71775ZM104.423 13.607L102.868 12.301C104.724 10.88 106.155 9.11298 107.162 7.00098L108.927 7.88398C108.466 8.74198 108.018 9.50398 107.583 10.169V19.502H105.614V12.57L104.423 13.607Z" fill="white"/>
<path fill-rule="evenodd" clip-rule="evenodd" d="M132.261 13.0577C134.105 11.2147 135.41 8.92966 136.179 6.20166H128.708C129.029 7.58466 129.438 8.76266 129.937 9.73566C130.565 11.0157 131.339 12.1227 132.261 13.0577ZM123.733 6.20175V4.13975H131.337V2.21875H133.4V4.13975H140.966V6.20175H138.258C137.605 8.44275 136.76 10.3698 135.723 11.9827C135.339 12.5457 134.686 13.3457 133.764 14.3827C136.184 16.1627 138.777 17.4237 141.542 18.1657L140.159 20.0287C137.048 18.9917 134.397 17.5648 132.204 15.7458L130.262 17.1488C128.943 18.0578 126.99 19.0168 124.405 20.0287L123.118 18.1657C125.896 17.2827 128.437 16.0158 130.742 14.3638C128.77 12.2008 127.394 9.47975 126.613 6.20175H123.733Z" fill="white"/>
<path fill-rule="evenodd" clip-rule="evenodd" d="M153.245 16.7485C153.245 17.1455 153.29 17.4015 153.38 17.5165C153.546 17.7085 153.84 17.8045 154.263 17.8045H157.451C158.129 17.7795 158.584 17.5935 158.814 17.2485C159.006 16.9025 159.083 15.8395 159.045 14.0605L161.119 14.3675C161.157 16.9285 160.977 18.4595 160.581 18.9615C160.248 19.3725 159.928 19.6235 159.621 19.7125C159.288 19.8155 158.788 19.8675 158.123 19.8675H153.225C152.84 19.8675 152.467 19.7645 152.107 19.5585C151.786 19.3915 151.549 19.1475 151.394 18.8265C151.24 18.4665 151.17 18.1255 151.182 17.8045V1.99951H153.245V8.93251C155.498 7.85751 157.515 6.35951 159.294 4.43851L160.773 5.85951C158.174 8.38251 155.665 10.1425 153.245 11.1415V16.7485ZM144.989 11.8237L143.088 10.9017C145.16 8.23874 146.521 5.27474 147.172 2.01074L149.166 2.45174C148.73 4.20674 148.257 5.72374 147.745 7.00374V19.6587H145.776V10.7677L144.989 11.8237Z" fill="white"/>
<path fill-rule="evenodd" clip-rule="evenodd" d="M173.895 13.823L172.627 12.786C173.344 12.313 173.953 11.557 174.452 10.52L173.3 9.42605L174.471 8.35005L174.97 8.84905L175.085 7.81205H173.472V6.21905H175.124V5.37305H176.718V6.21905H178.915C179.284 6.21905 179.468 6.41005 179.468 6.79305V12.059L179.526 12.346C179.577 12.436 179.647 12.487 179.737 12.5H179.89C180.005 12.487 180.088 12.436 180.14 12.346C180.216 12.244 180.255 12.09 180.255 11.885V9.69605L181.849 9.96505C181.797 11.552 181.727 12.506 181.638 12.826C181.561 13.21 181.408 13.517 181.177 13.748C180.934 13.978 180.677 14.094 180.409 14.094H179.141C178.86 14.081 178.623 14.011 178.431 13.883C178.06 13.602 177.874 13.168 177.874 12.581V8.11905C177.862 7.91505 177.791 7.81205 177.665 7.81205H176.671C176.543 8.74705 176.404 9.52805 176.251 10.155L177.836 11.922L176.595 12.902L175.621 11.768C175.2 12.524 174.624 13.209 173.895 13.823ZM171.752 8.87512H170.562V9.12612C170.562 9.23012 170.62 9.28113 170.735 9.28113H171.598C171.663 9.28113 171.713 9.15812 171.752 8.91313V8.87512ZM176.228 17.3119H170.813L170.255 18.1959L176.67 17.9459L176.075 17.5429L176.228 17.3119ZM164.763 20.001L164.379 18.426L168.163 18.292L168.892 17.312H164.053V15.875H181.202V17.312H178.916C179.71 17.876 180.402 18.413 180.991 18.926L179.8 20.27L178.628 19.348L164.763 20.001ZM164.184 14.653L163.915 13.084L167.468 12.777V12.031H164.587V10.75H164.318L163.876 9.242C164.708 9.255 165.317 9.165 165.701 8.971L165.855 8.875H163.819V7.594H167.562V6.937H164.758V5.656H167.562V5.125H169.374V5.656H171.91V6.937H169.374V7.594H172.447V8.839H173.138C172.972 9.669 172.792 10.16 172.601 10.313C172.357 10.479 172.082 10.562 171.775 10.562H169.912C169.491 10.562 169.281 10.351 169.281 9.929V8.875H167.68L167.641 8.952C167.154 9.906 166.162 10.505 164.664 10.75H167.468V9.674H169.124V10.75H171.66V12.031H169.124V12.6L172.101 12.316L172.236 13.816L169.931 14.062H177.958V15.437H167.659V14.308L164.184 14.653ZM181.42 2.56201V4.21901H176.812V4.84401H174.999V4.21901H170.281V4.84401H168.468V4.21901H163.744V2.56201H168.468V2.06201H170.281V2.56201H174.999V2.06201H176.812V2.56201H181.42Z" fill="white"/>
<path fill-rule="evenodd" clip-rule="evenodd" d="M196.881 4.5805H201.432V2.7685H196.881V4.5805ZM196.118 8.5175V6.7055H201.672V8.5175H200.559V18.1775C200.559 18.4845 200.482 18.7405 200.328 18.9455C200.135 19.1755 199.878 19.3735 199.557 19.5405C198.775 19.8735 197.577 19.8285 195.964 19.4065V17.4285C197.193 17.8635 198.018 17.9855 198.441 17.7925C198.582 17.7035 198.653 17.5565 198.653 17.3515V8.5175H196.118ZM195.497 8.80273V14.5447C195.497 14.8397 195.638 14.9867 195.921 14.9867H197.215V16.6427H194.645C194.108 16.6427 193.84 16.3697 193.84 15.8237V8.80273H195.497ZM195.153 1.94629L196.266 4.28929L194.577 4.90429C194.256 4.12329 193.898 3.38029 193.502 2.67629L195.153 1.94629ZM188.959 6.9554V5.1424H191.34V2.1084H193.247V5.1424H195.743V6.9554H193.247V19.6294H191.34V6.9554H188.959ZM190.653 8.80273V10.9727C190.525 14.0587 190.188 16.3367 189.641 17.8097L187.803 17.5207C188.495 15.6907 188.84 13.5077 188.84 10.9727V8.80273H190.653ZM188.316 2.5805C187.445 4.8085 186.312 6.6325 184.917 8.0535C184.468 7.4395 184.033 6.9915 183.611 6.7095C184.929 5.3775 185.883 3.7455 186.472 1.8125L188.316 2.5805ZM184.759 12.9126C184.363 12.2596 183.972 11.7726 183.588 11.4526C185.241 10.0826 186.497 8.36062 187.357 6.28662L189.105 7.24762C188.618 8.15662 188.061 9.07162 187.434 9.99362V19.6526H185.528V12.2206L184.759 12.9126Z" fill="white"/>
<path fill-rule="evenodd" clip-rule="evenodd" d="M209.197 10.7896H216.728V10.0396H209.197V10.7896ZM209.197 8.28955H216.728V7.41455H209.197V8.28955ZM209.197 5.66443H216.728V4.75843H209.197V5.66443ZM213.916 14.3205H217.007L215.279 12.6015H210.179C209.59 13.2715 209.04 13.8445 208.528 14.3205H211.947V12.9765H213.916V14.3205ZM211.947 16.1335H207.983V14.7895C206.765 15.7495 205.773 16.4025 205.005 16.7475L203.776 15.1355C205.274 14.4185 206.542 13.5745 207.579 12.6015H204.141V10.7895H207.291V4.7585H204.448V2.9455H207.291V2.0625H209.197V2.9455H216.728V2.0625H218.634V2.9455H221.438V4.7585H218.634V10.7895H221.669V12.6015H217.905C218.967 13.5495 220.401 14.3685 222.206 15.0585L220.862 16.7095C219.607 16.0955 218.596 15.5135 217.829 14.9625V16.1335H213.916V17.7585H220.906V19.5705H205.072V17.7585H211.947V16.1335Z" fill="white"/>
<path fill-rule="evenodd" clip-rule="evenodd" d="M237.35 6.98525C235.263 5.73025 233.835 4.79625 233.068 4.18125C231.8 5.23125 230.488 6.14725 229.131 6.92725L229.035 6.98525H237.35ZM238.311 13.0612L240.039 14.0022L238.292 17.5162H241.269V19.4853H224.82V17.5162H227.951C227.22 16.0062 226.548 14.8472 225.934 14.0413L227.623 13.0042C228.379 13.9892 229.128 15.2702 229.871 16.8442L228.642 17.5162H232.156V12.7972H224.589V10.8293H232.156V8.95425H227.585V7.72525C226.613 8.18625 225.697 8.53825 224.839 8.78125L223.745 6.82225C226.869 5.77225 229.704 4.13325 232.251 1.90625H233.838C236.782 4.24925 239.643 5.86225 242.421 6.74525L241.327 8.70425C240.583 8.49925 239.746 8.17925 238.811 7.74425V8.95425H234.124V10.8293H241.576V12.7972H234.124V17.5162H236.064C237.204 15.5062 237.953 14.0223 238.311 13.0612Z" fill="white"/>
<path fill-rule="evenodd" clip-rule="evenodd" d="M256.865 10.8059H259.016L259.093 10.7099V8.41391C259.093 8.36291 259.067 8.33691 259.016 8.33691H256.674L257.844 9.02591C257.589 9.58791 257.261 10.1809 256.865 10.8059V10.8059ZM256.119 8.33691H254.218V10.8059H254.583C255.261 9.84891 255.773 9.02591 256.119 8.33691V8.33691ZM253.301 3.83105L251.361 4.86905H255.298L253.301 3.83105ZM250.101 10.8064H252.405V8.3374H250.293C250.6 8.8864 250.888 9.5694 251.157 10.3854L250.101 10.8064ZM248.905 17.4622H257.936V16.7752H248.905V17.4622ZM257.936 15.1812V14.8552C257.936 14.6772 257.84 14.5872 257.647 14.5872H249.175C248.982 14.6002 248.892 14.6892 248.905 14.8552V15.1812H257.936ZM249.761 8.3374H247.494C247.442 8.3374 247.424 8.3634 247.436 8.4144V10.7104C247.424 10.7624 247.442 10.7934 247.494 10.8064H249.3C249.017 10.0024 248.742 9.3714 248.473 8.9114L249.761 8.3374ZM248.905 20.0982H246.936V13.5632C246.936 13.1422 247.147 12.9312 247.57 12.9312H259.252C259.687 12.9312 259.905 13.1422 259.905 13.5632V20.0982H257.936V19.1192H248.905V20.0982ZM260.655 12.4001H245.854C245.701 12.4001 245.624 12.3171 245.624 12.1511V6.97314C245.624 6.82014 245.701 6.74414 245.854 6.74414H260.655C260.822 6.74414 260.905 6.82014 260.905 6.97314V12.1511C260.905 12.3171 260.822 12.4001 260.655 12.4001V12.4001ZM256.834 6.40025H249.671V5.61225L249.133 5.80525C247.507 6.38125 246.053 6.73325 244.773 6.86125L244.121 5.05625C247.091 4.56925 249.921 3.51925 252.609 1.90625H253.972C256.879 3.58325 259.715 4.63925 262.48 5.07525L261.789 6.88025C260.61 6.73925 259.157 6.35525 257.429 5.72725L256.834 5.51625V6.40025Z" fill="white"/>
</g>
</svg>
