<svg width="35" height="34" viewBox="0 0 35 34" fill="none" xmlns="http://www.w3.org/2000/svg">
<path fill-rule="evenodd" clip-rule="evenodd" d="M22.3063 1.35999H12.694C10.1347 1.35999 7.60975 2.25897 5.58969 4.01628V2.58178C5.58969 1.90739 5.04292 1.35999 4.36789 1.35999C3.6935 1.35999 3.1461 1.90739 3.1461 2.58178V7.38764C3.1461 8.06266 3.69788 8.60944 4.36789 8.60944H9.17375C9.84877 8.60944 10.3955 8.06266 10.3955 7.38764C10.3955 6.71324 9.84877 6.16584 9.17375 6.16584H6.86279C8.40927 4.67504 10.4969 3.80358 12.694 3.80358H22.3063C26.9327 3.80358 30.6963 7.56719 30.6963 12.1941V21.8065C30.6963 26.4322 26.9327 30.1964 22.3063 30.1964H12.694C8.06769 30.1964 4.30408 26.4322 4.30408 21.8065V17C4.30408 16.325 3.75668 15.7782 3.08229 15.7782C2.40726 15.7782 1.85986 16.325 1.85986 17V21.8065C1.85986 27.7797 6.72015 32.64 12.694 32.64H22.3063C28.2802 32.64 33.1399 27.7797 33.1399 21.8065V12.1941C33.1399 6.22027 28.2802 1.35999 22.3063 1.35999ZM18.7223 9.7912V16.4939L23.1703 20.9419C23.6476 21.4192 23.6476 22.1931 23.1703 22.6698C22.693 23.1471 21.9191 23.1471 21.4418 22.6698L16.6365 17.8639C16.4069 17.635 16.2781 17.324 16.2781 17V9.7912C16.2781 9.11617 16.8255 8.56877 17.4999 8.56877C18.1749 8.56877 18.7223 9.11617 18.7223 9.7912Z" fill="white"/>
<mask id="mask0_402_25126" style="mask-type:alpha" maskUnits="userSpaceOnUse" x="1" y="1" width="33" height="32">
<path fill-rule="evenodd" clip-rule="evenodd" d="M22.3063 1.35999H12.694C10.1347 1.35999 7.60975 2.25897 5.58969 4.01628V2.58178C5.58969 1.90739 5.04292 1.35999 4.36789 1.35999C3.6935 1.35999 3.1461 1.90739 3.1461 2.58178V7.38764C3.1461 8.06266 3.69788 8.60944 4.36789 8.60944H9.17375C9.84877 8.60944 10.3955 8.06266 10.3955 7.38764C10.3955 6.71324 9.84877 6.16584 9.17375 6.16584H6.86279C8.40927 4.67504 10.4969 3.80358 12.694 3.80358H22.3063C26.9327 3.80358 30.6963 7.56719 30.6963 12.1941V21.8065C30.6963 26.4322 26.9327 30.1964 22.3063 30.1964H12.694C8.06769 30.1964 4.30408 26.4322 4.30408 21.8065V17C4.30408 16.325 3.75668 15.7782 3.08229 15.7782C2.40726 15.7782 1.85986 16.325 1.85986 17V21.8065C1.85986 27.7797 6.72015 32.64 12.694 32.64H22.3063C28.2802 32.64 33.1399 27.7797 33.1399 21.8065V12.1941C33.1399 6.22027 28.2802 1.35999 22.3063 1.35999ZM18.7223 9.7912V16.4939L23.1703 20.9419C23.6476 21.4192 23.6476 22.1931 23.1703 22.6698C22.693 23.1471 21.9191 23.1471 21.4418 22.6698L16.6365 17.8639C16.4069 17.635 16.2781 17.324 16.2781 17V9.7912C16.2781 9.11617 16.8255 8.56877 17.4999 8.56877C18.1749 8.56877 18.7223 9.11617 18.7223 9.7912Z" fill="white"/>
</mask>
<g mask="url(#mask0_402_25126)">
</g>
</svg>
