<svg width="29" height="28" viewBox="0 0 29 28" fill="none" xmlns="http://www.w3.org/2000/svg">
<path fill-rule="evenodd" clip-rule="evenodd" d="M26.197 2.28002C24.985 1.06745 23.3733 0.400024 21.659 0.400024C19.9447 0.400024 18.333 1.06745 17.1216 2.28002L14.5279 4.87317C13.3159 6.08517 12.6484 7.69688 12.6484 9.41117C12.6484 9.96974 12.7264 10.5149 12.8639 11.0417L14.9622 8.94288C15.0664 8.0166 15.4756 7.15831 16.1442 6.48917L18.7379 3.89602C19.5179 3.11545 20.5559 2.68574 21.6593 2.68574C22.7627 2.68574 23.8004 3.11545 24.5807 3.89602C25.361 4.67688 25.7913 5.71431 25.7913 6.81802C25.7913 7.92117 25.361 8.9586 24.5804 9.73945L21.9873 12.3326C21.2924 13.028 20.393 13.4426 19.4242 13.5257L17.3561 15.5937C17.9076 15.7449 18.4802 15.8286 19.0659 15.8286C20.7801 15.8286 22.3919 15.1612 23.6039 13.9486L26.1964 11.3555C27.409 10.1435 28.077 8.53174 28.077 6.81802C28.077 5.10374 27.409 3.49202 26.197 2.28002ZM13.7736 19.1763C13.691 20.1446 13.2759 21.044 12.5804 21.7395L9.9873 24.3326C9.2073 25.1132 8.16987 25.5429 7.06587 25.5429C5.96187 25.5429 4.92472 25.1132 4.14387 24.3326C3.36387 23.5517 2.93415 22.5143 2.93415 21.4112C2.93415 20.3075 3.36387 19.27 4.14387 18.4892L6.73758 15.896C7.40615 15.2269 8.26444 14.818 9.19073 14.714L11.2902 12.6152C10.7633 12.478 10.2176 12.3997 9.65901 12.3997C7.94472 12.3997 6.33301 13.0672 5.12158 14.2797L2.52787 16.8729C1.31587 18.0852 0.648438 19.6969 0.648438 21.4112C0.648438 23.1255 1.31587 24.7366 2.52787 25.9486C3.73987 27.1612 5.35158 27.8286 7.06587 27.8286C8.78015 27.8286 10.3919 27.1612 11.6039 25.9486L14.1964 23.3555C15.409 22.1435 16.077 20.5317 16.077 18.818C16.077 18.2315 15.9933 17.6589 15.8416 17.1089L13.7736 19.1763ZM19.7422 10.3509L10.5993 19.4937L8.98329 17.8777L18.1262 8.73488L19.7422 10.3509Z" fill="white"/>
<mask id="mask0_328_33572" style="mask-type:alpha" maskUnits="userSpaceOnUse" x="0" y="0" width="29" height="28">
<path fill-rule="evenodd" clip-rule="evenodd" d="M26.197 2.28002C24.985 1.06745 23.3733 0.400024 21.659 0.400024C19.9447 0.400024 18.333 1.06745 17.1216 2.28002L14.5279 4.87317C13.3159 6.08517 12.6484 7.69688 12.6484 9.41117C12.6484 9.96974 12.7264 10.5149 12.8639 11.0417L14.9622 8.94288C15.0664 8.0166 15.4756 7.15831 16.1442 6.48917L18.7379 3.89602C19.5179 3.11545 20.5559 2.68574 21.6593 2.68574C22.7627 2.68574 23.8004 3.11545 24.5807 3.89602C25.361 4.67688 25.7913 5.71431 25.7913 6.81802C25.7913 7.92117 25.361 8.9586 24.5804 9.73945L21.9873 12.3326C21.2924 13.028 20.393 13.4426 19.4242 13.5257L17.3561 15.5937C17.9076 15.7449 18.4802 15.8286 19.0659 15.8286C20.7801 15.8286 22.3919 15.1612 23.6039 13.9486L26.1964 11.3555C27.409 10.1435 28.077 8.53174 28.077 6.81802C28.077 5.10374 27.409 3.49202 26.197 2.28002ZM13.7736 19.1763C13.691 20.1446 13.2759 21.044 12.5804 21.7395L9.9873 24.3326C9.2073 25.1132 8.16987 25.5429 7.06587 25.5429C5.96187 25.5429 4.92472 25.1132 4.14387 24.3326C3.36387 23.5517 2.93415 22.5143 2.93415 21.4112C2.93415 20.3075 3.36387 19.27 4.14387 18.4892L6.73758 15.896C7.40615 15.2269 8.26444 14.818 9.19073 14.714L11.2902 12.6152C10.7633 12.478 10.2176 12.3997 9.65901 12.3997C7.94472 12.3997 6.33301 13.0672 5.12158 14.2797L2.52787 16.8729C1.31587 18.0852 0.648438 19.6969 0.648438 21.4112C0.648438 23.1255 1.31587 24.7366 2.52787 25.9486C3.73987 27.1612 5.35158 27.8286 7.06587 27.8286C8.78015 27.8286 10.3919 27.1612 11.6039 25.9486L14.1964 23.3555C15.409 22.1435 16.077 20.5317 16.077 18.818C16.077 18.2315 15.9933 17.6589 15.8416 17.1089L13.7736 19.1763ZM19.7422 10.3509L10.5993 19.4937L8.98329 17.8777L18.1262 8.73488L19.7422 10.3509Z" fill="white"/>
</mask>
<g mask="url(#mask0_328_33572)">
</g>
</svg>
