<svg width="35" height="34" viewBox="0 0 35 34" fill="none" xmlns="http://www.w3.org/2000/svg">
<path fill-rule="evenodd" clip-rule="evenodd" d="M17.7862 18.7716C13.2597 18.7716 9.59943 15.048 9.59943 10.4659C9.59943 5.88376 13.2597 2.16016 17.7862 2.16016C22.3128 2.16016 25.9731 5.88376 25.9731 10.4659C25.9731 15.048 22.3128 18.7716 17.7862 18.7716ZM31.9844 30.9294C31.9844 31.6128 31.3948 32.1668 30.6676 32.1668C29.9404 32.1668 29.3508 31.6128 29.3508 30.9294V27.6454C29.3508 24.6855 26.9745 22.315 24.0838 22.315H10.9162C8.02544 22.315 5.64915 24.6855 5.64915 27.6454V30.9294C5.64915 31.6128 5.05961 32.1668 4.33239 32.1668C3.60516 32.1668 3.01562 31.6128 3.01562 30.9294V27.6454C3.01562 23.3507 6.53467 19.8402 10.9162 19.8402H24.0838C28.4653 19.8402 31.9844 23.3507 31.9844 27.6454V30.9294ZM23.3395 10.4659C23.3395 13.6036 20.8481 16.1381 17.7862 16.1381C14.7243 16.1381 12.233 13.6036 12.233 10.4659C12.233 7.3282 14.7243 4.79368 17.7862 4.79368C20.8481 4.79368 23.3395 7.3282 23.3395 10.4659Z" fill="white"/>
<mask id="mask0_328_28579" style="mask-type:alpha" maskUnits="userSpaceOnUse" x="3" y="2" width="29" height="31">
<path fill-rule="evenodd" clip-rule="evenodd" d="M17.7862 18.7716C13.2597 18.7716 9.59943 15.048 9.59943 10.4659C9.59943 5.88376 13.2597 2.16016 17.7862 2.16016C22.3128 2.16016 25.9731 5.88376 25.9731 10.4659C25.9731 15.048 22.3128 18.7716 17.7862 18.7716ZM31.9844 30.9294C31.9844 31.6128 31.3948 32.1668 30.6676 32.1668C29.9404 32.1668 29.3508 31.6128 29.3508 30.9294V27.6454C29.3508 24.6855 26.9745 22.315 24.0838 22.315H10.9162C8.02544 22.315 5.64915 24.6855 5.64915 27.6454V30.9294C5.64915 31.6128 5.05961 32.1668 4.33239 32.1668C3.60516 32.1668 3.01562 31.6128 3.01562 30.9294V27.6454C3.01562 23.3507 6.53467 19.8402 10.9162 19.8402H24.0838C28.4653 19.8402 31.9844 23.3507 31.9844 27.6454V30.9294ZM23.3395 10.4659C23.3395 13.6036 20.8481 16.1381 17.7862 16.1381C14.7243 16.1381 12.233 13.6036 12.233 10.4659C12.233 7.3282 14.7243 4.79368 17.7862 4.79368C20.8481 4.79368 23.3395 7.3282 23.3395 10.4659Z" fill="white"/>
</mask>
<g mask="url(#mask0_328_28579)">
</g>
</svg>
