<svg width="310" height="54" viewBox="0 0 310 54" fill="none" xmlns="http://www.w3.org/2000/svg">
<path d="M141.57 21.55C139.22 24.82 136.7 27.88 133.96 30.69C138.9 30.58 144.35 30.51 150.22 30.48C148.97 28.95 147.66 27.46 146.2 25.93L149.62 23.76C153.18 27.42 156.27 31.09 158.87 34.79L155.03 37.1C154.5 36.28 153.96 35.43 153.39 34.61C143.78 34.68 135 35.04 127.06 35.64L126.31 30.91C127.84 30.7 129.19 30.02 130.33 28.85C132.78 26.29 135.2 23.3 137.62 19.92L141.57 21.56V21.55ZM129.37 37.7H154.45V53.74H150.07V51.93H133.74V53.74H129.36V37.7H129.37ZM150.07 41.79H133.74V47.84H150.07V41.79Z" fill="white"/>
<path d="M172.3 53.59H168.21V46.23C166.68 48.19 164.9 50.11 162.91 51.92L160.67 48.04C163.37 45.98 165.58 43.74 167.32 41.35H161.45V37.54H168.21V34.8H162.02V30.99H164.9L164.15 26.76H162.16V22.92H168.24C168.1 22.1 167.88 21.18 167.64 20.22L171.7 19.97C171.95 21 172.13 21.96 172.3 22.92H178.13V26.76H176.32L175.5 30.99H178.13V34.8H172.3V37.54H178.7V41.35H172.3V44.55L174.08 42.34C175.61 43.62 176.96 44.94 178.14 46.29L175.69 49.24C174.77 47.92 173.63 46.64 172.31 45.33V53.58L172.3 53.59ZM168.56 31H171.8L172.55 26.77H167.89L168.57 31H168.56ZM187.7 53.59V35.52H184.11V37.87C184.07 44.17 182.65 49.43 179.77 53.7L176.25 50.93C178.74 47.48 179.99 43.1 180.02 37.87V22.89C184.25 22.46 188.45 21.72 192.68 20.65L194.81 24.42C191.61 25.24 188.05 25.91 184.1 26.41V31.43H194.81V35.52H191.96V53.59H187.69H187.7Z" fill="white"/>
<path d="M215.68 39.8C210.77 40.4 205.43 40.72 199.64 40.76L199.6 38.52C201.77 38.48 203.87 38.45 205.97 38.41V36.99H201.24V35.99C200.99 36.06 200.74 36.13 200.49 36.24L199.42 33.68C200.77 33.5 201.73 33.18 202.34 32.76C202.66 32.51 202.98 32.19 203.26 31.76H199.7V29.91H206.17V28.56H200.66V26.71H206.17V25.39H207.2V24.25H199.27V21.26H207.2V19.94H211.43V21.26H220.39V19.94H224.62V21.26H232.2V24.25H224.62V25.92H222.81V27.66H229.28C229.17 29.55 229.14 31.36 229.14 33.17C229.14 34.98 229.35 35.94 229.74 36.02C230.17 36.02 230.7 35.06 231.38 33.14L232.7 36.13C232.45 37.45 232.02 38.51 231.42 39.33C230.82 40.11 230.21 40.5 229.57 40.5C228.36 40.5 227.47 39.97 226.9 38.86C226.3 37.76 226.01 36.23 225.98 34.27C225.94 33.06 225.94 31.74 225.98 30.36H222.81C222.74 31.68 222.56 32.96 222.28 34.2C223.45 34.91 224.56 35.66 225.62 36.48L223.49 39.01C222.74 38.41 221.96 37.8 221.14 37.23C220.43 38.65 219.5 39.93 218.37 41.07L215.74 38.33C216.74 37.41 217.55 36.37 218.16 35.27C217.45 34.88 216.7 34.45 215.95 34.06L217.91 31.68C218.34 31.89 218.76 32.11 219.19 32.36C219.3 31.68 219.4 31.04 219.44 30.37H216.63V27.67H219.44V25.39H220.4V24.25H211.44V25.78H209.98V26.7H215.14V28.55H209.98V29.9H215.81V31.75H212.89V32.39C212.89 32.71 213.07 32.89 213.39 32.89H215.67V34.6H212.9C211.3 34.6 210.48 33.78 210.48 32.18V31.75H206.1C205.71 32.89 205.18 33.74 204.53 34.31C204.14 34.59 203.64 34.91 203.11 35.23H205.96V33.56H209.91V35.23H214.85V36.97H209.91V38.25C211.8 38.14 213.68 38 215.5 37.86L215.68 39.78V39.8ZM199.28 45.46H232.22V47.88H225.85C227.59 48.88 229.44 50.01 231.4 51.3L228.31 53.72C227.42 53.08 226.57 52.47 225.75 51.91C217.35 52.05 209.74 52.37 202.88 52.83L202.1 49.56C203.06 49.42 204.16 48.88 205.48 47.99C205.52 47.95 205.59 47.92 205.62 47.88H199.29V45.46H199.28ZM201.81 41.58H229.88V44H201.81V41.58ZM220.77 47.88H210.52C209.77 48.41 209.06 48.91 208.39 49.41C212.52 49.34 217 49.3 221.84 49.3C221.24 48.94 220.67 48.59 220.13 48.27L220.77 47.88Z" fill="white"/>
<path d="M237.189 27.48C239.569 25.42 241.639 22.93 243.379 20.01L247.149 21.68C245.159 25.24 242.489 28.4 239.179 31.18L237.189 27.48ZM244.589 53.66H240.459V41.46C239.679 42.35 238.889 43.2 238.109 44.06L237.259 38.55C239.859 36.02 242.059 32.96 243.909 29.44L247.219 30.93V27.59H251.379V20.3H255.329V27.59H259.709V31.72H255.329V53.67H251.379V31.71H247.289C246.399 33.17 245.509 34.59 244.589 35.94V53.66ZM249.999 34.77V38.93C249.999 43.34 249.399 46.93 248.149 49.71L245.159 47.65C246.409 45.44 247.009 42.53 247.009 38.93V34.77H249.999ZM257.899 26.94C257.369 25.23 256.689 23.63 255.909 22.14L258.509 20.97C259.399 22.54 260.179 24.17 260.819 25.84L257.899 26.94ZM256.729 34.77H259.719V44.34C259.719 44.66 259.899 44.84 260.219 44.84H262.109V48.65H259.189C257.549 48.65 256.739 47.83 256.739 46.23V34.78L256.729 34.77ZM268.289 35.73V50.42C268.289 52.52 267.329 53.59 265.369 53.59H260.959L260.179 49.36H263.099C263.919 49.36 264.309 48.97 264.309 48.15V35.73H260.289V31.64H271.279V35.73H268.289ZM261.249 22.03H270.429V26.12H261.249V22.03Z" fill="white"/>
<path d="M288.759 25.89V41.26H284.919V34.32H282.929C282.819 37.77 281.289 40.26 278.409 41.86L275.739 38.94C277.979 37.91 279.189 36.34 279.369 34.32H276.099V31.05H284.919V28.7H277.909V20.84H281.609V25.57H284.919V20.13H288.759V25.72C291.499 24.19 293.809 22.3 295.699 20.06L299.289 20.31C298.899 20.88 298.469 21.45 298.039 22.02H308.459V24.72C306.719 26.93 304.549 28.7 301.989 30.02H305.969V32.44H309.459V35.43H305.969V37.42C305.969 39.52 305.009 40.59 303.049 40.59H298.139L297.389 37.32H300.659C301.479 37.32 301.869 36.93 301.869 36.11V35.43H294.289C295.389 36.35 296.319 37.28 297.099 38.24L294.249 40.13C293.539 39.2 292.469 38.14 291.079 36.89L293.289 35.43H289.699V32.44H291.189L290.019 29.74C291.479 29.56 292.869 29.42 294.149 29.24C293.759 28.85 293.329 28.46 292.899 28.07L294.859 26.11C295.959 27.14 296.819 27.92 297.389 28.49C297.919 28.31 298.419 28.17 298.919 27.99C298.239 27.35 297.499 26.67 296.679 26L297.929 24.72H295.619C294.299 25.96 292.919 27.1 291.389 28.1L288.759 25.89ZM276.809 53.6L275.809 49.65C281.959 49.12 286.159 47.94 288.399 46.2H276.229V42.78H290.319C290.319 42.67 290.319 42.6 290.359 42.5V40.83H294.449V42.5C294.409 42.61 294.409 42.68 294.449 42.78H298.969C298.789 42.32 298.609 41.78 298.399 41.21L301.889 40.75C302.209 41.43 302.489 42.1 302.739 42.78H309.319V46.2H297.009C300.209 48.16 304.449 49.26 309.669 49.54L308.099 53.6C301.519 52.85 296.429 50.79 292.839 47.34C290.349 50.65 285.009 52.71 276.799 53.6H276.809ZM293.959 32.43H301.889V30.05C301.889 30.05 301.849 30.05 301.819 30.09C299.719 31.12 297.089 31.9 293.959 32.44V32.43ZM299.439 24.71C300.329 25.49 301.009 26.13 301.539 26.67C302.429 26.1 303.249 25.46 304.029 24.71H299.439Z" fill="white"/>
<path d="M133.07 10.35C133.07 11.21 133.1 11.83 133.18 12.5H130.03C130.12 11.83 130.14 11.25 130.14 10.35V3.16998H128.46C127.56 3.16998 127.32 3.17998 126.31 3.26998V0.549976C126.78 0.609976 127.56 0.649976 128.43 0.649976H134.67C135.67 0.649976 136.24 0.619976 136.89 0.549976V3.26998C136.25 3.19998 135.69 3.16998 134.67 3.16998H133.06V10.35H133.07Z" fill="white"/>
<path d="M144.939 12.51C144.829 11.83 144.739 11.46 144.599 10.97L144.219 9.75998H140.159L139.779 10.97C139.589 11.54 139.499 11.98 139.419 12.51H136.079C136.289 12.08 136.419 11.74 136.759 10.77L139.839 2.18997C140.099 1.48997 140.219 1.05997 140.299 0.649975H144.019C144.119 1.05997 144.219 1.42997 144.499 2.18997L147.589 10.77C147.859 11.53 148.089 12.11 148.269 12.51H144.929H144.939ZM142.159 3.08997L140.829 7.36997H143.509L142.159 3.08997Z" fill="white"/>
<path d="M152.4 0.649975C152.31 1.22997 152.29 1.71997 152.29 2.75997V10.4C152.29 11.38 152.32 11.91 152.4 12.51H149.26C149.35 11.95 149.37 11.36 149.37 10.4V2.75997C149.37 1.68997 149.34 1.27997 149.26 0.649975H152.4Z" fill="white"/>
<path d="M156.77 8.63998C156.83 9.14998 156.93 9.40998 157.14 9.68997C157.48 10.12 158.08 10.36 158.81 10.36C159.91 10.36 160.56 9.87998 160.56 9.07998C160.56 8.63998 160.33 8.24998 159.96 8.07998C159.66 7.93998 159.3 7.83998 157.82 7.49998C156.51 7.20998 156.05 7.03998 155.53 6.66998C154.63 6.03998 154.15 5.08998 154.15 3.92998C154.15 1.73998 155.92 0.349976 158.73 0.349976C160.54 0.349976 161.92 0.909976 162.69 1.96998C163.05 2.43998 163.22 2.86998 163.4 3.67998L160.38 4.00998C160.21 3.07998 159.7 2.69998 158.61 2.69998C157.74 2.69998 157.1 3.16998 157.1 3.82998C157.1 4.22998 157.31 4.52998 157.77 4.73998C157.963 4.82664 158.62 4.98331 159.74 5.20998C160.82 5.43998 161.51 5.67998 162.05 6.01998C163.08 6.65998 163.59 7.61998 163.59 8.92998C163.59 9.99998 163.25 10.91 162.59 11.55C161.76 12.35 160.51 12.76 158.84 12.76C157.63 12.76 156.43 12.5 155.66 12.06C154.95 11.66 154.42 11.05 154.12 10.24C153.98 9.89997 153.91 9.56997 153.81 8.90998L156.77 8.62998V8.63998Z" fill="white"/>
<path d="M175.76 0.649975C175.67 1.22997 175.65 1.75997 175.65 2.75997V10.4C175.65 11.33 175.68 11.81 175.76 12.51H172.7C172.79 11.91 172.81 11.38 172.81 10.4V7.63997H168.01V10.4C168.01 11.33 168.04 11.87 168.12 12.51H165.06C165.15 11.93 165.17 11.4 165.17 10.4V2.75997C165.17 1.77997 165.14 1.25997 165.06 0.649975H168.12C168.03 1.31997 168.01 1.87997 168.01 2.75997V5.12997H172.81V2.75997C172.81 1.77997 172.78 1.20997 172.7 0.649975H175.76Z" fill="white"/>
<path d="M180.68 0.649975C180.59 1.22997 180.57 1.71997 180.57 2.75997V10.4C180.57 11.38 180.6 11.91 180.68 12.51H177.54C177.63 11.95 177.65 11.36 177.65 10.4V2.75997C177.65 1.68997 177.62 1.27997 177.54 0.649975H180.68Z" fill="white"/>
<path d="M189.259 6.47998C189.669 7.08998 189.939 7.54998 190.289 8.17998C190.229 7.51998 190.199 6.86998 190.199 6.06998V2.80998C190.199 1.86998 190.169 1.29998 190.089 0.639977H193.129C193.039 1.27998 193.019 1.87998 193.019 2.80998V10.38C193.019 11.25 193.059 11.91 193.129 12.5H190.009C189.749 11.96 189.429 11.43 188.939 10.69L186.299 6.70998C185.919 6.13998 185.669 5.70998 185.269 4.95998C185.339 5.59998 185.369 6.38998 185.369 7.07998V10.27C185.369 11.25 185.399 11.88 185.479 12.49H182.439C182.529 11.93 182.549 11.31 182.549 10.25V2.76998C182.549 1.93998 182.519 1.29998 182.439 0.649976H185.529C185.669 1.02998 185.989 1.59998 186.539 2.42998L189.249 6.47998H189.259Z" fill="white"/>
<path d="M206.65 12.51C206.54 11.83 206.45 11.46 206.31 10.97L205.93 9.75998H201.87L201.49 10.97C201.3 11.54 201.21 11.98 201.13 12.51H197.79C198 12.08 198.13 11.74 198.47 10.77L201.55 2.18997C201.81 1.48997 201.93 1.05997 202.01 0.649975H205.73C205.83 1.05997 205.93 1.42997 206.21 2.18997L209.3 10.77C209.57 11.53 209.8 12.11 209.98 12.51H206.64H206.65ZM203.87 3.08997L202.54 7.36997H205.22L203.87 3.08997Z" fill="white"/>
<path d="M218.169 12.51C218.079 12.05 217.909 11.47 217.469 10.29C217.009 9.04998 216.84 8.71998 216.49 8.40998C216.19 8.13998 215.83 8.01998 215.38 8.01998H213.929V10.36C213.929 11.33 213.959 11.86 214.039 12.51H210.979C211.069 11.85 211.089 11.43 211.089 10.37V2.69998C211.089 1.81998 211.059 1.28998 210.979 0.599976C211.609 0.629976 212.13 0.639976 213.1 0.639976H216.809C219.119 0.639976 220.46 1.83998 220.46 3.88998C220.46 4.89998 220.179 5.69998 219.619 6.22998C219.259 6.55998 218.96 6.70998 218.27 6.93998C219 7.16998 219.319 7.49998 219.779 8.50998C219.989 8.96998 220.189 9.44998 220.829 10.99C220.989 11.39 221.159 11.75 221.509 12.5H218.169V12.51ZM216.149 5.57998C216.989 5.57998 217.499 5.06998 217.499 4.24998C217.499 3.42998 217.04 3.03998 216.16 3.03998H213.919V5.57998H216.139H216.149Z" fill="white"/>
<path d="M228.78 10.35C228.78 11.21 228.81 11.83 228.89 12.5H225.74C225.83 11.83 225.85 11.25 225.85 10.35V3.16998H224.17C223.27 3.16998 223.03 3.17998 222.02 3.26998V0.549976C222.49 0.609976 223.27 0.649976 224.14 0.649976H230.38C231.38 0.649976 231.95 0.619976 232.6 0.549976V3.26998C231.96 3.19998 231.4 3.16998 230.38 3.16998H228.77V10.35H228.78Z" fill="white"/>
<path d="M236.319 8.63998C236.379 9.14998 236.479 9.40998 236.689 9.68997C237.029 10.12 237.629 10.36 238.359 10.36C239.459 10.36 240.109 9.87998 240.109 9.07998C240.109 8.63998 239.879 8.24998 239.509 8.07998C239.209 7.93998 238.849 7.83998 237.369 7.49998C236.059 7.20998 235.599 7.03998 235.079 6.66998C234.179 6.03998 233.699 5.08998 233.699 3.92998C233.699 1.73998 235.469 0.349976 238.279 0.349976C240.089 0.349976 241.469 0.909976 242.239 1.96998C242.599 2.43998 242.769 2.86998 242.949 3.67998L239.929 4.00998C239.759 3.07998 239.249 2.69998 238.159 2.69998C237.289 2.69998 236.649 3.16998 236.649 3.82998C236.649 4.22998 236.859 4.52998 237.319 4.73998C237.513 4.82664 238.169 4.98331 239.289 5.20998C240.369 5.43998 241.059 5.67998 241.599 6.01998C242.629 6.65998 243.139 7.61998 243.139 8.92998C243.139 9.99998 242.799 10.91 242.139 11.55C241.309 12.35 240.059 12.76 238.389 12.76C237.179 12.76 235.979 12.5 235.209 12.06C234.499 11.66 233.969 11.05 233.669 10.24C233.529 9.89997 233.459 9.56997 233.359 8.90998L236.319 8.62998V8.63998Z" fill="white"/>
<path d="M256.349 12.51C256.239 11.83 256.149 11.46 256.009 10.97L255.629 9.75998H251.569L251.189 10.97C250.999 11.54 250.909 11.98 250.829 12.51H247.489C247.699 12.08 247.829 11.74 248.169 10.77L251.249 2.18997C251.509 1.48997 251.629 1.05997 251.709 0.649975H255.429C255.529 1.05997 255.629 1.42997 255.909 2.18997L258.999 10.77C259.269 11.53 259.499 12.11 259.679 12.51H256.339H256.349ZM253.569 3.08997L252.239 7.36997H254.919L253.569 3.08997Z" fill="white"/>
<path d="M268.619 12.51C268.559 12.05 268.459 11.55 268.319 10.98L267.239 6.78998C267.099 6.22998 266.979 5.57998 266.839 4.63998C266.749 5.21998 266.579 6.11998 266.409 6.78998L265.359 10.99C265.169 11.7 265.089 12.12 265.049 12.5H262.209C262.139 12.09 262.069 11.79 261.849 10.96L259.569 2.40998C259.369 1.67998 259.169 1.02998 259.029 0.639976H262.279C262.289 1.14998 262.369 1.60998 262.479 2.20998L263.389 6.53998C263.429 6.74998 263.529 7.41998 263.699 8.54998C263.909 7.34998 264.009 6.83998 264.099 6.53998L265.239 2.11998C265.409 1.47998 265.499 1.03998 265.549 0.639976H268.089C268.149 1.00998 268.229 1.40998 268.419 2.07998L269.569 6.46998C269.679 6.92998 269.779 7.39998 269.969 8.54998C269.989 8.36998 270.026 8.07998 270.079 7.67998C270.119 7.36998 270.219 6.67998 270.279 6.44998L271.179 2.19998C271.319 1.53998 271.379 1.12998 271.389 0.629976H274.629C274.489 1.00998 274.289 1.67998 274.099 2.39998L271.819 10.94C271.629 11.61 271.509 12.15 271.459 12.49H268.609L268.619 12.51Z" fill="white"/>
<path d="M282.87 12.51C282.76 11.83 282.67 11.46 282.53 10.97L282.15 9.75998H278.09L277.71 10.97C277.52 11.54 277.42 11.98 277.35 12.51H274.01C274.22 12.08 274.35 11.74 274.69 10.77L277.77 2.18997C278.03 1.48997 278.15 1.05997 278.23 0.649975H281.95C282.05 1.05997 282.15 1.42997 282.43 2.18997L285.52 10.77C285.79 11.53 286.02 12.11 286.2 12.51H282.86H282.87ZM280.09 3.08997L278.76 7.36997H281.44L280.09 3.08997Z" fill="white"/>
<path d="M294.379 12.51C294.289 12.05 294.119 11.47 293.679 10.29C293.219 9.04998 293.049 8.71998 292.699 8.40998C292.399 8.13998 292.039 8.01998 291.589 8.01998H290.139V10.36C290.139 11.33 290.169 11.86 290.249 12.51H287.189C287.279 11.85 287.299 11.43 287.299 10.37V2.69998C287.299 1.81998 287.269 1.28998 287.189 0.599976C287.819 0.629976 288.339 0.639976 289.309 0.639976H293.019C295.329 0.639976 296.669 1.83998 296.669 3.88998C296.669 4.89998 296.389 5.69998 295.829 6.22998C295.469 6.55998 295.169 6.70998 294.479 6.93998C295.209 7.16998 295.529 7.49998 295.989 8.50998C296.199 8.96998 296.399 9.44998 297.039 10.99C297.199 11.39 297.369 11.75 297.719 12.5H294.379V12.51ZM292.359 5.57998C293.199 5.57998 293.709 5.06998 293.709 4.24998C293.709 3.42998 293.249 3.03998 292.369 3.03998H290.129V5.57998H292.349H292.359Z" fill="white"/>
<path d="M299.029 2.69998C299.029 1.72998 298.999 1.25998 298.899 0.599976C299.469 0.629976 299.829 0.639976 301.009 0.639976H303.989C305.739 0.639976 307.149 1.11998 308.109 2.04998C309.149 3.07998 309.679 4.56998 309.679 6.46998C309.679 8.36998 309.109 9.98997 308.029 11.07C307.069 12.01 305.719 12.5 304.019 12.5H301.009C299.909 12.5 299.509 12.51 298.909 12.54C298.999 11.91 299.019 11.44 299.019 10.46V2.69998H299.029ZM303.759 10.01C304.689 10.01 305.339 9.76998 305.859 9.24998C306.439 8.64997 306.759 7.69998 306.759 6.50998C306.759 5.31998 306.489 4.40998 305.929 3.85998C305.429 3.35998 304.749 3.12998 303.719 3.12998H301.849V9.99998H303.759V10.01Z" fill="white"/>
<path d="M9.22 52.64C3.69 52.64 2.27 52.7 0 52.89C0.25 49.87 0.55 48.03 1.29 45.63C2.89 40.52 5.84 35.85 10.15 31.85C12.49 29.7 14.82 27.91 21.1 23.67C26.39 20.1 27.68 18.5 27.68 15.67C27.68 12.84 25.04 10.75 21.1 10.75C18.15 10.75 16.06 11.73 14.7 13.82C13.84 15.17 13.47 16.4 13.16 18.99L0.25 17.65C1.17 12.3 2.28 9.58998 4.74 6.69999C8.24 2.57999 13.84 0.359985 21.03 0.359985C29.33 0.359985 35.67 3.12998 38.74 8.10998C40.09 10.26 40.77 12.66 40.77 15.3C40.77 19.79 38.93 23.6 35.11 26.74C33.08 28.52 32.47 28.95 26.19 33.32C20.84 37.01 18.56 39.16 17.15 41.87H31.48C36.09 41.87 38.92 41.75 41.32 41.44V53.06C37.75 52.75 35.17 52.63 30.8 52.63H9.22V52.64Z" fill="white"/>
<path d="M51.9701 48.03C49.9401 46 48.4001 43.66 47.4801 41.2C45.8801 36.83 45.0801 32.1 45.0801 27.12C45.0801 20.66 46.6201 13.96 48.9501 10.08C52.7101 3.80999 59.1001 0.359985 66.8501 0.359985C72.8201 0.359985 78.0401 2.38999 81.8001 6.07999C83.8301 8.10999 85.3701 10.45 86.2901 12.91C87.8901 17.28 88.6901 22.01 88.6901 27.06C88.6901 33.52 87.1501 40.28 84.8101 44.16C81.1201 50.31 74.6601 53.75 66.8501 53.75C60.8201 53.75 55.7201 51.78 51.9701 48.03ZM57.6901 26.63C57.6901 37.64 60.8301 43.3 66.9201 43.3C73.0101 43.3 76.0201 37.77 76.0201 26.82C76.0201 15.87 72.8201 10.77 66.8601 10.77C60.9001 10.77 57.7001 16.61 57.7001 26.64L57.6901 26.63Z" fill="white"/>
<path d="M94.2503 4.64999C94.2503 3.57999 94.2103 2.72999 94.0803 1.72999H98.4403C98.3303 2.59999 98.2703 3.62999 98.2703 4.64999V5.09999H99.0403C99.9803 5.09999 100.47 5.07999 101.13 4.98999V8.52999C100.49 8.43999 99.9303 8.39999 99.1703 8.39999H98.2703V13.87C98.2703 14.47 98.3803 14.77 98.6503 14.96C98.8803 15.11 99.2303 15.19 99.6303 15.19C100.18 15.19 100.59 15.08 101.12 14.81L101.44 18.05C100.48 18.35 99.6503 18.48 98.4903 18.48C97.0403 18.48 96.0303 18.25 95.3503 17.73C94.5403 17.11 94.2403 16.39 94.2403 14.93V8.39999H93.4303C92.7503 8.39999 92.1903 8.43999 91.5703 8.52999V4.95999C92.1903 5.04999 92.7203 5.08999 93.4703 5.08999H94.2403V4.63999L94.2503 4.64999Z" fill="white" stroke="white" stroke-width="0.73" stroke-miterlimit="10"/>
<path d="M103.65 18.13C103.78 17.13 103.82 16.23 103.82 14.91V3.58999C103.82 2.11999 103.78 1.19999 103.65 0.369986H108.07C107.94 1.30999 107.9 2.07999 107.9 3.58999V5.84999C107.9 6.01999 107.88 6.35999 107.88 6.54999C109.16 5.30999 110.51 4.77999 112.32 4.77999C113.77 4.77999 114.92 5.17999 115.71 5.96999C116.56 6.81999 116.93 7.86999 116.93 9.55999V14.92C116.93 16.16 116.99 17.23 117.1 18.12H112.66C112.79 17.09 112.83 16.2 112.83 14.9V10.52C112.83 9.66999 112.74 9.27999 112.49 8.91999C112.19 8.53999 111.72 8.33999 111.12 8.33999C109.9 8.33999 108.75 9.14999 107.9 10.56V14.89C107.9 16.11 107.94 17 108.07 18.11H103.65V18.13Z" fill="white" stroke="white" stroke-width="0.73" stroke-miterlimit="10"/>
</svg>
