<svg width="80" height="80" viewBox="0 0 80 80" fill="none" xmlns="http://www.w3.org/2000/svg">
<path fill-rule="evenodd" clip-rule="evenodd" d="M22.8222 10.7111C22.8222 6.52575 26.2147 3.1333 30.4 3.1333C34.5853 3.1333 37.9778 6.52575 37.9778 10.7111V25.8061C38.6215 25.6283 39.2997 25.5333 40 25.5333C42.8194 25.5333 45.2791 27.0728 46.5842 29.3571C47.5084 28.9558 48.5282 28.7333 49.6 28.7333C52.4194 28.7333 54.8791 30.2728 56.1842 32.5571C57.1084 32.1558 58.1282 31.9333 59.2 31.9333C63.3853 31.9333 66.7778 35.3258 66.7778 39.5111V52.3111C66.7778 67.0996 54.7885 79.0889 40 79.0889C25.2115 79.0889 13.2222 67.0996 13.2222 52.3111V36.3111C13.2222 32.1258 16.6147 28.7333 20.8 28.7333C21.5003 28.7333 22.1785 28.8283 22.8222 29.0061V10.7111ZM28.3778 47.5111C28.3778 49.0452 27.1341 50.2889 25.6 50.2889C24.0659 50.2889 22.8222 49.0452 22.8222 47.5111V36.3111C22.8222 35.194 21.9171 34.2889 20.8 34.2889C19.6829 34.2889 18.7778 35.194 18.7778 36.3111V52.3111C18.7778 64.0314 28.2797 73.5333 40 73.5333C51.7203 73.5333 61.2222 64.0314 61.2222 52.3111V39.5111C61.2222 38.394 60.3171 37.4889 59.2 37.4889C58.0829 37.4889 57.1778 38.394 57.1778 39.5111C57.1778 41.0452 55.9341 42.2889 54.4 42.2889C52.8659 42.2889 51.6222 41.0452 51.6222 39.5111V36.3111C51.6222 35.194 50.7171 34.2889 49.6 34.2889C48.4829 34.2889 47.5778 35.194 47.5778 36.3111C47.5778 37.8452 46.3341 39.0889 44.8 39.0889C43.2659 39.0889 42.0222 37.8452 42.0222 36.3111V33.1111C42.0222 31.994 41.1171 31.0889 40 31.0889C38.8829 31.0889 37.9778 31.994 37.9778 33.1111C37.9778 34.6452 36.7341 35.8889 35.2 35.8889C33.6659 35.8889 32.4222 34.6452 32.4222 33.1111V10.7111C32.4222 9.594 31.5171 8.68886 30.4 8.68886C29.2829 8.68886 28.3778 9.594 28.3778 10.7111V47.5111Z" fill="#455C79"/>
<path d="M60.7998 28.8888V2.22217" stroke="#CC0072" stroke-width="3" stroke-miterlimit="10" stroke-linecap="round" stroke-linejoin="round"/>
<path d="M65.6 23.1746L60.8 28.8888L56 23.1746" stroke="#CC0072" stroke-width="3" stroke-miterlimit="10" stroke-linecap="round" stroke-linejoin="round"/>
<path d="M65.6 7.93645L60.8 2.22217L56 7.93645" stroke="#CC0072" stroke-width="3" stroke-miterlimit="10" stroke-linecap="round" stroke-linejoin="round"/>
</svg>
