<svg width="974" height="170" viewBox="0 0 974 170" fill="none" xmlns="http://www.w3.org/2000/svg">
<g clip-path="url(#clip0_202_7611)">
<path d="M444.804 67.7086C437.42 77.9828 429.503 87.5971 420.894 96.4259C436.415 96.0803 453.538 95.8604 471.982 95.7661C468.054 90.959 463.938 86.2775 459.351 81.4703L470.096 74.6523C481.282 86.1518 490.99 97.6827 499.159 109.308L487.094 116.566C485.429 113.989 483.732 111.319 481.941 108.742C451.747 108.962 424.161 110.093 399.214 111.979L396.858 97.1171C401.665 96.4573 405.907 94.3208 409.488 90.6448C417.186 82.6014 424.79 73.207 432.393 62.5873L444.804 67.7401V67.7086ZM406.472 118.451H485.272V168.848H471.51V163.161H420.202V168.848H406.441V118.451H406.472ZM471.51 131.301H420.202V150.31H471.51V131.301Z" fill="white"/>
<path d="M541.356 168.376H528.505V145.252C523.698 151.41 518.105 157.442 511.853 163.129L504.815 150.939C513.298 144.466 520.242 137.428 525.709 129.919H507.266V117.948H528.505V109.339H509.056V97.3685H518.105L515.749 84.0781H509.496V72.0131H528.599C528.159 69.4367 527.468 66.5461 526.714 63.5299L539.47 62.7444C540.256 65.9806 540.821 68.9968 541.356 72.0131H559.673V84.0781H553.986L551.41 97.3685H559.673V109.339H541.356V117.948H561.464V129.919H541.356V139.973L546.948 133.029C551.755 137.051 555.997 141.199 559.704 145.44L552.007 154.709C549.116 150.561 545.534 146.54 541.387 142.424V168.345L541.356 168.376ZM529.605 97.3999H539.785L542.141 84.1095H527.5L529.636 97.3999H529.605ZM589.741 168.376V111.601H578.462V118.985C578.336 138.779 573.875 155.306 564.826 168.722L553.766 160.019C561.59 149.179 565.517 135.417 565.611 118.985V71.9188C578.902 70.5678 592.098 68.2428 605.388 64.8809L612.08 76.726C602.026 79.3024 590.841 81.4075 578.43 82.9785V98.751H612.08V111.601H603.126V168.376H589.71H589.741Z" fill="white"/>
<path d="M677.653 125.049C662.226 126.934 645.448 127.94 627.256 128.065L627.13 121.027C633.948 120.902 640.546 120.807 647.144 120.682V116.22H632.283V113.078C631.498 113.298 630.712 113.518 629.927 113.864L626.565 105.82C630.806 105.255 633.823 104.249 635.739 102.93C636.745 102.144 637.75 101.139 638.63 99.7878H627.445V93.9752H647.773V89.7336H630.461V83.921H647.773V79.7737H651.009V76.1919H626.094V66.7975H651.009V62.6501H664.299V66.7975H692.451V62.6501H705.742V66.7975H729.557V76.1919H705.742V81.4389H700.055V86.9059H720.383C720.037 92.8441 719.943 98.531 719.943 104.218C719.943 109.905 720.603 112.921 721.828 113.172C723.179 113.172 724.845 110.156 726.981 104.124L731.128 113.518C730.343 117.665 728.992 120.996 727.107 123.572C725.222 126.023 723.305 127.248 721.294 127.248C717.492 127.248 714.696 125.583 712.905 122.096C711.02 118.639 710.109 113.832 710.015 107.674C709.889 103.872 709.889 99.725 710.015 95.3891H700.055C699.835 99.5365 699.269 103.558 698.389 107.454C702.065 109.685 705.553 112.041 708.883 114.618L702.191 122.567C699.835 120.682 697.384 118.765 694.808 116.974C692.577 121.436 689.655 125.457 686.104 129.039L677.841 120.43C680.983 117.54 683.528 114.272 685.445 110.816C683.214 109.591 680.857 108.24 678.501 107.014L684.659 99.5365C686.01 100.196 687.33 100.887 688.681 101.673C689.026 99.5365 689.341 97.5256 689.466 95.4205H680.637V86.9373H689.466V79.7737H692.483V76.1919H664.331V80.999H659.744V83.8896H675.956V89.7022H659.744V93.9438H678.061V99.7564H668.887V101.767C668.887 102.773 669.452 103.338 670.458 103.338H677.621V108.711H668.918C663.891 108.711 661.315 106.135 661.315 101.107V99.7564H647.553C646.328 103.338 644.662 106.009 642.62 107.8C641.395 108.679 639.824 109.685 638.159 110.69H647.113V105.443H659.524V110.69H675.045V116.157H659.524V120.179C665.462 119.833 671.369 119.393 677.087 118.954L677.653 124.986V125.049ZM626.125 142.832H729.62V150.436H709.606C715.073 153.578 720.886 157.128 727.044 161.181L717.335 168.785C714.539 166.774 711.868 164.857 709.292 163.098C682.9 163.538 658.99 164.543 637.436 165.988L634.985 155.714C638.001 155.274 641.458 153.578 645.605 150.781C645.731 150.656 645.951 150.561 646.045 150.436H626.156V142.832H626.125ZM634.074 130.642H722.268V138.245H634.074V130.642ZM693.645 150.436H661.44C659.084 152.101 656.853 153.672 654.748 155.243C667.724 155.023 681.8 154.897 697.007 154.897C695.122 153.766 693.331 152.667 691.634 151.661L693.645 150.436Z" fill="white"/>
<path d="M745.236 86.3403C752.713 79.8679 759.217 72.0445 764.684 62.8701L776.529 68.1171C770.277 79.3024 761.888 89.2309 751.488 97.9655L745.236 86.3403ZM768.486 168.596H755.51V130.265C753.059 133.061 750.577 135.732 748.126 138.434L745.456 121.122C753.625 113.172 760.537 103.558 766.349 92.4985L776.749 97.18V86.6859H789.82V63.7812H802.23V86.6859H815.992V99.6621H802.23V168.628H789.82V99.6307H776.969C774.173 104.218 771.376 108.679 768.486 112.921V168.596ZM785.484 109.245V122.315C785.484 136.171 783.599 147.451 779.671 156.186L770.277 149.713C774.204 142.769 776.089 133.626 776.089 122.315V109.245H785.484ZM810.305 84.6437C808.64 79.271 806.503 74.2439 804.053 69.5624L812.222 65.8863C815.018 70.8191 817.469 75.9405 819.48 81.1875L810.305 84.6437ZM806.629 109.245H816.023V139.313C816.023 140.319 816.589 140.884 817.594 140.884H823.533V152.855H814.358C809.205 152.855 806.66 150.279 806.66 145.252V109.276L806.629 109.245ZM842.95 112.261V158.416C842.95 165.014 839.934 168.376 833.775 168.376H819.919L817.469 155.086H826.643C829.22 155.086 830.445 153.861 830.445 151.284V112.261H817.814V99.4108H852.344V112.261H842.95ZM820.831 69.2168H849.674V82.0673H820.831V69.2168Z" fill="white"/>
<path d="M907.265 81.3446V129.636H895.2V107.831H888.948C888.602 118.671 883.795 126.494 874.746 131.521L866.357 122.347C873.395 119.111 877.197 114.178 877.763 107.831H867.488V97.557H895.2V90.1735H873.175V65.4779H884.8V80.3392H895.2V63.2471H907.265V80.8105C915.874 76.0034 923.132 70.0651 929.07 63.0272L940.35 63.8126C939.125 65.6035 937.774 67.3945 936.422 69.1854H969.161V77.6686C963.694 84.6123 956.876 90.1735 948.833 94.3208H961.338V101.924H972.303V111.319H961.338V117.571C961.338 124.169 958.322 127.531 952.164 127.531H936.737L934.38 117.257H944.654C947.231 117.257 948.456 116.032 948.456 113.455V111.319H924.64C928.096 114.209 931.018 117.131 933.469 120.148L924.515 126.086C922.284 123.164 918.922 119.833 914.555 115.906L921.498 111.319H910.219V101.924H914.9L911.224 93.4411C915.811 92.8755 920.179 92.4357 924.2 91.8701C922.975 90.6448 921.624 89.4194 920.273 88.1941L926.431 82.0359C929.887 85.2721 932.589 87.7228 934.38 89.5137C936.045 88.9481 937.616 88.5083 939.187 87.9427C937.051 85.9319 934.726 83.7954 932.149 81.6903L936.077 77.6686H928.819C924.672 81.5646 920.336 85.1464 915.529 88.2883L907.265 81.3446ZM869.719 168.408L866.577 155.997C885.9 154.332 899.096 150.624 906.134 145.157H867.897V134.412H912.167C912.167 134.066 912.167 133.846 912.292 133.532V128.285H925.143V133.532C925.017 133.878 925.017 134.098 925.143 134.412H939.344C938.779 132.967 938.213 131.27 937.554 129.479L948.519 128.034C949.524 130.17 950.404 132.275 951.19 134.412H971.864V145.157H933.186C943.24 151.316 956.562 154.772 972.963 155.651L968.03 168.408C947.356 166.051 931.364 159.579 920.084 148.739C912.261 159.139 895.483 165.611 869.688 168.408H869.719ZM923.603 101.893H948.519V94.4151C948.519 94.4151 948.393 94.4151 948.299 94.5408C941.701 97.777 933.438 100.228 923.603 101.924V101.893ZM940.821 77.6372C943.618 80.0879 945.754 82.0987 947.419 83.7954C950.216 82.0045 952.792 79.9936 955.243 77.6372H940.821Z" fill="white"/>
<path d="M418.097 32.519C418.097 35.221 418.192 37.169 418.443 39.2741H408.546C408.829 37.169 408.891 35.3467 408.891 32.519V9.95987H403.613C400.785 9.95987 400.031 9.99129 396.858 10.2741V1.728C398.335 1.91651 400.785 2.04219 403.519 2.04219H423.124C426.266 2.04219 428.057 1.94793 430.1 1.728V10.2741C428.089 10.0541 426.329 9.95987 423.124 9.95987H418.066V32.519H418.097Z" fill="white"/>
<path d="M455.392 39.3055C455.047 37.169 454.764 36.0065 454.324 34.4669L453.13 30.6652H440.374L439.18 34.4669C438.583 36.2579 438.3 37.6403 438.049 39.3055H427.555C428.214 37.9545 428.623 36.8862 429.691 33.8386L439.368 6.88076C440.185 4.6814 440.562 3.33037 440.814 2.04218H452.502C452.816 3.33037 453.13 4.49289 454.01 6.88076L463.718 33.8386C464.567 36.2264 465.289 38.0488 465.855 39.3055H455.361H455.392ZM446.658 9.7085L442.479 23.156H450.899L446.658 9.7085Z" fill="white"/>
<path d="M478.831 2.04218C478.548 3.8645 478.485 5.40405 478.485 8.67166V32.676C478.485 35.7551 478.58 37.4204 478.831 39.3055H468.965C469.248 37.546 469.311 35.6923 469.311 32.676V8.67166C469.311 5.30979 469.217 4.02159 468.965 2.04218H478.831Z" fill="white"/>
<path d="M492.561 27.1463C492.75 28.7486 493.064 29.5655 493.724 30.4453C494.792 31.7963 496.677 32.5504 498.971 32.5504C502.427 32.5504 504.469 31.0423 504.469 28.5287C504.469 27.1463 503.747 25.9209 502.584 25.3868C501.641 24.9469 500.51 24.6327 495.86 23.5644C491.744 22.6533 490.299 22.1192 488.665 20.9566C485.837 18.9772 484.329 15.9924 484.329 12.3477C484.329 5.4669 489.891 1.09961 498.719 1.09961C504.406 1.09961 508.742 2.85909 511.162 6.18954C512.293 7.66625 512.827 9.01729 513.392 11.5623L503.904 12.5991C503.37 9.67709 501.767 8.48316 498.342 8.48316C495.609 8.48316 493.598 9.95987 493.598 12.0335C493.598 13.2903 494.258 14.2329 495.703 14.8927C496.311 15.165 498.374 15.6572 501.893 16.3694C505.286 17.0921 507.454 17.8461 509.151 18.9144C512.387 20.9252 513.989 23.9415 513.989 28.0574C513.989 31.4193 512.921 34.2784 510.847 36.2893C508.239 38.8028 504.312 40.091 499.065 40.091C495.263 40.091 491.493 39.2741 489.074 37.8917C486.843 36.6349 485.178 34.7183 484.235 32.1733C483.795 31.1051 483.575 30.0683 483.261 27.9946L492.561 27.1148V27.1463Z" fill="white"/>
<path d="M552.227 2.04218C551.944 3.8645 551.881 5.52972 551.881 8.67166V32.676C551.881 35.598 551.975 37.1062 552.227 39.3055H542.612C542.895 37.4204 542.958 35.7551 542.958 32.676V24.0043H527.877V32.676C527.877 35.598 527.971 37.2947 528.222 39.3055H518.608C518.891 37.4832 518.954 35.818 518.954 32.676V8.67166C518.954 5.59256 518.859 3.95876 518.608 2.04218H528.222C527.939 4.14727 527.877 5.90676 527.877 8.67166V16.118H542.958V8.67166C542.958 5.59256 542.864 3.80166 542.612 2.04218H552.227Z" fill="white"/>
<path d="M567.685 2.04218C567.402 3.8645 567.339 5.40405 567.339 8.67166V32.676C567.339 35.7551 567.434 37.4204 567.685 39.3055H557.819C558.102 37.546 558.165 35.6923 558.165 32.676V8.67166C558.165 5.30979 558.071 4.02159 557.819 2.04218H567.685Z" fill="white"/>
<path d="M594.643 20.3597C595.931 22.2763 596.779 23.7215 597.879 25.701C597.69 23.6273 597.596 21.585 597.596 19.0715V8.82877C597.596 5.87535 597.502 4.08445 597.25 2.01077H606.802C606.519 4.02161 606.456 5.90677 606.456 8.82877V32.6132C606.456 35.3467 606.582 37.4204 606.802 39.2741H596.999C596.182 37.5775 595.177 35.9123 593.637 33.5872L585.343 21.0823C584.149 19.2914 583.363 17.9404 582.106 15.5839C582.326 17.5948 582.421 20.0769 582.421 22.2448V32.2676C582.421 35.3467 582.515 37.3261 582.766 39.2427H573.215C573.497 37.4832 573.56 35.5352 573.56 32.2048V8.7031C573.56 6.09529 573.466 4.08445 573.215 2.04219H582.923C583.363 3.23613 584.369 5.02703 586.097 7.63484L594.611 20.3597H594.643Z" fill="white"/>
<path d="M649.281 39.3055C648.935 37.169 648.653 36.0065 648.213 34.4669L647.019 30.6652H634.262L633.069 34.4669C632.472 36.2579 632.189 37.6403 631.937 39.3055H621.443C622.103 37.9545 622.512 36.8862 623.58 33.8386L633.257 6.88076C634.074 4.6814 634.451 3.33037 634.702 2.04218H646.39C646.705 3.33037 647.019 4.49289 647.898 6.88076L657.607 33.8386C658.455 36.2264 659.178 38.0488 659.744 39.3055H649.249H649.281ZM640.546 9.7085L636.368 23.156H644.788L640.546 9.7085Z" fill="white"/>
<path d="M685.476 39.3055C685.193 37.8603 684.659 36.0379 683.277 32.3305C681.831 28.4345 681.297 27.3976 680.198 26.4236C679.255 25.5753 678.124 25.1983 676.71 25.1983H672.154V32.5504C672.154 35.5981 672.248 37.2633 672.5 39.3055H662.885C663.168 37.2319 663.231 35.9123 663.231 32.5818V8.48317C663.231 5.71826 663.137 4.05304 662.885 1.8851C664.865 1.97936 666.499 2.01078 669.546 2.01078H681.203C688.461 2.01078 692.671 5.7811 692.671 12.2221C692.671 15.3954 691.791 17.909 690.032 19.5742C688.901 20.611 687.958 21.0823 685.79 21.805C688.084 22.5276 689.089 23.5645 690.535 26.7378C691.194 28.1831 691.823 29.6912 693.834 34.5298C694.336 35.7866 694.87 36.9177 695.97 39.2741H685.476V39.3055ZM679.129 17.5319C681.769 17.5319 683.371 15.9296 683.371 13.3532C683.371 10.7768 681.926 9.55142 679.161 9.55142H672.123V17.5319H679.098H679.129Z" fill="white"/>
<path d="M718.812 32.519C718.812 35.221 718.906 37.169 719.158 39.2741H709.261C709.543 37.169 709.606 35.3467 709.606 32.519V9.95987H704.328C701.5 9.95987 700.746 9.99129 697.573 10.2741V1.728C699.049 1.91651 701.5 2.04219 704.233 2.04219H723.839C726.981 2.04219 728.772 1.94793 730.814 1.728V10.2741C728.803 10.0541 727.044 9.95987 723.839 9.95987H718.781V32.519H718.812Z" fill="white"/>
<path d="M742.502 27.1463C742.691 28.7486 743.005 29.5655 743.665 30.4453C744.733 31.7963 746.618 32.5504 748.912 32.5504C752.368 32.5504 754.41 31.0423 754.41 28.5287C754.41 27.1463 753.687 25.9209 752.525 25.3868C751.582 24.9469 750.451 24.6327 745.801 23.5644C741.685 22.6533 740.24 22.1192 738.606 20.9566C735.778 18.9772 734.27 15.9924 734.27 12.3477C734.27 5.4669 739.832 1.09961 748.66 1.09961C754.347 1.09961 758.683 2.85909 761.102 6.18954C762.234 7.66625 762.768 9.01729 763.333 11.5623L753.845 12.5991C753.31 9.67709 751.708 8.48316 748.283 8.48316C745.55 8.48316 743.539 9.95987 743.539 12.0335C743.539 13.2903 744.199 14.2329 745.644 14.8927C746.252 15.165 748.315 15.6572 751.834 16.3694C755.227 17.0921 757.395 17.8461 759.092 18.9144C762.328 20.9252 763.93 23.9415 763.93 28.0574C763.93 31.4193 762.862 34.2784 760.788 36.2893C758.18 38.8028 754.253 40.091 749.006 40.091C745.204 40.091 741.434 39.2741 739.015 37.8917C736.784 36.6349 735.119 34.7183 734.176 32.1733C733.736 31.1051 733.516 30.0683 733.202 27.9946L742.502 27.1148V27.1463Z" fill="white"/>
<path d="M805.435 39.3055C805.09 37.169 804.807 36.0065 804.367 34.4669L803.173 30.6652H790.417L789.223 34.4669C788.626 36.2579 788.343 37.6403 788.092 39.3055H777.598C778.257 37.9545 778.666 36.8862 779.734 33.8386L789.411 6.88076C790.228 4.6814 790.605 3.33037 790.857 2.04218H802.545C802.859 3.33037 803.173 4.49289 804.053 6.88076L813.761 33.8386C814.61 36.2264 815.332 38.0488 815.898 39.3055H805.404H805.435ZM796.701 9.7085L792.522 23.156H800.942L796.701 9.7085Z" fill="white"/>
<path d="M843.987 39.3055C843.798 37.8602 843.484 36.2893 843.044 34.4984L839.651 21.3337C839.211 19.5742 838.834 17.5319 838.394 14.5785C838.111 16.4008 837.577 19.2286 837.043 21.3337L833.744 34.5298C833.147 36.7606 832.896 38.0802 832.77 39.2741H823.847C823.627 37.9859 823.407 37.0433 822.716 34.4355L815.552 7.57199C814.924 5.27837 814.295 3.23611 813.855 2.01076H824.067C824.098 3.61315 824.35 5.05844 824.695 6.9436L827.554 20.5482C827.68 21.208 827.994 23.3131 828.528 26.8635C829.188 23.0931 829.502 21.4908 829.785 20.5482L833.367 6.66082C833.901 4.64998 834.184 3.26753 834.341 2.01076H842.321C842.51 3.17328 842.761 4.43005 843.358 6.53515L846.972 20.3282C847.317 21.7735 847.631 23.2502 848.228 26.8635C848.291 26.2979 848.406 25.3868 848.574 24.13C848.7 23.156 849.014 20.988 849.202 20.2654L852.03 6.91218C852.47 4.8385 852.658 3.55031 852.69 1.97934H862.87C862.43 3.17328 861.801 5.27837 861.204 7.54057L854.041 34.3727C853.444 36.4778 853.067 38.1744 852.91 39.2427H843.955L843.987 39.3055Z" fill="white"/>
<path d="M888.759 39.3055C888.414 37.169 888.131 36.0065 887.691 34.4669L886.497 30.6652H873.741L872.547 34.4669C871.95 36.2579 871.636 37.6403 871.416 39.3055H860.922C861.582 37.9545 861.99 36.8862 863.058 33.8386L872.735 6.88076C873.552 4.6814 873.929 3.33037 874.181 2.04218H885.869C886.183 3.33037 886.497 4.49289 887.377 6.88076L897.085 33.8386C897.934 36.2264 898.656 38.0488 899.222 39.3055H888.728H888.759ZM880.025 9.7085L875.846 23.156H884.266L880.025 9.7085Z" fill="white"/>
<path d="M924.923 39.3055C924.64 37.8603 924.106 36.0379 922.724 32.3305C921.278 28.4345 920.744 27.3976 919.645 26.4236C918.702 25.5753 917.571 25.1983 916.157 25.1983H911.601V32.5504C911.601 35.5981 911.695 37.2633 911.947 39.3055H902.333C902.615 37.2319 902.678 35.9123 902.678 32.5818V8.48317C902.678 5.71826 902.584 4.05304 902.333 1.8851C904.312 1.97936 905.946 2.01078 908.993 2.01078H920.65C927.908 2.01078 932.118 5.7811 932.118 12.2221C932.118 15.3954 931.238 17.909 929.479 19.5742C928.348 20.611 927.405 21.0823 925.237 21.805C927.531 22.5276 928.536 23.5645 929.982 26.7378C930.641 28.1831 931.27 29.6912 933.281 34.5298C933.783 35.7866 934.317 36.9177 935.417 39.2741H924.923V39.3055ZM918.576 17.5319C921.216 17.5319 922.818 15.9296 922.818 13.3532C922.818 10.7768 921.373 9.55142 918.608 9.55142H911.57V17.5319H918.545H918.576Z" fill="white"/>
<path d="M939.533 8.48317C939.533 5.43549 939.439 3.95878 939.125 1.8851C940.915 1.97936 942.047 2.01078 945.754 2.01078H955.117C960.615 2.01078 965.045 3.51891 968.062 6.44091C971.329 9.6771 972.995 14.3586 972.995 20.3283C972.995 26.2979 971.204 31.3879 967.81 34.7812C964.794 37.7346 960.552 39.2741 955.211 39.2741H945.754C942.298 39.2741 941.041 39.3056 939.156 39.3998C939.439 37.4204 939.502 35.9437 939.502 32.8646V8.48317H939.533ZM954.394 31.4507C957.316 31.4507 959.359 30.6966 960.992 29.0628C962.815 27.1777 963.82 24.1928 963.82 20.4539C963.82 16.715 962.972 13.8559 961.212 12.1278C959.641 10.5568 957.505 9.8342 954.269 9.8342H948.393V31.4193H954.394V31.4507Z" fill="white"/>
<path d="M28.9686 165.391C11.5937 165.391 7.13219 165.58 0 166.177C0.785484 156.688 1.72806 150.907 4.0531 143.366C9.08019 127.311 18.3489 112.638 31.8906 100.071C39.2428 93.3154 46.5635 87.6914 66.2948 74.3696C82.9157 63.1529 86.9688 58.1258 86.9688 49.2341C86.9688 40.3424 78.6741 33.7758 66.2948 33.7758C57.0261 33.7758 50.4595 36.8549 46.1864 43.4215C43.4844 47.6631 42.3219 51.5277 41.3479 59.6653L0.785484 55.4551C3.67606 38.6458 7.16361 30.1311 14.8928 21.0509C25.8895 8.10614 43.4844 1.13104 66.0749 1.13104C92.153 1.13104 112.073 9.8342 121.719 25.481C125.96 32.2362 128.097 39.7769 128.097 48.0716C128.097 62.1789 122.316 74.1496 110.313 84.0153C103.935 89.6079 102.019 90.959 82.2873 104.689C65.4779 116.283 58.3143 123.038 53.8842 131.553H98.9081C113.392 131.553 122.284 131.176 129.825 130.202V166.711C118.608 165.737 110.502 165.36 96.7716 165.36H28.9686V165.391Z" fill="white"/>
<path d="M163.286 150.907C156.908 144.529 152.07 137.177 149.179 129.448C144.152 115.717 141.638 100.856 141.638 85.2092C141.638 64.9123 146.477 43.8614 153.798 31.6707C165.611 11.9707 185.688 1.13104 210.038 1.13104C228.796 1.13104 245.197 7.50917 257.01 19.1029C263.388 25.481 268.227 32.8332 271.118 40.5623C276.145 54.2926 278.658 69.1539 278.658 85.0207C278.658 105.318 273.82 126.557 266.468 138.748C254.874 158.071 234.577 168.879 210.038 168.879C191.092 168.879 175.069 162.689 163.286 150.907ZM181.258 83.6697C181.258 118.262 191.124 136.046 210.258 136.046C229.393 136.046 238.85 118.671 238.85 84.2666C238.85 49.8625 228.796 33.8386 210.07 33.8386C191.344 33.8386 181.29 52.1875 181.29 83.7011L181.258 83.6697Z" fill="white"/>
<path d="M296.127 14.61C296.127 11.2481 296.002 8.57745 295.593 5.43552H309.292C308.947 8.169 308.758 11.4052 308.758 14.61V16.0238H311.177C314.131 16.0238 315.67 15.961 317.744 15.6782V26.8007C315.733 26.5179 313.974 26.3922 311.586 26.3922H308.758V43.5786C308.758 45.4638 309.104 46.4064 309.952 47.0033C310.675 47.4746 311.774 47.726 313.031 47.726C314.759 47.726 316.047 47.3804 317.713 46.532L318.718 56.7119C315.702 57.6545 313.094 58.0629 309.449 58.0629C304.893 58.0629 301.72 57.3403 299.584 55.7065C297.039 53.7585 296.096 51.4963 296.096 46.9091V26.3922H293.551C291.415 26.3922 289.655 26.5179 287.707 26.8007V15.584C289.655 15.8667 291.32 15.9924 293.677 15.9924H296.096V14.5785L296.127 14.61Z" fill="white" stroke="white" stroke-width="0.73" stroke-miterlimit="10"/>
<path d="M325.662 56.9632C326.07 53.8213 326.196 50.9936 326.196 46.8462V11.2795C326.196 6.66086 326.07 3.77028 325.662 1.16248H339.549C339.141 4.1159 339.015 6.53518 339.015 11.2795V18.3803C339.015 18.9144 338.952 19.9827 338.952 20.5796C342.974 16.6836 347.215 15.0184 352.902 15.0184C357.458 15.0184 361.071 16.2752 363.553 18.7573C366.224 21.428 367.387 24.727 367.387 30.0369V46.8776C367.387 50.7736 367.575 54.1355 367.921 56.9318H353.97C354.379 53.6956 354.505 50.8993 354.505 46.8148V33.0531C354.505 30.3825 354.222 29.1571 353.436 28.026C352.494 26.8321 351.017 26.2037 349.132 26.2037C345.299 26.2037 341.685 28.7487 339.015 33.1788V46.7834C339.015 50.6165 339.141 53.4129 339.549 56.9004H325.662V56.9632Z" fill="white" stroke="white" stroke-width="0.73" stroke-miterlimit="10"/>
</g>
<defs>
<clipPath id="clip0_202_7611">
<rect width="974" height="169.665" fill="white"/>
</clipPath>
</defs>
</svg>
